<svg width="316" height="740" viewBox="0 0 316 740" fill="none" xmlns="http://www.w3.org/2000/svg">
<path fill-rule="evenodd" clip-rule="evenodd" d="M0 147.859V145.556C34.2303 159.46 48.8315 194.439 55.4497 228.517C56.6883 232.172 57.9559 235.741 59.2235 239.31C60.4911 242.878 61.7587 246.447 62.9974 250.102C60.5805 229.112 60.2189 207.677 61.2242 186.704C61.2242 186.704 61.1086 187.045 60.7669 186.929C53.7014 185.299 49.4049 176.613 53.0834 170.247C53.3146 169.564 54.1136 169.454 54.6815 170.026C56.7268 171.86 58.1991 174.262 59.2142 176.889C60.1187 178.717 61.1338 181.345 61.1237 183.625C61.3499 184.082 60.4353 184.534 59.8674 183.961C58.9538 182.535 58.4696 181.051 57.9654 179.505L57.9652 179.505L57.9651 179.504C57.7816 178.942 57.5955 178.371 57.385 177.792C57.0151 176.093 56.0196 174.703 55.1093 173.432C54.9189 173.166 54.7323 172.905 54.5558 172.648C52.822 177.77 56.2191 183.487 61.3448 185.222L61.6865 185.338C62.546 171.547 63.7472 157.871 65.4057 143.97C64.7223 143.739 64.3856 142.483 65.0741 141.574L65.1897 141.233C65.1897 141.233 65.647 141.007 65.7626 140.666C65.652 139.867 65.7676 139.525 65.8832 139.184C65.1998 138.953 64.6319 138.38 64.9787 137.355L65.0943 137.014C64.5314 135.301 63.9686 133.588 62.9485 132.101L62.7174 132.784C63.2802 134.497 63.9586 135.868 64.637 137.24C65.2048 137.813 64.2902 138.264 63.6068 138.033C63.4359 137.975 63.3794 137.861 63.3228 137.746C63.2663 137.632 63.2098 137.518 63.0389 137.46C62.9233 137.801 62.9233 137.802 62.5816 137.686C46.8727 130.085 33.2392 117.478 34.2345 98.7847C34.1239 97.9861 35.0385 97.5345 35.7219 97.7659C40.7321 99.8424 46.9886 103.863 52.4409 109.134C49.4108 97.8324 52.205 85.0768 62.3863 78.6277C63.1854 78.5175 63.8688 78.7489 63.9793 79.5475C64.8108 82.2915 65.8365 85.1826 66.9101 88.2087L66.9103 88.2092L66.9103 88.2093L66.9105 88.2098C68.1598 91.7311 69.474 95.4352 70.6225 99.3035C72.7131 90.8769 77.5375 83.3757 85.3117 79.5371C85.769 79.3113 86.3368 79.8841 86.5629 80.3413C88.3518 88.5587 88.201 96.8807 86.3415 104.624C91.382 99.8604 96.759 96.3522 102.82 93.0753C103.277 92.8495 104.302 93.1965 104.071 93.8795C102.779 102.196 99.2112 109.361 93.7085 115.491C99.5429 111.757 105.483 109.962 113.795 113.536C114.136 113.652 114.704 114.225 114.473 114.908C110.327 123.781 102.432 129.101 93.2912 132.477C87.9191 134.845 80.4968 136.519 73.994 136.601C79.0093 137.538 83.9139 137.675 88.5925 137.356C89.286 137.261 90.0117 137.176 90.7546 137.089C93.4349 136.776 96.3376 136.438 98.7536 135.467C101.555 134.084 101.474 132.6 101.343 130.188C101.324 129.843 101.304 129.48 101.291 129.095C101.523 128.412 102.322 128.302 102.548 128.759C108.342 134.146 97.8289 138.199 94.1756 138.865C87.7834 139.746 80.5972 139.598 73.8734 138.083C72.6121 139.559 70.8934 141.261 68.7225 142.048C68.2903 142.618 67.769 143.009 67.2991 143.361C67.0204 143.569 66.7598 143.764 66.5465 143.976C66.0044 149.123 65.5253 154.258 65.1142 159.382C66.1555 155.032 69.4251 150.871 73.1397 149.252C74.0543 148.8 74.9638 149.489 74.7327 150.172C74.019 156.781 70.9083 163.72 65.9834 168.143C65.5261 168.369 64.8427 168.137 65.0739 167.454C65.7481 166.09 66.4754 164.744 67.2066 163.391L67.2067 163.391C69.0969 159.893 71.0123 156.348 72.0994 152.325C69.0088 154.704 66.2499 159.479 66.4609 163.357C66.4559 164.497 64.9734 164.376 64.8629 163.577C64.8461 163.456 64.8316 163.334 64.8194 163.212C63.1372 186.054 62.8309 208.715 64.3343 231.525C66.2993 225.72 69.1738 220.603 74.0936 217.321C75.1238 216.528 75.8022 217.899 75.571 218.582C74.2895 224.618 71.2792 234.637 65.1082 237.115L64.7664 236.999C65.9673 249.204 67.3944 261.866 69.6204 274.418C69.844 275.445 70.0387 276.558 70.2335 277.67C70.4282 278.783 70.6229 279.895 70.8465 280.923C71.6607 277.392 72.8165 273.978 74.9975 270.91C75.686 270.001 76.8267 270.007 77.279 270.921C79.088 274.578 78.3845 278.907 77.4547 282.779C76.7562 285.968 75.3691 290.065 73.3037 292.792L73.0726 293.475C77.7508 319.036 81.7405 345.505 78.7753 371.143C79.4638 370.234 80.6096 369.1 81.6398 368.307C87.2383 340.515 93.4046 313.297 100.712 286.084L100.486 285.627C98.2444 276.495 98.0586 266.918 100.039 257.692C100.385 256.668 101.868 256.789 102.32 257.703C103.787 261.245 105.024 265.469 105.119 269.688C107.783 260.694 110.562 251.359 113.682 242.139L113.683 242.139C117.15 231.895 120.502 221.992 124.995 212.096C124.679 211.458 124.643 210.545 124.612 209.78V209.78C124.598 209.447 124.586 209.143 124.553 208.901C124.005 203.768 123.688 197.952 125.422 192.83C125.538 192.488 126.111 191.921 126.794 192.153C128.844 192.847 130.091 194.791 130.88 196.961C139.066 177.277 148.162 158.281 157.6 139.401C156.379 131.757 156.529 123.435 159.414 116.038C159.761 115.014 160.786 115.361 161.238 116.275C163.153 121.871 162.439 128.48 160.248 133.828C160.151 134.113 159.578 134.237 159.327 133.804C159.293 134.84 159.257 135.873 159.208 136.901C163.64 127.745 168.243 118.648 172.846 109.55L172.847 109.548L172.847 109.546L172.848 109.545L172.849 109.543L172.85 109.542L172.851 109.54L172.851 109.539L172.852 109.537L172.853 109.535L172.854 109.534L172.854 109.532C177.455 100.439 182.056 91.3458 186.486 82.1947C182.953 81.3795 180.46 77.4911 179.219 74.4068C178.32 71.4381 178.219 68.3594 178.46 65.3963C174.033 60.4723 169.38 55.0913 167.581 49.154C165.581 42.1384 165.913 35.2845 166.244 28.4514C166.49 23.3864 166.734 18.3328 166.029 13.2333C165.576 12.319 166.833 11.9831 167.4 12.5559C173.195 17.9425 178.185 24.5793 181.803 31.8936C181.737 20.8343 186.12 10.1386 193.577 0.483977C193.808 -0.198961 194.949 -0.19342 195.401 0.720857C199.472 8.94935 202.055 18.1967 202.698 27.5487C206.392 17.7617 212.251 8.32737 223.769 9.18138C224.226 8.95558 225.136 9.64406 224.905 10.327C224.136 13.9488 223.736 17.6955 223.336 21.4422C223.07 23.94 222.803 26.4378 222.427 28.8986C228.844 22.3172 237.191 17.9113 245.951 23.5404C246.292 23.656 246.403 24.4547 246.287 24.7961C246.03 26.1736 245.363 26.7224 244.529 27.4093C243.845 27.9719 243.048 28.6274 242.272 29.9071C242.501 29.7942 242.7 29.7666 243.1 29.7116C243.499 29.6565 244.099 29.5739 245.126 29.3509C245.584 29.1251 246.151 29.6979 246.036 30.0394C245.327 35.5084 243.021 41.1977 239.463 46.0829C247.347 43.0429 255.89 45.9346 263.86 49.3936C264.885 49.7407 264.88 50.8807 264.308 51.448C263.278 52.3762 262.269 53.3044 261.269 54.2237L261.269 54.2239C254.821 60.1553 248.783 65.7102 240.276 68.4328C248.593 70.8674 257.81 76.2706 256.397 86.0686C256.166 86.7516 255.478 87.6603 254.453 87.3133C248.972 84.8857 242.355 84.2262 235.706 83.5635C224.675 82.464 213.558 81.3559 207.406 72.1495C207.235 72.0916 207.035 72.1192 206.836 72.1467C206.636 72.1742 206.436 72.2018 206.265 72.1439C203.16 77.9433 196.3 81.3303 189.797 81.4128L189.109 83.4453C189.288 82.941 189.799 82.5553 190.476 82.7842C192.983 83.2524 195.496 82.5806 198.008 81.9087C199.38 81.2313 201.21 80.3281 203.26 81.0221C203.602 81.1378 203.828 81.5949 203.597 82.2779C202.561 84.211 199.25 84.993 197.194 85.439C194.682 86.1109 192.516 85.7584 189.782 84.833C189.448 84.72 189.237 84.5123 189.129 84.2697C189.137 84.3866 189.133 84.4993 189.099 84.6016C189.185 85.2252 188.996 85.2914 188.691 85.3979C188.605 85.4278 188.511 85.4609 188.41 85.5104C185.301 92.446 182.308 99.0405 179.314 105.635L179.314 105.637L179.309 105.646C181.827 103.834 184.113 102.705 186.968 102.149C187.31 102.265 188.219 102.953 187.988 103.636C184.882 109.435 179.269 114.767 173.208 118.043C169.721 125.453 166.177 132.844 162.634 140.235L162.634 140.236L162.634 140.236L162.633 140.237L162.633 140.237L162.633 140.238L162.633 140.238L162.633 140.238L162.633 140.239L162.632 140.239L162.632 140.24C153.774 158.716 144.916 177.193 136.93 195.964C139.458 191.872 142.327 187.896 145.538 184.035C145.197 183.919 144.971 183.462 145.086 183.121C154.76 162.418 169.339 141.853 188.561 128.949C199.255 121.814 210.717 116.399 222.185 110.982L222.185 110.982C231.819 106.431 241.457 101.879 250.648 96.3016C251.221 95.7343 252.472 96.5385 252.126 97.5629C233.909 141.254 192.957 166.594 151.805 185.775C151.232 186.343 150.438 185.313 151.011 184.745C158.464 179.751 166.457 175.544 174.469 171.327C185.523 165.51 196.613 159.674 206.37 151.723C216.33 143.677 225.838 134.716 233.527 124.379C234.083 123.644 234.635 122.924 235.181 122.211C237.338 119.394 239.406 116.693 241.331 113.7C243.738 111.089 245.236 107.79 246.05 104.26C235.877 116.097 222.945 124.288 209.934 132.528C202.853 137.013 195.749 141.513 189.053 146.623C163.755 166.224 139.242 189.135 127.246 218.947L127.13 219.289C126.264 221.848 125.283 224.465 124.302 227.081L124.302 227.081L124.302 227.082L124.302 227.082L124.302 227.082L124.302 227.083L124.302 227.083L124.301 227.083L124.301 227.084L124.301 227.084L124.301 227.084L124.301 227.085L124.301 227.085L124.301 227.086L124.301 227.086L124.3 227.086L124.3 227.087L124.3 227.087L124.3 227.087L124.3 227.088L124.3 227.088C123.319 229.704 122.338 232.321 121.472 234.88C124.11 231.587 127.432 228.525 131.432 226.834C132.347 226.383 133.256 227.071 132.909 228.095C130.824 235.382 124.628 243.561 117.426 246.832C116.733 248.881 116.154 250.873 115.574 252.865C114.995 254.858 114.416 256.85 113.722 258.899C108.973 275.179 104.566 291.575 100.5 308.087C102.335 306.044 104.621 304.915 106.45 304.012C107.023 303.444 108.048 303.791 108.043 304.931C107.214 311.882 102.505 319.042 96.5553 323.117C93.1882 336.44 90.0473 350.22 87.248 364.116C96.5248 355.838 106.711 348.249 117.35 341.574L117.35 341.573C121.129 338.286 124.908 334.998 128.461 331.253C129.151 329.955 129.769 328.66 130.323 327.366C132.531 325.179 134.728 322.988 136.607 320.69C137.916 317.234 139.392 313.887 140.863 310.551C143.414 304.768 145.948 299.021 147.567 292.81C150.811 281.055 151.931 269.29 153.08 257.218L153.206 255.898C153.322 255.557 154.236 255.105 154.347 255.904C155.859 275.065 151.422 298.302 140.964 315.694C142.225 314.219 143.602 312.402 144.978 310.584L144.979 310.583C144.637 310.468 144.753 310.126 144.869 309.785C157.844 290.58 167.87 267.713 157.247 245.087C156.81 244.204 156.33 243.277 155.834 242.32C153.766 238.323 151.416 233.784 150.699 229.55C151.141 232.744 151.252 233.543 150.206 237.756C149.326 241.083 148.437 244.347 147.559 247.573L147.559 247.573C142.996 264.332 138.715 280.056 137.391 298.119C136.709 308.507 134.948 317.212 131.003 325.698C134.578 316.477 135.103 307.31 135.64 297.937C136.025 291.22 136.416 284.397 137.939 277.372C139.358 269.88 141.557 262.652 143.748 255.45L143.748 255.45C146.787 245.46 149.811 235.518 150.719 224.99C150.724 223.85 152.206 223.971 152.317 224.769C153.447 231.553 156.047 237.611 158.604 243.571C162.584 252.849 166.463 261.888 164.538 273.055C163.246 281.371 160.703 288.884 157.135 296.049C170.106 277.984 181.031 258.086 189.444 238.859C188.986 239.085 188.986 239.085 188.645 238.969C187.841 240.219 185.906 239.184 186.368 237.818C186.951 234.97 187.192 232.007 187.434 229.044C187.15 228.758 186.837 228.557 186.524 228.356C186.211 228.155 185.898 227.954 185.615 227.667C185.499 228.009 185.499 228.009 185.157 227.893C177.755 225.007 170.941 218.133 169.494 210.031C168.157 202.728 170.931 194.533 178.926 192.292C179.384 192.066 179.836 192.98 179.379 193.206C178.77 193.808 178.116 194.395 177.455 194.987C175.006 197.183 172.475 199.451 171.921 202.861C171.107 206.391 171.66 210.384 173.242 213.584C175.73 218.613 179.363 222.507 183.685 225.492C175.408 213.937 183.509 187.754 195.394 183.023C196.309 182.571 197.218 183.26 196.872 184.284C196.525 185.309 196.404 186.79 196.399 187.93C201.329 182.368 205.374 196.297 206.043 199.948C210.289 194.154 216.581 190.194 223.998 189.66C224.682 189.892 225.249 190.465 225.018 191.147C224.572 192.466 224.137 193.868 223.687 195.317C222.739 198.373 221.724 201.643 220.395 204.806C223.943 202.201 227.717 200.053 232.506 200.533C232.847 200.648 233.415 201.221 233.184 201.904C230.39 214.66 218.701 226.688 205.68 230.273L205.449 230.956C205.218 231.639 204.645 232.206 204.188 232.432C203.326 233.441 202.305 234.395 201.378 235.261L201.378 235.261C200.949 235.662 200.54 236.044 200.178 236.403C214.56 234.421 231.36 227.547 231.315 211.928C231.32 210.788 232.802 210.909 232.797 212.049C233.179 228.924 212.937 240.341 196.856 239.465C196.341 239.861 195.912 240.287 195.482 240.712L195.482 240.712L195.482 240.712L195.481 240.713L195.481 240.713C195.051 241.138 194.622 241.563 194.107 241.96C193.65 242.186 193.249 242.526 192.848 242.866C192.447 243.206 192.047 243.546 191.589 243.772C190.675 244.223 189.991 243.992 189.424 243.419C185.157 253.773 179.639 263.323 173.664 273.099C176.639 271.062 179.956 269.14 183.267 268.358C184.066 268.247 184.976 268.936 184.629 269.96C183.473 273.375 181.066 275.986 178.207 277.682C175.347 279.378 171.573 281.526 168.267 281.168C163.673 287.986 159.08 294.804 154.603 301.281C146.678 313.442 138.069 325.371 126.963 334.552C127.94 333.883 129.015 333.411 130.156 332.91C130.752 332.648 131.366 332.378 131.994 332.068C134.054 330.482 136.682 329.469 139.31 328.455C140.174 328.029 141.114 327.628 142.106 327.205L142.107 327.205C143.216 326.732 144.39 326.231 145.597 325.636C145.713 325.294 145.828 324.953 146.17 325.068C146.341 325.126 146.54 325.099 146.74 325.071H146.74C146.94 325.044 147.14 325.016 147.311 325.074C152.654 322.608 158.071 320.028 163.542 317.421L163.547 317.419L163.548 317.418C176.102 311.438 188.943 305.32 201.835 300.143L201.951 299.801C202.237 299.517 202.553 299.148 202.868 298.779C203.183 298.41 203.499 298.041 203.785 297.758C203.815 290.917 208.635 284.556 214.695 281.279C215.494 281.169 216.178 281.401 216.288 282.199C217.404 287.905 213.499 293.815 208.805 297.554C215.317 295.192 221.713 293.171 228.109 291.15L228.11 291.15L228.113 291.149C228.113 291.149 228.228 290.808 228.685 290.582C229.485 290.472 230.284 290.362 230.967 290.593C238.847 288.693 246.726 286.793 254.601 286.034L255.063 284.668C247.822 271.179 254.742 254.111 263.119 242.865C263.235 242.524 264.034 242.413 264.376 242.529L265.059 242.761C265.401 242.876 265.401 242.876 265.627 243.333L266.994 243.796C267.16 244.994 267.354 246.106 267.549 247.219C267.744 248.332 267.938 249.444 268.104 250.642C271.104 242.904 275.356 235.97 281.316 229.614C282.231 229.163 283.256 229.51 283.366 230.308C287.532 242.756 287.482 254.156 282.421 263.481C289.522 257.131 298.211 252.84 308.121 256.195C308.804 256.426 308.915 257.225 308.683 257.908C304.085 265.866 298.13 271.082 291.039 275.152C293.436 274.821 295.834 274.491 298.115 274.502C302.678 274.524 317.955 276.65 314.608 285.413C312.087 291.836 301.366 292.644 294.729 293.144C294.075 293.194 293.461 293.24 292.899 293.288C292.167 293.484 291.358 293.524 290.494 293.568H290.494C289.875 293.599 289.229 293.631 288.562 293.723C298.929 296.852 308.829 302.486 310.04 312.411C310.266 312.868 310.034 313.551 308.778 313.887C302.381 315.908 293.828 315.297 285.742 312.179C289.707 318.469 291.044 325.772 291.581 333.185C291.692 333.984 291.003 334.893 289.978 334.546C272.666 328.305 264.872 310.824 261.526 293.706L260.842 293.475L260.159 293.243C259.702 293.469 259.36 293.353 259.018 293.238C257.425 292.318 256.289 291.172 255.269 289.685L254.244 289.338C253.902 289.222 253.676 288.765 253.45 288.308C247.4 289.305 241.118 290.984 235.178 292.78C235.578 292.915 235.939 293.168 236.238 293.377C236.449 293.525 236.63 293.652 236.771 293.7C236.998 293.893 237.257 294.098 237.532 294.315C239.044 295.509 241.021 297.07 240.625 299.191C240.384 302.154 236.047 302.589 233.882 302.236C230.007 301.305 226.595 299.009 223.64 296.486C212.901 300.082 202.73 304.251 192.327 309.103C186.955 311.471 181.612 313.754 176.269 316.037C170.926 318.319 165.583 320.602 160.211 322.97C163.242 322.3 166.27 321.557 169.297 320.814L169.298 320.814C181.889 317.724 194.464 314.638 207.237 316.814C219.334 318.889 230.432 322.743 241.212 327.514C237.928 326.333 234.764 325.309 232.454 324.562C231.468 324.243 230.639 323.974 230.022 323.766C217.037 319.37 203.021 315.768 189.207 318.323C185.261 319.092 181.315 319.997 177.35 320.906C170.973 322.368 164.548 323.842 157.998 324.778C160.799 324.588 163.625 324.489 166.387 324.392C167.495 324.353 168.592 324.314 169.673 324.27C170.052 324.254 170.43 324.237 170.808 324.22C171.476 324.19 172.144 324.159 172.812 324.129C192.622 323.23 212.206 322.34 231.137 329.471C231.821 329.703 231.358 331.069 230.675 330.837C211.187 326.524 193.282 325.411 173.543 326.341C171.933 326.402 170.283 326.448 168.609 326.495H168.608H168.608C161.855 326.685 154.705 326.886 148.21 328.043L135.406 334.365C127.973 338.319 121.224 342.505 114.36 347.032C118.928 345.914 124.169 347.307 127.581 349.604C128.149 350.177 128.26 350.976 127.687 351.543C122.651 355.167 113.395 358.884 107.942 353.613C107.033 352.925 108.178 351.79 108.862 352.022C109.708 352.217 110.502 352.438 111.266 352.651C113.689 353.326 115.806 353.916 118.325 353.322C120.837 352.65 122.666 351.747 124.611 350.502C120.968 348.888 115.611 347.836 112.184 348.959L111.5 348.728C102.46 355.183 94.1026 361.869 86.1977 369.469L77.7999 411.156C80.6694 407.179 84.9058 403.666 88.6798 401.518C89.5944 401.066 90.7301 402.212 90.3833 403.236C88.5239 410.98 81.9859 419.043 75.2369 423.228C74.1311 428.741 73.0542 434.168 71.9773 439.595L71.9769 439.597L71.9766 439.599L71.9762 439.6L71.9758 439.602L71.9755 439.604L71.9751 439.606L71.9747 439.608L71.9744 439.61L71.974 439.611L71.9703 439.63L71.9682 439.641C70.8897 445.076 69.8111 450.511 68.7037 456.032C65.8073 470.178 63.3692 484.672 60.9005 499.347C59.891 505.348 58.8763 511.38 57.8232 517.43C60.5821 512.655 65.0496 508.459 69.5121 505.402C70.4267 504.95 71.2207 505.98 71.3313 506.779C71.6277 517.155 63.7077 528.176 55.1244 534.405L54.6671 534.63C51.0721 556.196 47.4125 577.952 43.0207 599.515C46.3275 596.464 49.7466 593.077 52.8272 589.574C63.3002 568.761 75.1399 548.411 87.5476 528.634L87.6632 528.292C84.618 520.411 84.8995 508.327 90.744 502.313C91.3169 501.746 92.342 502.093 92.4526 502.891C94.2516 508.828 93.4223 515.779 91.6835 522.041C94.3238 518.178 96.8498 514.372 99.3758 510.566L99.3771 510.564L99.3778 510.563L99.3798 510.56C101.906 506.754 104.431 502.948 107.071 499.086C105.85 491.441 106.122 481.638 109.8 475.271C110.373 474.704 111.514 474.709 111.624 475.508C113.202 479.848 113.866 484.64 113.272 489.767L121.881 477.838C121.71 477.78 121.425 477.779 121.14 477.777H121.14C120.855 477.776 120.569 477.774 120.398 477.717C119.715 477.485 119.378 476.23 120.177 476.119C121.549 475.442 122.806 475.106 124.062 474.77L126.127 472.044L126.243 471.702L141.048 451.595L141.279 450.912L141.394 450.57L141.168 450.113C141.231 448.802 141.209 447.463 141.186 446.123C141.163 444.783 141.141 443.443 141.204 442.133C128.449 437.054 120.655 419.573 124.932 406.938C125.163 406.255 125.736 405.688 126.42 405.92C132.008 406.289 136.782 410.188 140.41 415.222C140.335 406.443 140.496 395.841 146.913 389.26C151.727 384.039 158.516 396.613 159.757 399.697C160.994 403.921 161.431 408.256 161.069 412.7C166.004 405.998 172.532 400.215 180.075 397.059C180.532 396.834 181.557 397.181 181.668 397.979C183.11 407.221 180.215 416.898 174.476 424.851C182.823 420.445 191.16 418.319 200.613 421.899C201.638 422.246 201.633 423.386 201.06 423.954C193.045 430.755 183.436 436.637 173.039 440.349C180.34 440.156 187.753 440.763 194.361 442.619C195.044 442.85 195.266 444.447 194.351 444.899C185.667 448.049 169.451 452.075 158.973 448.147C157.943 448.94 156.571 449.618 155.314 449.954C154.857 450.18 154.405 449.265 154.862 449.039C155.149 448.756 155.406 448.558 155.664 448.359C155.921 448.161 156.179 447.963 156.465 447.679C151.892 449.937 147.55 451.512 142.525 452.856C140.917 455.356 139.224 457.827 137.531 460.298L137.53 460.299L137.529 460.3C135.836 462.772 134.143 465.243 132.535 467.743C136.766 465.369 142.249 463.8 147.038 464.279C148.178 464.284 148.515 465.54 147.827 466.449C142.555 471.896 133.866 476.186 125.876 477.287L111.75 498.767C110.825 501.498 109.785 504.571 108.292 506.73C108.177 507.072 107.151 506.725 107.267 506.383L107.383 506.042C106.19 507.996 105 509.942 103.814 511.883L103.797 511.911C97.3288 522.492 90.9555 532.918 84.7433 543.669C108.131 517.333 139.7 498.332 174.943 499.986C176.083 499.991 176.42 501.247 175.732 502.156C154.987 524.059 131.639 541.275 107.377 558.943C103.489 561.789 99.6255 564.684 95.7594 567.582L95.759 567.582L95.7585 567.583L95.7571 567.584C83.0088 577.139 70.2321 586.715 56.4554 594.608C47.5956 611.781 39.3037 629.526 31.2379 647.729C31.0017 649.552 30.5394 650.917 30.077 652.283C35.4642 646.495 42.6755 640.944 45.1882 640.272C46.4445 639.936 47.1229 641.307 46.4344 642.216C46.1713 642.664 45.9071 643.116 45.6414 643.571C40.4522 652.443 34.7051 662.269 25.6747 667.539C19.6541 687.576 12.4929 707.607 3.8542 726.377C5.22622 725.018 6.52273 723.616 7.80704 722.227C12.4217 717.236 16.879 712.416 24.1163 710.399C25.0309 709.948 25.7093 711.319 25.4782 712.002C23.3257 723.543 11.1114 734.262 0 739.311V735.661C0.636586 735.226 1.27426 734.792 1.9113 734.359C10.1848 728.734 18.3504 723.182 22.6188 713.699C16.9605 715.751 12.8405 720.425 8.72404 725.095L8.72369 725.095C6.52276 727.592 4.3228 730.088 1.88925 732.181C1.52389 732.664 1.22221 733.275 0.899346 733.929L0.898693 733.93L0.898557 733.93L0.898469 733.931L0.898403 733.931L0.89835 733.931H0.898305C0.629833 734.475 0.346657 735.049 0 735.603V719.799C0.504475 718.683 1.00529 717.565 1.50249 716.446C0.945398 715.737 0.446123 714.995 0 714.226V682.137C0.405252 682.081 0.82907 682.192 1.19635 682.47C6.53817 686.942 7.63859 696.068 6.8043 704.159C8.18629 701.201 9.56829 698.244 10.6086 695.171C13.6591 676.032 13.6292 656.992 12.8003 638.062C7.68535 634.529 3.05793 629.162 0 623.194V615.079C1.11668 619.126 2.7401 622.689 5.21221 625.598C4.02613 621.545 2.52547 617.385 0 614.224V610.296C3.20346 612.919 5.12152 616.859 6.60428 620.361L6.69411 620.577L6.79029 620.809L6.9392 621.167L6.94434 621.179C8.35613 624.574 10.0589 628.668 10.8857 632.466C11.5199 632.946 12.0978 633.592 12.5822 634.134C12.7925 634.369 12.9851 634.584 13.1571 634.758C12.7853 628.542 12.2992 622.383 11.813 616.224C11.3269 610.066 10.8408 603.907 10.469 597.691C10.1876 596.835 9.82075 595.949 9.45391 595.064C9.08708 594.179 8.72024 593.293 8.43884 592.437C8.49411 592.836 8.57828 593.15 8.66245 593.464C8.74662 593.778 8.83079 594.092 8.88606 594.491C8.99661 595.29 8.19759 595.4 7.97146 594.943C7.40881 593.231 6.7608 591.489 6.11275 589.748L6.11217 589.746C5.46394 588.005 4.8157 586.263 4.25289 584.55C2.94293 582.522 1.51344 580.554 0 578.626V575.568C0.36885 576.046 0.733008 576.527 1.09207 577.01C0.731784 575.913 0.368536 574.826 0 573.744V566.037C2.46165 572.005 4.82749 578.195 6.53436 584.561C7.7806 586.505 8.91127 588.791 9.58463 591.302C9.59471 589.023 9.48921 587.084 9.38372 585.146L9.38367 585.145C6.9293 573.698 4.07138 562.651 0 551.809V540.233C3.85711 548.937 6.91168 558.005 9.12259 566.788C9.12767 565.639 9.12805 564.503 9.12843 563.377C9.12993 558.917 9.13137 554.603 9.42431 550.144C9.42683 549.574 9.48588 549.118 9.54493 548.662C9.60397 548.207 9.66302 547.751 9.66554 547.181C8.1576 541.719 7.01169 536.178 5.86486 530.633C4.27919 522.965 2.69175 515.29 0.143097 507.801C0.0954187 507.659 0.0477203 507.517 0 507.375V500.097C4.40334 511.373 8.12694 522.88 10.1783 534.414C12.3546 506.606 17.4957 479.041 27.0793 452.979C26.0897 418.771 32.628 384.828 50.8952 355.616C51.5837 354.708 53.2923 355.286 53.2873 356.426C52.5531 361.912 52.1618 367.35 51.7726 372.76C50.9735 383.866 50.1832 394.851 46.4523 405.873C44.0251 413.044 41.3718 419.757 38.7185 426.47L38.7181 426.471C39.58 425.05 40.3564 423.601 41.1328 422.151C41.9093 420.701 42.6857 419.251 43.5475 417.83C48.1458 409.872 52.9701 402.371 58.4779 395.101C58.4779 395.101 58.1362 394.985 58.2518 394.643L58.5985 393.619C55.5432 388.018 57.1766 379.817 60.0511 374.7C60.7396 373.792 61.8803 373.797 62.3326 374.712C65.5034 379.971 63.649 386.575 61.1162 391.807C65.82 385.787 70.4081 380.109 75.6797 374.662C76.4236 361.213 76.0268 347.758 75.057 334.87C74.8259 335.553 74.7103 335.894 74.0269 335.663C67.1925 333.35 62.7754 326.145 61.5493 319.641C61.4387 318.842 62.1272 317.934 63.1524 318.281C67.8208 320.241 72.4742 325.622 74.5043 330.877C72.9855 314.434 70.4599 297.986 67.8983 281.304C66.6039 272.875 65.3004 264.386 64.1129 255.808C62.8164 252.324 61.5489 248.755 60.2813 245.186C59.0137 241.617 57.7461 238.048 56.4496 234.565C56.1079 234.449 55.7662 234.333 55.8818 233.992C55.9396 233.821 55.883 233.707 55.8265 233.592C55.77 233.478 55.7134 233.364 55.7712 233.193C55.6573 233.155 55.5306 233.154 55.4038 233.153C55.1503 233.152 54.8968 233.151 54.7461 232.846C49.1041 224.423 42.1984 217.312 35.2759 210.184L35.2758 210.184C28.8497 203.567 22.4091 196.935 16.9514 189.225C10.2335 179.701 4.82354 169.674 0 159.298V155.892C7.54382 171.611 15.5537 187.087 27.9718 199.425C29.9304 201.401 31.9596 203.354 34.0001 205.317L34.0002 205.317L34.0008 205.318L34.0016 205.318C41.878 212.898 49.923 220.639 54.73 230.497C50.9045 220.469 47.0767 210.442 42.2234 201.205C31.4342 179.937 17.7663 165.165 0 150.062V147.964C25.8658 163.84 40.4543 189.195 51.2788 217.21C48.0226 205.451 44.309 193.918 38.309 183.514C28.5772 167.064 15.828 157.565 0 147.859ZM0 420.077V422.908C0.148743 423.298 0.163375 423.88 0 424.694V432.516C1.41517 428.655 2.73174 424.766 3.94827 421.172C4.17944 420.489 3.72719 419.575 2.92817 419.685C1.91631 419.74 0.940117 419.872 0 420.077ZM0 436.425V440.301C2.19461 438.802 3.94238 436.924 5.48586 434.633C5.03252 439.618 2.85075 444.13 0 448.406V451.714C4.5342 445.672 8.12123 439.161 7.66687 431.565C7.67191 430.425 6.64675 430.078 5.61656 430.871C3.80219 432.994 1.93062 434.704 0 436.425ZM241.212 327.514C245.958 329.614 250.642 331.892 255.323 334.275C252.648 331.956 246.76 329.51 241.212 327.514ZM255.323 334.275C258.044 335.66 260.764 337.08 263.495 338.521C264.405 339.21 264.168 341.033 263.028 341.027C259.272 341.759 255.423 342.66 251.517 343.575C237.607 346.831 222.973 350.258 209.272 346.809C204.614 345.615 200.045 344.344 195.515 343.083C177.548 338.083 160.2 333.256 140.426 334.161C139.742 333.93 139.632 333.131 141.577 331.887C157.105 328.77 171.467 331.348 186.277 335.98C209.061 342.931 227.303 345.3 251.168 340.058C257.504 338.575 257.868 336.482 255.323 334.275ZM131.003 325.698C130.706 326.337 130.396 326.975 130.074 327.612L130.323 327.366C130.561 326.81 130.788 326.254 131.003 325.698ZM159.47 129.867C159.579 128.97 159.712 128.093 159.843 127.224L159.843 127.224C160.159 125.139 160.468 123.103 160.419 120.946C159.835 123.925 159.603 126.906 159.47 129.867ZM42.7881 600.653C41.3795 607.526 39.8953 614.379 38.3138 621.199C41.6557 613.576 44.882 606.295 48.5657 598.788L47.6511 599.24C46.852 599.35 46.5103 599.234 46.2842 598.777C45.5855 599.122 45.0187 599.734 44.5347 600.257L44.5333 600.258C44.3842 600.419 44.243 600.571 44.1082 600.705C43.7226 601.214 43.0895 601.042 42.7881 600.653ZM173.596 275.55C173.453 275.692 173.31 275.834 173.081 275.947C173.423 276.062 173.533 276.861 173.533 276.861L176.277 275.506C178.222 274.262 180.167 273.017 181.202 271.084L177.086 273.116C176.571 273.512 176.085 273.824 175.599 274.135C175.112 274.446 174.626 274.757 174.111 275.154C173.882 275.267 173.739 275.408 173.596 275.55ZM219.302 206.91C218.758 207.392 218.214 207.874 217.641 208.441C214.415 215.722 209.706 222.882 203.64 227.299C210.037 225.278 215.867 222.684 220.681 217.463C224.691 213.492 227.792 208.833 229.641 203.369C230.566 200.637 220.963 205.379 220.963 205.379C220.39 205.946 219.846 206.428 219.302 206.91ZM209.133 197.569L206.269 200.405C206.211 200.576 206.182 200.661 206.21 200.718C206.239 200.776 206.324 200.805 206.495 200.862C206.379 201.204 206.207 201.431 206.035 201.658C205.863 201.885 205.691 202.113 205.575 202.454C206.223 210.666 204.243 219.891 198.173 225.448L197.71 226.814C206.057 222.408 212.018 216.053 216.169 206.04C218.128 201.375 219.631 196.936 221.134 192.497C217.37 192.364 213.942 193.488 211.194 195.983C210.279 196.434 209.706 197.002 209.133 197.569ZM189.052 224.264C189.106 224.948 189.16 225.632 189.157 226.202C193.871 217.903 194.017 210.721 193.605 200.686C193.057 195.553 192.851 190.535 193.671 185.865C182.916 192.881 176.413 218.844 186.871 227.331C186.76 226.533 186.764 225.678 186.768 224.823C186.772 223.968 186.775 223.113 186.665 222.314C186.67 221.174 188.61 221.069 188.946 222.325C188.944 222.895 188.998 223.579 189.052 224.264ZM189.821 230.994C189.936 230.653 190.052 230.311 190.509 230.085C192.233 227.243 194.298 224.517 196.705 221.907C197.278 221.339 197.736 221.114 198.419 221.345C201.404 217.027 203.48 212.021 203.505 206.32C203.625 204.839 199.952 184.185 195.821 189.638C195.706 189.979 195.364 189.863 195.364 189.863C195.194 193.4 195.505 197.239 195.821 201.127V201.127V201.128V201.128V201.128V201.128V201.128V201.128V201.128V201.129V201.129C196.673 211.65 197.555 222.539 189.032 228.824C189.258 229.281 189.484 229.738 189.027 229.964C189.082 230.363 189.052 230.734 189.022 231.104C188.991 231.475 188.961 231.845 189.017 232.244C189.074 232.074 189.247 231.846 189.419 231.619C189.591 231.392 189.763 231.165 189.821 230.994ZM123.17 237.739C125.577 235.128 127.301 232.287 128.683 229.329C123.422 232.496 119.979 237.039 118.245 242.161C119.849 240.801 121.452 239.441 123.17 237.739ZM222.748 112.216C209.045 118.487 195.324 124.766 183.746 134.17C168.404 146.865 156.7 162.313 147.267 180.053C161.662 164.018 179.821 151.34 197.967 138.67C214.505 127.124 231.033 115.585 244.693 101.517C237.614 105.413 230.184 108.813 222.748 112.216L222.748 112.216ZM194.617 75.0516C196.335 73.3498 198.054 71.648 200.34 70.519C200.51 70.019 200.862 69.5811 201.309 69.0258L201.309 69.0255C201.473 68.8223 201.649 68.6034 201.833 68.3601C201.376 68.5859 201.376 68.5859 201.034 68.4702C198.516 70.2821 196.566 72.6669 194.617 75.0516ZM252.186 83.882C257.081 86.3 248.799 75.8848 247.89 75.1964C244.478 72.8996 240.95 70.9443 237.533 69.7876C237.191 69.6719 236.849 69.5562 236.965 69.2148C228.17 71.5663 219.04 72.662 210.029 72.2762C217.661 77.9474 225.624 78.9684 234.445 80.0995C237.584 80.502 240.831 80.9183 244.211 81.563L244.686 81.66C247.341 82.2018 249.714 82.686 252.186 83.882ZM258.356 52.6935C259.747 51.5103 260.137 51.1781 257.468 50.2747C250.408 47.5041 243.232 45.0751 236.598 48.9192C228.799 58.4582 216.788 65.8105 205.029 67.9195L204.798 68.6025C205.481 68.8338 206.049 69.4066 206.16 70.2052L206.501 70.3209L206.843 70.4366C209.003 70.2892 211.203 70.1824 213.423 70.0748L213.424 70.0747C225.63 69.4827 238.432 68.8618 248.407 61.2896C251.498 58.9104 254.247 56.4156 256.996 53.9207C257.497 53.4239 257.966 53.0253 258.356 52.6935ZM237.307 43.4502C237.995 42.5414 243.975 31.6255 241.237 31.8402L237.091 40.7129C234.905 44.9206 232.493 48.6712 228.829 51.6177C222.301 57.4005 214.296 61.922 205.954 65.1878C213.15 63.0566 220.01 59.6696 226.191 54.9112C230.312 51.7389 234.206 48.1095 237.307 43.4502ZM221.729 32.0875C221.03 35.2764 219.99 38.3496 218.266 41.1915C213.321 50.1742 206.441 58.1215 198.994 65.496C199.851 65.2152 200.651 64.82 201.451 64.4249C202.251 64.0297 203.052 63.6346 203.909 63.3537C208.823 61.2114 214.195 58.8433 219 55.9023C228.266 49.9048 232.513 44.1109 237.347 34.3295C237.548 33.9321 237.966 33.306 238.474 32.5461C240.87 28.9568 245.259 22.3825 238.197 22.8187C231.811 23.405 227.455 27.1586 223.131 30.885C222.664 31.2875 222.197 31.6897 221.729 32.0875ZM189.889 9.13082C187.934 12.6556 185.863 16.5219 184.818 20.7352C183.426 25.9729 182.948 30.759 183.838 36.0078C186.32 42.1764 187.888 48.7966 187.973 55.2956L188.436 53.9297C188.325 53.1311 189.923 52.9109 190.376 53.8251C191.049 56.3366 191.722 58.8481 191.712 61.1283C199.542 44.7488 203.492 28.5786 197.296 10.877C194.14 2.19686 193.341 2.30699 189.889 9.13082ZM179.169 59.9272C179.516 58.9028 180.883 59.3655 180.536 60.3899C180.363 60.9021 180.275 61.4432 180.187 61.9844C180.099 62.5255 180.011 63.0666 179.837 63.5788C180.347 64.3223 180.943 65.0948 181.538 65.8673C182.134 66.6397 182.729 67.4122 183.239 68.1557C183.162 66.7319 183.331 65.1863 183.474 63.8789C183.526 63.4061 183.574 62.9645 183.606 62.571C183.38 62.1139 183.838 61.8881 184.295 61.6623C184.551 55.279 184.808 48.8957 183.124 42.6169C183.069 42.2176 182.928 41.7894 182.788 41.3612C182.647 40.933 182.506 40.5047 182.451 40.1054C182.456 38.9654 182.004 38.0511 181.551 37.1368C178.645 28.9784 173.601 21.5951 167.868 15.1055C168.725 16.3447 168.117 21.3745 167.676 25.0213L167.676 25.0216C167.489 26.5654 167.333 27.8613 167.33 28.517C166.727 35.9247 166.35 43.7896 170.199 50.4208C172.576 54.6507 175.526 58.3134 178.476 61.976L179.169 59.9272ZM185.363 78.1989C185.505 78.3421 185.646 78.4853 185.817 78.5432C183.888 76.3676 183.214 73.8561 183.456 70.893C182.888 70.3204 182.264 69.6336 181.64 68.9467L181.639 68.9463L181.639 68.946C181.015 68.2589 180.39 67.5718 179.822 66.999C179.928 68.9377 180.375 70.9921 181.28 72.8206C182.184 74.6492 183.43 76.5934 184.908 77.8547C185.079 77.9125 185.221 78.0557 185.363 78.1989ZM193.19 62.3895C192.732 62.6153 191.933 62.7255 191.707 62.2683C191.701 63.6491 191.527 65.1126 191.338 66.7103L191.337 66.7114L191.337 66.7118L191.337 66.7123L191.337 66.7129C191.214 67.7529 191.084 68.8497 190.988 70.0175L196.506 60.4675C197.31 59.2173 199.361 59.9113 199.24 61.3929L199.009 62.0758C209.557 50.042 218.96 39.1427 220.749 21.4798C220.874 18.8582 221.116 15.8951 221.583 13.3891C223.206 7.4685 209.125 18.6871 209.01 19.0286C206.598 22.7791 204.753 27.1024 202.909 31.4258L202.909 31.426C202.974 42.4853 200.074 53.3022 193.19 62.3895ZM183.309 103.955C180.681 104.969 178.163 106.78 175.988 108.708C175.41 110.415 174.606 111.666 173.801 112.916C177.349 110.311 180.897 107.706 183.309 103.955ZM102.085 276.237C102.556 271.605 102.998 267.259 101.727 262.831C100.677 268.184 101.109 273.659 101.767 279.591C101.86 278.453 101.973 277.337 102.085 276.237ZM126.281 204.919C126.05 205.602 126.045 206.742 126.156 207.541C127.191 205.608 127.769 203.9 128.462 201.851C128.93 199.346 129.055 196.724 126.895 195.231C126.196 198.42 126.181 201.84 126.281 204.919ZM104.043 306.622C102.098 307.867 99.9224 309.794 97.9726 312.179C97.6208 314.344 96.9273 316.392 96.1182 318.783C99.6711 315.038 102.767 311.518 104.043 306.622ZM105.468 122.958C108.131 120.489 114.203 114.861 109.573 113.63C100.334 111.274 93.8207 116.791 87.2873 122.325C84.1513 124.981 81.0108 127.641 77.5621 129.436C77.1601 130.061 76.8435 130.715 76.5268 131.369C76.2102 132.023 75.8936 132.677 75.4916 133.302C80.5119 133.099 85.6477 132.553 90.7886 130.868C95.5878 129.067 100.503 126.925 104.623 123.753C104.823 123.555 105.115 123.285 105.465 122.96L105.467 122.958L105.467 122.958L105.468 122.958ZM86.4521 105.423C86.3365 105.764 85.9948 105.649 85.6531 105.533C84.1454 111.112 81.497 116.686 76.7983 121.565L75.7581 124.639C76.3309 124.071 77.0144 124.303 77.3561 124.418C82.3864 121.935 86.7333 119.22 90.7436 115.249C95.3267 110.711 99.3419 105.6 100.739 99.2218C102.533 91.8785 91.4551 101.213 87.4342 104.601L87.4341 104.601L87.434 104.602C87.0279 104.944 86.6937 105.225 86.4521 105.423ZM58.5364 123.757C54.5867 114.047 45.9533 105.796 36.1641 100.96C36.2092 116.58 47.9079 128.152 60.7675 135.169C59.434 132.925 58.6674 129.699 58.0736 127.202L58.0736 127.201C57.9111 126.518 57.7615 125.888 57.6168 125.349C57.5062 124.55 58.0791 123.983 58.5364 123.757ZM64.3356 128.003C64.5718 126.18 65.1497 124.473 66.0693 122.881C66.6422 122.314 67.0995 122.088 68.3508 122.893C69.1599 120.502 69.6273 117.996 69.9791 115.832C69.1952 112.522 68.8686 108.986 69.2254 105.681C68.1151 100.359 66.2059 94.7658 64.3623 89.3652C63.7945 87.702 63.2329 86.057 62.7029 84.4437C60.9039 78.5065 55.4965 88.8551 54.6874 91.2454C53.5316 94.6601 52.7174 98.1905 53.0441 101.726C53.3707 105.262 53.9234 109.255 55.049 112.681C57.8883 115.545 60.039 119.318 61.5064 122.859C61.6772 122.917 61.7338 123.031 61.7903 123.146C61.8468 123.26 61.9034 123.374 62.0742 123.432C62.3004 123.889 62.1848 124.231 62.0692 124.572L62.4008 126.968C62.6847 127.254 62.8832 127.512 63.0817 127.769L63.0817 127.769C63.2802 128.027 63.4787 128.284 63.7627 128.571C64.22 128.345 64.22 128.345 64.3356 128.003ZM69.5368 125.578C69.5933 125.692 69.6498 125.806 69.592 125.977C70.8584 123.361 72.9239 120.635 75.2154 118.365C75.7883 117.798 76.13 117.914 76.8134 118.145C80.2558 113.602 83.3565 108.942 84.5224 103.247C85.4521 99.3755 88.5229 75.6764 80.2712 84.301C75.457 89.5221 72.4618 96.1202 71.2908 102.955C72.522 108.32 72.9541 113.794 72.0193 118.806L71.7881 119.489C71.4617 121.497 70.6465 123.012 69.7036 124.765L69.5717 125.01L69.4815 125.178C69.4237 125.349 69.4802 125.463 69.5368 125.578ZM69.5958 228.358C70.7466 226.083 71.4402 224.034 72.2493 221.644C68.9275 224.706 67.5405 228.804 65.9223 233.585C66.2034 233.213 66.4798 232.857 66.7503 232.507C67.8049 231.145 68.772 229.896 69.5958 228.358ZM75.4346 275.244C73.3642 279.111 72.3189 283.324 72.4143 287.543C72.6393 287.015 72.8676 286.495 73.0935 285.98C74.7196 282.273 76.22 278.852 75.4346 275.244ZM70.5244 329.068C68.9479 326.448 67.3483 323.789 64.6197 321.822C65.8559 326.046 68.8057 329.709 72.7856 332.579C71.9656 331.463 71.2475 330.27 70.5244 329.068ZM60.9506 377.669C62.0762 381.095 60.8048 384.851 59.5333 388.607C59.2067 385.071 59.3374 381.31 60.9506 377.669ZM32.6323 429.863L32.6322 429.864C32.0346 432.778 31.4349 435.702 30.7931 438.632L31.0509 438.046C35.9156 426.99 40.642 416.248 43.7186 404.948C46.4976 395.612 48.8194 386.503 49.0909 376.699C48.8648 376.242 49.267 362.677 49.267 362.677C35.3517 388.034 29.4114 415.709 28.2603 443.864L28.4915 443.181L28.6071 442.84C30.4968 428.256 33.4116 414.019 38.3767 400.475C38.7235 399.451 40.4321 400.029 40.0853 401.054C36.6169 410.434 34.6363 420.092 32.6323 429.863ZM3.13681 705.18C3.97399 698.531 4.82773 691.751 1.29178 686.689C0.00018239 695.005 -0.839155 704.236 2.43221 712.574C2.50537 710.195 2.8199 707.697 3.13681 705.18ZM27.519 663.216C32.675 658.11 37.2632 652.432 41.2835 646.181C37.5044 649.469 32.0067 654.459 28.7955 658.32C28.5593 660.143 28.0969 661.509 27.519 663.216ZM161.259 447.018C169.692 449.112 179.28 447.79 187.391 445.207C184.56 445.07 181.655 445.007 178.719 444.943H178.718C173.492 444.829 168.166 444.713 162.983 444.177C163.325 444.292 163.435 445.091 162.978 445.317L161.259 447.018ZM176.933 436.72C184.476 433.564 191.567 429.494 197.979 424.053C188.296 421.155 179.612 424.306 171.376 429.51C166.677 434.39 161.184 438.239 155.355 440.833C155.011 441.287 154.581 441.713 154.151 442.138L154.151 442.138C153.722 442.564 153.292 442.989 152.948 443.444C153.289 443.559 153.517 443.732 153.744 443.904C153.972 444.076 154.199 444.248 154.541 444.363C154.998 444.138 155.541 443.941 156.083 443.744L156.084 443.744C156.627 443.547 157.169 443.35 157.626 443.124C156.943 442.893 157.29 441.869 158.089 441.759C159.058 441.706 159.943 441.625 160.827 441.544C161.712 441.463 162.596 441.381 163.566 441.329C165.248 440.719 166.964 440.177 168.695 439.632L168.696 439.631L168.697 439.631L168.698 439.63L168.7 439.63L168.7 439.63L168.701 439.63L168.701 439.629L168.702 439.629L168.702 439.629L168.703 439.629C171.436 438.766 174.206 437.892 176.933 436.72ZM178.637 412.558C178.517 414.039 181.205 399.345 178.803 400.816C171.371 404.77 165.069 411.01 160.476 417.828C159.546 421.7 158.39 425.115 156.893 428.414C156.835 428.584 156.863 428.784 156.89 428.984C156.918 429.183 156.945 429.383 156.888 429.554L155.847 432.627C155.963 432.285 156.42 432.06 156.878 431.834C158.249 431.156 159.727 432.418 159.265 433.784C159.149 434.125 158.977 434.352 158.805 434.579C158.633 434.807 158.46 435.034 158.345 435.375C162.576 433.002 166.466 430.512 169.677 426.651C173.346 422.565 177.13 418.137 178.637 412.558ZM131.646 410.733C127.892 408.321 126.52 408.998 126.5 413.559C126.108 424.844 132.455 434.223 141.214 439.852C141.447 438.599 141.596 437.318 141.744 436.036C141.892 434.754 142.04 433.472 142.274 432.219C141.375 429.25 140.817 426.397 140.716 423.319C139.927 421.149 139.023 419.32 137.777 417.376C136.304 414.974 134.148 412.342 131.646 410.733ZM144.013 400.076C142.732 406.113 142.244 413.179 142.671 419.794C144.591 424.249 145.711 428.815 145.807 433.034L145.691 433.376C146.03 434.061 146.341 434.832 146.651 435.603C146.961 436.375 147.272 437.146 147.611 437.831L147.611 437.831C147.857 433.728 148.103 429.625 149.033 425.753C149.495 424.387 151.32 424.624 151.315 425.764C151.762 427.819 151.752 430.099 151.4 432.263L153.119 430.561C154.164 426.348 156.234 422.482 158.305 418.616C158.888 415.768 159.471 412.921 159.255 410.183C158.828 403.569 157.029 397.631 152.486 393.049C147.601 388.351 144.481 397.571 144.013 400.076ZM143.822 443.399L142.797 443.052L142.766 449.893C143.053 449.609 143.225 449.382 143.397 449.155C143.569 448.928 143.741 448.7 144.028 448.417C144.088 447.676 144.092 446.821 144.096 445.966C144.099 445.111 144.103 444.256 144.163 443.515L143.822 443.399ZM129.087 473.426L128.63 473.652C134.454 472.198 139.595 470.513 144.289 466.774C139.269 466.977 134.238 469.461 129.891 472.176C129.865 472.253 129.851 472.353 129.835 472.463C129.779 472.842 129.707 473.341 129.087 473.426ZM110.061 493.628C111.222 489.073 111.7 484.287 110.695 479.38C109.324 483.428 109.659 488.054 109.973 492.383C110.003 492.801 110.033 493.216 110.061 493.628ZM91.0706 505.849C92.2967 512.353 90.5579 518.615 88.819 524.877C87.9347 518.489 87.8544 510.849 91.0706 505.849ZM86.6276 556.106C78.7278 562.566 72.3054 570.287 65.883 578.009C65.741 578.282 65.5994 578.554 65.4584 578.825L65.3365 579.059L65.0077 579.689C63.1462 583.259 61.394 586.618 59.8978 590.065C74.1833 580.727 87.8632 570.778 101.646 560.754L101.646 560.754C106.739 557.051 111.845 553.337 117.001 549.64C128.443 541.715 139.66 533.333 149.967 524.262C152.258 521.993 170.37 502.243 170.37 502.243C133.861 503.206 102.051 525.17 79.4516 553.676C77.9565 556.405 76.4904 559.049 75.0242 561.693C73.558 564.336 72.0919 566.98 70.5968 569.709C75.0694 564.372 79.8837 559.151 85.6075 554.618C92.6152 549.012 99.7623 543.587 106.915 538.157C116.823 530.636 126.743 523.106 136.318 515.075C136.891 514.508 137.685 515.538 137.112 516.105C128.284 525.112 118.064 532.481 107.873 539.828C100.604 545.069 93.3502 550.3 86.6276 556.106ZM28.8004 466.942L28.7984 466.945C27.935 468.038 27.0755 469.125 26.2047 470.19L25.9735 470.873C26.6679 470.25 27.3758 469.631 28.0855 469.01L28.0858 469.01L28.0868 469.009L28.0879 469.008L28.0893 469.007C32.4122 465.228 36.8004 461.392 38.5871 456.113C34.8526 459.282 31.8029 463.142 28.8004 466.942ZM18.1743 560.256C16.6249 566.711 15.0724 573.18 13.1728 579.577C13.2281 579.976 13.169 580.432 13.11 580.888C13.0509 581.343 12.9919 581.799 13.0471 582.198C15.1836 576.72 17.3409 571.249 19.5002 565.773L19.5012 565.77L19.5026 565.766C26.0888 549.063 32.6935 532.312 38.7824 515.172C41.1767 508.098 42.6795 500.484 44.1894 492.835C45.3764 486.821 46.5679 480.785 48.2003 474.972C45.6991 478.661 43.1021 482.254 40.5117 485.838L40.5115 485.838C36.799 490.974 33.1002 496.091 29.717 501.446C19.3747 518.498 15.0779 535.692 13.0525 555.178C13.1923 555.461 13.1151 555.524 13.0085 555.612C12.9426 555.667 12.8655 555.731 12.8213 555.861C12.8602 558.165 12.8359 560.447 12.8119 562.699C12.7802 565.686 12.7489 568.62 12.8664 571.481C16.4747 555.195 21.1082 539.256 28.0182 524.468C28.591 523.901 29.2745 524.132 29.0433 524.815C23.9431 536.22 21.0641 548.215 18.1743 560.256ZM57.8016 526.97C62.541 521.916 67.21 516.938 68.0095 509.841C61.8284 514.599 56.5467 522.326 55.1446 529.844C56.0152 528.874 56.9086 527.922 57.7995 526.972L57.8016 526.97ZM80.5236 414.361C82.4734 411.977 84.0816 409.476 85.348 406.86C81.0011 409.575 77.5587 414.119 75.3676 419.467L75.1364 420.15C76.0534 419.128 76.9415 418.192 77.8296 417.256L77.83 417.256L77.8319 417.254L77.8331 417.252C78.7203 416.317 79.6075 415.382 80.5236 414.361ZM50.4408 535.864C56.7631 499.183 63.2009 462.161 70.2066 425.712C72.0441 416.616 73.8149 407.385 75.573 398.22L75.573 398.219L75.5731 398.219L75.5732 398.219L75.5732 398.218L75.5733 398.218L75.5734 398.217L75.5734 398.217L75.5735 398.217L75.5736 398.216L75.5736 398.216C77.0513 390.513 78.5199 382.857 80.0115 375.367C79.6673 375.822 79.2376 376.247 78.8079 376.673C78.3783 377.098 77.9486 377.524 77.6044 377.978L75.8555 386.52C75.5087 387.545 74.1418 387.082 74.373 386.399C74.4911 385.488 74.5238 384.547 74.5565 383.607C74.5891 382.666 74.6218 381.726 74.7399 380.814C57.8899 399.088 44.5626 420.457 34.9892 444.239C32.4514 450.611 30.3709 456.757 28.1748 463.245L28.1747 463.245C31.1597 458.928 35.0544 455.298 39.1751 452.126C40.2053 451.333 41.4566 452.137 41.4516 453.277C41.2002 458.52 37.8735 462.722 34.6623 466.583C33.5369 467.698 32.4111 468.934 31.2651 470.193C28.9107 472.778 26.4713 475.457 23.7774 477.361C18.5609 496.148 15.2792 515.969 13.5955 535.571C15.5806 525.206 18.5908 515.188 23.8775 506.32C27.9302 499.491 32.4178 493.296 36.9305 487.066L36.9307 487.065C39.3288 483.755 41.7339 480.434 44.0845 477.004C46.954 473.028 49.3662 469.277 51.894 465.185C52.4116 464.218 52.9581 463.166 53.5046 462.114C54.0511 461.062 54.5976 460.01 55.1153 459.044C56.0349 457.452 58.1957 458.945 57.2761 460.537C55.8941 463.494 54.1704 466.336 52.5623 468.836C53.3412 473.287 52.6376 477.616 50.7932 481.939C48.1785 498.344 42.551 513.729 36.9236 529.113C35.9856 531.678 35.0477 534.242 34.1237 536.811C33.7069 538.042 33.2908 539.278 32.8735 540.517C27.8525 555.431 22.6729 570.815 14.2934 584.143C14.1778 584.484 13.8361 584.368 13.4944 584.253C14.0735 593.319 15.0813 602.725 16.1065 612.293C18.2926 632.694 20.5578 653.834 18.9156 674.005C24.5793 657.273 29.3334 639.853 33.5197 621.859C36.1933 610.585 38.6407 598.854 40.9726 587.465C33.0076 582.865 29.6307 572.588 32.1786 563.936C32.5254 562.911 33.7817 562.575 34.3495 563.148C38.7818 566.932 41.7215 572.875 42.7215 578.922C43.9112 572.286 45.1492 565.748 46.3794 559.251L46.3796 559.25C47.8101 551.695 49.2301 544.195 50.5514 536.663C50.2097 536.547 50.3252 536.206 50.4408 535.864ZM33.8771 566.794C32.8217 573.288 35.2991 580.596 40.2992 584.953C40.163 584.23 40.0324 583.505 39.9018 582.779C38.8571 576.975 37.8124 571.171 33.8771 566.794ZM207.073 295.166C210.9 292.047 214.536 289.085 214.454 284.242C210.449 287.073 207.122 291.275 205.846 296.172C206.254 295.833 206.664 295.498 207.073 295.166ZM236.862 299.059C237.661 298.948 238.46 298.838 238.233 298.381C237.213 296.894 235.052 295.401 233.459 294.482C233.233 294.024 232.55 293.793 231.866 293.562C231.01 293.843 230.039 294.18 229.068 294.517L229.067 294.517L229.066 294.518L229.064 294.518L229.06 294.52C228.091 294.856 227.123 295.193 226.268 295.473C226.869 295.794 227.459 296.149 228.059 296.51C229.389 297.309 230.765 298.137 232.414 298.695C234.123 299.273 235.264 299.279 236.862 299.059ZM256.209 283.533L257.234 283.88C258.681 279.042 260.072 274.09 261.463 269.138L261.463 269.136C262.854 264.184 264.245 259.231 265.692 254.393C265.526 254.057 265.339 253.714 265.149 253.364C264.562 252.286 263.939 251.143 263.772 249.937L263.109 245.145C263.001 245.109 262.939 245.05 262.904 244.986C262.913 245.724 262.633 246.552 262.531 246.853C262.187 247.307 261.9 247.875 261.612 248.444L261.612 248.444L261.612 248.444C261.324 249.013 261.036 249.582 260.692 250.036C258.737 253.561 257.008 257.543 255.737 261.299C253.651 268.585 252.591 276.219 256.209 283.533ZM309.728 279.575C305.291 276.931 299.246 276.788 294.11 277.333L294.109 277.333H294.109L294.108 277.333L294.107 277.333C290.112 277.884 285.319 278.544 280.637 280.003C280.237 280.059 279.894 280.228 279.552 280.397C279.209 280.567 278.866 280.736 278.466 280.791C277.21 281.127 275.838 281.804 274.923 282.256C275.833 282.944 275.828 284.084 275.139 284.993C272.622 286.805 269.878 288.16 267.023 288.716C267.935 288.835 268.733 289.009 269.53 289.184L269.531 289.184C270.329 289.359 271.127 289.534 272.039 289.653C272.722 289.884 272.948 290.341 273.174 290.798C274.185 290.856 275.198 290.918 276.212 290.981C286.069 291.585 296.061 292.197 305.693 289.246C309.577 287.897 316.327 283.711 309.728 279.575ZM292.934 259.427C288.934 261.118 285.386 263.723 282.522 266.559C277.597 270.982 273.24 275.977 269.109 281.43C270.114 281.095 271.118 280.765 272.118 280.436C285.21 276.134 297.698 272.031 305.598 259.147C307.206 256.646 294.306 258.75 292.934 259.427ZM260.825 277.372C260.393 278.786 259.962 280.199 259.526 281.611C259.867 281.727 259.983 281.385 259.983 281.385C262.853 277.409 266.29 274.005 270.521 271.632C271.094 271.064 271.777 271.296 272.004 271.753C278.19 265.854 283.693 259.725 283.733 250.604C283.984 245.361 283.321 240.569 281.974 235.546C281.19 232.236 273.612 243.372 273.496 243.714C267.767 254.635 264.291 266.019 260.825 277.372ZM260.536 285.378C260.878 285.494 261.219 285.61 261.104 285.951C263.27 286.304 265.667 285.973 267.496 285.07C265.214 285.059 262.933 285.048 260.767 284.695L260.536 285.378ZM263.918 294.516C267.616 309.469 274.847 325.237 289.536 331.351C288.541 324.164 286.632 317.428 283.466 311.028C275.496 307.569 268.335 301.72 265.169 295.32C264.943 294.863 264.259 294.631 263.918 294.516ZM268.249 295.221C272.677 300.145 277.451 304.044 283.255 307.151C285.305 307.845 308.658 315.369 307.648 311.601C305.406 302.47 293.567 296.94 282.627 294.378C277.948 294.698 272.928 294.901 268.596 294.196L268.249 295.221ZM105.574 544.796C112.096 539.17 118.78 533.405 126.444 529.621C126.901 529.395 127.353 530.309 127.122 530.992C123.45 534.377 119.154 537.201 114.886 540.007L114.885 540.007C111.43 542.279 107.993 544.538 104.92 547.074C104.463 547.299 103.553 546.611 104.126 546.044C104.608 545.629 105.091 545.213 105.574 544.796ZM61.8594 455.998C55.1557 449.923 55.4373 437.84 57.0706 429.639C57.4173 428.614 58.8998 428.736 59.3521 429.65C61.729 433.88 62.8495 438.446 63.0555 443.463C63.124 444.205 63.2124 444.987 63.3039 445.796C63.6487 448.845 64.0377 452.286 63.573 455.437C64.2564 455.668 64.0252 456.351 63.5679 456.577L63.4523 456.918C63.3368 457.26 62.5377 457.37 62.3116 456.913C62.1004 456.841 62.0639 456.683 62.0134 456.465C61.9822 456.331 61.9457 456.173 61.8594 455.998ZM60.7539 448.012C60.73 446.958 60.7062 445.903 60.6534 444.934C60.3268 441.398 60.0002 437.862 58.8746 434.436C58.166 439.905 58.3669 446.063 60.8543 451.091C60.8016 450.122 60.7777 449.067 60.7539 448.012ZM35.5349 191.709C33.4566 187.872 30.3685 184.762 27.2879 181.659C25.5045 179.863 23.7236 178.069 22.1427 176.139C21.5748 175.566 20.5446 176.359 21.1125 176.932C23.5232 179.876 26.113 182.642 28.7413 185.45L28.7415 185.45C30.814 187.664 32.9105 189.904 34.962 192.276C35.1881 192.734 35.761 192.166 35.5349 191.709ZM59.7072 142.802C60.6218 142.351 60.1695 141.436 59.4861 141.205C59.0305 141.051 58.562 140.935 58.0935 140.818L58.0934 140.818C57.1565 140.586 56.2196 140.353 55.3855 139.817C53.7925 138.897 52.7724 137.41 51.7522 135.923C51.3 135.009 49.9281 135.686 50.3803 136.6C51.6215 139.685 55.5914 144.835 59.7072 142.802ZM255.49 291.283C256.053 292.996 256.616 294.708 257.978 296.311C258.339 296.837 258.814 297.307 259.272 297.759C260.109 298.586 260.89 299.358 260.812 300.315C261.038 300.772 260.465 301.34 260.124 301.224C258.184 301.329 256.37 298.812 255.35 297.324C254.103 295.38 253.541 293.667 253.551 291.387C253.556 290.247 255.495 290.143 255.49 291.283ZM173.374 106.301C173.143 106.984 172.118 106.637 172.349 105.954C172.696 104.93 173.389 102.881 173.4 100.601C171.138 96.0292 169.907 90.6647 171.299 85.427C171.53 84.7441 172.329 84.634 172.671 84.7496C179.51 85.923 177.762 94.4652 175.565 100.953L175.792 101.41C176.018 101.867 175.56 102.093 175.103 102.319C174.777 103.281 174.38 104.098 174.033 104.811C173.764 105.364 173.526 105.854 173.374 106.301ZM173.344 87.2611C176.646 88.7593 176.053 93.8869 174.435 98.6674C173.083 94.7845 172.415 91.1329 173.344 87.2611Z" fill="#AB5E47"/>
</svg>
