<svg width="316" height="740" viewBox="0 0 316 740" fill="none" xmlns="http://www.w3.org/2000/svg">
<path fill-rule="evenodd" clip-rule="evenodd" d="M315.083 147.859V145.556C280.853 159.46 266.251 194.439 259.633 228.517C258.395 232.172 257.127 235.741 255.859 239.31C254.592 242.878 253.324 246.447 252.086 250.102C254.503 229.112 254.864 207.677 253.859 186.704C253.859 186.704 253.974 187.045 254.316 186.929C261.382 185.299 265.678 176.613 262 170.247C261.768 169.564 260.969 169.454 260.402 170.026C258.356 171.86 256.884 174.262 255.869 176.889C254.964 178.717 253.949 181.345 253.959 183.625C253.733 184.082 254.648 184.534 255.216 183.961C256.129 182.535 256.613 181.051 257.118 179.505L257.118 179.505L257.118 179.504C257.301 178.941 257.488 178.371 257.698 177.792C258.068 176.093 259.063 174.703 259.974 173.432C260.164 173.166 260.351 172.905 260.527 172.648C262.261 177.77 258.864 183.487 253.738 185.222L253.396 185.338C252.537 171.547 251.336 157.871 249.677 143.97C250.361 143.739 250.697 142.483 250.009 141.574L249.893 141.233C249.893 141.233 249.436 141.007 249.32 140.666C249.431 139.867 249.315 139.525 249.2 139.184C249.883 138.953 250.451 138.38 250.104 137.355L249.989 137.014C250.552 135.301 251.114 133.588 252.134 132.101L252.366 132.784C251.803 134.497 251.124 135.868 250.446 137.24C249.878 137.813 250.793 138.264 251.476 138.033C251.647 137.975 251.704 137.861 251.76 137.746C251.817 137.632 251.873 137.518 252.044 137.46C252.16 137.801 252.16 137.802 252.501 137.686C268.21 130.085 281.844 117.478 280.849 98.7847C280.959 97.9861 280.044 97.5345 279.361 97.7659C274.351 99.8424 268.094 103.863 262.642 109.134C265.672 97.8324 262.878 85.0768 252.697 78.6277C251.898 78.5175 251.214 78.7489 251.104 79.5475C250.272 82.2917 249.246 85.1829 248.173 88.2092C246.923 91.7307 245.609 95.4351 244.46 99.3035C242.37 90.8769 237.546 83.3757 229.771 79.5371C229.314 79.3113 228.746 79.8841 228.52 80.3413C226.731 88.5587 226.882 96.8807 228.741 104.624C223.701 99.8604 218.324 96.3522 212.263 93.0753C211.806 92.8495 210.781 93.1965 211.012 93.8795C212.304 102.196 215.872 109.361 221.375 115.491C215.54 111.757 209.6 109.962 201.288 113.536C200.947 113.652 200.379 114.225 200.61 114.908C204.756 123.781 212.651 129.101 221.792 132.477C227.164 134.845 234.586 136.519 241.089 136.601C236.074 137.538 231.169 137.675 226.491 137.356C225.797 137.261 225.071 137.176 224.328 137.089C221.648 136.776 218.745 136.438 216.329 135.467C213.528 134.084 213.609 132.6 213.74 130.188C213.759 129.843 213.779 129.48 213.792 129.095C213.56 128.412 212.761 128.302 212.535 128.759C206.741 134.146 217.254 138.199 220.907 138.865C227.3 139.746 234.486 139.598 241.21 138.083C242.471 139.559 244.19 141.261 246.361 142.048C246.793 142.618 247.314 143.009 247.784 143.361C248.063 143.569 248.323 143.764 248.537 143.976C249.079 149.123 249.558 154.258 249.969 159.382C248.928 155.032 245.658 150.871 241.943 149.252C241.029 148.8 240.119 149.489 240.35 150.172C241.064 156.781 244.175 163.72 249.1 168.143C249.557 168.369 250.24 168.137 250.009 167.454C249.335 166.09 248.608 164.744 247.877 163.392L247.876 163.391C245.986 159.893 244.071 156.348 242.984 152.325C246.074 154.704 248.833 159.479 248.622 163.357C248.627 164.497 250.11 164.376 250.22 163.577C250.237 163.456 250.251 163.334 250.264 163.212C251.946 186.054 252.252 208.715 250.749 231.525C248.784 225.72 245.909 220.603 240.989 217.321C239.959 216.528 239.281 217.899 239.512 218.582C240.794 224.618 243.804 234.637 249.975 237.115L250.317 236.999C249.116 249.204 247.689 261.866 245.463 274.418C245.239 275.445 245.044 276.558 244.85 277.67C244.655 278.783 244.46 279.895 244.236 280.923C243.422 277.392 242.267 273.978 240.085 270.91C239.397 270.001 238.256 270.007 237.804 270.921C235.995 274.578 236.699 278.907 237.628 282.779C238.327 285.968 239.714 290.065 241.779 292.792L242.01 293.475C237.332 319.036 233.342 345.505 236.308 371.143C235.619 370.234 234.473 369.1 233.443 368.307C227.845 340.515 221.678 313.297 214.371 286.084L214.597 285.627C216.839 276.495 217.024 266.918 215.044 257.692C214.698 256.668 213.215 256.789 212.763 257.703C211.296 261.245 210.059 265.469 209.964 269.688C207.3 260.694 204.521 251.359 201.401 242.139C197.933 231.895 194.581 221.993 190.088 212.096C190.404 211.458 190.44 210.545 190.471 209.78V209.78C190.485 209.447 190.497 209.143 190.53 208.901C191.078 203.768 191.395 197.952 189.661 192.83C189.545 192.488 188.972 191.921 188.289 192.153C186.239 192.847 184.992 194.791 184.203 196.961C176.017 177.277 166.921 158.281 157.483 139.401C158.704 131.757 158.554 123.435 155.669 116.038C155.322 115.014 154.297 115.361 153.845 116.275C151.93 121.871 152.644 128.48 154.835 133.828C154.932 134.113 155.505 134.237 155.756 133.804C155.79 134.84 155.826 135.873 155.875 136.901C151.443 127.745 146.84 118.648 142.237 109.55L142.236 109.548L142.236 109.546L142.235 109.545L142.234 109.543L142.233 109.542L142.232 109.54L142.232 109.539L142.231 109.537L142.23 109.535L142.229 109.534L142.229 109.532C137.628 100.439 133.027 91.3458 128.597 82.1947C132.13 81.3795 134.623 77.4911 135.864 74.4068C136.763 71.4381 136.864 68.3594 136.623 65.3963C141.05 60.4723 145.703 55.0913 147.502 49.154C149.502 42.1384 149.17 35.2845 148.839 28.4514C148.593 23.3864 148.349 18.3328 149.054 13.2333C149.507 12.319 148.25 11.9831 147.683 12.5559C141.888 17.9425 136.898 24.5793 133.28 31.8936C133.346 20.8343 128.963 10.1386 121.506 0.483977C121.275 -0.198961 120.134 -0.19342 119.682 0.720857C115.611 8.94935 113.028 18.1967 112.385 27.5487C108.691 17.7617 102.832 8.32737 91.3139 9.18138C90.8566 8.95558 89.9471 9.64406 90.1782 10.327C90.9471 13.9488 91.347 17.6956 91.7469 21.4423C92.0134 23.9401 92.28 26.4379 92.6559 28.8986C86.2386 22.3172 77.8915 17.9113 69.1325 23.5404C68.7908 23.656 68.6802 24.4547 68.7958 24.7961C69.0527 26.1736 69.7196 26.7224 70.5544 27.4092C71.2383 27.9719 72.0349 28.6274 72.8111 29.9071C72.5824 29.7942 72.3827 29.7666 71.9832 29.7116C71.5836 29.6565 70.9844 29.5739 69.9567 29.3509C69.4994 29.1251 68.9315 29.6979 69.0471 30.0394C69.7558 35.5084 72.0625 41.1977 75.6204 46.0829C67.7357 43.0429 59.1927 45.9346 51.2227 49.3936C50.1975 49.7407 50.2026 50.8807 50.7755 51.448C51.8051 52.3762 52.8143 53.3044 53.8136 54.2237L53.8138 54.2239C60.2617 60.1553 66.3005 65.7102 74.8066 68.4328C66.4898 70.8674 57.2734 76.2706 58.6857 86.0686C58.9168 86.7516 59.6053 87.6603 60.6305 87.3133C66.1108 84.8857 72.7281 84.2262 79.3767 83.5635C90.408 82.464 101.525 81.3559 107.677 72.1495C107.848 72.0916 108.048 72.1192 108.247 72.1467C108.447 72.1742 108.647 72.2018 108.818 72.1439C111.923 77.9433 118.783 81.3303 125.286 81.4128L125.974 83.4453C125.795 82.941 125.284 82.5553 124.607 82.7842C122.1 83.2524 119.587 82.5806 117.075 81.9087C115.703 81.2313 113.873 80.3281 111.823 81.0221C111.481 81.1378 111.255 81.5949 111.486 82.2779C112.522 84.211 115.833 84.993 117.889 85.439C120.401 86.1109 122.567 85.7584 125.301 84.833C125.635 84.72 125.846 84.5123 125.954 84.2697C125.946 84.3866 125.95 84.4993 125.984 84.6016C125.898 85.2252 126.087 85.2914 126.392 85.3979C126.478 85.4278 126.572 85.4609 126.673 85.5104C129.782 92.446 132.775 99.0405 135.769 105.635L135.77 105.637L135.774 105.646C133.256 103.834 130.97 102.705 128.115 102.149C127.773 102.265 126.864 102.953 127.095 103.636C130.201 109.435 135.814 114.767 141.875 118.043C145.362 125.453 148.906 132.844 152.449 140.235L152.449 140.236L152.449 140.236L152.45 140.237L152.45 140.237L152.45 140.238L152.45 140.238L152.45 140.238L152.45 140.239L152.451 140.239L152.451 140.24C161.309 158.716 170.167 177.193 178.153 195.964C175.625 191.872 172.756 187.896 169.545 184.035C169.886 183.919 170.112 183.462 169.997 183.121C160.323 162.418 145.744 141.853 126.522 128.949C115.828 121.814 104.366 116.4 92.8985 110.982L92.8983 110.982C83.2642 106.431 73.6258 101.879 64.4347 96.3016C63.8618 95.7343 62.6105 96.5385 62.9573 97.5629C81.1745 141.254 122.126 166.594 163.278 185.775C163.851 186.343 164.645 185.313 164.072 184.745C156.619 179.751 148.626 175.544 140.614 171.327C129.56 165.51 118.47 159.674 108.713 151.723C98.7529 143.677 89.245 134.716 81.5562 124.379C80.9998 123.645 80.4482 122.924 79.9021 122.211C77.7455 119.395 75.6766 116.693 73.7518 113.7C71.3447 111.089 69.8471 107.79 69.033 104.26C79.2061 116.097 92.1378 124.288 105.149 132.528C112.23 137.013 119.334 141.513 126.03 146.623C151.328 166.224 175.841 189.135 187.837 218.947L187.953 219.289C188.819 221.848 189.8 224.465 190.781 227.081L190.781 227.081L190.781 227.082L190.781 227.082L190.781 227.082L190.781 227.083L190.781 227.083L190.782 227.083L190.782 227.084L190.782 227.084L190.782 227.084L190.782 227.085L190.782 227.085L190.782 227.086L190.782 227.086L190.783 227.086L190.783 227.087L190.783 227.087L190.783 227.087L190.783 227.088L190.783 227.088C191.764 229.704 192.745 232.321 193.611 234.88C190.973 231.587 187.651 228.525 183.651 226.834C182.736 226.383 181.827 227.071 182.174 228.095C184.259 235.382 190.455 243.561 197.657 246.832C198.35 248.881 198.929 250.873 199.509 252.865C200.088 254.858 200.667 256.85 201.361 258.899C206.11 275.179 210.517 291.575 214.583 308.087C212.748 306.044 210.462 304.915 208.633 304.012C208.06 303.444 207.035 303.791 207.04 304.931C207.869 311.882 212.578 319.042 218.528 323.117C221.895 336.44 225.036 350.22 227.835 364.116C218.558 355.838 208.372 348.249 197.733 341.574L197.733 341.573C193.954 338.286 190.175 334.998 186.622 331.253C185.932 329.955 185.314 328.66 184.76 327.366C182.552 325.179 180.355 322.988 178.476 320.69C177.167 317.234 175.691 313.887 174.22 310.551C171.669 304.768 169.135 299.021 167.516 292.81C164.272 281.055 163.152 269.29 162.003 257.218L161.877 255.898C161.761 255.557 160.847 255.105 160.736 255.904C159.224 275.065 163.661 298.302 174.119 315.694C172.858 314.219 171.481 312.402 170.105 310.584L170.104 310.583C170.446 310.468 170.33 310.126 170.214 309.785C157.239 290.58 147.213 267.713 157.836 245.087C158.273 244.204 158.753 243.277 159.249 242.32C161.317 238.323 163.667 233.784 164.384 229.55C163.942 232.744 163.831 233.543 164.877 237.756C165.757 241.083 166.646 244.347 167.524 247.573L167.524 247.573C172.087 264.332 176.368 280.056 177.692 298.119C178.374 308.507 180.135 317.212 184.08 325.698C180.505 316.477 179.98 307.31 179.443 297.937C179.058 291.22 178.667 284.397 177.144 277.372C175.725 269.88 173.526 262.652 171.335 255.45L171.335 255.45C168.296 245.46 165.272 235.518 164.364 224.99C164.359 223.85 162.877 223.971 162.766 224.769C161.636 231.553 159.036 237.611 156.479 243.571C152.499 252.849 148.62 261.888 150.545 273.055C151.837 281.371 154.38 288.884 157.948 296.049C144.977 277.984 134.052 258.086 125.639 238.859C126.097 239.085 126.097 239.085 126.438 238.969C127.242 240.219 129.177 239.184 128.715 237.818C128.132 234.97 127.891 232.007 127.649 229.044C127.933 228.758 128.246 228.557 128.559 228.356C128.872 228.155 129.185 227.954 129.468 227.667C129.584 228.009 129.584 228.009 129.926 227.893C137.328 225.007 144.142 218.133 145.589 210.031C146.926 202.728 144.152 194.533 136.157 192.292C135.699 192.066 135.247 192.98 135.704 193.206C136.313 193.808 136.967 194.395 137.628 194.987C140.077 197.183 142.608 199.451 143.162 202.861C143.976 206.391 143.423 210.384 141.841 213.584C139.353 218.613 135.72 222.507 131.398 225.492C139.675 213.937 131.574 187.754 119.689 183.023C118.774 182.571 117.865 183.26 118.211 184.284C118.558 185.309 118.679 186.79 118.684 187.93C113.754 182.368 109.709 196.297 109.04 199.948C104.794 194.154 98.5022 190.194 91.0849 189.66C90.4015 189.892 89.8336 190.465 90.0648 191.147C90.5112 192.466 90.9461 193.868 91.396 195.317L91.3961 195.318C92.3443 198.373 93.3591 201.643 94.6882 204.806C91.1404 202.201 87.3663 200.053 82.5772 200.533C82.2355 200.648 81.6677 201.221 81.8988 201.904C84.6931 214.66 96.382 226.688 109.403 230.273L109.634 230.956C109.865 231.639 110.438 232.206 110.895 232.432C111.757 233.441 112.779 234.395 113.705 235.261C114.134 235.662 114.543 236.044 114.905 236.403C100.523 234.421 83.7233 227.547 83.7684 211.928C83.7633 210.788 82.2809 210.909 82.2859 212.049C81.9042 228.924 102.146 240.341 118.227 239.465C118.742 239.861 119.172 240.287 119.601 240.712L119.601 240.712L119.602 240.713C120.031 241.138 120.461 241.563 120.976 241.96C121.433 242.186 121.834 242.526 122.235 242.866C122.636 243.206 123.036 243.546 123.494 243.772C124.408 244.223 125.092 243.992 125.66 243.419C129.926 253.773 135.444 263.323 141.419 273.099C138.444 271.062 135.127 269.14 131.816 268.358C131.017 268.247 130.107 268.936 130.454 269.96C131.61 273.375 134.017 275.986 136.876 277.682C139.736 279.378 143.51 281.526 146.816 281.168C151.41 287.986 156.003 294.804 160.48 301.281C168.405 313.442 177.014 325.371 188.12 334.552C187.143 333.883 186.068 333.411 184.927 332.91C184.331 332.648 183.717 332.378 183.089 332.068C181.029 330.482 178.401 329.469 175.773 328.455C174.909 328.029 173.969 327.628 172.977 327.205L172.976 327.205C171.867 326.732 170.693 326.231 169.486 325.636C169.37 325.294 169.255 324.953 168.913 325.068C168.742 325.126 168.543 325.099 168.343 325.071H168.343C168.143 325.044 167.943 325.016 167.772 325.074C162.429 322.608 157.012 320.028 151.541 317.421L151.536 317.419L151.535 317.418C138.981 311.438 126.14 305.32 113.248 300.143L113.132 299.801C112.846 299.517 112.53 299.148 112.215 298.779C111.9 298.41 111.584 298.041 111.298 297.758C111.268 290.917 106.448 284.556 100.388 281.279C99.5888 281.169 98.9053 281.401 98.7948 282.199C97.6793 287.905 101.584 293.815 106.278 297.554C99.7666 295.192 93.371 293.172 86.9755 291.151L86.9752 291.151L86.9749 291.151L86.9746 291.151L86.9742 291.151L86.9739 291.15L86.9736 291.15L86.9733 291.15L86.973 291.15L86.9726 291.15L86.9723 291.15L86.9704 291.149C86.9704 291.149 86.8548 290.808 86.3975 290.582C85.5985 290.472 84.7995 290.362 84.1161 290.593C76.2364 288.693 68.3567 286.793 60.4821 286.034L60.0197 284.668C67.261 271.179 60.341 254.111 51.9637 242.865C51.8481 242.524 51.0491 242.413 50.7074 242.529L50.0239 242.761C49.6822 242.876 49.6822 242.876 49.4561 243.333L48.0892 243.796C47.9234 244.994 47.7287 246.106 47.534 247.219C47.3392 248.332 47.1445 249.444 46.9787 250.642C43.9785 242.904 39.7271 235.97 33.767 229.614C32.8524 229.163 31.8272 229.51 31.7167 230.308C27.5509 242.756 27.6013 254.156 32.6619 263.481C25.5611 257.131 16.8723 252.84 6.96243 256.195C6.27899 256.426 6.16849 257.225 6.39966 257.908C10.9979 265.866 16.9529 271.082 24.0436 275.152C21.6465 274.821 19.2495 274.491 16.968 274.502C12.4051 274.524 -2.8718 276.65 0.475159 285.413C2.99594 291.836 13.717 292.644 20.3543 293.144C21.0079 293.194 21.6218 293.24 22.1845 293.288C22.9164 293.484 23.725 293.524 24.5886 293.568H24.589C25.2076 293.599 25.8544 293.631 26.5213 293.723C16.1542 296.852 6.25443 302.486 5.04346 312.411C4.81732 312.868 5.04852 313.551 6.30484 313.887C12.7021 315.908 21.2551 315.297 29.3407 312.179C25.3758 318.469 24.0392 325.772 23.5016 333.185C23.3911 333.984 24.0795 334.893 25.1047 334.546C42.4167 328.305 50.2107 310.824 53.5573 293.706L54.2408 293.475L54.9242 293.243C55.3815 293.469 55.7232 293.353 56.0649 293.238C57.658 292.318 58.7936 291.172 59.8138 289.685L60.8389 289.338C61.1806 289.222 61.4067 288.765 61.6329 288.308C67.6833 289.305 73.965 290.984 79.9049 292.78C79.5045 292.915 79.1438 293.168 78.845 293.377C78.6337 293.525 78.4534 293.652 78.3119 293.7C78.0849 293.893 77.8256 294.098 77.5511 294.315C76.0387 295.509 74.062 297.07 74.4576 299.191C74.6988 302.154 79.0356 302.589 81.2015 302.236C85.076 301.305 88.4881 299.009 91.443 296.486C102.182 300.082 112.353 304.251 122.756 309.103C128.128 311.471 133.471 313.754 138.814 316.037C144.157 318.319 149.5 320.602 154.872 322.97C151.841 322.3 148.813 321.557 145.786 320.814L145.785 320.814C133.194 317.724 120.619 314.638 107.846 316.814C95.7489 318.889 84.6512 322.743 73.8709 327.514C77.1545 326.333 80.3194 325.309 82.6293 324.562C83.6145 324.243 84.4442 323.974 85.0612 323.766C98.0465 319.37 112.062 315.768 125.876 318.323C129.822 319.092 133.768 319.997 137.733 320.906C144.11 322.368 150.535 323.842 157.085 324.778C154.284 324.588 151.458 324.489 148.696 324.392C147.588 324.353 146.491 324.314 145.41 324.27C145.031 324.254 144.653 324.237 144.275 324.22C143.607 324.19 142.939 324.159 142.271 324.129C122.461 323.23 102.877 322.34 83.9456 329.471C83.2622 329.703 83.7245 331.069 84.408 330.837C103.896 326.524 121.801 325.411 141.54 326.341C143.15 326.402 144.8 326.448 146.474 326.495H146.475H146.475C153.228 326.685 160.378 326.886 166.873 328.043L179.677 334.365C187.11 338.319 193.859 342.505 200.723 347.032C196.155 345.914 190.914 347.307 187.502 349.604C186.934 350.177 186.823 350.976 187.396 351.543C192.432 355.167 201.688 358.884 207.141 353.613C208.05 352.925 206.905 351.79 206.221 352.022C205.375 352.217 204.581 352.438 203.817 352.651C201.394 353.326 199.277 353.916 196.758 353.322C194.246 352.65 192.417 351.747 190.472 350.502C194.115 348.888 199.472 347.836 202.899 348.959L203.583 348.728C212.623 355.183 220.98 361.869 228.885 369.469L237.283 411.156C234.414 407.179 230.177 403.666 226.403 401.518C225.489 401.066 224.353 402.212 224.7 403.236C226.559 410.98 233.097 419.043 239.846 423.228C240.952 428.741 242.029 434.168 243.106 439.595L243.106 439.597L243.106 439.599L243.107 439.6L243.107 439.602L243.108 439.604L243.108 439.606L243.108 439.608L243.109 439.61L243.109 439.611L243.113 439.63L243.115 439.641C244.193 445.076 245.272 450.511 246.379 456.032C249.276 470.178 251.714 484.672 254.182 499.347C255.192 505.348 256.207 511.38 257.26 517.43C254.501 512.655 250.033 508.459 245.571 505.402C244.656 504.95 243.862 505.98 243.752 506.779C243.455 517.155 251.375 528.176 259.959 534.405L260.416 534.63C264.011 556.196 267.671 577.952 272.062 599.515C268.756 596.464 265.336 593.077 262.256 589.574C251.783 568.761 239.943 548.411 227.535 528.634L227.42 528.292C230.465 520.411 230.184 508.327 224.339 502.313C223.766 501.746 222.741 502.093 222.63 502.891C220.831 508.828 221.661 515.779 223.4 522.041C220.759 518.178 218.233 514.372 215.707 510.566L215.706 510.564L215.705 510.563L215.703 510.56C213.178 506.754 210.652 502.948 208.012 499.086C209.233 491.441 208.961 481.638 205.283 475.271C204.71 474.704 203.569 474.709 203.459 475.508C201.881 479.848 201.217 484.64 201.811 489.767L193.202 477.838C193.373 477.78 193.658 477.779 193.943 477.777H193.943C194.228 477.776 194.514 477.774 194.685 477.717C195.368 477.485 195.705 476.23 194.906 476.119C193.534 475.442 192.277 475.106 191.021 474.77L188.956 472.044L188.84 471.702L174.035 451.595L173.804 450.912L173.689 450.57L173.915 450.113C173.852 448.802 173.874 447.463 173.897 446.123C173.92 444.783 173.942 443.443 173.879 442.133C186.634 437.054 194.428 419.573 190.151 406.938C189.92 406.255 189.347 405.688 188.663 405.92C183.075 406.289 178.301 410.188 174.673 415.222C174.748 406.443 174.587 395.841 168.17 389.26C163.356 384.039 156.567 396.613 155.326 399.697C154.089 403.921 153.652 408.256 154.014 412.7C149.079 405.998 142.551 400.215 135.008 397.059C134.551 396.834 133.526 397.181 133.415 397.979C131.973 407.221 134.868 416.898 140.607 424.851C132.26 420.445 123.923 418.319 114.47 421.899C113.445 422.246 113.45 423.386 114.023 423.954C122.038 430.755 131.647 436.637 142.044 440.349C134.743 440.156 127.33 440.763 120.722 442.619C120.039 442.85 119.817 444.447 120.732 444.899C129.416 448.049 145.632 452.075 156.11 448.147C157.14 448.94 158.512 449.618 159.769 449.954C160.226 450.18 160.678 449.265 160.221 449.039C159.934 448.756 159.677 448.558 159.419 448.359C159.162 448.161 158.904 447.963 158.618 447.679C163.191 449.937 167.533 451.512 172.558 452.856C174.166 455.356 175.859 457.827 177.552 460.298L177.553 460.299L177.554 460.3C179.247 462.772 180.94 465.243 182.548 467.743C178.317 465.369 172.834 463.8 168.045 464.279C166.905 464.284 166.568 465.54 167.256 466.449C172.528 471.896 181.217 476.186 189.207 477.287L203.333 498.767C204.258 501.498 205.298 504.571 206.791 506.73C206.906 507.072 207.932 506.725 207.816 506.383L207.7 506.042C208.893 507.996 210.083 509.942 211.269 511.883L211.286 511.911C217.754 522.492 224.128 532.918 230.34 543.669C206.952 517.333 175.383 498.332 140.14 499.986C139 499.991 138.663 501.247 139.351 502.156C160.096 524.059 183.444 541.275 207.706 558.943C211.594 561.789 215.457 564.684 219.324 567.582L219.324 567.582L219.324 567.583L219.326 567.584C232.074 577.139 244.851 586.715 258.628 594.608C267.487 611.781 275.779 629.526 283.845 647.729C284.081 649.552 284.544 650.917 285.006 652.283C279.619 646.495 272.407 640.944 269.895 640.272C268.638 639.936 267.96 641.307 268.649 642.216C268.912 642.664 269.176 643.116 269.442 643.571C274.631 652.443 280.378 662.269 289.408 667.539C295.429 687.576 302.59 707.607 311.229 726.377C309.857 725.018 308.56 723.616 307.276 722.227C302.661 717.236 298.204 712.416 290.967 710.399C290.052 709.948 289.374 711.319 289.605 712.002C291.757 723.543 303.972 734.262 315.083 739.311V735.661C314.446 735.226 313.809 734.792 313.172 734.359C304.898 728.734 296.733 723.182 292.464 713.699C298.123 715.751 302.242 720.425 306.359 725.095L306.359 725.095C308.56 727.592 310.76 730.088 313.194 732.181C313.559 732.664 313.861 733.275 314.184 733.929L314.184 733.93L314.184 733.93L314.185 733.931L314.185 733.931L314.185 733.931L314.185 733.931C314.453 734.475 314.736 735.049 315.083 735.603V719.799C314.579 718.683 314.078 717.565 313.581 716.446C314.138 715.737 314.637 714.995 315.083 714.226V682.137C314.678 682.081 314.254 682.192 313.887 682.47C308.545 686.942 307.444 696.068 308.279 704.159C306.897 701.201 305.515 698.244 304.474 695.171C301.424 676.032 301.454 656.992 302.283 638.062C307.398 634.529 312.025 629.162 315.083 623.194V615.079C313.966 619.126 312.343 622.689 309.871 625.598C311.057 621.545 312.558 617.385 315.083 614.224V610.296C311.88 612.919 309.961 616.859 308.479 620.361C308.368 620.628 308.254 620.901 308.139 621.179C306.727 624.574 305.024 628.668 304.197 632.466C303.563 632.946 302.985 633.592 302.501 634.133L302.501 634.134L302.5 634.135L302.495 634.14L302.492 634.144L302.489 634.148C302.283 634.377 302.095 634.588 301.926 634.758C302.298 628.542 302.784 622.383 303.27 616.224C303.756 610.066 304.242 603.907 304.614 597.691C304.895 596.835 305.262 595.949 305.629 595.064C305.996 594.179 306.363 593.293 306.644 592.437C306.589 592.836 306.505 593.15 306.421 593.464C306.336 593.778 306.252 594.092 306.197 594.491C306.086 595.29 306.885 595.4 307.112 594.943C307.674 593.231 308.322 591.489 308.97 589.748L308.971 589.746C309.619 588.005 310.267 586.263 310.83 584.55C312.14 582.522 313.57 580.554 315.083 578.626V575.568C314.714 576.046 314.35 576.527 313.991 577.01C314.351 575.913 314.714 574.826 315.083 573.744V566.037C312.621 572.005 310.256 578.195 308.549 584.561C307.302 586.505 306.172 588.791 305.498 591.302C305.488 589.023 305.594 587.084 305.699 585.146L305.699 585.145C308.154 573.698 311.012 562.651 315.083 551.809V540.233C311.226 548.937 308.171 558.005 305.96 566.788C305.955 565.639 305.955 564.503 305.955 563.377C305.953 558.918 305.952 554.603 305.659 550.144C305.656 549.574 305.597 549.118 305.538 548.662C305.479 548.207 305.42 547.751 305.417 547.181C306.925 541.719 308.071 536.178 309.218 530.633C310.804 522.965 312.391 515.29 314.94 507.801C314.988 507.659 315.035 507.517 315.083 507.375V500.097C310.68 511.373 306.956 522.88 304.905 534.414C302.728 506.606 297.587 479.041 288.004 452.979C288.993 418.771 282.455 384.828 264.188 355.616C263.499 354.708 261.791 355.286 261.796 356.426C262.53 361.912 262.921 367.35 263.31 372.76C264.109 383.866 264.9 394.851 268.631 405.873C271.058 413.044 273.711 419.757 276.365 426.471L276.365 426.471C275.503 425.05 274.727 423.601 273.95 422.151C273.174 420.701 272.397 419.251 271.535 417.83C266.937 409.872 262.113 402.371 256.605 395.101C256.605 395.101 256.947 394.985 256.831 394.643L256.484 393.619C259.54 388.018 257.906 379.817 255.032 374.7C254.343 373.792 253.203 373.797 252.75 374.712C249.58 379.971 251.434 386.575 253.967 391.807C249.263 385.787 244.675 380.109 239.403 374.662C238.659 361.213 239.056 347.758 240.026 334.87C240.257 335.553 240.373 335.894 241.056 335.663C247.891 333.35 252.308 326.145 253.534 319.641C253.644 318.842 252.956 317.934 251.931 318.281C247.262 320.241 242.609 325.622 240.579 330.877C242.097 314.434 244.623 297.986 247.185 281.304C248.479 272.875 249.783 264.386 250.97 255.808C252.267 252.324 253.534 248.755 254.802 245.186C256.069 241.617 257.337 238.048 258.633 234.565C258.975 234.449 259.317 234.333 259.201 233.992C259.143 233.821 259.2 233.707 259.257 233.592C259.313 233.478 259.37 233.364 259.312 233.193C259.426 233.155 259.552 233.154 259.679 233.153C259.933 233.152 260.186 233.151 260.337 232.846C265.979 224.423 272.885 217.312 279.807 210.184C286.233 203.567 292.674 196.935 298.132 189.225C304.85 179.701 310.259 169.674 315.083 159.298V155.892C307.539 171.611 299.529 187.087 287.111 199.425C285.152 201.401 283.122 203.355 281.081 205.318C273.205 212.898 265.16 220.639 260.353 230.497C264.178 220.469 268.006 210.442 272.86 201.205C283.649 179.937 297.317 165.165 315.083 150.062V147.964C289.217 163.84 274.629 189.195 263.804 217.21C267.06 205.451 270.774 193.918 276.774 183.514C286.506 167.064 299.255 157.565 315.083 147.859ZM315.083 420.077V422.908C314.934 423.298 314.92 423.88 315.083 424.694V432.516C313.668 428.655 312.351 424.766 311.135 421.172C310.904 420.489 311.356 419.575 312.155 419.685C313.167 419.74 314.143 419.872 315.083 420.077ZM315.083 436.425V440.301C312.888 438.802 311.141 436.924 309.597 434.633C310.05 439.618 312.232 444.13 315.083 448.406V451.714C310.549 445.672 306.962 439.161 307.416 431.565C307.411 430.425 308.436 430.078 309.466 430.871C311.281 432.994 313.152 434.704 315.083 436.425ZM73.8709 327.514C69.1253 329.614 64.4411 331.892 59.7603 334.275C62.435 331.956 68.3225 329.51 73.8709 327.514ZM59.7603 334.275C57.0388 335.66 54.3185 337.08 51.588 338.521C50.6784 339.21 50.9146 341.033 52.0553 341.027C55.8106 341.759 59.6599 342.66 63.5664 343.575C77.4757 346.831 92.1104 350.258 105.811 346.809C110.469 345.615 115.038 344.344 119.568 343.083C137.535 338.083 154.883 333.256 174.657 334.161C175.341 333.93 175.451 333.131 173.506 331.887C157.978 328.77 143.616 331.348 128.806 335.98C106.022 342.931 87.7801 345.3 63.915 340.058C57.5791 338.575 57.2148 336.482 59.7603 334.275ZM184.08 325.698C184.377 326.337 184.687 326.975 185.009 327.612L184.76 327.366C184.522 326.81 184.295 326.254 184.08 325.698ZM155.613 129.867C155.504 128.97 155.371 128.093 155.24 127.224L155.24 127.224C154.924 125.139 154.615 123.103 154.664 120.946C155.249 123.925 155.48 126.906 155.613 129.867ZM272.295 600.653C273.703 607.526 275.188 614.379 276.769 621.199C273.427 613.576 270.201 606.295 266.517 598.788L267.432 599.24C268.231 599.35 268.573 599.234 268.799 598.777C269.498 599.122 270.064 599.734 270.548 600.257C270.698 600.418 270.84 600.571 270.975 600.705C271.36 601.214 271.993 601.042 272.295 600.653ZM141.487 275.55C141.63 275.692 141.773 275.834 142.002 275.947C141.66 276.062 141.55 276.861 141.55 276.861L138.806 275.506C136.861 274.262 134.916 273.017 133.881 271.084L137.997 273.116C138.512 273.512 138.998 273.824 139.484 274.135C139.971 274.446 140.457 274.757 140.972 275.154C141.201 275.267 141.344 275.408 141.487 275.55ZM95.7812 206.91C96.3252 207.392 96.8692 207.874 97.4421 208.441C100.668 215.722 105.377 222.882 111.443 227.299C105.046 225.278 99.2162 222.684 94.4019 217.463C90.3917 213.492 87.291 208.833 85.4417 203.369C84.517 200.637 94.1204 205.379 94.1204 205.379C94.6933 205.946 95.2372 206.428 95.7812 206.91ZM105.95 197.569L108.814 200.405C108.93 200.747 108.93 200.747 108.588 200.862C108.704 201.204 108.876 201.431 109.048 201.658C109.22 201.885 109.392 202.113 109.508 202.454C108.86 210.666 110.84 219.891 116.91 225.448L117.373 226.814C109.026 222.408 103.065 216.053 98.9145 206.04C96.9547 201.375 95.4522 196.937 93.9498 192.498L93.9493 192.497C97.7133 192.364 101.141 193.488 103.889 195.983C104.804 196.434 105.377 197.002 105.95 197.569ZM126.031 224.264C125.977 224.948 125.923 225.632 125.926 226.202C121.212 217.903 121.066 210.721 121.478 200.686C122.026 195.553 122.232 190.535 121.412 185.865C132.167 192.881 138.67 218.844 128.212 227.331C128.323 226.533 128.319 225.678 128.315 224.823C128.311 223.968 128.308 223.113 128.418 222.314C128.413 221.174 126.473 221.069 126.137 222.325C126.139 222.895 126.085 223.579 126.031 224.264ZM125.262 230.994C125.147 230.653 125.031 230.311 124.574 230.085C122.85 227.243 120.785 224.517 118.378 221.907C117.805 221.339 117.347 221.114 116.664 221.345C113.679 217.027 111.603 212.021 111.578 206.32C111.458 204.839 115.131 184.185 119.262 189.638C119.377 189.979 119.719 189.863 119.719 189.863C119.889 193.401 119.578 197.24 119.262 201.128V201.129V201.129C118.41 211.65 117.528 222.539 126.051 228.824C125.825 229.281 125.599 229.738 126.056 229.964C126.001 230.363 126.031 230.734 126.061 231.104C126.092 231.475 126.122 231.845 126.066 232.244C126.009 232.074 125.836 231.846 125.664 231.619C125.492 231.392 125.32 231.165 125.262 230.994ZM191.913 237.739C189.506 235.128 187.782 232.287 186.4 229.329C191.661 232.496 195.104 237.039 196.838 242.161C195.234 240.801 193.631 239.441 191.913 237.739ZM92.3349 112.216C106.038 118.487 119.759 124.766 131.337 134.17C146.679 146.865 158.383 162.313 167.816 180.053C153.421 164.018 135.262 151.34 117.116 138.67L117.116 138.67C100.578 127.124 84.05 115.585 70.3897 101.517C77.4692 105.413 84.8994 108.813 92.3349 112.216ZM120.466 75.0516C118.748 73.3498 117.029 71.648 114.743 70.519C114.573 70.019 114.221 69.5811 113.774 69.0258L113.774 69.0255C113.61 68.8223 113.434 68.6034 113.25 68.3601C113.707 68.5859 113.707 68.5859 114.049 68.4702C116.567 70.2821 118.517 72.6669 120.466 75.0516ZM62.8969 83.882C58.0023 86.3 66.2838 75.8848 67.1934 75.1964C70.6055 72.8996 74.1332 70.9443 77.5504 69.7876C77.8921 69.6719 78.2339 69.5562 78.1183 69.2148C86.9125 71.5663 96.0435 72.662 105.054 72.2762C97.4221 77.9474 89.4594 78.9684 80.6377 80.0995C77.4991 80.502 74.2518 80.9183 70.8719 81.563L70.3972 81.66C67.7419 82.2018 65.3686 82.686 62.8969 83.882ZM56.7271 52.6935C55.3363 51.5103 54.9459 51.1781 57.6149 50.2747C64.6754 47.5041 71.8514 45.0751 78.4849 48.9192C86.2842 58.4582 98.2947 65.8105 110.054 67.9195L110.285 68.6025C109.602 68.8338 109.034 69.4066 108.923 70.2052L108.582 70.3209L108.24 70.4366C106.08 70.2892 103.88 70.1824 101.66 70.0748L101.659 70.0747C89.4532 69.4827 76.6506 68.8618 66.6756 61.2896C63.585 58.9104 60.8362 56.4156 58.0873 53.9207C57.5855 53.4239 57.117 53.0253 56.7271 52.6935ZM77.7762 43.4502C77.0877 42.5414 71.1075 31.6255 73.8463 31.8402L77.9923 40.7129C80.1783 44.9206 82.5905 48.6712 86.254 51.6177C92.7819 57.4005 100.787 61.922 109.129 65.1878C101.933 63.0566 95.0734 59.6696 88.8923 54.9112C84.7715 51.7389 80.8769 48.1095 77.7762 43.4502ZM93.3545 32.0875C94.053 35.2764 95.0933 38.3496 96.817 41.1915C101.762 50.1742 108.642 58.1215 116.089 65.496C115.232 65.2152 114.432 64.82 113.632 64.4249C112.832 64.0297 112.031 63.6346 111.174 63.3537C106.26 61.2114 100.888 58.8433 96.0835 55.9023C86.8168 49.9048 82.5703 44.1109 77.7359 34.3295C77.5348 33.9321 77.1168 33.306 76.6094 32.546C74.2131 28.9568 69.8238 22.3825 76.8865 22.8187C83.2724 23.405 87.628 27.1587 91.952 30.885C92.419 31.2875 92.8857 31.6897 93.3545 32.0875ZM125.194 9.13082C127.149 12.6556 129.22 16.5219 130.265 20.7352C131.657 25.9729 132.135 30.759 131.245 36.0078C128.763 42.1764 127.195 48.7966 127.11 55.2956L126.647 53.9297C126.758 53.1311 125.16 52.9109 124.707 53.8251C124.034 56.3366 123.361 58.8481 123.371 61.1283C115.541 44.7488 111.591 28.5786 117.787 10.877C120.943 2.19686 121.742 2.30699 125.194 9.13082ZM135.914 59.9272C135.567 58.9028 134.2 59.3655 134.547 60.3899C134.72 60.9021 134.808 61.4432 134.896 61.9844C134.984 62.5255 135.072 63.0666 135.246 63.5788C134.736 64.3223 134.14 65.0948 133.545 65.8673C132.949 66.6397 132.354 67.4122 131.844 68.1557C131.921 66.7319 131.752 65.1863 131.609 63.8789C131.557 63.4061 131.509 62.9645 131.477 62.571C131.703 62.1139 131.245 61.8881 130.788 61.6623C130.532 55.279 130.275 48.8957 131.959 42.6169C132.014 42.2176 132.155 41.7894 132.296 41.3612C132.436 40.933 132.577 40.5047 132.632 40.1054C132.627 38.9654 133.079 38.0511 133.532 37.1368C136.438 28.9784 141.482 21.5951 147.215 15.1055C146.358 16.3447 146.966 21.3745 147.407 25.0213L147.407 25.0216C147.594 26.5654 147.75 27.8613 147.753 28.517C148.356 35.9247 148.733 43.7896 144.884 50.4208C142.507 54.6507 139.557 58.3134 136.607 61.976L135.914 59.9272ZM129.72 78.1989C129.578 78.3421 129.437 78.4853 129.266 78.5432C131.195 76.3676 131.869 73.8561 131.627 70.893C132.195 70.3204 132.819 69.6336 133.443 68.9467L133.444 68.9463L133.444 68.946C134.068 68.2589 134.693 67.5718 135.261 66.999C135.155 68.9377 134.708 70.9921 133.803 72.8206C132.899 74.6492 131.653 76.5934 130.175 77.8547C130.004 77.9125 129.862 78.0557 129.72 78.1989ZM121.893 62.3895C122.351 62.6153 123.15 62.7255 123.376 62.2683C123.382 63.6491 123.556 65.1126 123.745 66.7103L123.746 66.7114L123.746 66.7118L123.746 66.7123L123.746 66.7129C123.869 67.7529 123.999 68.8497 124.095 70.0175L118.577 60.4675C117.773 59.2173 115.722 59.9113 115.843 61.3929L116.074 62.0758C105.526 50.042 96.1235 39.1427 94.3343 21.4798C94.2086 18.8582 93.9673 15.8951 93.5 13.3891C91.8767 7.4685 105.958 18.6871 106.073 19.0286C108.485 22.7792 110.33 27.1026 112.174 31.426C112.109 42.4853 115.009 53.3022 121.893 62.3895ZM131.774 103.955C134.402 104.969 136.92 106.78 139.095 108.708C139.673 110.415 140.477 111.666 141.282 112.916C137.734 110.311 134.186 107.706 131.774 103.955ZM212.998 276.237C212.527 271.605 212.085 267.259 213.356 262.831C214.406 268.184 213.974 273.659 213.316 279.591C213.223 278.453 213.11 277.337 212.998 276.237ZM188.802 204.919C189.033 205.602 189.038 206.742 188.927 207.541C187.892 205.608 187.314 203.9 186.621 201.851C186.153 199.346 186.028 196.724 188.189 195.231C188.887 198.42 188.902 201.84 188.802 204.919ZM211.04 306.622C212.985 307.867 215.161 309.794 217.11 312.179C217.462 314.344 218.156 316.392 218.965 318.783C215.412 315.038 212.316 311.518 211.04 306.622ZM209.615 122.958C206.952 120.489 200.88 114.861 205.51 113.63C214.749 111.274 221.262 116.791 227.796 122.325C230.932 124.981 234.072 127.641 237.521 129.436C237.923 130.061 238.24 130.715 238.556 131.369C238.873 132.023 239.189 132.677 239.591 133.302C234.571 133.099 229.435 132.553 224.294 130.868C219.495 129.067 214.58 126.925 210.46 123.753C210.259 123.554 209.967 123.284 209.616 122.958L209.615 122.958ZM228.631 105.423C228.747 105.764 229.088 105.649 229.43 105.533C230.938 111.112 233.586 116.686 238.285 121.565L239.325 124.639C238.752 124.071 238.069 124.303 237.727 124.418C232.697 121.935 228.35 119.22 224.339 115.249C219.756 110.711 215.741 105.6 214.344 99.2218C212.55 91.8785 223.628 101.213 227.649 104.601L227.649 104.602L227.65 104.602L227.654 104.606C228.058 104.946 228.39 105.226 228.631 105.423ZM256.547 123.757C260.496 114.047 269.13 105.796 278.919 100.96C278.874 116.58 267.175 128.152 254.315 135.169C255.649 132.925 256.416 129.699 257.009 127.201C257.172 126.518 257.322 125.888 257.466 125.349C257.577 124.55 257.004 123.983 256.547 123.757ZM250.747 128.003C250.511 126.18 249.933 124.473 249.014 122.881C248.441 122.314 247.983 122.088 246.732 122.893C245.923 120.502 245.456 117.996 245.104 115.832C245.888 112.522 246.214 108.986 245.858 105.681C246.968 100.359 248.877 94.7658 250.721 89.3652C251.289 87.702 251.85 86.057 252.38 84.4437C254.179 78.5065 259.586 88.8551 260.396 91.2454C261.551 94.6601 262.366 98.1905 262.039 101.726C261.712 105.262 261.16 109.255 260.034 112.681C257.195 115.545 255.044 119.318 253.577 122.859C253.406 122.917 253.349 123.031 253.293 123.146C253.236 123.26 253.18 123.374 253.009 123.432C252.783 123.889 252.898 124.231 253.014 124.572L252.682 126.968C252.398 127.254 252.2 127.512 252.001 127.769C251.803 128.027 251.604 128.284 251.32 128.571C250.863 128.345 250.863 128.345 250.747 128.003ZM245.546 125.578C245.49 125.692 245.433 125.806 245.491 125.977C244.225 123.361 242.159 120.635 239.868 118.365C239.295 117.798 238.953 117.914 238.27 118.145C234.827 113.602 231.727 108.942 230.561 103.247C229.631 99.3755 226.56 75.6764 234.812 84.301C239.626 89.5221 242.621 96.1202 243.792 102.955C242.561 108.32 242.129 113.794 243.064 118.806L243.295 119.489C243.621 121.497 244.437 123.012 245.379 124.765C245.453 124.901 245.527 125.039 245.602 125.178C245.659 125.349 245.603 125.463 245.546 125.578ZM245.487 228.358C244.336 226.083 243.643 224.034 242.834 221.644C246.156 224.706 247.543 228.804 249.161 233.585C248.88 233.213 248.603 232.857 248.333 232.507C247.278 231.145 246.311 229.896 245.487 228.358ZM239.648 275.244C241.719 279.111 242.764 283.324 242.669 287.543C242.444 287.015 242.215 286.495 241.99 285.98C240.363 282.273 238.863 278.852 239.648 275.244ZM244.559 329.068C246.135 326.448 247.735 323.789 250.463 321.822C249.227 326.046 246.277 329.709 242.297 332.579C243.117 331.463 243.836 330.27 244.559 329.068ZM254.132 377.669C253.007 381.095 254.278 384.851 255.55 388.607C255.876 385.071 255.746 381.31 254.132 377.669ZM282.451 429.863L282.451 429.864C283.048 432.778 283.648 435.702 284.29 438.632L284.032 438.046C279.167 426.99 274.441 416.248 271.364 404.948C268.585 395.612 266.264 386.503 265.992 376.699C266.218 376.242 265.816 362.677 265.816 362.677C279.731 388.034 285.672 415.709 286.823 443.864L286.592 443.181L286.476 442.84C284.586 428.256 281.671 414.019 276.706 400.475C276.36 399.451 274.651 400.029 274.998 401.054C278.466 410.434 280.447 420.092 282.451 429.863ZM311.946 705.18C311.109 698.531 310.255 691.751 313.791 686.689C315.083 695.005 315.922 704.236 312.651 712.574C312.578 710.195 312.263 707.697 311.946 705.18ZM287.564 663.216C282.408 658.11 277.82 652.432 273.8 646.181C277.579 649.469 283.076 654.459 286.288 658.32C286.524 660.143 286.986 661.509 287.564 663.216ZM153.824 447.018C145.391 449.112 135.803 447.79 127.692 445.207C130.523 445.07 133.428 445.007 136.364 444.943H136.365C141.591 444.829 146.917 444.713 152.1 444.177C151.758 444.292 151.648 445.091 152.105 445.317L153.824 447.018ZM138.15 436.72C130.607 433.564 123.516 429.494 117.104 424.053C126.787 421.155 135.471 424.306 143.707 429.51C148.406 434.39 153.899 438.239 159.728 440.833C160.072 441.287 160.502 441.713 160.932 442.138L160.932 442.138C161.361 442.564 161.791 442.989 162.135 443.444C161.794 443.559 161.566 443.732 161.339 443.904C161.111 444.076 160.884 444.248 160.542 444.363C160.085 444.138 159.542 443.941 159 443.744L158.999 443.744C158.456 443.547 157.914 443.35 157.457 443.124C158.14 442.893 157.794 441.869 156.994 441.759C156.025 441.706 155.14 441.625 154.256 441.544C153.371 441.463 152.487 441.381 151.517 441.329C149.835 440.719 148.119 440.177 146.388 439.632L146.387 439.631L146.386 439.631L146.385 439.63L146.383 439.63L146.383 439.63L146.382 439.63L146.382 439.629L146.381 439.629L146.381 439.629L146.38 439.629C143.647 438.766 140.877 437.892 138.15 436.72ZM136.446 412.558C136.566 414.039 133.878 399.345 136.28 400.816C143.712 404.77 150.014 411.01 154.607 417.828C155.537 421.7 156.693 425.115 158.19 428.414C158.248 428.584 158.22 428.784 158.193 428.984C158.165 429.183 158.138 429.383 158.195 429.554L159.236 432.627C159.12 432.285 158.663 432.06 158.205 431.834C156.834 431.156 155.356 432.418 155.818 433.784C155.934 434.125 156.106 434.352 156.278 434.579C156.45 434.807 156.623 435.034 156.738 435.375C152.507 433.002 148.617 430.512 145.406 426.651C141.738 422.565 137.953 418.137 136.446 412.558ZM183.437 410.733C187.191 408.321 188.563 408.998 188.583 413.559C188.975 424.844 182.628 434.223 173.869 439.852C173.636 438.599 173.487 437.318 173.339 436.036C173.191 434.754 173.043 433.472 172.809 432.219C173.708 429.25 174.266 426.397 174.367 423.319C175.156 421.149 176.06 419.32 177.306 417.376C178.779 414.974 180.935 412.342 183.437 410.733ZM171.07 400.076C172.351 406.113 172.839 413.179 172.412 419.794C170.492 424.249 169.372 428.815 169.276 433.034L169.392 433.376C169.053 434.061 168.742 434.832 168.432 435.603C168.122 436.375 167.811 437.146 167.472 437.831L167.472 437.831C167.226 433.728 166.98 429.625 166.05 425.753C165.588 424.387 163.763 424.624 163.768 425.764C163.321 427.819 163.331 430.099 163.683 432.263L161.964 430.561C160.919 426.348 158.849 422.482 156.778 418.616C156.195 415.768 155.612 412.921 155.828 410.183C156.255 403.569 158.054 397.631 162.597 393.049C167.482 388.351 170.602 397.571 171.07 400.076ZM171.261 443.399L172.286 443.052L172.317 449.893C172.03 449.609 171.858 449.382 171.686 449.155C171.514 448.928 171.342 448.7 171.055 448.417C170.995 447.676 170.991 446.821 170.987 445.966C170.984 445.111 170.98 444.256 170.92 443.515L171.261 443.399ZM185.996 473.426L186.453 473.652C180.629 472.198 175.488 470.513 170.794 466.774C175.814 466.977 180.845 469.461 185.192 472.176C185.218 472.253 185.232 472.353 185.248 472.463C185.304 472.842 185.376 473.341 185.996 473.426ZM205.022 493.628C203.861 489.073 203.383 484.287 204.388 479.38C205.759 483.428 205.424 488.054 205.11 492.383C205.08 492.801 205.05 493.216 205.022 493.628ZM224.012 505.849C222.786 512.353 224.525 518.615 226.264 524.877C227.148 518.489 227.229 510.849 224.012 505.849ZM228.455 556.106C236.355 562.566 242.778 570.287 249.2 578.009C249.494 578.575 249.786 579.134 250.075 579.689C251.937 583.259 253.689 586.618 255.185 590.065C240.9 580.727 227.22 570.778 213.437 560.754L213.437 560.754C208.344 557.051 203.238 553.337 198.082 549.64C186.64 541.715 175.423 533.333 165.116 524.262C162.825 521.993 144.713 502.243 144.713 502.243C181.222 503.206 213.032 525.17 235.631 553.676C237.126 556.405 238.593 559.049 240.059 561.693C241.525 564.336 242.991 566.98 244.486 569.709C240.014 564.372 235.199 559.151 229.475 554.618C222.468 549.012 215.321 543.587 208.168 538.157C198.26 530.636 188.34 523.106 178.765 515.075C178.192 514.508 177.398 515.538 177.971 516.105C186.799 525.112 197.019 532.481 207.209 539.828L207.21 539.828L207.21 539.829L207.211 539.829L207.211 539.829C214.48 545.07 221.733 550.3 228.455 556.106ZM286.283 466.942C287.147 468.036 288.007 469.125 288.878 470.19L289.11 470.873C288.415 470.25 287.707 469.631 286.997 469.01L286.997 469.01L286.996 469.009L286.995 469.008L286.994 469.007C282.671 465.228 278.283 461.392 276.496 456.113C280.23 459.282 283.28 463.142 286.283 466.942ZM296.909 560.256C298.458 566.711 300.011 573.18 301.91 579.577C301.855 579.976 301.914 580.432 301.973 580.888C302.032 581.343 302.091 581.799 302.036 582.198C299.899 576.719 297.741 571.247 295.582 565.769L295.58 565.767C288.994 549.063 282.39 532.313 276.301 515.172C273.906 508.098 272.403 500.484 270.894 492.835C269.707 486.821 268.515 480.785 266.883 474.972C269.384 478.661 271.981 482.254 274.571 485.837L274.571 485.837L274.571 485.838L274.571 485.838C278.284 490.974 281.983 496.091 285.366 501.446C295.708 518.498 300.005 535.692 302.03 555.178C301.891 555.461 301.968 555.524 302.074 555.612C302.14 555.667 302.218 555.731 302.262 555.861C302.223 558.165 302.247 560.447 302.271 562.699C302.303 565.686 302.334 568.62 302.217 571.481C298.608 555.195 293.975 539.256 287.065 524.468C286.492 523.901 285.809 524.132 286.04 524.815C291.14 536.22 294.019 548.215 296.909 560.256ZM257.281 526.97C252.542 521.916 247.873 516.938 247.073 509.841C253.255 514.599 258.536 522.326 259.938 529.844C259.068 528.874 258.174 527.922 257.283 526.972L257.281 526.97ZM234.559 414.361C232.61 411.977 231.001 409.476 229.735 406.86C234.082 409.575 237.524 414.119 239.715 419.467L239.947 420.15C239.03 419.128 238.141 418.192 237.253 417.256L237.253 417.256L237.251 417.254L237.25 417.252C236.363 416.317 235.475 415.382 234.559 414.361ZM264.642 535.864C258.32 499.183 251.882 462.161 244.876 425.712C243.039 416.615 241.268 407.382 239.509 398.216L239.509 398.216L239.509 398.215L239.509 398.215L239.509 398.215L239.509 398.214L239.509 398.214L239.509 398.213L239.509 398.213L239.509 398.212L239.509 398.212C238.031 390.51 236.563 382.856 235.072 375.367C235.416 375.822 235.845 376.247 236.275 376.673C236.705 377.098 237.134 377.524 237.479 377.978L239.228 386.52C239.574 387.545 240.941 387.082 240.71 386.399C240.592 385.488 240.559 384.547 240.527 383.607C240.494 382.666 240.461 381.726 240.343 380.814C257.193 399.088 270.52 420.457 280.094 444.239C282.632 450.611 284.712 456.757 286.908 463.245L286.908 463.245C283.923 458.928 280.029 455.298 275.908 452.126C274.878 451.333 273.626 452.137 273.631 453.277C273.883 458.52 277.21 462.722 280.421 466.583C281.545 467.696 282.669 468.931 283.813 470.187L283.814 470.189L283.817 470.192L283.818 470.193C286.172 472.778 288.612 475.457 291.306 477.361C296.522 496.148 299.804 515.969 301.488 535.571C299.502 525.206 296.492 515.188 291.205 506.32C287.153 499.491 282.665 493.296 278.152 487.066L278.152 487.065C275.754 483.755 273.349 480.434 270.998 477.004C268.129 473.028 265.717 469.277 263.189 465.185C262.671 464.218 262.125 463.166 261.578 462.114C261.032 461.062 260.485 460.01 259.968 459.044C259.048 457.452 256.887 458.945 257.807 460.537C259.189 463.494 260.913 466.336 262.521 468.836C261.742 473.287 262.445 477.616 264.29 481.939C266.905 498.344 272.532 513.729 278.159 529.113C279.097 531.678 280.035 534.242 280.959 536.811C281.375 538.039 281.79 539.272 282.206 540.508L282.209 540.517C287.231 555.431 292.41 570.815 300.79 584.143C300.905 584.484 301.247 584.368 301.589 584.253C301.01 593.319 300.002 602.725 298.976 612.293C296.79 632.694 294.525 653.834 296.167 674.005C290.504 657.273 285.75 639.853 281.563 621.859C278.89 610.585 276.442 598.854 274.11 587.465C282.075 582.865 285.452 572.588 282.904 563.936C282.558 562.911 281.301 562.575 280.733 563.148C276.301 566.932 273.361 572.875 272.362 578.922C271.172 572.286 269.934 565.748 268.704 559.251L268.703 559.249L268.703 559.246L268.702 559.243C267.272 551.691 265.852 544.193 264.532 536.663C264.873 536.547 264.758 536.206 264.642 535.864ZM281.206 566.794C282.261 573.288 279.784 580.596 274.784 584.953C274.92 584.23 275.051 583.505 275.181 582.779C276.226 576.975 277.271 571.171 281.206 566.794ZM108.01 295.166C104.183 292.047 100.547 289.085 100.629 284.242C104.634 287.073 107.961 291.275 109.237 296.172C108.829 295.833 108.419 295.498 108.01 295.166ZM78.2215 299.059C77.4225 298.948 76.6234 298.838 76.8496 298.381C77.8697 296.894 80.0305 295.401 81.6236 294.482C81.8497 294.024 82.5331 293.793 83.2166 293.562C84.0731 293.843 85.0439 294.18 86.0147 294.517L86.0156 294.517L86.0166 294.518L86.0193 294.518L86.0232 294.52C86.9918 294.856 87.9601 295.193 88.8147 295.473C88.2136 295.794 87.6236 296.149 87.0241 296.51C85.6943 297.309 84.3177 298.137 82.6689 298.695C80.9603 299.273 79.8195 299.279 78.2215 299.059ZM58.874 283.533L57.8488 283.88C56.4016 279.042 55.0109 274.09 53.6202 269.138L53.6198 269.136C52.229 264.184 50.8382 259.231 49.3909 254.393C49.5571 254.057 49.7438 253.714 49.9343 253.364C50.5212 252.286 51.1436 251.143 51.3105 249.937L51.9738 245.145C52.0816 245.109 52.1439 245.05 52.1786 244.986C52.1698 245.724 52.4501 246.552 52.5517 246.853C52.8958 247.307 53.1834 247.875 53.471 248.444L53.4711 248.444L53.4714 248.444C53.7591 249.013 54.0468 249.582 54.391 250.036C56.3459 253.561 58.0746 257.543 59.3461 261.299C61.4316 268.585 62.4921 276.219 58.874 283.533ZM5.35464 279.575C9.79193 276.931 15.8374 276.788 20.9732 277.333L20.9736 277.333H20.9738L20.9755 277.333L20.976 277.333C24.9706 277.884 29.7635 278.544 34.446 280.003C34.8456 280.059 35.1885 280.228 35.5315 280.397C35.8745 280.567 36.2174 280.736 36.6169 280.791C37.8733 281.127 39.2452 281.804 40.1598 282.256C39.2502 282.944 39.2553 284.084 39.9438 284.993C42.4615 286.805 45.2052 288.16 48.0596 288.716C47.1479 288.835 46.3504 289.009 45.5529 289.184L45.552 289.184C44.7542 289.359 43.9565 289.534 43.0444 289.653C42.3609 289.884 42.1348 290.341 41.9087 290.798C40.8978 290.856 39.885 290.918 38.8708 290.981C29.0141 291.585 19.0224 292.197 9.39008 289.246C5.50552 287.897 -1.2435 283.711 5.35464 279.575ZM22.1489 259.427C26.149 261.118 29.6969 263.723 32.5614 266.559C37.4862 270.982 41.8432 275.977 45.974 281.43C44.9688 281.095 43.9652 280.765 42.9652 280.436C29.8732 276.134 17.3847 272.031 9.48517 259.147C7.87704 256.646 20.777 258.75 22.1489 259.427ZM54.2582 277.372C54.6899 278.786 55.1215 280.199 55.5573 281.611C55.2155 281.727 55.0999 281.385 55.0999 281.385C52.2305 277.409 48.7931 274.005 44.5618 271.632C43.9889 271.064 43.3055 271.296 43.0794 271.753C36.8932 265.854 31.3904 259.725 31.3501 250.604C31.0988 245.361 31.7621 240.569 33.1088 235.546C33.8927 232.236 41.4709 243.372 41.5865 243.714C47.3156 254.635 50.7915 266.019 54.2582 277.372ZM54.5472 285.378C54.2055 285.494 53.8638 285.61 53.9794 285.951C51.8135 286.304 49.4164 285.973 47.5872 285.07C49.8687 285.059 52.1501 285.048 54.316 284.695L54.5472 285.378ZM51.1653 294.516C47.4669 309.469 40.2357 325.237 25.5468 331.351C26.5418 324.164 28.4513 317.428 31.6172 311.028C39.5872 307.569 46.7481 301.72 49.914 295.32C50.1401 294.863 50.8236 294.631 51.1653 294.516ZM46.8335 295.221C42.4063 300.145 37.6323 304.044 31.8282 307.151C29.7779 307.845 6.42545 315.369 7.43549 311.601C9.67667 302.47 21.5162 296.94 32.4562 294.378C37.1347 294.698 42.155 294.901 46.4868 294.196L46.8335 295.221ZM209.509 544.796C202.986 539.169 196.303 533.404 188.639 529.621C188.182 529.395 187.73 530.309 187.961 530.992C191.633 534.377 195.929 537.201 200.197 540.007L200.198 540.007L200.199 540.008C203.654 542.279 207.09 544.539 210.163 547.074C210.62 547.299 211.53 546.611 210.957 546.044C210.475 545.629 209.992 545.213 209.509 544.796ZM253.224 455.998C259.927 449.923 259.646 437.84 258.012 429.639C257.666 428.614 256.183 428.736 255.731 429.65C253.354 433.88 252.233 438.446 252.028 443.463C251.959 444.205 251.871 444.987 251.779 445.796C251.434 448.845 251.045 452.286 251.51 455.437C250.827 455.668 251.058 456.351 251.515 456.577L251.631 456.918C251.746 457.26 252.545 457.37 252.771 456.913C252.983 456.841 253.019 456.683 253.07 456.465C253.101 456.331 253.137 456.173 253.224 455.998ZM254.329 448.012C254.353 446.958 254.377 445.903 254.43 444.934C254.756 441.398 255.083 437.862 256.208 434.436C256.917 439.905 256.716 446.063 254.229 451.091C254.281 450.122 254.305 449.067 254.329 448.012ZM279.548 191.709C281.626 187.872 284.715 184.762 287.795 181.659C289.579 179.863 291.359 178.069 292.94 176.139C293.508 175.566 294.538 176.359 293.971 176.932C291.56 179.876 288.97 182.642 286.342 185.45L286.342 185.45C284.269 187.664 282.173 189.904 280.121 192.276C279.895 192.734 279.322 192.166 279.548 191.709ZM255.376 142.802C254.461 142.351 254.913 141.436 255.597 141.205C256.053 141.051 256.521 140.935 256.989 140.818L256.99 140.818C257.927 140.586 258.863 140.353 259.698 139.817C261.291 138.897 262.311 137.41 263.331 135.923C263.783 135.009 265.155 135.686 264.703 136.6C263.461 139.685 259.492 144.835 255.376 142.802ZM59.5926 291.283C59.0298 292.996 58.467 294.708 57.1052 296.311C56.7444 296.837 56.2692 297.307 55.811 297.759C54.9736 298.586 54.193 299.358 54.2709 300.315C54.0448 300.772 54.6177 301.34 54.9594 301.224C56.8992 301.329 58.7133 298.812 59.7334 297.324C60.9796 295.38 61.5424 293.667 61.5323 291.387C61.5273 290.247 59.5876 290.143 59.5926 291.283ZM141.709 106.301C141.94 106.984 142.965 106.637 142.734 105.954C142.387 104.93 141.694 102.881 141.683 100.601C143.945 96.0292 145.176 90.6647 143.784 85.427C143.553 84.7441 142.754 84.634 142.412 84.7496C135.573 85.923 137.321 94.4652 139.518 100.953L139.291 101.41C139.065 101.867 139.523 102.093 139.98 102.319C140.306 103.281 140.703 104.098 141.05 104.811C141.319 105.364 141.557 105.854 141.709 106.301ZM141.739 87.2611C138.437 88.7593 139.03 93.8869 140.648 98.6674C142 94.7845 142.668 91.1329 141.739 87.2611Z" fill="#AB5E47"/>
</svg>
