<svg width="636" height="73" viewBox="0 0 636 73" fill="none" xmlns="http://www.w3.org/2000/svg">
<g clip-path="url(#clip0_16_18)">
<path d="M549 25.4C547.4 22.3 542.8 25 544.3 28.1C547.6 34.6 548.4 41.6 543.5 47.5C539.3 52.6 532.8 55.5 526.6 57.4C519.7 59.5 512.4 60.5 505.2 60.4C502 60.3 499 59.8 496 59C497.9 57.6 499.8 56.2 501.6 54.8C508.1 49.6 511.1 42 506.4 34.4C501.3 26.1 490.7 24 481.7 23C476 22.4 470.3 22.3 464.5 22.6C463.6 20 462 17.6 459.6 15.7C451.8 9.20001 439.7 8.50001 430 8.50001C415.8 8.40001 402.4 11.9 389.2 16.9C366.8 25.5 341.1 38.2 331.1 61.6C329.8 64.8 334.4 67.5 335.8 64.3C343.1 47.1 359.6 36.3 375.9 28.4C394.4 19.5 414.2 12.7 435 14C442.4 14.4 452.7 15.2 457.8 21.4C458.2 21.9 458.6 22.4 458.9 23C454.5 23.4 450.1 23.9 445.8 24.6C433.2 26.4 421.4 30.9 409.8 36.2C402.1 39.8 392 45.4 391.3 55.2C390.6 65.2 400.4 66.8 408.3 66.8C419.5 66.7 430.3 62.4 439.9 57C448.2 52.3 458.3 46.4 463 37.7C464.7 34.6 465.5 31.3 465.5 28C470.3 27.8 475 27.9 479.8 28.3C488 29.1 504.4 31.7 503.3 43.4C502.9 47.7 499.2 50.2 496 52.5C493.8 54.1 491.6 55.7 489.3 57.1C486.5 56.2 483.7 55.3 480.7 54.6C474.9 53.2 463.7 52.2 460.3 58.7C458.9 61.3 459.5 64.5 461.4 66.7C464.4 70.1 470.5 69.7 474.6 69.1C480 68.3 485.1 66.1 489.9 63.3C492.3 64.1 494.7 64.9 497.3 65.3C502.2 66.1 507.2 66.2 512.2 65.8C523.4 64.9 535.6 61.9 544.4 54.4C553.5 46.6 554.3 35.7 549 25.4ZM448 45.3C440.3 50.8 431.8 55.9 422.7 58.8C417.5 60.5 394.2 65.6 396.9 54.3C399.2 44.5 412.9 40.3 421 37C430.5 33.1 440.2 30.5 450.4 29.2C453.7 28.8 457 28.4 460.4 28.1C460.3 35 453.3 41.6 448 45.3ZM469.4 63.8C466.2 63.6 463.6 61 467.8 59.6C469.7 58.9 471.9 58.8 473.9 58.9C477 59 480 59.7 482.9 60.7C478.7 62.6 474.1 64 469.4 63.8Z" fill="#884936"/>
<path d="M254 20C232.8 11 208.6 4.20001 185.6 10.7C179.2 12.5 173 16.2 170.6 22.5C160.2 22 148.4 22.2 138.7 26.4C131 29.7 124.4 37.6 127.1 46.4C128.7 51.6 133.8 55.9 139.2 59.3C138.6 59.4 138.1 59.6 137.5 59.7C129.8 61.2 121.6 60.5 114 58.8C98.9999 55.6 81.9999 45.6 90.9999 28.2C92.5999 25.1 87.8999 22.4 86.2999 25.5C81.6999 34.3 81.2999 44 88.1999 51.8C94.8999 59.3 105.6 63 115.3 64.7C125.6 66.5 135.5 66.2 145.5 63.1C146.3 63.6 147.2 64 147.9 64.4C154.1 67.7 167.3 72.9 173.5 67C179.3 61.5 173.4 55.5 167.7 54.1C160.1 52.3 153.3 54.9 146.4 57.3C144.2 55.9 142.1 54.4 140.1 52.9C137.1 50.7 133.1 48.3 132.2 44.4C130.7 38.8 135.4 34 140 31.7C148.7 27.5 159.7 27.5 169.2 27.8C169.3 27.8 169.5 27.8 169.6 27.8C169.5 36.1 175.6 43.1 181.9 48C190.7 54.7 200.6 60.6 211.1 64C219.1 66.6 232.3 69.3 239.9 64.2C247.7 59 242.6 49 237.8 43.8C234.4 40.1 229.9 38.2 225.4 36.1C219.8 33.5 214.2 31.1 208.3 29.1C198.1 25.6 187.4 23.8 176.6 23C178.6 19.7 182.5 17.2 186.9 16C208.5 9.90001 231.5 16.4 251.4 24.9C270.3 32.9 290.8 44.5 299.3 64.3C300.7 67.5 305.3 64.7 304 61.6C295.3 40.7 273.8 28.4 254 20ZM160.5 58.8C162.4 58.7 164.4 58.7 166.2 59.2C167.1 59.4 168.3 59.5 169 60.2C171.1 62.2 168.1 63.7 165.9 63.8C161.1 64 156.6 62.7 152.4 60.7C155.1 59.8 157.8 59 160.5 58.8ZM229 43.8C232.7 45.7 236.3 49.2 237.9 53.2C240.9 61 232.3 61.3 226.9 61.3C217 61.2 207.4 57.4 198.9 52.6C191.1 48.2 181.4 42.9 176.9 34.8C175.6 32.4 175.1 30.2 175.1 28.2C194.1 29.7 211.9 34.9 229 43.8Z" fill="#884936"/>
<path d="M340.3 12.5C338.5 7.50001 332.9 2.60001 327.3 4.40001C322.9 5.80001 320.5 10.6 318.5 14.9C315.9 11.1 313.6 6.80001 307.8 9.10001C300.7 11.9 299.5 21.3 300.4 27.9C301.6 36.7 306.5 44.1 311 51.5C313 54.8 316.2 64.1 321.3 59C324.4 55.8 326.5 50.6 328.8 46.8C331.1 42.9 333.3 39 335.3 35C338.7 28.2 343.1 20.2 340.3 12.5ZM320.7 49.9C320.2 50.7 318.8 52.3 318.7 53.2C317.8 51.4 316.3 49.5 315.3 47.9C312.4 43.2 309.3 38.5 307.4 33.3C305.7 28.6 303.9 20.2 307.8 16C312.3 11.2 314.5 19 317.3 21.7C317.9 22.2 318.5 22.5 319.1 22.5C320 22.6 321 22.3 321.6 21.2C323.2 18.2 324.4 14.9 326.4 12.1C328.3 9.50001 331.1 8.60001 333.6 11.2C336 13.7 336.3 17.4 335.6 20.7C333.3 30.9 326 41.1 320.7 49.9Z" fill="#884936"/>
</g>
<defs>
<clipPath id="clip0_16_18">
<rect width="469.3" height="65.6" fill="white" transform="translate(83 4)"/>
</clipPath>
</defs>
</svg>
