<svg width="480" height="1468" viewBox="0 0 480 1468" fill="none" xmlns="http://www.w3.org/2000/svg">
<path d="M441.672 1168.87C411.958 1162.61 377.553 1147.99 346.796 1151.64C314.476 1155.3 289.454 1178.27 257.655 1184.01C256.612 1184.01 256.612 1185.58 257.655 1186.1C257.134 1186.1 256.612 1186.63 255.57 1186.63C254.006 1186.63 252.442 1187.15 250.357 1187.15C249.314 1187.15 249.314 1188.19 249.314 1188.71C247.75 1189.24 246.708 1189.76 245.144 1190.8C259.219 1170.96 270.687 1149.55 288.933 1132.85C309.263 1114.57 333.243 1101 355.658 1085.85C372.34 1074.37 380.68 1056.09 401.532 1049.3C402.054 1049.3 402.054 1048.26 401.532 1048.26C387.979 1047.74 379.117 1058.7 369.733 1067.58C353.052 1083.76 333.243 1095.77 313.955 1108.83C319.689 1103.08 324.381 1096.3 330.115 1090.55C336.892 1083.24 344.19 1075.93 349.924 1067.58C350.445 1067.06 349.403 1066.01 348.882 1066.53C340.541 1072.28 334.285 1080.63 327.508 1087.42C319.689 1096.3 310.827 1105.17 304.05 1115.09C289.454 1125.54 278.507 1136.5 268.602 1149.03C282.677 1106.22 322.817 1068.62 361.393 1046.17C373.904 1038.86 387.979 1034.68 401.532 1028.42C406.745 1025.81 452.098 1005.97 450.013 1014.32C440.629 1054 398.405 1092.64 365.563 1114.05C339.498 1130.76 306.657 1119.79 283.72 1139.63C282.156 1141.2 284.241 1143.81 285.805 1142.77C305.093 1131.28 328.03 1134.93 348.36 1128.67C365.042 1123.45 380.159 1111.44 393.713 1099.95C420.82 1076.98 448.97 1043.56 456.789 1008.06C457.311 1006.49 456.268 1004.92 454.183 1004.92C439.587 1004.92 426.033 1011.71 413.001 1017.45C392.149 1027.37 370.255 1035.73 350.445 1047.22C313.955 1068.62 271.73 1110.39 264.432 1153.21C264.432 1153.73 264.432 1153.73 264.432 1154.25C259.74 1160.52 254.527 1167.31 249.836 1175.14C239.931 1190.8 223.25 1200.2 211.26 1213.25C219.601 1190.28 227.42 1166.78 233.154 1142.77C233.154 1142.24 233.154 1142.24 233.154 1141.72C234.197 1142.24 235.761 1141.72 236.282 1140.16C246.187 1114.05 265.474 1090.55 278.507 1065.49C292.582 1039.38 307.699 1014.84 328.03 992.913C342.105 977.771 358.265 964.196 373.382 950.098C390.064 940.7 403.096 926.08 417.171 913.027C418.214 912.504 416.65 910.938 416.128 911.982C405.703 920.859 395.798 929.735 385.372 938.089C404.66 917.726 421.863 895.274 439.587 873.867C440.629 872.3 438.544 870.212 436.98 871.778C415.086 896.84 394.234 922.947 371.297 946.965C351.488 967.329 329.594 984.559 310.827 1005.97C308.221 1009.1 305.093 1012.75 302.486 1016.41C316.561 981.426 334.807 950.62 360.871 922.425C383.808 896.84 419.778 864.99 452.619 853.503C474.513 845.671 446.885 886.92 443.757 891.097C434.374 904.672 423.427 916.682 413.001 929.213C390.064 959.497 355.137 973.072 327.508 998.135C325.945 999.701 328.03 1002.83 330.115 1001.79C385.372 965.24 453.14 921.903 470.864 852.981C471.386 851.415 470.343 849.848 468.779 849.848C435.416 846.193 399.447 883.265 377.031 903.628C339.498 936.523 311.348 980.904 297.273 1028.42V1028.94C287.369 1043.56 279.028 1059.75 270.687 1074.89C260.783 1093.16 247.75 1109.87 237.846 1128.67C246.187 1094.21 253.485 1059.22 260.261 1024.24C260.783 1024.24 261.304 1023.72 261.304 1023.2C261.304 1021.63 261.304 1020.59 261.304 1019.54C263.911 1007.53 266.517 995.002 269.123 982.993C272.251 968.373 274.336 953.753 275.9 939.133C284.241 918.248 291.018 896.84 297.273 875.433C297.795 874.389 295.71 873.867 295.71 874.911C289.975 891.097 283.198 907.283 277.985 923.469C281.113 889.008 283.198 855.07 291.018 821.653C291.018 820.609 289.454 820.087 289.454 821.131C279.028 858.203 278.507 897.363 274.336 935.478C273.294 939.133 272.251 942.788 271.73 946.443C271.73 947.488 272.251 948.01 272.773 947.488C271.73 954.797 270.166 962.629 268.602 969.939C265.996 981.426 263.389 992.391 261.304 1003.88C260.261 992.391 257.655 981.948 254.527 969.939C249.314 945.921 250.357 920.859 252.963 896.318C257.134 862.902 260.261 816.432 283.72 789.803C294.667 777.272 309.784 845.671 310.306 850.37C311.348 871.778 306.135 893.708 300.401 914.593C289.975 951.665 270.166 986.125 261.825 1023.2C261.304 1025.81 264.432 1026.33 265.474 1024.24C296.231 950.62 343.147 851.937 291.018 779.36C290.497 778.316 288.933 778.316 287.89 778.838C261.304 792.414 256.612 836.795 252.442 862.902C249.314 883.787 246.187 904.15 245.665 925.036C244.623 955.842 256.612 984.037 258.176 1014.32C248.793 1057.14 239.41 1099.95 228.984 1142.24C214.388 1200.72 190.408 1256.07 169.035 1311.94C170.078 1291.57 166.429 1270.17 164.343 1250.33C162.258 1230.48 160.694 1210.64 160.173 1191.32C165.907 1125.54 205.526 1063.92 198.749 996.568C198.749 995.002 196.142 995.524 196.142 997.09C195.1 1041.47 178.418 1084.81 167.471 1128.67C163.301 1065.49 170.078 1001.27 198.749 944.355C203.962 933.912 210.739 990.825 210.739 986.648C212.302 1008.06 210.217 1029.46 206.568 1050.87C200.834 1083.76 185.716 1111.96 173.727 1142.77C173.205 1144.33 175.291 1144.85 175.812 1143.81C200.834 1108.3 212.302 1062.36 215.951 1019.54C216.994 1007.01 219.079 934.956 203.44 930.779C202.398 930.779 201.355 930.779 200.834 931.823C183.11 964.196 171.12 997.612 165.907 1034.16C162.779 1054.53 162.779 1075.93 164.343 1096.3C165.386 1110.39 162.258 1123.45 165.907 1137.02C163.822 1145.38 162.258 1153.73 160.694 1161.56C160.694 1157.91 160.694 1154.77 160.694 1151.12C161.737 1131.8 159.13 1113 153.396 1094.73C153.917 1056.61 150.79 1019.02 129.938 986.125C114.299 961.063 88.7556 932.868 57.478 929.735C56.9567 929.735 55.9141 930.257 55.3928 931.301C50.1799 963.152 65.8187 991.869 80.9362 1019.02C90.3195 1035.73 99.1815 1052.44 109.607 1068.62C121.597 1086.38 139.842 1097.34 151.832 1114.57C153.917 1122.92 154.96 1131.8 155.481 1141.72C157.045 1170.96 154.439 1199.68 157.567 1228.92C158.088 1235.71 159.13 1242.49 159.652 1249.28C149.226 1223.17 130.98 1204.9 109.607 1186.1C91.8834 1170.44 73.6381 1156.34 57.478 1139.11C44.9669 1125.54 37.1475 1110.92 21.5087 1101C19.4235 1099.95 17.8596 1102.56 19.4235 1104.13C47.0521 1121.88 63.7335 1154.25 89.7982 1174.62C89.7982 1174.62 89.7982 1174.62 90.3195 1175.14C78.8511 1169.39 67.3826 1164.7 57.9993 1155.3C57.478 1154.77 56.4354 1155.82 56.9567 1156.34C67.3826 1167.31 81.9788 1176.7 97.0964 1180.36C111.693 1192.37 124.725 1204.38 136.193 1217.95C110.129 1202.81 86.1492 1192.37 62.6909 1171.48C37.6688 1149.55 20.9874 1120.31 7.95502 1090.03C0.656899 1073.32 56.4354 1099.43 56.9567 1099.43C71.0316 1107.26 83.0214 1119.27 93.4473 1131.28C116.384 1156.34 126.81 1186.63 140.885 1216.39C141.406 1217.43 143.492 1216.91 142.97 1215.34C128.895 1149.55 72.0742 1081.68 2.22078 1079.07C0.656899 1079.07 -0.38569 1080.63 0.135604 1082.2C12.6467 1114.05 28.8068 1141.72 52.265 1166.78C77.8085 1193.94 106.48 1207.51 139.842 1222.65C139.842 1222.65 139.842 1222.65 140.364 1222.65C148.705 1233.62 155.481 1245.1 161.216 1259.2C163.822 1282.18 165.907 1305.67 163.301 1328.65C146.619 1373.03 132.544 1417.93 126.81 1464.92C126.289 1468.58 132.023 1468.58 132.544 1464.92C137.236 1433.07 145.055 1401.74 154.96 1371.46C163.301 1355.8 182.067 1343.79 197.706 1334.39C198.227 1334.39 198.749 1334.39 198.749 1334.39C210.739 1326.03 231.59 1332.82 244.101 1335.96C255.57 1339.09 265.474 1344.83 276.422 1348.49C277.464 1349.01 277.985 1347.44 277.464 1346.92C269.645 1335.96 246.708 1332.3 234.718 1329.69C227.42 1328.12 217.515 1326.04 209.175 1327.6C209.696 1327.08 210.217 1327.08 210.739 1326.56C211.781 1326.03 212.824 1325.51 213.866 1324.99C239.931 1315.07 281.635 1320.29 289.454 1348.49C292.06 1356.84 294.667 1365.72 281.113 1363.11C271.209 1361.02 261.825 1356.32 253.485 1351.62C239.931 1344.31 227.42 1336.48 212.302 1332.3C210.217 1331.78 209.696 1334.39 211.26 1335.43C238.367 1346.4 262.868 1366.24 292.582 1369.37C293.624 1369.37 294.667 1368.33 294.667 1367.28C295.188 1349.01 291.539 1331.78 272.773 1324.47C258.176 1318.73 240.974 1316.11 225.335 1319.25C248.272 1306.19 271.209 1293.14 294.667 1280.61C295.188 1280.09 295.188 1279.04 294.146 1279.04C270.687 1286.35 248.793 1298.88 227.42 1311.94C243.059 1281.65 285.284 1265.99 317.083 1263.38C325.945 1262.86 335.328 1261.29 329.072 1272.26C323.859 1281.65 314.997 1288.96 306.135 1295.23C289.454 1306.72 268.602 1296.8 251.921 1306.19C250.357 1306.72 251.399 1308.8 252.963 1308.8C272.251 1305.15 291.018 1309.85 308.742 1299.93C321.774 1292.1 334.285 1278.52 337.934 1263.38C338.456 1262.33 337.934 1260.77 336.37 1260.77C299.359 1253.46 236.803 1275.39 224.292 1314.55C213.866 1321.34 203.44 1327.6 193.536 1334.39C182.589 1341.18 168.514 1350.05 158.609 1361.02C173.205 1317.16 191.451 1273.82 207.611 1229.96C216.994 1217.95 230.026 1212.21 239.931 1200.72C244.623 1197.07 249.836 1194.46 255.049 1192.37C273.815 1194.98 292.582 1208.03 311.87 1210.64C331.158 1213.25 352.009 1214.3 371.297 1213.78C402.054 1213.25 429.682 1201.77 444.278 1174.09C443.757 1170.96 443.236 1169.39 441.672 1168.87ZM103.873 1051.91C86.6705 1023.72 68.4252 993.957 59.0419 962.107C50.7012 932.868 67.3826 932.346 87.7131 946.443C104.394 957.93 117.948 976.727 128.895 993.435C145.577 1020.06 146.619 1050.87 147.141 1081.15C147.141 1081.15 147.141 1080.63 146.619 1080.63C141.928 1069.67 136.193 1060.27 130.459 1050.87C129.417 1045.65 127.853 1039.91 126.81 1034.68C124.204 1024.24 122.118 1013.8 120.555 1003.36C120.555 1002.31 118.991 1002.83 118.991 1003.36C118.991 1014.84 120.555 1027.37 123.161 1039.38C113.778 1023.72 104.916 1008.06 102.831 987.692C102.831 986.125 99.7028 986.125 99.7028 988.214C100.224 1008.58 108.044 1024.76 117.948 1041.99C130.459 1063.4 140.885 1081.68 147.141 1102.56C135.151 1084.81 115.342 1070.71 103.873 1051.91ZM426.033 1188.71C403.617 1212.21 361.393 1209.08 331.679 1205.42C308.221 1202.81 288.411 1200.72 267.038 1189.24C265.996 1188.71 264.953 1188.19 264.432 1187.67C280.592 1185.06 297.795 1186.1 313.434 1185.58C343.147 1184.54 373.904 1185.58 402.054 1175.66C403.096 1175.14 402.575 1173.57 401.532 1174.09C369.733 1180.36 337.413 1182.97 305.093 1183.49C314.997 1180.36 323.859 1174.09 332.2 1169.39C332.721 1168.87 332.2 1167.83 331.679 1168.35C325.945 1170.96 320.21 1173.57 314.997 1175.66C308.742 1178.27 301.965 1180.36 295.71 1183.49C295.71 1183.49 295.188 1183.49 295.188 1184.01C291.539 1184.01 288.411 1184.01 284.762 1184.01C280.071 1184.01 274.858 1184.01 270.166 1184.54C285.805 1180.88 299.359 1172.53 313.955 1165.22C340.02 1152.16 366.084 1156.34 393.713 1162.61C410.916 1165.74 446.885 1166.26 426.033 1188.71Z" fill="#E0BBA9"/>
<path d="M275.379 831.574C266.517 861.336 265.996 893.186 267.56 923.992C267.56 925.036 269.124 925.036 269.124 923.992C270.687 892.664 270.687 862.38 276.422 831.574C276.422 831.052 275.379 831.052 275.379 831.574Z" fill="#E0BBA9"/>
<path d="M406.224 892.663C387.978 911.982 371.297 932.867 355.137 953.23C354.616 953.753 355.658 954.797 356.18 954.275C374.425 935.478 392.149 914.592 407.266 893.707C407.788 892.663 406.745 892.141 406.224 892.663Z" fill="#E0BBA9"/>
<path d="M378.595 1081.15C393.713 1069.14 408.309 1056.61 422.384 1044.08C423.427 1043.56 421.863 1041.99 421.341 1043.04C406.745 1055.57 391.106 1067.06 377.553 1080.63C376.51 1081.15 377.553 1082.2 378.595 1081.15Z" fill="#E0BBA9"/>
<path d="M383.287 1170.44C367.648 1172.53 351.488 1173.05 336.892 1178.27C335.849 1178.79 336.371 1179.84 337.413 1179.84C353.052 1177.23 368.17 1174.62 383.808 1172.53C384.851 1172.53 384.33 1170.44 383.287 1170.44Z" fill="#E0BBA9"/>
<path d="M272.251 1297.32C286.326 1294.19 300.922 1284.79 309.784 1273.82C310.306 1273.3 309.263 1272.26 308.742 1272.78C303.008 1277.48 297.273 1282.18 290.497 1286.35C284.241 1290.01 277.985 1292.62 271.73 1295.75C270.687 1296.27 271.209 1297.84 272.251 1297.32Z" fill="#E0BBA9"/>
<path d="M83.5426 964.718C83.0214 964.196 81.9788 964.196 81.9788 965.24C89.2769 986.125 89.7982 1010.67 101.267 1029.46C101.788 1030.51 103.873 1029.98 103.352 1028.94C96.575 1008.06 93.4472 984.559 83.5426 964.718Z" fill="#E0BBA9"/>
<path d="M39.2328 1105.17C50.7013 1122.4 69.4679 1132.32 83.0216 1147.47C83.5429 1147.99 84.5855 1147.47 84.0642 1146.42C72.5957 1129.19 52.2652 1120.84 40.7967 1104.13C40.2754 1103.08 38.7116 1104.13 39.2328 1105.17Z" fill="#E0BBA9"/>
<path d="M194.057 976.204C189.365 997.09 184.153 1018.5 182.589 1039.9C182.589 1040.95 184.152 1041.47 184.674 1040.43C189.365 1019.54 191.972 998.134 196.142 976.727C196.142 975.682 194.578 975.16 194.057 976.204Z" fill="#E0BBA9"/>
<path d="M464.26 201.751C448.904 198.513 431.123 190.957 415.228 192.846C398.524 194.735 385.592 206.608 369.158 209.576C368.62 209.576 368.62 210.386 369.158 210.655C368.889 210.655 368.62 210.925 368.081 210.925C367.273 210.925 366.464 211.195 365.387 211.195C364.848 211.195 364.848 211.735 364.848 212.005C364.04 212.275 363.501 212.544 362.693 213.084C369.967 202.83 375.894 191.766 385.323 183.131C395.83 173.687 408.223 166.671 419.808 158.845C428.429 152.909 432.739 143.464 443.516 139.956C443.785 139.956 443.785 139.417 443.516 139.417C436.511 139.147 431.931 144.814 427.082 149.401C418.46 157.766 408.223 163.972 398.255 170.719C401.218 167.75 403.643 164.242 406.606 161.274C410.109 157.496 413.88 153.718 416.844 149.401C417.113 149.131 416.575 148.591 416.305 148.861C411.995 151.83 408.762 156.147 405.259 159.655C401.218 164.242 396.638 168.83 393.136 173.957C385.592 179.354 379.935 185.02 374.816 191.497C382.09 169.369 402.835 149.941 422.771 138.337C429.237 134.559 436.511 132.401 443.516 129.163C446.21 127.813 469.648 117.559 468.571 121.877C463.721 142.385 441.899 162.353 424.926 173.417C411.456 182.052 394.483 176.385 382.629 186.639C381.821 187.449 382.898 188.798 383.707 188.258C393.675 182.322 405.529 184.211 416.036 180.973C424.657 178.274 432.47 172.068 439.474 166.131C453.484 154.258 468.032 136.988 472.073 118.639C472.342 117.829 471.804 117.02 470.726 117.02C463.182 117.02 456.178 120.528 449.443 123.496C438.666 128.623 427.351 132.94 417.113 138.877C398.255 149.941 376.433 171.528 372.661 193.655C372.661 193.925 372.661 193.925 372.661 194.195C370.236 197.433 367.542 200.941 365.117 204.989C359.999 213.084 351.377 217.941 345.181 224.687C349.492 212.814 353.533 200.671 356.496 188.258C356.496 187.989 356.496 187.989 356.496 187.719C357.035 187.989 357.843 187.719 358.113 186.909C363.231 173.417 373.2 161.274 379.935 148.322C387.209 134.829 395.022 122.147 405.529 110.813C412.803 102.988 421.155 95.9718 428.967 88.6861C437.589 83.8289 444.324 76.2732 451.598 69.5271C452.137 69.2573 451.328 68.4478 451.059 68.9874C445.671 73.5748 440.552 78.1621 435.164 82.4796C445.132 71.9557 454.023 60.3524 463.182 49.2888C463.721 48.4793 462.644 47.3999 461.835 48.2095C450.52 61.162 439.744 74.6542 427.89 87.067C417.652 97.5909 406.337 106.496 396.638 117.559C395.291 119.178 393.675 121.067 392.328 122.956C399.602 104.877 409.031 88.9559 422.502 74.3843C434.356 61.162 452.945 44.7015 469.918 38.7649C481.233 34.7173 466.954 56.0349 465.338 58.1937C460.488 65.2096 454.831 71.416 449.443 77.8923C437.589 93.5432 419.538 100.559 405.259 113.512C404.451 114.321 405.529 115.94 406.606 115.401C435.164 96.5115 470.187 74.1145 479.347 38.4951C479.616 37.6855 479.078 36.876 478.269 36.876C461.027 34.9871 442.438 54.146 430.853 64.6699C411.456 81.6701 396.908 104.607 389.634 129.163V129.432C384.515 136.988 380.204 145.353 375.894 153.179C370.775 162.623 364.04 171.258 358.921 180.973C363.231 163.163 367.003 145.083 370.506 127.004C370.775 127.004 371.044 126.734 371.044 126.464C371.044 125.655 371.044 125.115 371.044 124.575C372.391 118.369 373.738 111.893 375.085 105.686C376.702 98.1306 377.78 90.5749 378.588 83.0193C382.898 72.2256 386.401 61.162 389.634 50.0984C389.903 49.5587 388.825 49.2888 388.825 49.8285C385.862 58.1937 382.36 66.5588 379.665 74.924C381.282 57.1143 382.36 39.5744 386.401 22.3044C386.401 21.7648 385.592 21.4949 385.592 22.0346C380.204 41.1935 379.935 61.4318 377.78 81.1304C377.241 83.0193 376.702 84.9082 376.433 86.7971C376.433 87.3368 376.702 87.6067 376.971 87.3368C376.433 91.1146 375.624 95.1623 374.816 98.9401C373.469 104.877 372.122 110.543 371.044 116.48C370.506 110.543 369.158 105.147 367.542 98.9401C364.848 86.5273 365.387 73.5748 366.734 60.8921C368.889 43.6221 370.506 19.606 382.629 5.84397C388.287 -0.632286 396.099 34.7173 396.369 37.1459C396.908 48.2095 394.214 59.5429 391.25 70.3367C385.862 89.4956 375.624 107.305 371.314 126.464C371.044 127.813 372.661 128.083 373.2 127.004C389.095 88.9559 413.342 37.9554 386.401 0.447089C386.131 -0.0925984 385.323 -0.0925942 384.784 0.17725C371.044 7.19319 368.62 30.1299 366.464 43.6221C364.848 54.4159 363.231 64.9398 362.962 75.7335C362.423 91.6543 368.62 106.226 369.428 121.877C364.579 144.004 359.729 166.131 354.341 187.989C346.797 218.211 334.405 246.815 323.359 275.688C323.898 265.164 322.012 254.1 320.934 243.846C319.857 233.592 319.048 223.338 318.779 213.354C321.742 179.354 342.217 147.512 338.715 112.702C338.715 111.893 337.368 112.162 337.368 112.972C336.829 135.909 328.208 158.306 322.551 180.973C320.395 148.322 323.898 115.131 338.715 85.7178C341.409 80.3209 344.912 109.734 344.912 107.575C345.72 118.639 344.642 129.702 342.756 140.766C339.793 157.766 331.98 172.338 325.784 188.258C325.514 189.068 326.592 189.338 326.861 188.798C339.793 170.449 345.72 146.702 347.606 124.575C348.145 118.099 349.222 80.8606 341.14 78.7018C340.601 78.7018 340.062 78.7018 339.793 79.2415C330.633 95.9718 324.436 113.242 321.742 132.131C320.126 142.655 320.126 153.718 320.934 164.242C321.473 171.528 319.857 178.274 321.742 185.29C320.665 189.608 319.857 193.925 319.048 197.973C319.048 196.084 319.048 194.465 319.048 192.576C319.587 182.592 318.24 172.877 315.277 163.433C315.546 143.734 313.929 124.305 303.153 107.305C295.071 94.3528 281.87 79.7812 265.705 78.1621C265.436 78.1621 264.897 78.432 264.628 78.9717C261.933 95.4321 270.016 110.274 277.829 124.305C282.678 132.94 287.258 141.575 292.646 149.941C298.843 159.115 308.272 164.782 314.468 173.687C315.546 178.004 316.085 182.592 316.354 187.719C317.162 202.83 315.815 217.671 317.432 232.783C317.701 236.291 318.24 239.799 318.509 243.307C313.121 229.814 303.692 220.37 292.646 210.655C283.486 202.56 274.057 195.274 265.705 186.37C259.239 179.354 255.198 171.798 247.116 166.671C246.038 166.131 245.23 167.48 246.038 168.29C260.317 177.465 268.938 194.195 282.409 204.719C282.409 204.719 282.409 204.719 282.678 204.989C276.751 202.02 270.824 199.592 265.975 194.735C265.705 194.465 265.166 195.005 265.436 195.274C270.824 200.941 278.367 205.798 286.18 207.687C293.724 213.894 300.459 220.1 306.386 227.116C292.916 219.291 280.523 213.894 268.399 203.1C255.468 191.766 246.846 176.655 240.111 161.004C236.339 152.369 265.166 165.861 265.436 165.861C272.71 169.909 278.906 176.115 284.294 182.322C296.148 195.274 301.537 210.925 308.811 226.306C309.08 226.846 310.158 226.576 309.888 225.767C302.614 191.766 273.249 156.687 237.148 155.337C236.339 155.337 235.801 156.147 236.07 156.957C242.536 173.417 250.888 187.719 263.011 200.671C276.212 214.703 291.03 221.719 308.272 229.545C308.272 229.545 308.272 229.545 308.541 229.545C312.852 235.211 316.354 241.148 319.318 248.434C320.665 260.307 321.742 272.45 320.395 284.323C311.774 307.26 304.5 330.466 301.537 354.752C301.267 356.641 304.231 356.641 304.5 354.752C306.925 338.292 310.966 322.101 316.085 306.45C320.395 298.355 330.094 292.148 338.176 287.291C338.446 287.291 338.715 287.291 338.715 287.291C344.912 282.974 355.688 286.482 362.154 288.101C368.081 289.72 373.2 292.688 378.857 294.577C379.396 294.847 379.665 294.037 379.396 293.767C375.355 288.101 363.501 286.212 357.304 284.863C353.533 284.053 348.414 282.974 344.103 283.783C344.373 283.513 344.642 283.513 344.912 283.243C345.45 282.974 345.989 282.704 346.528 282.434C359.999 277.307 381.551 280.005 385.592 294.577C386.94 298.894 388.287 303.482 381.282 302.133C376.163 301.053 371.314 298.625 367.003 296.196C359.999 292.418 353.533 288.371 345.72 286.212C344.642 285.942 344.373 287.291 345.181 287.831C359.19 293.498 371.853 303.752 387.209 305.371C387.748 305.371 388.287 304.831 388.287 304.291C388.556 294.847 386.67 285.942 376.971 282.164C369.428 279.196 360.537 277.847 352.455 279.466C364.309 272.72 376.163 265.974 388.287 259.497C388.556 259.227 388.556 258.688 388.017 258.688C375.894 262.466 364.579 268.942 353.533 275.688C361.615 260.037 383.437 251.942 399.871 250.592C404.451 250.323 409.301 249.513 406.068 255.18C403.374 260.037 398.794 263.815 394.214 267.053C385.592 272.989 374.816 267.862 366.195 272.72C365.387 272.989 365.926 274.069 366.734 274.069C376.702 272.18 386.401 274.609 395.561 269.481C402.296 265.434 408.762 258.418 410.648 250.592C410.917 250.053 410.648 249.243 409.839 249.243C390.711 245.465 358.382 256.799 351.916 277.037C346.528 280.545 341.14 283.783 336.021 287.291C330.363 290.799 323.089 295.386 317.971 301.053C325.514 278.386 334.943 255.989 343.295 233.322C348.145 227.116 354.88 224.148 359.999 218.211C362.423 216.322 365.117 214.973 367.811 213.894C377.51 215.243 387.209 221.989 397.177 223.338C407.145 224.687 417.922 225.227 427.89 224.957C443.785 224.687 458.064 218.751 465.607 204.449C465.338 202.83 465.068 202.02 464.26 201.751ZM289.683 141.306C280.792 126.734 271.363 111.353 266.513 94.8924C262.203 79.7812 270.824 79.5113 281.331 86.7971C289.952 92.7337 296.957 102.448 302.614 111.083C311.235 124.845 311.774 140.766 312.044 156.417C312.044 156.417 312.044 156.147 311.774 156.147C309.35 150.48 306.386 145.623 303.423 140.766C302.884 138.067 302.075 135.099 301.537 132.401C300.19 127.004 299.112 121.607 298.304 116.21C298.304 115.67 297.495 115.94 297.495 116.21C297.495 122.147 298.304 128.623 299.651 134.829C294.801 126.734 290.221 118.639 289.144 108.115C289.144 107.305 287.527 107.305 287.527 108.385C287.797 118.909 291.838 127.274 296.957 136.179C303.423 147.242 308.811 156.687 312.044 167.48C305.847 158.306 295.61 151.02 289.683 141.306ZM456.178 212.005C444.593 224.148 422.771 222.529 407.415 220.64C395.291 219.29 385.054 218.211 374.008 212.275C373.469 212.005 372.93 211.735 372.661 211.465C381.013 210.116 389.903 210.655 397.985 210.386C413.342 209.846 429.237 210.386 443.785 205.259C444.324 204.989 444.054 204.179 443.516 204.449C427.082 207.687 410.378 209.036 393.675 209.306C398.794 207.687 403.374 204.449 407.684 202.02C407.953 201.751 407.684 201.211 407.415 201.481C404.451 202.83 401.488 204.179 398.794 205.259C395.561 206.608 392.058 207.687 388.825 209.306C388.825 209.306 388.556 209.306 388.556 209.576C386.67 209.576 385.054 209.576 383.168 209.576C380.743 209.576 378.049 209.576 375.624 209.846C383.707 207.957 390.711 203.64 398.255 199.862C411.725 193.116 425.196 195.274 439.474 198.513C448.365 200.132 466.954 200.401 456.178 212.005Z" fill="#E0BBA9"/>
<path d="M378.318 27.4319C373.738 42.813 373.469 59.2735 374.277 75.1943C374.277 75.7339 375.085 75.7339 375.085 75.1943C375.894 59.0036 375.894 43.3527 378.857 27.4319C378.857 27.162 378.318 27.162 378.318 27.4319Z" fill="#E0BBA9"/>
<path d="M445.94 59.0028C436.511 68.9871 427.89 79.7808 419.538 90.3047C419.269 90.5746 419.807 91.1143 420.077 90.8444C429.506 81.13 438.666 70.3363 446.479 59.5425C446.748 59.0028 446.21 58.733 445.94 59.0028Z" fill="#E0BBA9"/>
<path d="M431.661 156.417C439.474 150.21 447.018 143.734 454.292 137.258C454.831 136.988 454.022 136.178 453.753 136.718C446.21 143.194 438.127 149.131 431.123 156.147C430.584 156.417 431.123 156.956 431.661 156.417Z" fill="#E0BBA9"/>
<path d="M434.086 202.56C426.004 203.639 417.652 203.909 410.109 206.608C409.57 206.878 409.839 207.417 410.378 207.417C418.461 206.068 426.273 204.719 434.356 203.639C434.895 203.639 434.625 202.56 434.086 202.56Z" fill="#E0BBA9"/>
<path d="M376.702 268.133C383.976 266.514 391.52 261.656 396.1 255.99C396.369 255.72 395.83 255.18 395.561 255.45C392.597 257.879 389.634 260.307 386.131 262.466C382.898 264.355 379.666 265.704 376.433 267.323C375.894 267.593 376.163 268.402 376.702 268.133Z" fill="#E0BBA9"/>
<path d="M279.176 96.2417C278.906 95.9719 278.367 95.9719 278.367 96.5115C282.139 107.305 282.409 119.988 288.336 129.702C288.605 130.242 289.683 129.972 289.413 129.433C285.911 118.639 284.294 106.496 279.176 96.2417Z" fill="#E0BBA9"/>
<path d="M256.276 168.83C262.203 177.735 271.902 182.862 278.906 190.688C279.176 190.957 279.715 190.687 279.445 190.148C273.518 181.243 263.011 176.925 257.084 168.29C256.815 167.751 256.006 168.29 256.276 168.83Z" fill="#E0BBA9"/>
<path d="M336.291 102.178C333.866 112.972 331.172 124.035 330.364 135.099C330.364 135.639 331.172 135.908 331.441 135.369C333.866 124.575 335.213 113.511 337.368 102.448C337.368 101.908 336.56 101.638 336.291 102.178Z" fill="#E0BBA9"/>
</svg>
