<svg width="1280" height="5451" viewBox="0 0 1280 5451" fill="none" xmlns="http://www.w3.org/2000/svg">
<path d="M0 48.0002C0 31.1985 0 22.7976 3.2698 16.3803C6.14601 10.7354 10.7354 6.14601 16.3803 3.2698C22.7976 0 31.1984 0 48 0H1232C1248.8 0 1257.2 0 1263.62 3.2698C1269.26 6.14601 1273.85 10.7354 1276.73 16.3803C1280 22.7976 1280 31.1984 1280 48V5403C1280 5419.8 1280 5428.2 1276.73 5434.62C1273.85 5440.26 1269.26 5444.85 1263.62 5447.73C1257.2 5451 1248.8 5451 1232 5451H48C31.1984 5451 22.7976 5451 16.3803 5447.73C10.7354 5444.85 6.14601 5440.26 3.2698 5434.62C0 5428.2 0 5419.8 0 5403V48.0002Z" fill="#E8E4DA"/>
</svg>
