<svg width="238" height="564" viewBox="0 0 238 564" fill="none" xmlns="http://www.w3.org/2000/svg">
<path fill-rule="evenodd" clip-rule="evenodd" d="M237.716 188.713V196.355C237.126 196.587 236.535 196.882 235.945 197.177L235.945 197.177C233.398 199.087 232.761 200.36 232.761 202.27C234.209 202.994 235.915 203.409 237.716 203.603V206.057C236.914 206.002 236.111 205.854 235.308 205.453V206.089C235.308 206.726 234.672 207.999 234.035 207.362C232.125 206.089 230.851 204.816 230.214 202.906C228.304 201.633 226.394 199.087 225.757 196.541C216.843 197.177 207.292 197.177 198.378 195.268C190.737 210.545 183.733 225.186 178.002 241.1C186.28 236.008 196.467 234.098 206.655 233.462C207.292 231.552 207.929 230.279 209.839 229.006C216.936 223.684 233.373 225.502 237.716 233.95V241.283C237.408 241.706 237.03 242.075 236.582 242.374C234.035 245.556 228.941 248.103 225.757 249.376C221.3 250.649 216.206 250.649 212.386 248.103C208.565 246.193 206.018 241.737 206.018 237.918H198.378C190.1 238.554 183.733 241.1 176.729 244.92C172.908 256.378 169.725 268.473 167.814 281.204C168.133 282.477 168.61 283.75 169.088 285.023L169.088 285.024L169.088 285.024C169.566 286.297 170.043 287.57 170.361 288.843C174.262 300.218 178.288 311.677 182.343 323.218C194.171 356.886 206.248 391.261 216.206 426.342C216.206 416.157 220.027 405.972 224.484 395.787C224.165 395.787 224.006 395.787 223.927 395.707C223.847 395.628 223.847 395.468 223.847 395.15C225.121 377.963 227.031 361.412 228.941 344.861C224.484 343.588 224.484 335.949 224.484 332.13C225.121 325.128 227.667 316.216 232.761 310.486C234.035 309.85 235.945 309.85 236.582 311.123C237.004 311.921 237.382 312.747 237.716 313.596V338.247C236.633 341.627 235.162 344.762 233.398 347.407C232.761 348.044 231.488 348.044 230.851 348.044C231.488 363.322 228.304 379.236 224.484 393.877C226.413 389.056 228.707 384.6 230.813 380.509C231.488 379.198 232.143 377.925 232.761 376.69C234.321 373.051 235.987 369.412 237.716 365.816V371.156V371.23V371.473C237.691 371.418 237.679 371.358 237.682 371.296C237.015 372.59 236.331 373.905 235.637 375.239L235.63 375.252C225.088 395.526 212.26 420.194 219.39 440.983C228.139 472.883 234.808 505.199 237.716 537.594V562.821C236.209 563.458 234.035 562.737 234.035 560.658C233.398 532.649 229.578 504.003 223.21 475.994C213.659 445.439 189.463 427.615 162.084 412.337C148.076 410.428 135.978 411.064 123.243 412.974V414.247C123.841 416.639 121.068 418.469 119.146 419.738L119.142 419.74C119.02 419.821 118.9 419.9 118.786 419.976C118.149 419.976 117.512 419.34 118.149 418.703C118.3 418.552 118.469 418.392 118.646 418.225L118.647 418.223L118.787 418.091C118.446 418.277 117.979 418.3 117.512 418.067C117.194 418.067 116.876 417.907 116.557 417.748C116.239 417.589 115.921 417.43 115.602 417.43C116.876 424.432 106.688 427.615 101.594 426.979C97.7736 426.979 92.6797 425.705 91.4062 421.249C89.496 416.157 95.8634 410.428 100.321 407.245C106.051 404.699 113.692 405.335 119.423 407.882C119.741 408.2 120.059 408.359 120.378 408.518C120.696 408.677 121.014 408.836 121.333 409.155C132.157 406.608 144.255 404.699 154.443 407.245C150.633 405.221 146.801 403.22 142.971 401.22L142.961 401.215L142.96 401.215C126.313 392.521 109.718 383.855 95.2266 373.507H93.9532C93.9532 373.507 93.9532 374.143 93.3164 374.143C91.4062 373.507 89.496 372.234 88.2225 370.961C84.4021 369.051 81.2185 367.141 78.0348 364.595C77.9371 364.522 77.83 364.442 77.7146 364.356L77.7072 364.35C74.8078 362.189 66.6983 356.145 69.7572 351.863C72.9409 346.771 84.4021 351.863 87.5858 355.046C90.7695 357.593 96.5001 364.595 96.5001 369.687C96.5001 370.324 97.1368 370.324 97.1368 370.324C97.7736 370.961 97.7736 370.961 97.7736 371.597C106.773 377.166 116.348 382.159 126.307 387.351L126.307 387.352L126.309 387.353C131.147 389.875 136.075 392.445 141.072 395.15C134.704 387.511 129.61 378.599 125.79 369.051C125.472 369.051 125.153 368.892 124.835 368.733C124.516 368.573 124.198 368.414 123.88 368.414C112.418 363.958 109.235 344.225 115.602 334.676C116.239 333.403 117.512 333.403 118.786 334.04C126.427 339.769 130.884 347.407 132.794 356.319C136.614 358.866 139.161 362.685 136.614 366.505C134.704 368.414 132.157 369.051 129.61 369.051C135.341 379.872 142.345 389.421 150.623 399.606C162.084 405.972 172.908 412.337 183.096 419.976C178.002 411.701 175.455 401.516 173.545 391.967C166.541 389.421 165.267 377.326 166.541 371.597C166.541 370.324 167.814 369.051 169.088 369.687C173.545 370.961 178.002 374.78 179.912 379.236C183.096 383.692 184.369 388.784 180.549 391.331C180.549 391.649 180.708 392.126 180.867 392.604C181.027 393.081 181.186 393.559 181.186 393.877C181.823 396.423 178.639 397.06 178.002 395.15C178.002 394.832 177.843 394.514 177.684 394.195C177.525 393.877 177.365 393.559 177.365 393.24C176.904 393.24 176.442 393.24 176.223 392.998L176.537 393.941C180.811 406.779 184.689 418.428 193.921 428.888C205.382 439.073 214.296 449.895 220.663 462.626C211.749 423.796 199.014 385.602 186.28 348.681H185.643C175.455 330.22 162.721 314.942 148.712 301.574H148.076L147.439 300.938C143.618 297.118 139.798 293.936 135.978 290.753C128.237 287.111 118.544 286.725 108.759 286.335H108.758C104.86 286.179 100.947 286.023 97.1368 285.66C97.1368 286.297 97.1368 286.933 96.5001 286.933C88.2225 292.663 74.2144 290.753 65.3001 287.57C62.1164 286.933 58.296 285.024 57.0226 281.204C56.4457 277.168 59.5267 274.176 61.5318 272.229C61.74 272.026 61.9367 271.835 62.1164 271.656C71.0307 265.927 80.5817 268.473 86.9491 276.748C87.5858 277.385 88.2225 278.658 88.8593 279.931L119.423 283.751C123.243 284.387 127.063 285.024 130.884 286.297C120.882 277.768 110.336 269.646 99.7487 261.493L99.7483 261.493C87.4204 251.999 75.0366 242.462 63.3899 232.188C61.4797 234.098 58.9328 235.371 56.3858 235.371C50.0185 235.371 43.0144 230.279 38.5572 225.823C35.3736 223.277 32.8266 216.274 33.4634 211.818C33.2202 211.332 32.9769 210.939 32.7692 210.603C32.4331 210.059 32.1899 209.665 32.1899 209.272C31.5532 207.999 32.8266 206.726 34.1001 206.726C34.4185 206.726 34.896 206.885 35.3736 207.044C35.8511 207.203 36.3287 207.362 36.647 207.362C36.815 207.362 37.0272 207.318 37.2838 207.264C37.9998 207.115 39.0611 206.894 40.4674 207.362C45.5613 207.999 52.5654 212.455 57.6593 217.547C60.843 220.094 64.0266 223.277 64.6634 227.096C65.0295 227.462 65.1851 227.618 65.2512 227.805C65.3001 227.943 65.3001 228.099 65.3001 228.369C73.79 235.159 82.8459 241.949 91.9017 248.74C96.4296 252.134 100.957 255.529 105.414 258.924C99.6838 250.649 95.2266 241.1 93.9532 230.915V231.552C93.9532 232.188 93.3164 232.825 92.6797 232.188C90.1328 230.915 89.496 227.732 88.8593 224.55C84.4021 218.821 83.1287 209.272 86.3123 202.906C87.5858 200.36 90.1328 197.177 93.3164 197.177C95.2266 197.177 96.5001 198.45 97.7736 200.36C98.4103 200.36 99.6838 200.997 99.6838 201.633C101.594 206.089 102.231 210.545 101.594 215.638C102.867 220.094 102.231 225.186 100.321 229.642C99.6838 230.915 99.047 230.915 97.7736 230.915C98.4103 236.008 99.6838 241.1 101.594 246.193C104.141 253.195 107.961 258.924 111.782 264.654C139.798 286.297 166.541 310.486 183.096 341.678C179.791 331.767 176.275 322.066 172.791 312.456L172.79 312.455C170.233 305.401 167.693 298.395 165.267 291.389C162.93 284.963 160.626 278.536 158.325 272.118L158.325 272.117C150.596 250.561 142.899 229.091 134.067 207.999H133.431C118.786 190.175 101.594 175.534 83.7654 161.529C76.0901 157.948 68.0036 157.656 59.5058 157.349H59.5056C57.429 157.274 55.3278 157.198 53.2021 157.073L52.5654 157.71C49.3817 164.712 32.1899 162.802 27.096 160.893C25.1858 160.256 25.1858 158.347 25.8225 158.347C30.9164 152.617 41.1042 146.888 48.745 148.798C51.2919 149.435 52.5654 151.981 53.2021 154.527C62.1164 154.527 70.394 155.164 78.6715 157.71C64.0266 146.252 48.745 134.793 33.4634 123.335C32.8266 123.972 32.1899 123.972 31.5532 123.335C30.2797 122.062 29.0062 120.789 27.096 119.516C16.2715 118.243 -2.83052 109.331 0.353149 98.509C2.9001 88.9605 13.0878 94.6896 17.545 98.509C22.6389 102.328 27.7327 108.694 31.5532 115.06H33.4634C34.1001 115.06 34.1001 115.696 34.1001 116.333C34.1001 116.97 33.4634 117.606 32.8266 118.243V118.879C48.1083 129.064 63.3899 139.249 78.0348 150.708C72.941 143.069 69.1206 134.794 65.3003 126.518L65.3001 126.518C63.3899 125.881 61.4797 123.972 60.2062 122.699C55.1123 117.606 50.0185 109.331 50.6552 101.692C50.6552 100.419 51.9287 99.7822 53.2021 100.419C65.3001 102.328 73.5777 115.06 75.4879 126.518C75.4879 127.791 74.2144 129.064 72.9409 128.428C72.3042 128.428 71.6674 127.791 71.0307 127.155L71.0306 127.155C70.6645 127.521 70.509 127.676 70.3218 127.742C70.1834 127.791 70.0278 127.791 69.7572 127.791C72.5659 133.006 74.8688 138.473 77.144 143.875C78.4795 147.045 79.8054 150.193 81.2185 153.254C100.321 168.532 118.786 185.082 132.794 204.816C125.79 186.992 117.512 169.805 108.598 152.617C96.5001 129.701 83.7654 107.421 70.394 85.1411C64.6634 80.0485 58.9328 75.5926 52.5654 71.7731C50.0185 69.8634 47.3123 68.1129 44.6062 66.3623L44.6061 66.3622C41.9 64.6117 39.1939 62.8612 36.647 60.9515C36.0103 61.588 35.3736 62.2246 34.7368 62.2246C25.8225 63.4977 2.26337 49.4932 10.5409 38.6716C20.7287 25.3036 35.3736 48.8567 36.0103 58.4052C43.0144 62.8612 49.3817 67.3172 55.7491 71.7731C59.5695 74.3194 63.3899 76.8657 66.5736 79.412L66.5728 79.4106L66.5719 79.409C58.2949 64.7689 50.0179 50.1288 41.7409 34.8521C38.9731 39.2795 28.5054 30.7165 24.1443 27.149L24.1438 27.1486C23.4887 26.6127 22.9715 26.1896 22.6389 25.9402C18.8185 21.4842 10.5409 10.6625 16.9083 5.56998C28.3695 -3.34199 43.0144 22.7573 42.3776 31.6693C50.0185 42.491 57.6593 53.9492 64.6634 64.7709C58.9328 52.0395 53.8389 37.3984 53.8389 24.0305C50.0185 17.0282 48.1083 7.47968 53.8389 0.477427C54.4756 -0.159142 55.7491 -0.159142 57.0226 0.477427C64.6634 6.84312 67.2103 18.9379 64.6634 29.123C64.6634 29.7596 64.0266 30.3962 63.3899 30.3962C62.7532 33.579 60.2062 32.3059 58.296 30.3962C58.7205 32.0937 59.0742 33.7912 59.428 35.4887L59.428 35.489C60.1355 38.8839 60.843 42.2789 62.1164 45.6738C64.0266 55.2223 66.5736 64.1343 70.394 73.0463V73.6829C86.3123 99.7822 100.957 127.155 114.329 154.527C111.782 138.613 109.235 121.426 108.598 103.602C108.077 102.038 107.546 100.465 107.014 98.8844L107.013 98.8814C102.992 86.9546 98.8234 74.5896 97.1368 62.2246C93.3164 57.7686 91.4062 50.1298 90.1328 45.0372C88.8593 38.035 89.496 31.6693 93.9532 24.0305C94.5899 22.7573 96.5001 22.7573 97.1368 24.0305L100.957 33.579C100.957 33.579 101.594 33.579 101.594 34.2156V36.7619C103.504 41.8544 104.141 48.2201 104.141 53.9492C104.141 55.8589 101.594 55.8589 100.957 54.5858C100.957 54.9041 100.798 55.2224 100.639 55.5406C100.48 55.8589 100.321 56.1772 100.321 56.4955C100.321 56.8138 100.48 57.1321 100.639 57.4503C100.798 57.7686 100.957 58.0869 100.957 58.4052C100.957 58.7235 101.116 59.0418 101.276 59.36C101.435 59.6783 101.594 59.9966 101.594 60.3149V60.9515C104.141 70.5 106.688 80.0485 108.598 89.5971C109.235 76.2291 111.145 63.4977 115.602 52.0395C114.622 50.0792 114.774 46.9871 114.895 44.5058V44.5057C114.932 43.7641 114.965 43.0769 114.965 42.491C114.965 36.7619 116.876 31.6693 121.333 28.4865C121.969 27.8499 123.243 27.8499 123.88 28.4865C132.157 36.7619 130.884 53.3126 119.423 58.4052C118.394 58.9192 117.781 58.1882 117.248 57.5525L117.248 57.5523C117.121 57.4007 116.998 57.2546 116.876 57.1321C113.692 73.0463 112.418 88.3239 113.055 104.875C113.055 109.331 113.055 113.787 113.692 118.243C116.876 105.511 122.606 92.7799 130.247 82.5948C133.431 72.4097 141.072 62.8612 153.169 62.2246C153.806 62.2246 155.08 62.8612 155.08 63.4977C158.263 74.3194 146.165 83.868 136.614 86.4142C135.341 87.0508 134.704 85.7777 134.704 85.1411C134.067 85.7777 132.794 85.7777 132.794 85.1411H132.157C128.974 90.2336 125.79 95.3262 123.243 100.419C119.844 106.648 117.454 113.884 115.174 120.784L115.174 120.784C114.891 121.64 114.61 122.492 114.329 123.335L114.468 124.515L114.468 124.516C115.692 134.9 116.852 144.736 116.239 155.164C134.704 193.994 150.623 233.462 165.267 274.202C165.904 258.288 169.725 242.374 176.092 226.459C176.092 215.48 173.352 204.892 170.635 194.388C169.886 191.494 169.139 188.607 168.451 185.719C162.084 183.809 158.9 175.534 158.263 169.168C157.627 164.712 156.99 153.254 164.631 153.254C172.908 153.254 174.818 165.349 175.455 171.078C175.455 174.261 174.818 178.08 173.545 180.626V185.082C173.545 185.719 173.545 186.356 172.908 186.356C176.729 197.177 179.276 209.909 179.276 221.367L179.276 221.367C180.549 217.547 181.823 213.728 183.733 210.545C185.259 197.829 185.159 185.52 185.058 172.967C185.032 169.81 185.006 166.637 185.006 163.439C183.733 160.893 182.459 157.073 182.459 155.8C181.823 147.525 181.186 136.703 185.643 129.064C186.28 127.791 188.19 128.428 188.827 129.701C192.647 139.249 193.284 150.708 191.374 160.893C190.737 162.166 188.19 162.802 188.19 160.893C186.916 155.8 186.916 151.344 186.916 146.252C186.916 145.615 188.19 145.615 188.19 146.252C188.19 146.888 188.349 147.366 188.508 147.843C188.667 148.321 188.827 148.798 188.827 149.435C188.827 144.979 188.19 140.523 186.916 136.067C185.643 140.523 185.643 144.979 185.643 149.435C185.643 153.254 186.28 157.073 186.916 160.256C187.416 162.254 188.307 163.076 189.591 164.26C189.943 164.585 190.325 164.937 190.737 165.349C191.374 165.985 191.374 166.622 190.737 167.258C190.511 167.371 190.306 167.484 190.113 167.589L190.113 167.59C189.218 168.081 188.601 168.419 187.553 167.895C188.827 180.626 187.553 193.994 185.643 206.726C193.284 192.085 201.561 177.444 209.839 164.076V162.802C209.52 162.802 209.361 162.802 209.282 162.723C209.202 162.643 209.202 162.484 209.202 162.166C208.565 153.254 213.023 143.069 220.663 137.976C223.21 134.793 225.757 132.884 229.578 130.974C230.214 130.337 230.851 130.974 231.488 131.611C238.492 142.432 230.214 156.437 219.39 161.529C219.193 161.628 218.981 161.742 218.753 161.863C217.51 162.529 215.812 163.439 213.659 163.439C211.937 166.883 210.288 170.253 208.662 173.576L208.662 173.576C205.479 180.081 202.386 186.401 199.014 192.721C200.64 192.721 202.314 192.697 204.018 192.672L204.021 192.672C210.995 192.569 218.469 192.46 225.121 193.994V192.085C225.121 191.448 225.757 190.175 226.394 190.175C227.202 190.06 228.115 189.902 229.094 189.734L229.095 189.733C231.732 189.279 234.853 188.741 237.716 188.713ZM118.786 416.157C119.359 416.73 119.416 417.304 119.189 417.703C120.377 416.528 121.518 415.069 120.059 413.611C119.423 413.611 118.786 413.77 118.149 413.929L118.149 413.929C117.512 414.088 116.876 414.247 116.239 414.247C116.557 414.565 117.035 414.884 117.512 415.202C117.99 415.52 118.467 415.839 118.786 416.157ZM93.3164 369.687C91.4062 368.414 89.496 367.141 87.5858 366.505H86.9491C86.3123 365.231 85.0389 364.595 83.7654 363.958H82.4919C79.3083 362.049 75.4879 359.502 73.5777 355.683H77.3981C80.5817 356.319 83.7654 356.956 86.3123 359.502C88.8593 361.412 90.7695 363.958 92.043 367.141C92.043 367.778 92.6797 369.051 93.3164 369.687ZM128.337 356.956C128.094 356.713 127.943 356.47 127.815 356.262C127.607 355.926 127.457 355.683 127.063 355.683C125.79 354.41 125.153 352.5 124.516 350.59C123.88 348.681 121.333 349.954 121.969 351.227C121.969 351.545 122.129 351.863 122.288 352.182C122.447 352.5 122.606 352.818 122.606 353.137C121.969 352.5 120.696 352.5 121.333 353.773C121.969 356.956 123.243 360.775 124.516 363.958C121.969 362.685 120.696 360.775 119.423 357.593C117.512 352.5 116.239 345.498 118.786 339.769C123.243 344.861 126.427 350.59 128.337 356.956ZM127.7 365.868C127.457 365.625 127.307 365.382 127.178 365.174C126.97 364.838 126.82 364.595 126.427 364.595C126.427 364.595 127.063 364.595 127.063 363.958C127.063 363.322 126.904 362.844 126.745 362.367C126.586 361.889 126.427 361.412 126.427 360.775C127.7 361.412 128.974 361.412 128.974 360.139C129.318 361.173 129.476 362.207 129.65 363.341C129.797 364.303 129.955 365.337 130.247 366.505C128.974 365.868 128.337 365.868 127.7 365.868ZM78.0348 281.204C78.6715 280.568 79.3083 280.568 79.945 280.568C80.9001 281.204 82.0144 281.682 83.1287 282.159C84.243 282.637 85.3572 283.114 86.3123 283.751L86.9491 284.387C86.9491 284.387 86.3123 285.024 85.6756 285.024C85.6756 284.387 85.0389 283.751 84.4021 284.387C84.0838 284.387 83.9246 284.546 83.7654 284.705C83.6062 284.865 83.4471 285.024 83.1287 285.024C82.8104 285.024 82.4921 284.865 82.1738 284.706L82.1736 284.705C81.8552 284.546 81.5368 284.387 81.2185 284.387C80.5817 284.387 80.5817 285.024 80.5817 285.024C80.5817 284.63 80.0953 283.994 79.4231 283.114C79.0077 282.57 78.5212 281.934 78.0348 281.204ZM86.3123 279.931C82.4919 277.385 78.6715 276.748 74.8511 279.295C74.2144 279.931 73.5777 280.568 74.2144 281.841C74.8511 283.114 76.1246 285.024 77.3981 286.297C76.1246 286.297 74.2144 286.297 72.9409 285.66C72.7342 285.609 72.4563 285.544 72.1223 285.467L72.1186 285.466C68.3339 284.592 57.3856 282.063 61.4797 277.385C67.2103 271.019 76.1246 270.383 82.4919 276.112C83.3409 276.536 84.1899 277.526 85.0389 278.517C85.4634 279.012 85.8879 279.507 86.3123 279.931ZM49.3817 226.459C49.3817 227.096 50.0185 227.732 50.6552 227.732C50.9736 227.732 51.4511 227.573 51.9287 227.414C52.4062 227.255 52.8838 227.096 53.2021 227.096C54.1572 227.733 55.2715 228.369 56.3858 229.006C57.5001 229.642 58.6144 230.279 59.5695 230.915C58.296 232.188 55.7491 232.188 53.2021 230.915C48.745 229.006 44.2879 226.459 41.1042 222.64C40.7858 222.322 40.6266 222.003 40.4674 221.685C40.3083 221.367 40.1491 221.049 39.8307 220.73C39.8307 220.73 40.4674 220.094 39.8307 220.094C38.5572 217.547 37.9205 215.001 37.9205 212.455C40.4674 213.091 43.6511 214.365 46.8348 215.638V216.911C49.3817 219.457 51.9287 222.003 54.4756 223.913C51.2919 223.277 50.0185 223.913 49.3817 226.459ZM88.8593 216.911C87.5858 213.728 87.5858 210.545 88.2225 207.362C88.8593 204.816 90.1328 201.633 92.043 200.36C93.3164 199.723 93.9532 200.36 94.5899 200.997C94.5899 201.267 94.5899 201.423 94.541 201.561C94.4749 201.748 94.3193 201.904 93.9532 202.27C92.043 202.906 90.7695 205.453 90.1328 207.362C89.496 209.909 88.8593 213.091 88.8593 216.911ZM50.0185 153.891H44.9246C43.6511 153.891 43.6511 155.8 44.9246 155.8H46.1981V156.437C41.7409 157.71 37.2838 157.71 32.8266 157.073C35.3736 155.164 39.194 153.254 41.7409 151.981C43.6511 151.344 47.4715 150.071 49.3817 151.981C49.3817 152.617 49.3817 153.254 50.0185 153.891ZM23.9123 112.514C23.594 112.195 23.1164 111.877 22.6389 111.559C22.1613 111.24 21.6838 110.922 21.3654 110.604C20.7287 109.967 19.4552 111.24 20.0919 111.877L22.0021 113.787L16.2715 111.877C13.0878 110.604 0.353149 104.238 3.53683 99.1456C7.99397 92.7799 17.545 103.602 23.9123 112.514ZM67.2103 122.062C67.2103 122.38 67.3695 122.54 67.5287 122.699C67.6879 122.858 67.847 123.017 67.847 123.335C67.847 123.335 67.2103 123.335 67.2103 122.699C65.3001 119.516 63.3899 116.97 60.843 114.423C60.2062 113.787 59.5695 114.423 59.5695 115.06C57.0225 111.877 54.4756 107.421 53.8389 103.602C62.1164 106.148 67.2103 114.423 70.394 122.062L68.4838 120.152C68.3246 120.311 68.1257 120.471 67.9268 120.63L67.9266 120.63C67.3297 121.107 66.7327 121.585 67.2103 122.062ZM21.3654 48.8567C22.6389 49.4932 23.2756 50.1298 24.5491 51.4029C24.5491 51.4029 27.096 53.3126 27.7327 54.5858C27.7327 54.9041 27.8919 55.0632 28.0511 55.2224C28.2103 55.3815 28.3695 55.5406 28.3695 55.8589V56.4955H27.7327L24.5491 53.3126C23.6168 52.3806 23.0258 51.4486 22.2764 50.2669L22.2762 50.2665C22.002 49.8341 21.7065 49.3682 21.3654 48.8567ZM32.1899 54.5858H30.9164H30.2797C29.643 53.3126 29.0062 52.6761 27.7327 51.4029C27.7327 50.7664 27.5736 50.1299 27.4144 49.4934L27.4144 49.4932C27.2552 48.8567 27.096 48.2201 27.096 47.5835C27.096 46.947 25.8225 46.947 25.8225 47.5835V49.4932C24.1246 47.7957 21.8606 46.0982 20.3513 44.9665C19.5967 44.4007 19.0307 43.9763 18.8185 43.7641C17.545 43.1275 16.2715 44.4007 16.9083 45.6738C17.545 47.5835 18.8185 50.1298 20.0919 52.6761C14.3613 48.8567 10.5409 44.4007 13.7246 40.5813C20.0919 33.579 28.3695 46.3104 32.1899 54.5858ZM30.9164 25.3036C30.9164 25.9402 32.1899 25.9402 32.1899 25.3036C32.1899 24.6671 32.0307 24.0306 31.8716 23.3941L31.8715 23.3939C31.7123 22.7573 31.5532 22.1208 31.5532 21.4842C35.3736 24.0305 39.194 27.8499 37.9205 31.0327C37.2838 31.0327 36.0103 31.0327 35.3736 30.3962C32.1899 29.123 29.643 27.2133 27.7327 24.667C25.1858 22.1208 18.1817 14.4819 19.4552 10.026C21.3654 3.66027 32.8266 17.0282 33.4634 18.3014C33.4634 18.3014 34.1001 18.9379 34.1001 19.5745C32.8266 18.3014 31.5532 17.6648 30.2797 17.0282C29.0062 16.3916 27.7327 17.0282 27.7327 18.3014C27.7327 20.8476 29.0062 23.3939 30.9164 25.3036ZM55.7491 4.93341C60.843 10.6625 62.1164 18.3014 62.1164 25.3036C61.1221 24.8066 60.9042 24.3096 60.5533 23.5096C60.4548 23.2849 60.3458 23.0364 60.2062 22.7573C60.2062 21.4842 58.296 22.1208 58.296 23.3939V24.0305C57.6593 21.4842 56.3858 19.5745 55.7491 18.9379C54.4756 14.4819 53.2021 9.38939 55.7491 4.93341ZM94.5899 31.6693L98.4103 41.2178C97.7736 39.9447 95.2266 40.5813 95.8634 42.491C96.1554 43.3668 96.3135 44.2426 96.4605 45.057C96.634 46.0184 96.7921 46.8943 97.1368 47.5835C97.1368 47.5835 96.5001 47.5835 96.5001 48.2201V50.1298C93.9532 43.7641 92.043 37.3984 94.5899 31.6693ZM119.423 53.3126C119.423 52.6761 119.263 51.8804 119.104 51.0847L119.104 51.0845C118.945 50.2888 118.786 49.4932 118.786 48.8567V44.4007C119.423 41.8544 120.696 38.6716 121.969 36.1253C125.153 42.491 123.88 48.8567 119.423 53.3126ZM139.286 81.0664L139.286 81.0659C141.229 78.0083 143.07 75.1094 146.165 73.0463C144.892 78.1388 142.345 81.3217 137.888 83.2314C138.371 82.5068 138.831 81.7823 139.286 81.0664ZM163.994 162.802C162.721 169.168 164.631 175.534 166.541 181.9H165.904C163.994 179.353 162.721 176.807 162.084 173.624C162.035 173.381 161.979 173.111 161.918 172.819C161.185 169.299 159.78 162.559 162.721 159.62C165.904 155.8 169.725 163.439 170.998 170.441C170.642 169.551 170.335 168.71 170.037 167.891L170.037 167.891C169.268 165.783 168.553 163.821 167.178 161.529C166.541 160.893 163.994 160.893 163.994 162.802ZM225.121 154.527C226.394 149.435 227.031 143.705 226.394 139.249V138.613C226.712 138.295 227.19 137.976 227.667 137.658C228.145 137.34 228.623 137.021 228.941 136.703C231.488 143.069 229.578 149.435 225.121 154.527ZM214.933 160.893L216.843 157.073C217.48 156.437 216.206 155.164 215.57 155.164C217.48 150.071 219.39 144.979 223.21 141.159C223.21 146.888 222.574 153.891 220.027 158.347C218.116 159.62 216.843 160.256 214.933 160.893ZM225.121 232.188C222.574 232.825 220.027 234.098 218.116 236.008L217.48 235.371H209.839C212.386 232.825 216.843 231.552 220.663 232.188C221.937 231.552 223.847 231.552 225.121 232.188ZM227.667 243.01C228.304 242.374 229.578 241.1 229.578 239.827C229.578 237.281 225.121 237.281 223.847 237.281H223.21C225.757 236.008 228.304 235.371 230.851 236.008C234.672 237.281 231.488 241.1 229.578 243.01H227.667ZM208.565 238.554C211.112 238.554 214.296 237.918 216.843 237.281C216.843 237.599 216.684 237.758 216.525 237.918C216.365 238.077 216.206 238.236 216.206 238.554C214.933 240.464 216.843 242.374 218.753 241.1C219.39 240.464 220.027 239.986 220.663 239.509L220.664 239.509C221.3 239.032 221.937 238.554 222.574 237.918C222.574 238.161 222.481 238.311 222.401 238.439C222.273 238.647 222.18 238.797 222.574 239.191C222.574 239.827 222.574 240.464 223.21 241.1C223.21 241.737 223.847 242.374 224.484 242.374C223.847 242.374 223.847 243.01 223.847 243.647C224.111 243.647 224.375 243.756 224.684 243.884C225.121 244.065 225.648 244.283 226.394 244.283C226.394 244.92 227.031 244.92 227.031 244.283H227.667C221.3 248.103 213.023 249.376 209.839 241.737C209.668 241.396 209.498 241.1 209.339 240.826C208.907 240.077 208.565 239.486 208.565 238.554ZM233.398 316.852C236.582 324.491 234.035 333.403 230.851 341.678V342.315C227.031 334.676 228.304 323.854 233.398 316.852ZM171.635 385.602C170.361 383.055 170.361 379.872 170.998 377.326C173.288 379.043 175.064 381.275 176.324 384.484C175.5 383.901 174.077 384.433 173.545 384.965C172.908 384.328 171.635 384.965 171.635 385.602ZM103.504 422.523C104.198 421.829 104.64 420.966 105.074 420.119C105.835 418.636 106.571 417.199 108.598 416.793C108.916 416.793 109.394 416.634 109.872 416.475C110.349 416.316 110.827 416.157 111.145 416.157V418.067C110.508 420.613 107.325 421.886 104.778 422.523H103.504ZM100.321 414.247C104.141 411.064 109.872 411.064 114.329 412.337H114.965C114.329 412.656 113.692 412.815 113.055 412.974C112.418 413.133 111.782 413.292 111.145 413.611C109.872 413.611 107.961 413.611 106.688 414.247C106.051 414.565 105.574 414.884 105.096 415.202C104.618 415.52 104.141 415.839 103.504 416.157C102.867 416.157 102.231 416.793 102.231 416.793C101.594 416.793 101.594 417.43 102.231 418.067C100.957 419.34 100.321 421.249 100.957 423.159C99.047 423.159 97.7736 422.523 96.5001 421.249C93.9532 418.703 98.4103 415.52 100.321 414.247Z" fill="#E0BBA9"/>
</svg>
