<svg width="238" height="564" viewBox="0 0 238 564" fill="none" xmlns="http://www.w3.org/2000/svg">
<path fill-rule="evenodd" clip-rule="evenodd" d="M0 188.713V196.355C0.590424 196.587 1.18085 196.882 1.77127 197.177L1.77132 197.177C4.31825 199.087 4.95499 200.36 4.95499 202.27C3.50696 202.994 1.80167 203.409 0 203.603V206.057C0.80268 206.002 1.60536 205.854 2.40804 205.453V206.089C2.40804 206.726 3.04478 207.999 3.68151 207.362C5.59172 206.089 6.86518 204.816 7.50191 202.906C9.41212 201.633 11.3223 199.087 11.9591 196.541C20.8733 197.177 30.4244 197.177 39.3386 195.268C46.9795 210.545 53.9836 225.186 59.7142 241.1C51.4366 236.008 41.2489 234.098 31.0611 233.462C30.4244 231.552 29.7876 230.279 27.8774 229.006C20.7802 223.684 4.34379 225.502 0 233.95V241.283C0.308035 241.706 0.686224 242.075 1.13457 242.374C3.68151 245.556 8.77539 248.103 11.9591 249.376C16.4162 250.649 21.5101 250.649 25.3305 248.103C29.1509 246.193 31.6978 241.737 31.6978 237.918H39.3386C47.6162 238.554 53.9836 241.1 60.9876 244.92C64.8081 256.378 67.9917 268.473 69.9019 281.204C69.5836 282.477 69.1061 283.75 68.6286 285.023L68.6285 285.024L68.6283 285.024C68.1508 286.297 67.6733 287.57 67.355 288.843C63.4539 300.218 59.4283 311.677 55.3735 323.218C43.5448 356.886 31.468 391.261 21.5101 426.342C21.5101 416.157 17.6897 405.972 13.2325 395.787C13.5509 395.787 13.7101 395.787 13.7897 395.707C13.8693 395.628 13.8693 395.468 13.8693 395.15C12.5958 377.963 10.6856 361.412 8.77539 344.861C13.2325 343.588 13.2325 335.949 13.2325 332.13C12.5958 325.128 10.0489 316.216 4.95499 310.486C3.68152 309.85 1.7713 309.85 1.13457 311.123C0.711956 311.921 0.334363 312.747 0 313.596V338.247C1.08286 341.627 2.55388 344.762 4.31824 347.407C4.95497 348.044 6.22845 348.044 6.86519 348.044C6.22845 363.322 9.41213 379.236 13.2325 393.877C11.3036 389.056 9.00945 384.6 6.90328 380.509C6.22849 379.198 5.57299 377.925 4.95499 376.69C3.39504 373.051 1.72892 369.412 0 365.816V371.156V371.23V371.473C0.0251894 371.418 0.0375024 371.358 0.0340646 371.296C0.701578 372.59 1.38535 373.905 2.07904 375.239L2.08623 375.252C12.6285 395.526 25.4558 420.194 18.3264 440.983C9.57741 472.883 2.90826 505.199 0 537.594V562.821C1.5075 563.458 3.68151 562.737 3.68151 560.658C4.31825 532.649 8.13866 504.003 14.506 475.994C24.057 445.439 48.2529 427.615 75.6325 412.337C89.6407 410.428 101.739 411.064 114.473 412.974V414.247C113.875 416.639 116.648 418.469 118.57 419.738L118.574 419.74C118.697 419.821 118.816 419.9 118.93 419.976C119.567 419.976 120.204 419.34 119.567 418.703C119.416 418.552 119.247 418.392 119.07 418.225L119.069 418.223L118.929 418.091C119.27 418.277 119.737 418.3 120.204 418.067C120.522 418.067 120.841 417.907 121.159 417.748C121.477 417.589 121.796 417.43 122.114 417.43C120.841 424.432 131.028 427.615 136.122 426.979C139.943 426.979 145.037 425.705 146.31 421.249C148.22 416.157 141.853 410.428 137.396 407.245C131.665 404.699 124.024 405.335 118.294 407.882C117.975 408.2 117.657 408.359 117.339 408.518C117.02 408.677 116.702 408.836 116.384 409.155C105.559 406.608 93.4611 404.699 83.2734 407.245C87.0834 405.221 90.9157 403.22 94.7454 401.22L94.7557 401.215L94.7561 401.215C111.403 392.521 127.998 383.855 142.49 373.507H143.763C143.763 373.507 143.763 374.143 144.4 374.143C146.31 373.507 148.22 372.234 149.494 370.961C153.314 369.051 156.498 367.141 159.682 364.595C159.779 364.522 159.886 364.442 160.002 364.356L160.009 364.35C162.908 362.189 171.018 356.145 167.959 351.863C164.775 346.771 153.314 351.863 150.13 355.046C146.947 357.593 141.216 364.595 141.216 369.687C141.216 370.324 140.579 370.324 140.579 370.324C139.943 370.961 139.943 370.961 139.943 371.597C130.944 377.166 121.368 382.159 111.41 387.351L111.409 387.352L111.407 387.353C106.569 389.875 101.641 392.445 96.6448 395.15C103.012 387.511 108.106 378.599 111.926 369.051C112.245 369.051 112.563 368.892 112.882 368.733C113.2 368.573 113.518 368.414 113.837 368.414C125.298 363.958 128.482 344.225 122.114 334.676C121.477 333.403 120.204 333.403 118.93 334.04C111.29 339.769 106.833 347.407 104.922 356.319C101.102 358.866 98.555 362.685 101.102 366.505C103.012 368.414 105.559 369.051 108.106 369.051C102.375 379.872 95.3713 389.421 87.0938 399.606C75.6325 405.972 64.8081 412.337 54.6203 419.976C59.7142 411.701 62.2611 401.516 64.1713 391.967C71.1754 389.421 72.4489 377.326 71.1754 371.597C71.1754 370.324 69.9019 369.051 68.6284 369.687C64.1713 370.961 59.7142 374.78 57.804 379.236C54.6203 383.692 53.3468 388.784 57.1672 391.331C57.1672 391.649 57.008 392.126 56.8489 392.604C56.6897 393.081 56.5305 393.559 56.5305 393.877C55.8938 396.423 59.0774 397.06 59.7142 395.15C59.7142 394.832 59.8733 394.514 60.0325 394.195C60.1917 393.877 60.3509 393.559 60.3509 393.24C60.8124 393.24 61.274 393.24 61.493 392.998L61.1791 393.941C56.9053 406.779 53.0274 418.428 43.7958 428.888C32.3346 439.073 23.4203 449.895 17.0529 462.626C25.9672 423.796 38.7019 385.602 51.4366 348.681H52.0733C62.2611 330.22 74.9958 314.942 89.004 301.574H89.6407L90.2774 300.938C94.0978 297.118 97.9183 293.936 101.739 290.753C109.479 287.111 119.173 286.725 128.958 286.335H128.958C132.857 286.179 136.77 286.023 140.579 285.66C140.579 286.297 140.579 286.933 141.216 286.933C149.494 292.663 163.502 290.753 172.416 287.57C175.6 286.933 179.42 285.024 180.694 281.204C181.271 277.168 178.19 274.176 176.185 272.229C175.976 272.026 175.78 271.835 175.6 271.656C166.686 265.927 157.135 268.473 150.767 276.748C150.13 277.385 149.494 278.658 148.857 279.931L118.294 283.751C114.473 284.387 110.653 285.024 106.833 286.297C116.835 277.768 127.38 269.646 137.968 261.493L137.968 261.493C150.296 251.999 162.68 242.462 174.326 232.188C176.237 234.098 178.784 235.371 181.331 235.371C187.698 235.371 194.702 230.279 199.159 225.823C202.343 223.277 204.89 216.274 204.253 211.818C204.496 211.332 204.739 210.939 204.947 210.603C205.283 210.059 205.526 209.665 205.526 209.272C206.163 207.999 204.89 206.726 203.616 206.726C203.298 206.726 202.82 206.885 202.343 207.044C201.865 207.203 201.388 207.362 201.069 207.362C200.901 207.362 200.689 207.318 200.433 207.264C199.716 207.115 198.655 206.894 197.249 207.362C192.155 207.999 185.151 212.455 180.057 217.547C176.873 220.094 173.69 223.277 173.053 227.096C172.687 227.462 172.531 227.618 172.465 227.805C172.416 227.943 172.416 228.099 172.416 228.369C163.926 235.159 154.87 241.949 145.815 248.74C141.287 252.134 136.759 255.529 132.302 258.924C138.033 250.649 142.49 241.1 143.763 230.915V231.552C143.763 232.188 144.4 232.825 145.037 232.188C147.584 230.915 148.22 227.732 148.857 224.55C153.314 218.821 154.588 209.272 151.404 202.906C150.13 200.36 147.584 197.177 144.4 197.177C142.49 197.177 141.216 198.45 139.943 200.36C139.306 200.36 138.033 200.997 138.033 201.633C136.122 206.089 135.486 210.545 136.122 215.638C134.849 220.094 135.486 225.186 137.396 229.642C138.033 230.915 138.669 230.915 139.943 230.915C139.306 236.008 138.033 241.1 136.122 246.193C133.575 253.195 129.755 258.924 125.935 264.654C97.9182 286.297 71.1754 310.486 54.6203 341.678C57.9251 331.767 61.4416 322.066 64.9257 312.456L64.9261 312.455C67.4834 305.401 70.0232 298.395 72.4489 291.389C74.7864 284.963 77.0904 278.536 79.3916 272.118L79.3917 272.117C87.1201 250.561 94.8174 229.091 103.649 207.999H104.286C118.93 190.175 136.122 175.534 153.951 161.529C161.626 157.948 169.713 157.656 178.21 157.349H178.211C180.287 157.274 182.388 157.198 184.514 157.073L185.151 157.71C188.335 164.712 205.526 162.802 210.62 160.893C212.531 160.256 212.531 158.347 211.894 158.347C206.8 152.617 196.612 146.888 188.971 148.798C186.424 149.435 185.151 151.981 184.514 154.527C175.6 154.527 167.322 155.164 159.045 157.71C173.69 146.252 188.971 134.793 204.253 123.335C204.89 123.972 205.526 123.972 206.163 123.335C207.437 122.062 208.71 120.789 210.62 119.516C221.445 118.243 240.547 109.331 237.363 98.509C234.816 88.9605 224.628 94.6896 220.171 98.509C215.077 102.328 209.984 108.694 206.163 115.06H204.253C203.616 115.06 203.616 115.696 203.616 116.333C203.616 116.97 204.253 117.606 204.89 118.243V118.879C189.608 129.064 174.326 139.249 159.682 150.708C164.775 143.069 168.596 134.794 172.416 126.518L172.416 126.518C174.326 125.881 176.237 123.972 177.51 122.699C182.604 117.606 187.698 109.331 187.061 101.692C187.061 100.419 185.788 99.7822 184.514 100.419C172.416 102.328 164.139 115.06 162.228 126.518C162.228 127.791 163.502 129.064 164.775 128.428C165.412 128.428 166.049 127.791 166.686 127.155L166.686 127.155C167.052 127.521 167.207 127.676 167.395 127.742C167.533 127.791 167.688 127.791 167.959 127.791C165.15 133.006 162.848 138.473 160.572 143.875C159.237 147.045 157.911 150.193 156.498 153.254C137.396 168.532 118.93 185.082 104.922 204.816C111.926 186.992 120.204 169.805 129.118 152.617C141.216 129.701 153.951 107.421 167.322 85.1411C173.053 80.0485 178.784 75.5926 185.151 71.7731C187.698 69.8634 190.404 68.1129 193.11 66.3623L193.11 66.3622C195.816 64.6117 198.522 62.8612 201.069 60.9515C201.706 61.588 202.343 62.2246 202.979 62.2246C211.894 63.4977 235.453 49.4932 227.175 38.6716C216.988 25.3036 202.343 48.8567 201.706 58.4052C194.702 62.8612 188.335 67.3172 181.967 71.7731C178.147 74.3194 174.326 76.8657 171.143 79.412L171.143 79.4106L171.144 79.409C179.421 64.7689 187.698 50.1288 195.975 34.8521C198.743 39.2795 209.211 30.7165 213.572 27.149L213.572 27.1486C214.228 26.6127 214.745 26.1896 215.077 25.9402C218.898 21.4842 227.175 10.6625 220.808 5.56998C209.347 -3.34199 194.702 22.7573 195.339 31.6693C187.698 42.491 180.057 53.9492 173.053 64.7709C178.784 52.0395 183.877 37.3984 183.877 24.0305C187.698 17.0282 189.608 7.47968 183.877 0.477427C183.241 -0.159142 181.967 -0.159142 180.694 0.477427C173.053 6.84312 170.506 18.9379 173.053 29.123C173.053 29.7596 173.69 30.3962 174.326 30.3962C174.963 33.579 177.51 32.3059 179.42 30.3962C178.996 32.0937 178.642 33.7912 178.288 35.4887L178.288 35.489C177.581 38.8839 176.873 42.2789 175.6 45.6738C173.69 55.2223 171.143 64.1343 167.322 73.0463V73.6829C151.404 99.7822 136.759 127.155 123.388 154.527C125.935 138.613 128.482 121.426 129.118 103.602C129.64 102.038 130.17 100.465 130.703 98.8844L130.704 98.8814C134.724 86.9546 138.893 74.5896 140.579 62.2246C144.4 57.7686 146.31 50.1298 147.584 45.0372C148.857 38.035 148.22 31.6693 143.763 24.0305C143.126 22.7573 141.216 22.7573 140.579 24.0305L136.759 33.579C136.759 33.579 136.122 33.579 136.122 34.2156V36.7619C134.212 41.8544 133.575 48.2201 133.575 53.9492C133.575 55.8589 136.122 55.8589 136.759 54.5858C136.759 54.9041 136.918 55.2224 137.077 55.5406C137.237 55.8589 137.396 56.1772 137.396 56.4955C137.396 56.8138 137.237 57.1321 137.077 57.4503C136.918 57.7686 136.759 58.0869 136.759 58.4052C136.759 58.7235 136.6 59.0418 136.441 59.36C136.282 59.6783 136.122 59.9966 136.122 60.3149V60.9515C133.575 70.5 131.028 80.0485 129.118 89.5971C128.482 76.2291 126.571 63.4977 122.114 52.0395C123.095 50.0792 122.943 46.9871 122.821 44.5058V44.5057C122.785 43.7641 122.751 43.0769 122.751 42.491C122.751 36.7619 120.841 31.6693 116.384 28.4865C115.747 27.8499 114.473 27.8499 113.837 28.4865C105.559 36.7619 106.833 53.3126 118.294 58.4052C119.322 58.9192 119.935 58.1882 120.468 57.5525L120.468 57.5523C120.596 57.4007 120.718 57.2546 120.841 57.1321C124.024 73.0463 125.298 88.3239 124.661 104.875C124.661 109.331 124.661 113.787 124.024 118.243C120.841 105.511 115.11 92.7799 107.469 82.5948C104.286 72.4097 96.6448 62.8612 84.5468 62.2246C83.9101 62.2246 82.6366 62.8612 82.6366 63.4977C79.4529 74.3194 91.5509 83.868 101.102 86.4142C102.375 87.0508 103.012 85.7777 103.012 85.1411C103.649 85.7777 104.922 85.7777 104.922 85.1411H105.559C108.743 90.2336 111.926 95.3262 114.473 100.419C117.872 106.648 120.263 113.884 122.542 120.784L122.542 120.784C122.825 121.64 123.106 122.492 123.388 123.335L123.249 124.515L123.249 124.516C122.024 134.9 120.864 144.736 121.477 155.164C103.012 193.994 87.0938 233.462 72.4489 274.202C71.8121 258.288 67.9917 242.374 61.6244 226.459C61.6244 215.48 64.3639 204.892 67.0815 194.388C67.8303 191.494 68.5775 188.607 69.2652 185.719C75.6325 183.809 78.8162 175.534 79.4529 169.168C80.0897 164.712 80.7264 153.254 73.0856 153.254C64.808 153.254 62.8978 165.349 62.2611 171.078C62.2611 174.261 62.8978 178.08 64.1713 180.626V185.082C64.1713 185.719 64.1713 186.356 64.808 186.356C60.9876 197.177 58.4407 209.909 58.4407 221.367L58.4406 221.367C57.1672 217.547 55.8937 213.728 53.9836 210.545C52.4572 197.829 52.557 185.52 52.6588 172.967C52.6844 169.81 52.7101 166.637 52.7101 163.439C53.9836 160.893 55.257 157.073 55.257 155.8C55.8938 147.525 56.5305 136.703 52.0733 129.064C51.4366 127.791 49.5264 128.428 48.8897 129.701C45.0693 139.249 44.4325 150.708 46.3427 160.893C46.9795 162.166 49.5264 162.802 49.5264 160.893C50.7999 155.8 50.7999 151.344 50.7999 146.252C50.7999 145.615 49.5264 145.615 49.5264 146.252C49.5264 146.888 49.3672 147.366 49.208 147.843C49.0489 148.321 48.8897 148.798 48.8897 149.435C48.8897 144.979 49.5264 140.523 50.7999 136.067C52.0734 140.523 52.0733 144.979 52.0733 149.435C52.0733 153.254 51.4366 157.073 50.7999 160.256C50.3004 162.254 49.4089 163.076 48.1256 164.26C47.7731 164.585 47.3911 164.937 46.9795 165.349C46.3427 165.985 46.3427 166.622 46.9795 167.258C47.2049 167.371 47.4104 167.484 47.603 167.589L47.6033 167.59C48.4985 168.081 49.1152 168.419 50.1631 167.895C48.8897 180.626 50.1631 193.994 52.0733 206.726C44.4325 192.085 36.155 177.444 27.8774 164.076V162.802C28.1958 162.802 28.355 162.802 28.4346 162.723C28.5142 162.643 28.5142 162.484 28.5142 162.166C29.1509 153.254 24.6938 143.069 17.0529 137.976C14.506 134.793 11.9591 132.884 8.13866 130.974C7.50193 130.337 6.86517 130.974 6.22844 131.611C-0.775643 142.432 7.50192 156.437 18.3264 161.529C18.5234 161.628 18.7357 161.742 18.9632 161.863C20.2062 162.529 21.9041 163.439 24.057 163.439C25.7792 166.883 27.4287 170.253 29.0545 173.576L29.0546 173.576C32.2376 180.081 35.3303 186.401 38.7019 192.721C37.0766 192.721 35.4022 192.697 33.6979 192.672L33.6958 192.672C26.7212 192.569 19.2473 192.46 12.5958 193.994V192.085C12.5958 191.448 11.9591 190.175 11.3223 190.175C10.5143 190.06 9.60157 189.902 8.62216 189.734L8.62122 189.733C5.98406 189.279 2.86345 188.741 0 188.713ZM118.93 416.157C118.357 416.73 118.3 417.304 118.527 417.703C117.339 416.528 116.198 415.069 117.657 413.611C118.294 413.611 118.93 413.77 119.567 413.929L119.567 413.929C120.204 414.088 120.841 414.247 121.477 414.247C121.159 414.565 120.682 414.884 120.204 415.202C119.726 415.52 119.249 415.839 118.93 416.157ZM144.4 369.687C146.31 368.414 148.22 367.141 150.13 366.505H150.767C151.404 365.231 152.677 364.595 153.951 363.958H155.224C158.408 362.049 162.228 359.502 164.139 355.683H160.318C157.135 356.319 153.951 356.956 151.404 359.502C148.857 361.412 146.947 363.958 145.673 367.141C145.673 367.778 145.037 369.051 144.4 369.687ZM109.379 356.956C109.623 356.713 109.773 356.47 109.901 356.262C110.109 355.926 110.259 355.683 110.653 355.683C111.926 354.41 112.563 352.5 113.2 350.59C113.837 348.681 116.384 349.954 115.747 351.227C115.747 351.545 115.588 351.863 115.428 352.182C115.269 352.5 115.11 352.818 115.11 353.137C115.747 352.5 117.02 352.5 116.384 353.773C115.747 356.956 114.473 360.775 113.2 363.958C115.747 362.685 117.02 360.775 118.294 357.593C120.204 352.5 121.477 345.498 118.93 339.769C114.473 344.861 111.29 350.59 109.379 356.956ZM110.016 365.868C110.259 365.625 110.41 365.382 110.538 365.174C110.746 364.838 110.896 364.595 111.29 364.595C111.29 364.595 110.653 364.595 110.653 363.958C110.653 363.322 110.812 362.844 110.971 362.367C111.13 361.889 111.29 361.412 111.29 360.775C110.016 361.412 108.743 361.412 108.743 360.139C108.398 361.173 108.24 362.207 108.066 363.341C107.919 364.303 107.761 365.337 107.469 366.505C108.743 365.868 109.379 365.868 110.016 365.868ZM159.682 281.204C159.045 280.568 158.408 280.568 157.771 280.568C156.816 281.204 155.702 281.682 154.588 282.159C153.473 282.637 152.359 283.114 151.404 283.751L150.767 284.387C150.767 284.387 151.404 285.024 152.041 285.024C152.041 284.387 152.677 283.751 153.314 284.387C153.633 284.387 153.792 284.546 153.951 284.705C154.11 284.865 154.269 285.024 154.588 285.024C154.906 285.024 155.224 284.865 155.543 284.706L155.543 284.705C155.861 284.546 156.179 284.387 156.498 284.387C157.135 284.387 157.135 285.024 157.135 285.024C157.135 284.63 157.621 283.994 158.293 283.114C158.709 282.57 159.195 281.934 159.682 281.204ZM151.404 279.931C155.224 277.385 159.045 276.748 162.865 279.295C163.502 279.931 164.139 280.568 163.502 281.841C162.865 283.114 161.592 285.024 160.318 286.297C161.592 286.297 163.502 286.297 164.775 285.66C164.982 285.609 165.26 285.544 165.594 285.467L165.598 285.466C169.382 284.592 180.331 282.063 176.237 277.385C170.506 271.019 161.592 270.383 155.224 276.112C154.375 276.536 153.526 277.526 152.677 278.517C152.253 279.012 151.828 279.507 151.404 279.931ZM188.335 226.459C188.335 227.096 187.698 227.732 187.061 227.732C186.743 227.732 186.265 227.573 185.788 227.414C185.31 227.255 184.833 227.096 184.514 227.096C183.559 227.733 182.445 228.369 181.33 229.006C180.216 229.642 179.102 230.279 178.147 230.915C179.42 232.188 181.967 232.188 184.514 230.915C188.971 229.006 193.428 226.459 196.612 222.64C196.931 222.322 197.09 222.003 197.249 221.685C197.408 221.367 197.567 221.049 197.886 220.73C197.886 220.73 197.249 220.094 197.886 220.094C199.159 217.547 199.796 215.001 199.796 212.455C197.249 213.091 194.065 214.365 190.882 215.638V216.911C188.335 219.457 185.788 222.003 183.241 223.913C186.424 223.277 187.698 223.913 188.335 226.459ZM148.857 216.911C150.13 213.728 150.13 210.545 149.494 207.362C148.857 204.816 147.584 201.633 145.673 200.36C144.4 199.723 143.763 200.36 143.126 200.997C143.126 201.267 143.126 201.423 143.175 201.561C143.241 201.748 143.397 201.904 143.763 202.27C145.673 202.906 146.947 205.453 147.584 207.362C148.22 209.909 148.857 213.091 148.857 216.911ZM187.698 153.891H192.792C194.065 153.891 194.065 155.8 192.792 155.8H191.518V156.437C195.975 157.71 200.433 157.71 204.89 157.073C202.343 155.164 198.522 153.254 195.975 151.981C194.065 151.344 190.245 150.071 188.335 151.981C188.335 152.617 188.335 153.254 187.698 153.891ZM213.804 112.514C214.122 112.195 214.6 111.877 215.077 111.559C215.555 111.24 216.033 110.922 216.351 110.604C216.988 109.967 218.261 111.24 217.624 111.877L215.714 113.787L221.445 111.877C224.628 110.604 237.363 104.238 234.179 99.1456C229.722 92.7799 220.171 103.602 213.804 112.514ZM170.506 122.062C170.506 122.38 170.347 122.54 170.188 122.699C170.028 122.858 169.869 123.017 169.869 123.335C169.869 123.335 170.506 123.335 170.506 122.699C172.416 119.516 174.326 116.97 176.873 114.423C177.51 113.787 178.147 114.423 178.147 115.06C180.694 111.877 183.241 107.421 183.877 103.602C175.6 106.148 170.506 114.423 167.322 122.062L169.233 120.152C169.392 120.311 169.591 120.471 169.789 120.63L169.79 120.63C170.387 121.107 170.984 121.585 170.506 122.062ZM216.351 48.8567C215.077 49.4932 214.441 50.1298 213.167 51.4029C213.167 51.4029 210.62 53.3126 209.984 54.5858C209.984 54.9041 209.824 55.0632 209.665 55.2224C209.506 55.3815 209.347 55.5406 209.347 55.8589V56.4955H209.984L213.167 53.3126C214.099 52.3806 214.69 51.4486 215.44 50.2669L215.44 50.2665C215.714 49.8341 216.01 49.3682 216.351 48.8567ZM205.526 54.5858H206.8H207.437C208.073 53.3126 208.71 52.6761 209.984 51.4029C209.984 50.7664 210.143 50.1299 210.302 49.4934L210.302 49.4932C210.461 48.8567 210.62 48.2201 210.62 47.5835C210.62 46.947 211.894 46.947 211.894 47.5835V49.4932C213.592 47.7957 215.856 46.0982 217.365 44.9665C218.12 44.4007 218.686 43.9763 218.898 43.7641C220.171 43.1275 221.445 44.4007 220.808 45.6738C220.171 47.5835 218.898 50.1298 217.624 52.6761C223.355 48.8567 227.175 44.4007 223.992 40.5813C217.624 33.579 209.347 46.3104 205.526 54.5858ZM206.8 25.3036C206.8 25.9402 205.526 25.9402 205.526 25.3036C205.526 24.6671 205.686 24.0306 205.845 23.3941L205.845 23.3939C206.004 22.7573 206.163 22.1208 206.163 21.4842C202.343 24.0305 198.522 27.8499 199.796 31.0327C200.433 31.0327 201.706 31.0327 202.343 30.3962C205.526 29.123 208.073 27.2133 209.984 24.667C212.531 22.1208 219.535 14.4819 218.261 10.026C216.351 3.66027 204.89 17.0282 204.253 18.3014C204.253 18.3014 203.616 18.9379 203.616 19.5745C204.89 18.3014 206.163 17.6648 207.437 17.0282C208.71 16.3916 209.984 17.0282 209.984 18.3014C209.984 20.8476 208.71 23.3939 206.8 25.3036ZM181.967 4.93341C176.873 10.6625 175.6 18.3014 175.6 25.3036C176.594 24.8066 176.812 24.3096 177.163 23.5096C177.262 23.2849 177.37 23.0364 177.51 22.7573C177.51 21.4842 179.42 22.1208 179.42 23.3939V24.0305C180.057 21.4842 181.33 19.5745 181.967 18.9379C183.241 14.4819 184.514 9.38939 181.967 4.93341ZM143.126 31.6693L139.306 41.2178C139.943 39.9447 142.49 40.5813 141.853 42.491C141.561 43.3668 141.403 44.2426 141.256 45.057C141.082 46.0184 140.924 46.8943 140.579 47.5835C140.579 47.5835 141.216 47.5835 141.216 48.2201V50.1298C143.763 43.7641 145.673 37.3984 143.126 31.6693ZM118.294 53.3126C118.294 52.6761 118.453 51.8804 118.612 51.0847L118.612 51.0845C118.771 50.2888 118.93 49.4932 118.93 48.8567V44.4007C118.294 41.8544 117.02 38.6716 115.747 36.1253C112.563 42.491 113.837 48.8567 118.294 53.3126ZM98.4303 81.0664L98.43 81.0659C96.4878 78.0083 94.6464 75.1094 91.5509 73.0463C92.8244 78.1388 95.3713 81.3217 99.8284 83.2314C99.3453 82.5068 98.885 81.7823 98.4303 81.0664ZM73.7223 162.802C74.9958 169.168 73.0856 175.534 71.1754 181.9H71.8121C73.7223 179.353 74.9958 176.807 75.6325 173.624C75.6812 173.381 75.7374 173.111 75.7982 172.819C76.5317 169.299 77.9359 162.559 74.9958 159.62C71.8121 155.8 67.9917 163.439 66.7182 170.441C67.0745 169.551 67.381 168.71 67.6794 167.891L67.6797 167.891C68.4478 165.783 69.163 163.821 70.5387 161.529C71.1754 160.893 73.7223 160.893 73.7223 162.802ZM12.5958 154.527C11.3223 149.435 10.6856 143.705 11.3223 139.249V138.613C11.004 138.295 10.5264 137.976 10.0489 137.658C9.57131 137.34 9.09375 137.021 8.77539 136.703C6.22845 143.069 8.13864 149.435 12.5958 154.527ZM22.7836 160.893L20.8734 157.073C20.2366 156.437 21.5101 155.164 22.1468 155.164C20.2366 150.071 18.3264 144.979 14.506 141.159C14.506 146.888 15.1427 153.891 17.6897 158.347C19.5999 159.62 20.8734 160.256 22.7836 160.893ZM12.5958 232.188C15.1427 232.825 17.6897 234.098 19.5999 236.008L20.2366 235.371H27.8774C25.3305 232.825 20.8733 231.552 17.0529 232.188C15.7795 231.552 13.8693 231.552 12.5958 232.188ZM10.0489 243.01C9.41213 242.374 8.13866 241.1 8.13866 239.827C8.13866 237.281 12.5958 237.281 13.8693 237.281H14.506C11.9591 236.008 9.41213 235.371 6.86519 236.008C3.04478 237.281 6.22846 241.1 8.13866 243.01H10.0489ZM29.1509 238.554C26.604 238.554 23.4203 237.918 20.8734 237.281C20.8734 237.599 21.0325 237.758 21.1917 237.918C21.3509 238.077 21.5101 238.236 21.5101 238.554C22.7836 240.464 20.8733 242.374 18.9631 241.1C18.3264 240.464 17.6897 239.986 17.0529 239.509L17.0527 239.509C16.4161 239.032 15.7794 238.554 15.1427 237.918C15.1427 238.161 15.2356 238.311 15.315 238.439C15.4434 238.647 15.5363 238.797 15.1427 239.191C15.1427 239.827 15.1427 240.464 14.506 241.1C14.506 241.737 13.8693 242.374 13.2325 242.374C13.8693 242.374 13.8693 243.01 13.8693 243.647C13.6055 243.647 13.3418 243.756 13.0328 243.884C12.5958 244.065 12.0683 244.283 11.3223 244.283C11.3223 244.92 10.6856 244.92 10.6856 244.283H10.0489C16.4162 248.103 24.6938 249.376 27.8774 241.737C28.048 241.396 28.2187 241.1 28.377 240.826C28.8097 240.077 29.1509 239.486 29.1509 238.554ZM4.31824 316.852C1.13457 324.491 3.68151 333.403 6.86519 341.678V342.315C10.6856 334.676 9.41212 323.854 4.31824 316.852ZM66.0815 385.602C67.355 383.055 67.355 379.872 66.7182 377.326C64.4281 379.043 62.6528 381.275 61.3923 384.484C62.2165 383.901 63.639 384.433 64.1713 384.965C64.8081 384.328 66.0815 384.965 66.0815 385.602ZM134.212 422.523C133.518 421.829 133.076 420.966 132.642 420.119C131.881 418.636 131.145 417.199 129.118 416.793C128.8 416.793 128.322 416.634 127.845 416.475C127.367 416.316 126.89 416.157 126.571 416.157V418.067C127.208 420.613 130.392 421.886 132.939 422.523H134.212ZM137.396 414.247C133.575 411.064 127.845 411.064 123.388 412.337H122.751C123.388 412.656 124.024 412.815 124.661 412.974C125.298 413.133 125.935 413.292 126.571 413.611C127.845 413.611 129.755 413.611 131.028 414.247C131.665 414.565 132.143 414.884 132.62 415.202C133.098 415.52 133.575 415.839 134.212 416.157C134.849 416.157 135.486 416.793 135.486 416.793C136.122 416.793 136.122 417.43 135.486 418.067C136.759 419.34 137.396 421.249 136.759 423.159C138.669 423.159 139.943 422.523 141.216 421.249C143.763 418.703 139.306 415.52 137.396 414.247Z" fill="#E0BBA9"/>
</svg>
