<svg width="1177" height="3680" viewBox="0 0 1177 3680" fill="none" xmlns="http://www.w3.org/2000/svg">
<path d="M441.672 2378.87C411.958 2372.61 377.553 2357.99 346.796 2361.64C314.476 2365.3 289.454 2388.27 257.655 2394.01C256.612 2394.01 256.612 2395.58 257.655 2396.1C257.134 2396.1 256.612 2396.63 255.57 2396.63C254.006 2396.63 252.442 2397.15 250.357 2397.15C249.314 2397.15 249.314 2398.19 249.314 2398.71C247.75 2399.24 246.708 2399.76 245.144 2400.8C259.219 2380.96 270.687 2359.55 288.933 2342.85C309.263 2324.57 333.243 2311 355.658 2295.85C372.34 2284.37 380.68 2266.09 401.532 2259.3C402.054 2259.3 402.054 2258.26 401.532 2258.26C387.979 2257.74 379.117 2268.7 369.733 2277.58C353.052 2293.76 333.243 2305.77 313.955 2318.83C319.689 2313.08 324.381 2306.3 330.115 2300.55C336.892 2293.24 344.19 2285.93 349.924 2277.58C350.445 2277.06 349.403 2276.01 348.882 2276.53C340.541 2282.28 334.285 2290.63 327.508 2297.42C319.689 2306.3 310.827 2315.17 304.05 2325.09C289.454 2335.54 278.507 2346.5 268.602 2359.03C282.677 2316.22 322.817 2278.62 361.393 2256.17C373.904 2248.86 387.979 2244.68 401.532 2238.42C406.745 2235.81 452.098 2215.97 450.013 2224.32C440.629 2264 398.405 2302.64 365.563 2324.05C339.498 2340.76 306.657 2329.79 283.72 2349.63C282.156 2351.2 284.241 2353.81 285.805 2352.77C305.093 2341.28 328.03 2344.93 348.36 2338.67C365.042 2333.45 380.159 2321.44 393.713 2309.95C420.82 2286.98 448.97 2253.56 456.789 2218.06C457.311 2216.49 456.268 2214.92 454.183 2214.92C439.587 2214.92 426.033 2221.71 413.001 2227.45C392.149 2237.37 370.255 2245.73 350.445 2257.22C313.955 2278.62 271.73 2320.39 264.432 2363.21C264.432 2363.73 264.432 2363.73 264.432 2364.25C259.74 2370.52 254.527 2377.31 249.836 2385.14C239.931 2400.8 223.25 2410.2 211.26 2423.25C219.601 2400.28 227.42 2376.78 233.154 2352.77C233.154 2352.24 233.154 2352.24 233.154 2351.72C234.197 2352.24 235.761 2351.72 236.282 2350.16C246.187 2324.05 265.474 2300.55 278.507 2275.49C292.582 2249.38 307.699 2224.84 328.03 2202.91C342.105 2187.77 358.265 2174.2 373.382 2160.1C390.064 2150.7 403.096 2136.08 417.171 2123.03C418.214 2122.5 416.65 2120.94 416.128 2121.98C405.703 2130.86 395.798 2139.73 385.372 2148.09C404.66 2127.73 421.863 2105.27 439.587 2083.87C440.629 2082.3 438.544 2080.21 436.98 2081.78C415.086 2106.84 394.234 2132.95 371.297 2156.97C351.488 2177.33 329.594 2194.56 310.827 2215.97C308.221 2219.1 305.093 2222.75 302.486 2226.41C316.561 2191.43 334.807 2160.62 360.871 2132.43C383.808 2106.84 419.778 2074.99 452.619 2063.5C474.513 2055.67 446.885 2096.92 443.757 2101.1C434.374 2114.67 423.427 2126.68 413.001 2139.21C390.064 2169.5 355.137 2183.07 327.508 2208.13C325.945 2209.7 328.03 2212.83 330.115 2211.79C385.372 2175.24 453.14 2131.9 470.864 2062.98C471.386 2061.41 470.343 2059.85 468.779 2059.85C435.416 2056.19 399.447 2093.26 377.031 2113.63C339.498 2146.52 311.348 2190.9 297.273 2238.42V2238.94C287.369 2253.56 279.028 2269.75 270.687 2284.89C260.783 2303.16 247.75 2319.87 237.846 2338.67C246.187 2304.21 253.485 2269.22 260.261 2234.24C260.783 2234.24 261.304 2233.72 261.304 2233.2C261.304 2231.63 261.304 2230.59 261.304 2229.54C263.911 2217.53 266.517 2205 269.123 2192.99C272.251 2178.37 274.336 2163.75 275.9 2149.13C284.241 2128.25 291.018 2106.84 297.273 2085.43C297.795 2084.39 295.71 2083.87 295.71 2084.91C289.975 2101.1 283.198 2117.28 277.985 2133.47C281.113 2099.01 283.198 2065.07 291.018 2031.65C291.018 2030.61 289.454 2030.09 289.454 2031.13C279.028 2068.2 278.507 2107.36 274.336 2145.48C273.294 2149.13 272.251 2152.79 271.73 2156.44C271.73 2157.49 272.251 2158.01 272.773 2157.49C271.73 2164.8 270.166 2172.63 268.602 2179.94C265.996 2191.43 263.389 2202.39 261.304 2213.88C260.261 2202.39 257.655 2191.95 254.527 2179.94C249.314 2155.92 250.357 2130.86 252.963 2106.32C257.134 2072.9 260.261 2026.43 283.72 1999.8C294.667 1987.27 309.784 2055.67 310.306 2060.37C311.348 2081.78 306.135 2103.71 300.401 2124.59C289.975 2161.66 270.166 2196.13 261.825 2233.2C261.304 2235.81 264.432 2236.33 265.474 2234.24C296.231 2160.62 343.147 2061.94 291.018 1989.36C290.497 1988.32 288.933 1988.32 287.89 1988.84C261.304 2002.41 256.612 2046.79 252.442 2072.9C249.314 2093.79 246.187 2114.15 245.665 2135.04C244.623 2165.84 256.612 2194.04 258.176 2224.32C248.793 2267.14 239.41 2309.95 228.984 2352.24C214.388 2410.72 190.408 2466.07 169.035 2521.94C170.078 2501.57 166.429 2480.17 164.343 2460.33C162.258 2440.48 160.694 2420.64 160.173 2401.32C165.907 2335.54 205.526 2273.92 198.749 2206.57C198.749 2205 196.142 2205.52 196.142 2207.09C195.1 2251.47 178.418 2294.81 167.471 2338.67C163.301 2275.49 170.078 2211.27 198.749 2154.35C203.962 2143.91 210.739 2200.82 210.739 2196.65C212.302 2218.06 210.217 2239.46 206.568 2260.87C200.834 2293.76 185.716 2321.96 173.727 2352.77C173.205 2354.33 175.291 2354.85 175.812 2353.81C200.834 2318.3 212.302 2272.36 215.951 2229.54C216.994 2217.01 219.079 2144.96 203.44 2140.78C202.398 2140.78 201.355 2140.78 200.834 2141.82C183.11 2174.2 171.12 2207.61 165.907 2244.16C162.779 2264.53 162.779 2285.93 164.343 2306.3C165.386 2320.39 162.258 2333.45 165.907 2347.02C163.822 2355.38 162.258 2363.73 160.694 2371.56C160.694 2367.91 160.694 2364.77 160.694 2361.12C161.737 2341.8 159.13 2323 153.396 2304.73C153.917 2266.61 150.79 2229.02 129.938 2196.13C114.299 2171.06 88.7556 2142.87 57.478 2139.73C56.9567 2139.73 55.9141 2140.26 55.3928 2141.3C50.1799 2173.15 65.8187 2201.87 80.9362 2229.02C90.3195 2245.73 99.1815 2262.44 109.607 2278.62C121.597 2296.38 139.842 2307.34 151.832 2324.57C153.917 2332.92 154.96 2341.8 155.481 2351.72C157.045 2380.96 154.439 2409.68 157.566 2438.92C158.088 2445.71 159.13 2452.49 159.652 2459.28C149.226 2433.17 130.98 2414.9 109.607 2396.1C91.8834 2380.44 73.6381 2366.34 57.478 2349.11C44.9669 2335.54 37.1475 2320.92 21.5087 2311C19.4235 2309.95 17.8596 2312.56 19.4235 2314.13C47.0521 2331.88 63.7335 2364.25 89.7982 2384.62C89.7982 2384.62 89.7982 2384.62 90.3195 2385.14C78.8511 2379.39 67.3826 2374.7 57.9993 2365.3C57.478 2364.77 56.4354 2365.82 56.9567 2366.34C67.3826 2377.31 81.9788 2386.7 97.0964 2390.36C111.693 2402.37 124.725 2414.38 136.193 2427.95C110.129 2412.81 86.1492 2402.37 62.6909 2381.48C37.6688 2359.55 20.9874 2330.31 7.95502 2300.03C0.656899 2283.32 56.4354 2309.43 56.9567 2309.43C71.0316 2317.26 83.0214 2329.27 93.4473 2341.28C116.384 2366.34 126.81 2396.63 140.885 2426.39C141.406 2427.43 143.492 2426.91 142.97 2425.34C128.895 2359.55 72.0742 2291.68 2.22078 2289.07C0.656899 2289.07 -0.38569 2290.63 0.135604 2292.2C12.6467 2324.05 28.8068 2351.72 52.265 2376.78C77.8085 2403.93 106.48 2417.51 139.842 2432.65C139.842 2432.65 139.842 2432.65 140.364 2432.65C148.704 2443.62 155.481 2455.1 161.216 2469.2C163.822 2492.18 165.907 2515.67 163.301 2538.65C146.619 2583.03 132.544 2627.93 126.81 2674.92C126.289 2678.58 132.023 2678.58 132.544 2674.92C137.236 2643.07 145.055 2611.74 154.96 2581.46C163.301 2565.8 182.067 2553.79 197.706 2544.39C198.227 2544.39 198.749 2544.39 198.749 2544.39C210.739 2536.03 231.59 2542.82 244.101 2545.96C255.57 2549.09 265.474 2554.83 276.422 2558.49C277.464 2559.01 277.986 2557.44 277.464 2556.92C269.645 2545.96 246.708 2542.3 234.718 2539.69C227.42 2538.12 217.515 2536.04 209.175 2537.6C209.696 2537.08 210.217 2537.08 210.739 2536.56C211.781 2536.03 212.824 2535.51 213.866 2534.99C239.931 2525.07 281.635 2530.29 289.454 2558.49C292.06 2566.84 294.667 2575.72 281.113 2573.11C271.209 2571.02 261.825 2566.32 253.485 2561.62C239.931 2554.31 227.42 2546.48 212.302 2542.3C210.217 2541.78 209.696 2544.39 211.26 2545.43C238.367 2556.4 262.868 2576.24 292.582 2579.37C293.624 2579.37 294.667 2578.33 294.667 2577.28C295.188 2559.01 291.539 2541.78 272.773 2534.47C258.176 2528.73 240.974 2526.11 225.335 2529.25C248.272 2516.19 271.209 2503.14 294.667 2490.61C295.188 2490.09 295.188 2489.04 294.146 2489.04C270.687 2496.35 248.793 2508.88 227.42 2521.94C243.059 2491.65 285.284 2475.99 317.083 2473.38C325.945 2472.86 335.328 2471.29 329.072 2482.26C323.859 2491.65 314.997 2498.96 306.135 2505.23C289.454 2516.72 268.602 2506.8 251.921 2516.19C250.357 2516.72 251.399 2518.8 252.963 2518.8C272.251 2515.15 291.018 2519.85 308.742 2509.93C321.774 2502.1 334.285 2488.52 337.934 2473.38C338.456 2472.33 337.934 2470.77 336.37 2470.77C299.359 2463.46 236.803 2485.39 224.292 2524.55C213.866 2531.34 203.44 2537.6 193.536 2544.39C182.589 2551.18 168.514 2560.05 158.609 2571.02C173.205 2527.16 191.451 2483.82 207.611 2439.96C216.994 2427.95 230.026 2422.21 239.931 2410.72C244.623 2407.07 249.836 2404.46 255.049 2402.37C273.815 2404.98 292.582 2418.03 311.87 2420.64C331.158 2423.25 352.009 2424.3 371.297 2423.78C402.054 2423.25 429.682 2411.77 444.278 2384.09C443.757 2380.96 443.236 2379.39 441.672 2378.87ZM103.873 2261.91C86.6705 2233.72 68.4252 2203.96 59.0419 2172.11C50.7012 2142.87 67.3826 2142.35 87.7131 2156.44C104.394 2167.93 117.948 2186.73 128.895 2203.44C145.577 2230.06 146.619 2260.87 147.141 2291.15C147.141 2291.15 147.141 2290.63 146.619 2290.63C141.928 2279.67 136.193 2270.27 130.459 2260.87C129.417 2255.65 127.853 2249.91 126.81 2244.68C124.204 2234.24 122.118 2223.8 120.555 2213.36C120.555 2212.31 118.991 2212.83 118.991 2213.36C118.991 2224.84 120.555 2237.37 123.161 2249.38C113.778 2233.72 104.916 2218.06 102.831 2197.69C102.831 2196.13 99.7028 2196.13 99.7028 2198.21C100.224 2218.58 108.044 2234.76 117.948 2251.99C130.459 2273.4 140.885 2291.68 147.141 2312.56C135.151 2294.81 115.342 2280.71 103.873 2261.91ZM426.033 2398.71C403.617 2422.21 361.393 2419.08 331.679 2415.42C308.221 2412.81 288.411 2410.72 267.038 2399.24C265.996 2398.71 264.953 2398.19 264.432 2397.67C280.592 2395.06 297.795 2396.1 313.434 2395.58C343.147 2394.54 373.904 2395.58 402.054 2385.66C403.096 2385.14 402.575 2383.57 401.532 2384.09C369.733 2390.36 337.413 2392.97 305.093 2393.49C314.997 2390.36 323.859 2384.09 332.2 2379.39C332.721 2378.87 332.2 2377.83 331.679 2378.35C325.945 2380.96 320.21 2383.57 314.997 2385.66C308.742 2388.27 301.965 2390.36 295.71 2393.49C295.71 2393.49 295.188 2393.49 295.188 2394.01C291.539 2394.01 288.411 2394.01 284.762 2394.01C280.071 2394.01 274.858 2394.01 270.166 2394.54C285.805 2390.88 299.359 2382.53 313.955 2375.22C340.02 2362.16 366.084 2366.34 393.713 2372.61C410.916 2375.74 446.885 2376.26 426.033 2398.71Z" fill="#E0BBA9"/>
<path d="M275.379 2041.57C266.517 2071.34 265.996 2103.19 267.56 2133.99C267.56 2135.04 269.124 2135.04 269.124 2133.99C270.687 2102.66 270.687 2072.38 276.422 2041.57C276.422 2041.05 275.379 2041.05 275.379 2041.57Z" fill="#E0BBA9"/>
<path d="M406.224 2102.66C387.978 2121.98 371.297 2142.87 355.137 2163.23C354.616 2163.75 355.658 2164.8 356.18 2164.27C374.425 2145.48 392.149 2124.59 407.266 2103.71C407.788 2102.66 406.745 2102.14 406.224 2102.66Z" fill="#E0BBA9"/>
<path d="M378.595 2291.15C393.713 2279.14 408.309 2266.61 422.384 2254.08C423.427 2253.56 421.863 2251.99 421.341 2253.04C406.745 2265.57 391.106 2277.06 377.553 2290.63C376.51 2291.15 377.553 2292.2 378.595 2291.15Z" fill="#E0BBA9"/>
<path d="M383.287 2380.44C367.648 2382.53 351.488 2383.05 336.892 2388.27C335.849 2388.79 336.371 2389.84 337.413 2389.84C353.052 2387.23 368.17 2384.62 383.808 2382.53C384.851 2382.53 384.33 2380.44 383.287 2380.44Z" fill="#E0BBA9"/>
<path d="M272.251 2507.32C286.326 2504.19 300.922 2494.79 309.784 2483.82C310.306 2483.3 309.263 2482.26 308.742 2482.78C303.008 2487.48 297.273 2492.18 290.497 2496.35C284.241 2500.01 277.985 2502.62 271.73 2505.75C270.687 2506.27 271.209 2507.84 272.251 2507.32Z" fill="#E0BBA9"/>
<path d="M83.5426 2174.72C83.0214 2174.2 81.9788 2174.2 81.9788 2175.24C89.2769 2196.13 89.7982 2220.67 101.267 2239.46C101.788 2240.51 103.873 2239.98 103.352 2238.94C96.575 2218.06 93.4472 2194.56 83.5426 2174.72Z" fill="#E0BBA9"/>
<path d="M39.2328 2315.17C50.7013 2332.4 69.4679 2342.32 83.0216 2357.47C83.5429 2357.99 84.5855 2357.47 84.0642 2356.42C72.5957 2339.19 52.2652 2330.84 40.7967 2314.13C40.2754 2313.08 38.7116 2314.13 39.2328 2315.17Z" fill="#E0BBA9"/>
<path d="M194.057 2186.2C189.365 2207.09 184.153 2228.5 182.589 2249.9C182.589 2250.95 184.152 2251.47 184.674 2250.43C189.365 2229.54 191.972 2208.13 196.142 2186.73C196.142 2185.68 194.578 2185.16 194.057 2186.2Z" fill="#E0BBA9"/>
<path d="M740.672 3380.38C710.958 3374.11 676.553 3359.49 645.796 3363.15C613.476 3366.8 588.454 3389.78 556.655 3395.52C555.612 3395.52 555.612 3397.09 556.655 3397.61C556.134 3397.61 555.612 3398.13 554.57 3398.13C553.006 3398.13 551.442 3398.65 549.357 3398.65C548.314 3398.65 548.314 3399.7 548.314 3400.22C546.75 3400.74 545.708 3401.26 544.144 3402.31C558.219 3382.47 569.687 3361.06 587.933 3344.35C608.263 3326.08 632.243 3312.5 654.658 3297.36C671.34 3285.87 679.68 3267.6 700.532 3260.81C701.054 3260.81 701.054 3259.76 700.532 3259.76C686.979 3259.24 678.117 3270.21 668.733 3279.08C652.052 3295.27 632.243 3307.28 612.955 3320.33C618.689 3314.59 623.381 3307.8 629.115 3302.06C635.892 3294.75 643.19 3287.44 648.924 3279.08C649.445 3278.56 648.403 3277.52 647.882 3278.04C639.541 3283.78 633.285 3292.14 626.508 3298.92C618.689 3307.8 609.827 3316.68 603.05 3326.6C588.454 3337.04 577.507 3348.01 567.602 3360.54C581.677 3317.72 621.817 3280.13 660.393 3257.68C672.904 3250.37 686.979 3246.19 700.532 3239.92C705.745 3237.31 751.098 3217.47 749.013 3225.83C739.629 3265.51 697.405 3304.15 664.563 3325.55C638.498 3342.26 605.657 3331.3 582.72 3351.14C581.156 3352.7 583.241 3355.31 584.805 3354.27C604.093 3342.78 627.03 3346.44 647.36 3340.17C664.042 3334.95 679.159 3322.94 692.713 3311.46C719.82 3288.48 747.97 3255.07 755.789 3219.56C756.311 3217.99 755.268 3216.43 753.183 3216.43C738.587 3216.43 725.033 3223.21 712.001 3228.96C691.149 3238.88 669.255 3247.23 649.445 3258.72C612.955 3280.13 570.73 3321.9 563.432 3364.71C563.432 3365.24 563.432 3365.24 563.432 3365.76C558.74 3372.02 553.527 3378.81 548.836 3386.64C538.931 3402.31 522.25 3411.71 510.26 3424.76C518.601 3401.78 526.42 3378.29 532.154 3354.27C532.154 3353.75 532.154 3353.75 532.154 3353.23C533.197 3353.75 534.761 3353.23 535.282 3351.66C545.187 3325.55 564.474 3302.06 577.507 3276.99C591.582 3250.89 606.699 3226.35 627.03 3204.42C641.105 3189.28 657.265 3175.7 672.382 3161.6C689.064 3152.2 702.096 3137.58 716.171 3124.53C717.214 3124.01 715.65 3122.44 715.128 3123.49C704.703 3132.36 694.798 3141.24 684.372 3149.59C703.66 3129.23 720.863 3106.78 738.587 3085.37C739.629 3083.81 737.544 3081.72 735.98 3083.28C714.086 3108.35 693.234 3134.45 670.297 3158.47C650.488 3178.83 628.594 3196.06 609.827 3217.47C607.221 3220.6 604.093 3224.26 601.486 3227.91C615.561 3192.93 633.807 3162.13 659.871 3133.93C682.808 3108.35 718.778 3076.5 751.619 3065.01C773.513 3057.18 745.885 3098.42 742.757 3102.6C733.374 3116.18 722.427 3128.19 712.001 3140.72C689.064 3171 654.137 3184.58 626.508 3209.64C624.945 3211.21 627.03 3214.34 629.115 3213.29C684.372 3176.74 752.14 3133.41 769.864 3064.49C770.386 3062.92 769.343 3061.35 767.779 3061.35C734.416 3057.7 698.447 3094.77 676.031 3115.13C638.498 3148.03 610.348 3192.41 596.273 3239.92V3240.45C586.369 3255.07 578.028 3271.25 569.687 3286.39C559.783 3304.67 546.75 3321.38 536.846 3340.17C545.187 3305.71 552.485 3270.73 559.261 3235.75C559.783 3235.75 560.304 3235.22 560.304 3234.7C560.304 3233.14 560.304 3232.09 560.304 3231.05C562.911 3219.04 565.517 3206.51 568.123 3194.5C571.251 3179.88 573.336 3165.26 574.9 3150.64C583.241 3129.75 590.018 3108.35 596.273 3086.94C596.795 3085.89 594.71 3085.37 594.71 3086.42C588.975 3102.6 582.198 3118.79 576.985 3134.97C580.113 3100.51 582.198 3066.57 590.018 3033.16C590.018 3032.11 588.454 3031.59 588.454 3032.64C578.028 3069.71 577.507 3108.87 573.336 3146.98C572.294 3150.64 571.251 3154.29 570.73 3157.95C570.73 3158.99 571.251 3159.51 571.773 3158.99C570.73 3166.3 569.166 3174.13 567.602 3181.44C564.996 3192.93 562.389 3203.9 560.304 3215.38C559.261 3203.9 556.655 3193.45 553.527 3181.44C548.314 3157.43 549.357 3132.36 551.963 3107.82C556.134 3074.41 559.261 3027.94 582.72 3001.31C593.667 2988.78 608.784 3057.18 609.306 3061.88C610.348 3083.28 605.135 3105.21 599.401 3126.1C588.975 3163.17 569.166 3197.63 560.825 3234.7C560.304 3237.31 563.432 3237.83 564.474 3235.75C595.231 3162.13 642.147 3063.44 590.018 2990.87C589.497 2989.82 587.933 2989.82 586.89 2990.34C560.304 3003.92 555.612 3048.3 551.442 3074.41C548.314 3095.29 545.187 3115.66 544.665 3136.54C543.623 3167.35 555.612 3195.54 557.176 3225.83C547.793 3268.64 538.41 3311.46 527.984 3353.75C513.388 3412.23 489.408 3467.57 468.035 3523.44C469.078 3503.08 465.429 3481.67 463.343 3461.83C461.258 3441.99 459.694 3422.15 459.173 3402.83C464.907 3337.04 504.526 3275.43 497.749 3208.07C497.749 3206.51 495.142 3207.03 495.142 3208.6C494.1 3252.98 477.418 3296.31 466.471 3340.17C462.301 3276.99 469.078 3212.77 497.749 3155.86C502.962 3145.42 509.739 3202.33 509.739 3198.15C511.302 3219.56 509.217 3240.97 505.568 3262.38C499.834 3295.27 484.716 3323.46 472.727 3354.27C472.205 3355.84 474.291 3356.36 474.812 3355.31C499.834 3319.81 511.302 3273.86 514.951 3231.05C515.994 3218.52 518.079 3146.46 502.44 3142.28C501.398 3142.28 500.355 3142.28 499.834 3143.33C482.11 3175.7 470.12 3209.12 464.907 3245.67C461.779 3266.03 461.779 3287.44 463.343 3307.8C464.386 3321.9 461.258 3334.95 464.907 3348.53C462.822 3356.88 461.258 3365.24 459.694 3373.07C459.694 3369.41 459.694 3366.28 459.694 3362.62C460.737 3343.31 458.13 3324.51 452.396 3306.23C452.917 3268.12 449.79 3230.52 428.938 3197.63C413.299 3172.57 387.756 3144.37 356.478 3141.24C355.957 3141.24 354.914 3141.76 354.393 3142.81C349.18 3174.66 364.819 3203.37 379.936 3230.52C389.32 3247.23 398.182 3263.94 408.607 3280.13C420.597 3297.88 438.842 3308.85 450.832 3326.08C452.917 3334.43 453.96 3343.31 454.481 3353.23C456.045 3382.47 453.439 3411.18 456.566 3440.42C457.088 3447.21 458.13 3454 458.652 3460.79C448.226 3434.68 429.98 3416.4 408.607 3397.61C390.883 3381.94 372.638 3367.85 356.478 3350.62C343.967 3337.04 336.148 3322.42 320.509 3312.5C318.423 3311.46 316.86 3314.07 318.423 3315.63C346.052 3333.39 362.734 3365.76 388.798 3386.12C388.798 3386.12 388.798 3386.12 389.32 3386.64C377.851 3380.9 366.383 3376.2 356.999 3366.8C356.478 3366.28 355.435 3367.32 355.957 3367.85C366.383 3378.81 380.979 3388.21 396.096 3391.86C410.693 3403.87 423.725 3415.88 435.193 3429.46C409.129 3414.32 385.149 3403.87 361.691 3382.99C336.669 3361.06 319.987 3331.82 306.955 3301.54C299.657 3284.83 355.435 3310.93 355.957 3310.93C370.032 3318.77 382.021 3330.77 392.447 3342.78C415.384 3367.85 425.81 3398.13 439.885 3427.89C440.406 3428.94 442.492 3428.41 441.97 3426.85C427.895 3361.06 371.074 3293.18 301.221 3290.57C299.657 3290.57 298.614 3292.14 299.136 3293.7C311.647 3325.55 327.807 3353.23 351.265 3378.29C376.808 3405.44 405.48 3419.02 438.842 3434.16C438.842 3434.16 438.842 3434.16 439.364 3434.16C447.704 3445.12 454.481 3456.61 460.216 3470.71C462.822 3493.68 464.907 3517.18 462.301 3540.15C445.619 3584.53 431.544 3629.44 425.81 3676.43C425.289 3680.08 431.023 3680.08 431.544 3676.43C436.236 3644.58 444.055 3613.25 453.96 3582.97C462.301 3567.3 481.067 3555.29 496.706 3545.89C497.227 3545.89 497.749 3545.89 497.749 3545.89C509.739 3537.54 530.59 3544.33 543.101 3547.46C554.57 3550.59 564.474 3556.34 575.422 3559.99C576.464 3560.51 576.986 3558.95 576.464 3558.43C568.645 3547.46 545.708 3543.81 533.718 3541.19C526.42 3539.63 516.515 3537.54 508.175 3539.11C508.696 3538.58 509.217 3538.58 509.739 3538.06C510.781 3537.54 511.824 3537.02 512.866 3536.5C538.931 3526.58 580.635 3531.8 588.454 3559.99C591.06 3568.35 593.667 3577.22 580.113 3574.61C570.209 3572.52 560.825 3567.82 552.485 3563.12C538.931 3555.81 526.42 3547.98 511.302 3543.81C509.217 3543.28 508.696 3545.89 510.26 3546.94C537.367 3557.9 561.868 3577.74 591.582 3580.88C592.624 3580.88 593.667 3579.83 593.667 3578.79C594.188 3560.51 590.539 3543.28 571.773 3535.97C557.176 3530.23 539.974 3527.62 524.335 3530.75C547.272 3517.7 570.209 3504.65 593.667 3492.11C594.188 3491.59 594.188 3490.55 593.146 3490.55C569.687 3497.86 547.793 3510.39 526.42 3523.44C542.059 3493.16 584.284 3477.49 616.083 3474.88C624.945 3474.36 634.328 3472.8 628.072 3483.76C622.859 3493.16 613.997 3500.47 605.135 3506.73C588.454 3518.22 567.602 3508.3 550.921 3517.7C549.357 3518.22 550.399 3520.31 551.963 3520.31C571.251 3516.65 590.018 3521.35 607.742 3511.43C620.774 3503.6 633.285 3490.03 636.934 3474.88C637.456 3473.84 636.934 3472.27 635.37 3472.27C598.359 3464.96 535.803 3486.89 523.292 3526.05C512.866 3532.84 502.44 3539.11 492.536 3545.89C481.589 3552.68 467.514 3561.56 457.609 3572.52C472.205 3528.66 490.451 3485.33 506.611 3441.47C515.994 3429.46 529.026 3423.71 538.931 3412.23C543.623 3408.57 548.836 3405.96 554.049 3403.87C572.815 3406.48 591.582 3419.54 610.87 3422.15C630.158 3424.76 651.009 3425.8 670.297 3425.28C701.054 3424.76 728.682 3413.27 743.278 3385.6C742.757 3382.47 742.236 3380.9 740.672 3380.38ZM402.873 3263.42C385.67 3235.22 367.425 3205.46 358.042 3173.61C349.701 3144.37 366.383 3143.85 386.713 3157.95C403.394 3169.44 416.948 3188.23 427.895 3204.94C444.577 3231.57 445.619 3262.38 446.141 3292.66C446.141 3292.66 446.141 3292.14 445.619 3292.14C440.928 3281.17 435.193 3271.77 429.459 3262.38C428.417 3257.15 426.853 3251.41 425.81 3246.19C423.204 3235.75 421.118 3225.3 419.555 3214.86C419.555 3213.82 417.991 3214.34 417.991 3214.86C417.991 3226.35 419.555 3238.88 422.161 3250.89C412.778 3235.22 403.916 3219.56 401.831 3199.2C401.831 3197.63 398.703 3197.63 398.703 3199.72C399.224 3220.08 407.044 3236.27 416.948 3253.5C429.459 3274.91 439.885 3293.18 446.141 3314.07C434.151 3296.31 414.342 3282.22 402.873 3263.42ZM725.033 3400.22C702.617 3423.71 660.393 3420.58 630.679 3416.93C607.221 3414.32 587.411 3412.23 566.038 3400.74C564.996 3400.22 563.953 3399.7 563.432 3399.17C579.592 3396.56 596.795 3397.61 612.434 3397.09C642.147 3396.04 672.904 3397.09 701.054 3387.17C702.096 3386.64 701.575 3385.08 700.532 3385.6C668.733 3391.86 636.413 3394.48 604.093 3395C613.997 3391.86 622.859 3385.6 631.2 3380.9C631.721 3380.38 631.2 3379.33 630.679 3379.86C624.945 3382.47 619.21 3385.08 613.997 3387.17C607.742 3389.78 600.965 3391.86 594.71 3395C594.71 3395 594.188 3395 594.188 3395.52C590.539 3395.52 587.411 3395.52 583.762 3395.52C579.071 3395.52 573.858 3395.52 569.166 3396.04C584.805 3392.39 598.359 3384.03 612.955 3376.72C639.02 3363.67 665.084 3367.85 692.713 3374.11C709.916 3377.24 745.885 3377.77 725.033 3400.22Z" fill="#E0BBA9"/>
<path d="M574.379 3043.08C565.517 3072.84 564.996 3104.69 566.56 3135.5C566.56 3136.54 568.124 3136.54 568.124 3135.5C569.687 3104.17 569.687 3073.89 575.422 3043.08C575.422 3042.56 574.379 3042.56 574.379 3043.08Z" fill="#E0BBA9"/>
<path d="M705.224 3104.17C686.978 3123.49 670.297 3144.37 654.137 3164.74C653.616 3165.26 654.658 3166.3 655.18 3165.78C673.425 3146.98 691.149 3126.1 706.266 3105.21C706.788 3104.17 705.745 3103.65 705.224 3104.17Z" fill="#E0BBA9"/>
<path d="M677.595 3292.66C692.713 3280.65 707.309 3268.12 721.384 3255.59C722.427 3255.06 720.863 3253.5 720.341 3254.54C705.745 3267.07 690.106 3278.56 676.553 3292.14C675.51 3292.66 676.553 3293.7 677.595 3292.66Z" fill="#E0BBA9"/>
<path d="M682.287 3381.94C666.648 3384.03 650.488 3384.55 635.892 3389.78C634.849 3390.3 635.371 3391.34 636.413 3391.34C652.052 3388.73 667.17 3386.12 682.808 3384.03C683.851 3384.03 683.33 3381.94 682.287 3381.94Z" fill="#E0BBA9"/>
<path d="M571.251 3508.82C585.326 3505.69 599.922 3496.29 608.784 3485.33C609.306 3484.81 608.263 3483.76 607.742 3484.28C602.008 3488.98 596.273 3493.68 589.497 3497.86C583.241 3501.51 576.985 3504.12 570.73 3507.26C569.687 3507.78 570.209 3509.35 571.251 3508.82Z" fill="#E0BBA9"/>
<path d="M382.543 3176.22C382.021 3175.7 380.979 3175.7 380.979 3176.74C388.277 3197.63 388.798 3222.17 400.267 3240.97C400.788 3242.01 402.873 3241.49 402.352 3240.45C395.575 3219.56 392.447 3196.06 382.543 3176.22Z" fill="#E0BBA9"/>
<path d="M338.233 3316.68C349.701 3333.91 368.468 3343.83 382.022 3358.97C382.543 3359.49 383.585 3358.97 383.064 3357.93C371.596 3340.7 351.265 3332.34 339.797 3315.63C339.275 3314.59 337.712 3315.63 338.233 3316.68Z" fill="#E0BBA9"/>
<path d="M493.057 3187.71C488.365 3208.59 483.153 3230 481.589 3251.41C481.589 3252.45 483.152 3252.98 483.674 3251.93C488.365 3231.05 490.972 3209.64 495.142 3188.23C495.142 3187.19 493.578 3186.67 493.057 3187.71Z" fill="#E0BBA9"/>
<path d="M735.328 1908.38C765.042 1902.11 799.447 1887.49 830.204 1891.15C862.524 1894.8 887.546 1917.78 919.345 1923.52C920.388 1923.52 920.388 1925.09 919.345 1925.61C919.866 1925.61 920.388 1926.13 921.43 1926.13C922.994 1926.13 924.558 1926.65 926.643 1926.65C927.686 1926.65 927.686 1927.7 927.686 1928.22C929.25 1928.74 930.292 1929.26 931.856 1930.31C917.781 1910.47 906.313 1889.06 888.067 1872.35C867.737 1854.08 843.757 1840.5 821.342 1825.36C804.66 1813.87 796.32 1795.6 775.468 1788.81C774.946 1788.81 774.946 1787.76 775.468 1787.76C789.021 1787.24 797.883 1798.21 807.267 1807.08C823.948 1823.27 843.757 1835.28 863.045 1848.33C857.311 1842.59 852.619 1835.8 846.885 1830.06C840.108 1822.75 832.81 1815.44 827.076 1807.08C826.555 1806.56 827.597 1805.52 828.118 1806.04C836.459 1811.78 842.715 1820.14 849.492 1826.92C857.311 1835.8 866.173 1844.68 872.95 1854.6C887.546 1865.04 898.493 1876.01 908.398 1888.54C894.323 1845.72 854.183 1808.13 815.607 1785.68C803.096 1778.37 789.021 1774.19 775.468 1767.92C770.255 1765.31 724.902 1745.47 726.987 1753.83C736.371 1793.51 778.595 1832.15 811.437 1853.55C837.502 1870.26 870.343 1859.3 893.28 1879.14C894.844 1880.7 892.759 1883.31 891.195 1882.27C871.907 1870.78 848.97 1874.44 828.64 1868.17C811.958 1862.95 796.841 1850.94 783.287 1839.46C756.18 1816.48 728.03 1783.07 720.211 1747.56C719.689 1745.99 720.732 1744.43 722.817 1744.43C737.413 1744.43 750.967 1751.21 763.999 1756.96C784.851 1766.88 806.745 1775.23 826.555 1786.72C863.045 1808.13 905.27 1849.9 912.568 1892.71C912.568 1893.24 912.568 1893.24 912.568 1893.76C917.26 1900.02 922.473 1906.81 927.164 1914.64C937.069 1930.31 953.75 1939.71 965.74 1952.76C957.399 1929.78 949.58 1906.29 943.846 1882.27C943.846 1881.75 943.846 1881.75 943.846 1881.23C942.803 1881.75 941.239 1881.23 940.718 1879.66C930.813 1853.55 911.526 1830.06 898.493 1804.99C884.418 1778.89 869.301 1754.35 848.97 1732.42C834.895 1717.28 818.735 1703.7 803.618 1689.6C786.936 1680.2 773.904 1665.58 759.829 1652.53C758.786 1652.01 760.35 1650.44 760.872 1651.49C771.297 1660.36 781.202 1669.24 791.628 1677.59C772.34 1657.23 755.137 1634.78 737.413 1613.37C736.371 1611.81 738.456 1609.72 740.02 1611.28C761.914 1636.35 782.766 1662.45 805.703 1686.47C825.512 1706.83 847.406 1724.06 866.173 1745.47C868.779 1748.6 871.907 1752.26 874.514 1755.91C860.439 1720.93 842.193 1690.13 816.129 1661.93C793.192 1636.35 757.222 1604.5 724.381 1593.01C702.487 1585.18 730.115 1626.42 733.243 1630.6C742.626 1644.18 753.573 1656.19 763.999 1668.72C786.936 1699 821.863 1712.58 849.492 1737.64C851.055 1739.21 848.97 1742.34 846.885 1741.29C791.628 1704.74 723.86 1661.41 706.136 1592.49C705.614 1590.92 706.657 1589.35 708.221 1589.35C741.584 1585.7 777.553 1622.77 799.969 1643.13C837.502 1676.03 865.652 1720.41 879.727 1767.92V1768.45C889.631 1783.07 897.972 1799.25 906.313 1814.39C916.217 1832.67 929.25 1849.38 939.154 1868.17C930.813 1833.71 923.515 1798.73 916.739 1763.75C916.217 1763.75 915.696 1763.22 915.696 1762.7C915.696 1761.14 915.696 1760.09 915.696 1759.05C913.089 1747.04 910.483 1734.51 907.877 1722.5C904.749 1707.88 902.664 1693.26 901.1 1678.64C892.759 1657.75 885.982 1636.35 879.727 1614.94C879.205 1613.89 881.29 1613.37 881.29 1614.42C887.025 1630.6 893.802 1646.79 899.015 1662.97C895.887 1628.51 893.802 1594.57 885.982 1561.16C885.982 1560.11 887.546 1559.59 887.546 1560.64C897.972 1597.71 898.493 1636.87 902.664 1674.98C903.706 1678.64 904.749 1682.29 905.27 1685.95C905.27 1686.99 904.749 1687.51 904.227 1686.99C905.27 1694.3 906.834 1702.13 908.398 1709.44C911.004 1720.93 913.611 1731.9 915.696 1743.38C916.739 1731.9 919.345 1721.45 922.473 1709.44C927.686 1685.43 926.643 1660.36 924.037 1635.82C919.866 1602.41 916.739 1555.94 893.28 1529.31C882.333 1516.78 867.216 1585.18 866.694 1589.88C865.652 1611.28 870.865 1633.21 876.599 1654.1C887.025 1691.17 906.834 1725.63 915.175 1762.7C915.696 1765.31 912.568 1765.83 911.526 1763.75C880.769 1690.13 833.853 1591.44 885.982 1518.87C886.503 1517.82 888.067 1517.82 889.11 1518.34C915.696 1531.92 920.388 1576.3 924.558 1602.41C927.686 1623.29 930.813 1643.66 931.335 1664.54C932.377 1695.35 920.388 1723.54 918.824 1753.83C928.207 1796.64 937.59 1839.46 948.016 1881.75C962.612 1940.23 986.592 1995.57 1007.97 2051.44C1006.92 2031.08 1010.57 2009.67 1012.66 1989.83C1014.74 1969.99 1016.31 1950.15 1016.83 1930.83C1011.09 1865.04 971.474 1803.43 978.251 1736.07C978.251 1734.51 980.858 1735.03 980.858 1736.6C981.9 1780.98 998.582 1824.31 1009.53 1868.17C1013.7 1804.99 1006.92 1740.77 978.251 1683.86C973.038 1673.42 966.261 1730.33 966.261 1726.15C964.698 1747.56 966.783 1768.97 970.432 1790.38C976.166 1823.27 991.284 1851.46 1003.27 1882.27C1003.79 1883.84 1001.71 1884.36 1001.19 1883.31C976.166 1847.81 964.698 1801.86 961.049 1759.05C960.006 1746.52 957.921 1674.46 973.56 1670.28C974.602 1670.28 975.645 1670.28 976.166 1671.33C993.89 1703.7 1005.88 1737.12 1011.09 1773.67C1014.22 1794.03 1014.22 1815.44 1012.66 1835.8C1011.61 1849.9 1014.74 1862.95 1011.09 1876.53C1013.18 1884.88 1014.74 1893.24 1016.31 1901.07C1016.31 1897.41 1016.31 1894.28 1016.31 1890.62C1015.26 1871.31 1017.87 1852.51 1023.6 1834.23C1023.08 1796.12 1026.21 1758.52 1047.06 1725.63C1062.7 1700.57 1088.24 1672.37 1119.52 1669.24C1120.04 1669.24 1121.09 1669.76 1121.61 1670.81C1126.82 1702.66 1111.18 1731.37 1096.06 1758.52C1086.68 1775.23 1077.82 1791.94 1067.39 1808.13C1055.4 1825.88 1037.16 1836.85 1025.17 1854.08C1023.08 1862.43 1022.04 1871.31 1021.52 1881.23C1019.95 1910.47 1022.56 1939.18 1019.43 1968.42C1018.91 1975.21 1017.87 1982 1017.35 1988.79C1027.77 1962.68 1046.02 1944.4 1067.39 1925.61C1085.12 1909.94 1103.36 1895.85 1119.52 1878.62C1132.03 1865.04 1139.85 1850.42 1155.49 1840.5C1157.58 1839.46 1159.14 1842.07 1157.58 1843.63C1129.95 1861.39 1113.27 1893.76 1087.2 1914.12C1087.2 1914.12 1087.2 1914.12 1086.68 1914.64C1098.15 1908.9 1109.62 1904.2 1119 1894.8C1119.52 1894.28 1120.56 1895.32 1120.04 1895.85C1109.62 1906.81 1095.02 1916.21 1079.9 1919.86C1065.31 1931.87 1052.28 1943.88 1040.81 1957.46C1066.87 1942.32 1090.85 1931.87 1114.31 1910.99C1139.33 1889.06 1156.01 1859.82 1169.04 1829.54C1176.34 1812.83 1120.56 1838.93 1120.04 1838.93C1105.97 1846.77 1093.98 1858.77 1083.55 1870.78C1060.62 1895.85 1050.19 1926.13 1036.11 1955.89C1035.59 1956.94 1033.51 1956.41 1034.03 1954.85C1048.1 1889.06 1104.93 1821.18 1174.78 1818.57C1176.34 1818.57 1177.39 1820.14 1176.86 1821.7C1164.35 1853.55 1148.19 1881.23 1124.73 1906.29C1099.19 1933.44 1070.52 1947.02 1037.16 1962.16C1037.16 1962.16 1037.16 1962.16 1036.64 1962.16C1028.3 1973.12 1021.52 1984.61 1015.78 1998.71C1013.18 2021.68 1011.09 2045.18 1013.7 2068.15C1030.38 2112.53 1044.46 2157.44 1050.19 2204.43C1050.71 2208.08 1044.98 2208.08 1044.46 2204.43C1039.76 2172.58 1031.94 2141.25 1022.04 2110.97C1013.7 2095.3 994.933 2083.29 979.294 2073.89C978.773 2073.89 978.251 2073.89 978.251 2073.89C966.261 2065.54 945.41 2072.33 932.899 2075.46C921.43 2078.59 911.526 2084.34 900.578 2087.99C899.536 2088.51 899.014 2086.95 899.536 2086.43C907.355 2075.46 930.292 2071.81 942.282 2069.19C949.58 2067.63 959.485 2065.54 967.825 2067.11C967.304 2066.58 966.783 2066.58 966.261 2066.06C965.219 2065.54 964.176 2065.02 963.134 2064.5C937.069 2054.58 895.365 2059.8 887.546 2087.99C884.94 2096.35 882.333 2105.22 895.887 2102.61C905.791 2100.52 915.175 2095.82 923.515 2091.12C937.069 2083.81 949.58 2075.98 964.698 2071.81C966.783 2071.28 967.304 2073.89 965.74 2074.94C938.633 2085.9 914.132 2105.74 884.418 2108.88C883.376 2108.88 882.333 2107.83 882.333 2106.79C881.812 2088.51 885.461 2071.28 904.227 2063.97C918.824 2058.23 936.026 2055.62 951.665 2058.75C928.728 2045.7 905.791 2032.65 882.333 2020.11C881.812 2019.59 881.812 2018.55 882.854 2018.55C906.313 2025.86 928.207 2038.39 949.58 2051.44C933.941 2021.16 891.716 2005.49 859.917 2002.88C851.055 2002.36 841.672 2000.8 847.928 2011.76C853.141 2021.16 862.003 2028.47 870.865 2034.73C887.546 2046.22 908.398 2036.3 925.079 2045.7C926.643 2046.22 925.601 2048.31 924.037 2048.31C904.749 2044.65 885.982 2049.35 868.258 2039.43C855.226 2031.6 842.715 2018.03 839.066 2002.88C838.544 2001.84 839.066 2000.27 840.63 2000.27C877.641 1992.96 940.197 2014.89 952.708 2054.05C963.134 2060.84 973.56 2067.11 983.464 2073.89C994.411 2080.68 1008.49 2089.56 1018.39 2100.52C1003.79 2056.66 985.549 2013.33 969.389 1969.47C960.006 1957.46 946.974 1951.71 937.069 1940.23C932.377 1936.57 927.164 1933.96 921.951 1931.87C903.185 1934.48 884.418 1947.54 865.13 1950.15C845.842 1952.76 824.991 1953.8 805.703 1953.28C774.946 1952.76 747.318 1941.27 732.722 1913.6C733.243 1910.47 733.764 1908.9 735.328 1908.38ZM1073.13 1791.42C1090.33 1763.22 1108.57 1733.46 1117.96 1701.61C1126.3 1672.37 1109.62 1671.85 1089.29 1685.95C1072.61 1697.44 1059.05 1716.23 1048.1 1732.94C1031.42 1759.57 1030.38 1790.38 1029.86 1820.66C1029.86 1820.66 1029.86 1820.14 1030.38 1820.14C1035.07 1809.17 1040.81 1799.77 1046.54 1790.38C1047.58 1785.15 1049.15 1779.41 1050.19 1774.19C1052.8 1763.75 1054.88 1753.3 1056.45 1742.86C1056.45 1741.82 1058.01 1742.34 1058.01 1742.86C1058.01 1754.35 1056.45 1766.88 1053.84 1778.89C1063.22 1763.22 1072.08 1747.56 1074.17 1727.2C1074.17 1725.63 1077.3 1725.63 1077.3 1727.72C1076.78 1748.08 1068.96 1764.27 1059.05 1781.5C1046.54 1802.91 1036.11 1821.18 1029.86 1842.07C1041.85 1824.31 1061.66 1810.22 1073.13 1791.42ZM750.967 1928.22C773.383 1951.71 815.607 1948.58 845.321 1944.93C868.779 1942.32 888.589 1940.23 909.962 1928.74C911.004 1928.22 912.047 1927.7 912.568 1927.17C896.408 1924.56 879.205 1925.61 863.566 1925.09C833.853 1924.04 803.096 1925.09 774.946 1915.17C773.904 1914.64 774.425 1913.08 775.468 1913.6C807.267 1919.86 839.587 1922.48 871.907 1923C862.003 1919.86 853.141 1913.6 844.8 1908.9C844.279 1908.38 844.8 1907.33 845.321 1907.86C851.055 1910.47 856.79 1913.08 862.003 1915.17C868.258 1917.78 875.035 1919.86 881.29 1923C881.29 1923 881.812 1923 881.812 1923.52C885.461 1923.52 888.589 1923.52 892.238 1923.52C896.929 1923.52 902.142 1923.52 906.834 1924.04C891.195 1920.39 877.641 1912.03 863.045 1904.72C836.98 1891.67 810.916 1895.85 783.287 1902.11C766.084 1905.24 730.115 1905.77 750.967 1928.22Z" fill="#E0BBA9"/>
<path d="M901.621 1571.08C910.483 1600.84 911.004 1632.69 909.44 1663.5C909.44 1664.54 907.876 1664.54 907.876 1663.5C906.313 1632.17 906.313 1601.89 900.578 1571.08C900.578 1570.56 901.621 1570.56 901.621 1571.08Z" fill="#E0BBA9"/>
<path d="M770.776 1632.17C789.022 1651.49 805.703 1672.37 821.863 1692.74C822.384 1693.26 821.342 1694.3 820.82 1693.78C802.575 1674.98 784.851 1654.1 769.734 1633.21C769.212 1632.17 770.255 1631.65 770.776 1632.17Z" fill="#E0BBA9"/>
<path d="M798.405 1820.66C783.287 1808.65 768.691 1796.12 754.616 1783.59C753.573 1783.06 755.137 1781.5 755.659 1782.54C770.255 1795.07 785.894 1806.56 799.447 1820.14C800.49 1820.66 799.447 1821.7 798.405 1820.66Z" fill="#E0BBA9"/>
<path d="M793.713 1909.94C809.352 1912.03 825.512 1912.55 840.108 1917.78C841.151 1918.3 840.629 1919.34 839.587 1919.34C823.948 1916.73 808.83 1914.12 793.192 1912.03C792.149 1912.03 792.67 1909.94 793.713 1909.94Z" fill="#E0BBA9"/>
<path d="M904.749 2036.82C890.674 2033.69 876.078 2024.29 867.216 2013.33C866.694 2012.81 867.737 2011.76 868.258 2012.28C873.992 2016.98 879.727 2021.68 886.503 2025.86C892.759 2029.51 899.015 2032.12 905.27 2035.26C906.313 2035.78 905.791 2037.35 904.749 2036.82Z" fill="#E0BBA9"/>
<path d="M1093.46 1704.22C1093.98 1703.7 1095.02 1703.7 1095.02 1704.74C1087.72 1725.63 1087.2 1750.17 1075.73 1768.97C1075.21 1770.01 1073.13 1769.49 1073.65 1768.45C1080.42 1747.56 1083.55 1724.06 1093.46 1704.22Z" fill="#E0BBA9"/>
<path d="M1137.77 1844.68C1126.3 1861.91 1107.53 1871.83 1093.98 1886.97C1093.46 1887.49 1092.41 1886.97 1092.94 1885.93C1104.4 1868.7 1124.73 1860.34 1136.2 1843.63C1136.72 1842.59 1138.29 1843.63 1137.77 1844.68Z" fill="#E0BBA9"/>
<path d="M982.943 1715.71C987.635 1736.59 992.847 1758 994.411 1779.41C994.411 1780.45 992.848 1780.98 992.326 1779.93C987.635 1759.05 985.028 1737.64 980.858 1716.23C980.858 1715.19 982.422 1714.67 982.943 1715.71Z" fill="#E0BBA9"/>
<path d="M735.328 390.377C765.042 384.112 799.447 369.492 830.204 373.147C862.524 376.802 887.546 399.776 919.345 405.519C920.388 405.519 920.388 407.086 919.345 407.608C919.866 407.608 920.388 408.13 921.43 408.13C922.994 408.13 924.558 408.652 926.643 408.652C927.686 408.652 927.686 409.696 927.686 410.219C929.25 410.741 930.292 411.263 931.856 412.307C917.781 392.466 906.313 371.058 888.067 354.35C867.737 336.075 843.757 322.5 821.342 307.358C804.66 295.871 796.32 277.596 775.468 270.809C774.946 270.809 774.946 269.764 775.468 269.764C789.021 269.242 797.883 280.207 807.267 289.083C823.948 305.27 843.757 317.279 863.045 330.332C857.311 324.588 852.619 317.801 846.885 312.057C840.108 304.747 832.81 297.437 827.076 289.083C826.555 288.561 827.597 287.517 828.118 288.039C836.459 293.783 842.715 302.137 849.492 308.924C857.311 317.801 866.173 326.677 872.95 336.598C887.546 347.04 898.493 358.005 908.398 370.536C894.323 327.721 854.183 290.128 815.607 267.676C803.096 260.366 789.021 256.189 775.468 249.923C770.255 247.313 724.902 227.471 726.987 235.826C736.371 275.508 778.595 314.146 811.437 335.553C837.502 352.262 870.343 341.297 893.28 361.138C894.844 362.704 892.759 365.315 891.195 364.271C871.907 352.784 848.97 356.439 828.64 350.173C811.958 344.952 796.841 332.943 783.287 321.456C756.18 298.482 728.03 265.065 720.211 229.56C719.689 227.994 720.732 226.427 722.817 226.427C737.413 226.427 750.967 233.215 763.999 238.958C784.851 248.879 806.745 257.233 826.555 268.72C863.045 290.128 905.27 331.898 912.568 374.713C912.568 375.236 912.568 375.235 912.568 375.758C917.26 382.023 922.473 388.811 927.164 396.643C937.069 412.307 953.75 421.705 965.74 434.759C957.399 411.785 949.58 388.289 943.846 364.271C943.846 363.749 943.846 363.749 943.846 363.226C942.803 363.749 941.239 363.226 940.718 361.66C930.813 335.553 911.526 312.057 898.493 286.995C884.418 260.888 869.301 236.348 848.97 214.418C834.895 199.276 818.735 185.701 803.618 171.603C786.936 162.205 773.904 147.585 759.829 134.532C758.786 134.009 760.35 132.443 760.872 133.487C771.297 142.364 781.202 151.24 791.628 159.594C772.34 139.231 755.137 116.779 737.413 95.3714C736.371 93.805 738.456 91.7165 740.02 93.2829C761.914 118.345 782.766 144.452 805.703 168.47C825.512 188.833 847.406 206.064 866.173 227.471C868.779 230.604 871.907 234.259 874.514 237.914C860.439 202.931 842.193 172.125 816.129 143.93C793.192 118.345 757.222 86.4952 724.381 75.0082C702.487 67.1762 730.115 108.425 733.243 112.602C742.626 126.177 753.573 138.186 763.999 150.718C786.936 181.001 821.863 194.577 849.492 219.639C851.055 221.206 848.97 224.339 846.885 223.294C791.628 186.745 723.86 143.408 706.136 74.486C705.614 72.9196 706.657 71.3532 708.221 71.3532C741.584 67.6983 777.553 104.77 799.969 125.133C837.502 158.028 865.652 202.409 879.727 249.923V250.445C889.631 265.065 897.972 281.251 906.313 296.393C916.217 314.668 929.25 331.376 939.154 350.173C930.813 315.712 923.515 280.729 916.739 245.746C916.217 245.746 915.696 245.224 915.696 244.702C915.696 243.135 915.696 242.091 915.696 241.047C913.089 229.038 910.483 216.507 907.877 204.498C904.749 189.878 902.664 175.258 901.1 160.638C892.759 139.753 885.982 118.345 879.727 96.9378C879.205 95.8936 881.29 95.3714 881.29 96.4157C887.025 112.602 893.802 128.788 899.015 144.974C895.887 110.513 893.802 76.5746 885.982 43.158C885.982 42.1137 887.546 41.5916 887.546 42.6359C897.972 79.7074 898.493 118.867 902.664 156.983C903.706 160.638 904.749 164.293 905.27 167.948C905.27 168.992 904.749 169.515 904.227 168.992C905.27 176.302 906.834 184.134 908.398 191.444C911.004 202.931 913.611 213.896 915.696 225.383C916.739 213.896 919.345 203.453 922.473 191.444C927.686 167.426 926.643 142.364 924.037 117.823C919.866 84.4066 916.739 37.9366 893.28 11.3078C882.333 -1.22344 867.216 67.1762 866.694 71.8754C865.652 93.2829 870.865 115.213 876.599 136.098C887.025 173.169 906.834 207.63 915.175 244.702C915.696 247.313 912.568 247.835 911.526 245.746C880.769 172.125 833.853 73.4418 885.982 0.865096C886.503 -0.179173 888.067 -0.179165 889.11 0.342969C915.696 13.9185 920.388 58.2999 924.558 84.4066C927.686 105.292 930.813 125.655 931.335 146.541C932.377 177.347 920.388 205.542 918.824 235.826C928.207 278.641 937.59 321.456 948.016 363.749C962.612 422.228 986.592 477.574 1007.97 533.442C1006.92 513.079 1010.57 491.672 1012.66 471.83C1014.74 451.989 1016.31 432.148 1016.83 412.829C1011.09 347.04 971.474 285.428 978.251 218.073C978.251 216.507 980.858 217.029 980.858 218.595C981.9 262.977 998.582 306.314 1009.53 350.173C1013.7 286.995 1006.92 222.772 978.251 165.86C973.038 155.417 966.261 212.33 966.261 208.152C964.698 229.56 966.783 250.967 970.432 272.375C976.166 305.269 991.284 333.465 1003.27 364.271C1003.79 365.837 1001.71 366.359 1001.19 365.315C976.166 329.81 964.698 283.862 961.049 241.047C960.006 228.516 957.921 156.461 973.56 152.284C974.602 152.284 975.645 152.284 976.166 153.328C993.89 185.701 1005.88 219.117 1011.09 255.667C1014.22 276.03 1014.22 297.437 1012.66 317.801C1011.61 331.898 1014.74 344.952 1011.09 358.527C1013.18 366.881 1014.74 375.236 1016.31 383.068C1016.31 379.413 1016.31 376.28 1016.31 372.625C1015.26 353.306 1017.87 334.509 1023.6 316.234C1023.08 278.118 1026.21 240.525 1047.06 207.63C1062.7 182.568 1088.24 154.373 1119.52 151.24C1120.04 151.24 1121.09 151.762 1121.61 152.806C1126.82 184.656 1111.18 213.374 1096.06 240.525C1086.68 257.233 1077.82 273.941 1067.39 290.128C1055.4 307.88 1037.16 318.845 1025.17 336.075C1023.08 344.43 1022.04 353.306 1021.52 363.226C1019.95 392.466 1022.56 421.183 1019.43 450.423C1018.91 457.211 1017.87 463.998 1017.35 470.786C1027.77 444.679 1046.02 426.405 1067.39 407.608C1085.12 391.944 1103.36 377.846 1119.52 360.616C1132.03 347.04 1139.85 332.42 1155.49 322.5C1157.58 321.456 1159.14 324.066 1157.58 325.633C1129.95 343.385 1113.27 375.758 1087.2 396.121C1087.2 396.121 1087.2 396.121 1086.68 396.643C1098.15 390.9 1109.62 386.2 1119 376.802C1119.52 376.28 1120.56 377.324 1120.04 377.846C1109.62 388.811 1095.02 398.209 1079.9 401.864C1065.31 413.873 1052.28 425.883 1040.81 439.458C1066.87 424.316 1090.85 413.873 1114.31 392.988C1139.33 371.058 1156.01 341.819 1169.04 311.535C1176.34 294.827 1120.56 320.934 1120.04 320.934C1105.97 328.766 1093.98 340.775 1083.55 352.784C1060.62 377.846 1050.19 408.13 1036.11 437.892C1035.59 438.936 1033.51 438.414 1034.03 436.847C1048.1 371.058 1104.93 303.181 1174.78 300.57C1176.34 300.57 1177.39 302.137 1176.86 303.703C1164.35 335.553 1148.19 363.226 1124.73 388.289C1099.19 415.44 1070.52 429.015 1037.16 444.157C1037.16 444.157 1037.16 444.157 1036.64 444.157C1028.3 455.122 1021.52 466.609 1015.78 480.707C1013.18 503.681 1011.09 527.177 1013.7 550.151C1030.38 594.532 1044.46 639.436 1050.19 686.428C1050.71 690.083 1044.98 690.083 1044.46 686.428C1039.76 654.577 1031.94 623.249 1022.04 592.966C1013.7 577.302 994.933 565.292 979.294 555.894C978.773 555.894 978.251 555.894 978.251 555.894C966.261 547.54 945.41 554.328 932.899 557.46C921.43 560.593 911.526 566.337 900.578 569.992C899.536 570.514 899.014 568.947 899.536 568.425C907.355 557.46 930.292 553.805 942.282 551.195C949.58 549.628 959.485 547.54 967.825 549.106C967.304 548.584 966.783 548.584 966.261 548.062C965.219 547.54 964.176 547.018 963.134 546.496C937.069 536.575 895.365 541.796 887.546 569.992C884.94 578.346 882.333 587.222 895.887 584.611C905.791 582.523 915.175 577.824 923.515 573.124C937.069 565.815 949.58 557.983 964.698 553.805C966.783 553.283 967.304 555.894 965.74 556.938C938.633 567.903 914.132 587.744 884.418 590.877C883.376 590.877 882.333 589.833 882.333 588.789C881.812 570.514 885.461 553.283 904.227 545.974C918.824 540.23 936.026 537.619 951.665 540.752C928.728 527.699 905.791 514.645 882.333 502.114C881.812 501.592 881.812 500.548 882.854 500.548C906.313 507.858 928.207 520.389 949.58 533.442C933.941 503.158 891.716 487.494 859.917 484.884C851.055 484.362 841.672 482.795 847.928 493.76C853.141 503.158 862.003 510.468 870.865 516.734C887.546 528.221 908.398 518.3 925.079 527.699C926.643 528.221 925.601 530.309 924.037 530.309C904.749 526.654 885.982 531.354 868.258 521.433C855.226 513.601 842.715 500.026 839.066 484.884C838.544 483.84 839.066 482.273 840.63 482.273C877.641 474.963 940.197 496.893 952.708 536.053C963.134 542.841 973.56 549.106 983.464 555.894C994.411 562.682 1008.49 571.558 1018.39 582.523C1003.79 538.664 985.549 495.326 969.389 451.467C960.006 439.458 946.974 433.715 937.069 422.228C932.377 418.573 927.164 415.962 921.951 413.873C903.185 416.484 884.418 429.537 865.13 432.148C845.842 434.759 824.991 435.803 805.703 435.281C774.946 434.759 747.318 423.272 732.722 395.599C733.243 392.466 733.764 390.9 735.328 390.377ZM1073.13 273.419C1090.33 245.224 1108.57 215.462 1117.96 183.612C1126.3 154.373 1109.62 153.85 1089.29 167.948C1072.61 179.435 1059.05 198.232 1048.1 214.94C1031.42 241.569 1030.38 272.375 1029.86 302.659C1029.86 302.659 1029.86 302.137 1030.38 302.137C1035.07 291.172 1040.81 281.773 1046.54 272.375C1047.58 267.154 1049.15 261.41 1050.19 256.189C1052.8 245.746 1054.88 235.303 1056.45 224.861C1056.45 223.817 1058.01 224.339 1058.01 224.861C1058.01 236.348 1056.45 248.879 1053.84 260.888C1063.22 245.224 1072.08 229.56 1074.17 209.197C1074.17 207.63 1077.3 207.63 1077.3 209.719C1076.78 230.082 1068.96 246.268 1059.05 263.499C1046.54 284.906 1036.11 303.181 1029.86 324.066C1041.85 306.314 1061.66 292.216 1073.13 273.419ZM750.967 410.219C773.383 433.715 815.607 430.582 845.321 426.927C868.779 424.316 888.589 422.228 909.962 410.741C911.004 410.219 912.047 409.696 912.568 409.174C896.408 406.564 879.205 407.608 863.566 407.086C833.853 406.041 803.096 407.086 774.946 397.165C773.904 396.643 774.425 395.077 775.468 395.599C807.267 401.864 839.587 404.475 871.907 404.997C862.003 401.864 853.141 395.599 844.8 390.9C844.279 390.377 844.8 389.333 845.321 389.855C851.055 392.466 856.79 395.077 862.003 397.165C868.258 399.776 875.035 401.864 881.29 404.997C881.29 404.997 881.812 404.997 881.812 405.519C885.461 405.519 888.589 405.519 892.238 405.519C896.929 405.519 902.142 405.519 906.834 406.041C891.195 402.387 877.641 394.032 863.045 386.722C836.98 373.669 810.916 377.846 783.287 384.112C766.084 387.245 730.115 387.767 750.967 410.219Z" fill="#E0BBA9"/>
<path d="M901.621 53.0791C910.483 82.8408 911.004 114.691 909.44 145.497C909.44 146.541 907.876 146.541 907.876 145.497C906.313 114.169 906.313 83.885 900.578 53.0791C900.578 52.557 901.621 52.557 901.621 53.0791Z" fill="#E0BBA9"/>
<path d="M770.776 114.168C789.022 133.487 805.703 154.372 821.863 174.735C822.384 175.257 821.342 176.302 820.82 175.78C802.575 156.983 784.851 136.097 769.734 115.212C769.212 114.168 770.255 113.646 770.776 114.168Z" fill="#E0BBA9"/>
<path d="M798.405 302.658C783.287 290.649 768.691 278.118 754.616 265.587C753.573 265.065 755.137 263.498 755.659 264.542C770.255 277.074 785.894 288.561 799.447 302.136C800.49 302.658 799.447 303.703 798.405 302.658Z" fill="#E0BBA9"/>
<path d="M793.713 391.943C809.352 394.032 825.512 394.554 840.108 399.775C841.151 400.298 840.629 401.342 839.587 401.342C823.948 398.731 808.83 396.12 793.192 394.032C792.149 394.032 792.67 391.943 793.713 391.943Z" fill="#E0BBA9"/>
<path d="M904.749 518.823C890.674 515.69 876.078 506.292 867.216 495.327C866.694 494.805 867.737 493.761 868.258 494.283C873.992 498.982 879.727 503.681 886.503 507.858C892.759 511.513 899.015 514.124 905.27 517.257C906.313 517.779 905.791 519.345 904.749 518.823Z" fill="#E0BBA9"/>
<path d="M1093.46 186.223C1093.98 185.701 1095.02 185.701 1095.02 186.745C1087.72 207.63 1087.2 232.171 1075.73 250.968C1075.21 252.012 1073.13 251.49 1073.65 250.445C1080.42 229.56 1083.55 206.064 1093.46 186.223Z" fill="#E0BBA9"/>
<path d="M1137.77 326.677C1126.3 343.908 1107.53 353.829 1093.98 368.97C1093.46 369.493 1092.41 368.97 1092.94 367.926C1104.4 350.696 1124.73 342.342 1136.2 325.633C1136.72 324.589 1138.29 325.633 1137.77 326.677Z" fill="#E0BBA9"/>
<path d="M982.943 197.709C987.635 218.595 992.847 240.002 994.411 261.41C994.411 262.454 992.848 262.976 992.326 261.932C987.635 241.046 985.028 219.639 980.858 198.231C980.858 197.187 982.422 196.665 982.943 197.709Z" fill="#E0BBA9"/>
<path d="M464.26 1411.75C448.904 1408.51 431.123 1400.96 415.228 1402.85C398.524 1404.73 385.592 1416.61 369.158 1419.58C368.62 1419.58 368.62 1420.39 369.158 1420.66C368.889 1420.66 368.62 1420.93 368.081 1420.93C367.273 1420.93 366.464 1421.2 365.387 1421.2C364.848 1421.2 364.848 1421.73 364.848 1422C364.04 1422.27 363.501 1422.54 362.693 1423.08C369.967 1412.83 375.894 1401.77 385.323 1393.13C395.83 1383.69 408.223 1376.67 419.807 1368.85C428.429 1362.91 432.739 1353.46 443.516 1349.96C443.785 1349.96 443.785 1349.42 443.516 1349.42C436.511 1349.15 431.931 1354.81 427.082 1359.4C418.46 1367.77 408.223 1373.97 398.255 1380.72C401.218 1377.75 403.643 1374.24 406.606 1371.27C410.109 1367.5 413.88 1363.72 416.844 1359.4C417.113 1359.13 416.575 1358.59 416.305 1358.86C411.995 1361.83 408.762 1366.15 405.259 1369.65C401.218 1374.24 396.638 1378.83 393.136 1383.96C385.592 1389.35 379.935 1395.02 374.816 1401.5C382.09 1379.37 402.835 1359.94 422.771 1348.34C429.237 1344.56 436.511 1342.4 443.516 1339.16C446.21 1337.81 469.648 1327.56 468.571 1331.88C463.721 1352.38 441.899 1372.35 424.926 1383.42C411.456 1392.05 394.483 1386.39 382.629 1396.64C381.821 1397.45 382.898 1398.8 383.707 1398.26C393.675 1392.32 405.529 1394.21 416.036 1390.97C424.657 1388.27 432.47 1382.07 439.474 1376.13C453.484 1364.26 468.032 1346.99 472.073 1328.64C472.342 1327.83 471.804 1327.02 470.726 1327.02C463.182 1327.02 456.178 1330.53 449.443 1333.5C438.666 1338.62 427.351 1342.94 417.113 1348.88C398.255 1359.94 376.433 1381.53 372.661 1403.66C372.661 1403.93 372.661 1403.93 372.661 1404.19C370.236 1407.43 367.542 1410.94 365.117 1414.99C359.999 1423.08 351.377 1427.94 345.181 1434.69C349.492 1422.81 353.533 1410.67 356.496 1398.26C356.496 1397.99 356.496 1397.99 356.496 1397.72C357.035 1397.99 357.843 1397.72 358.113 1396.91C363.231 1383.42 373.2 1371.27 379.935 1358.32C387.209 1344.83 395.022 1332.15 405.529 1320.81C412.803 1312.99 421.155 1305.97 428.967 1298.69C437.589 1293.83 444.324 1286.27 451.598 1279.53C452.137 1279.26 451.328 1278.45 451.059 1278.99C445.671 1283.57 440.552 1288.16 435.164 1292.48C445.132 1281.96 454.023 1270.35 463.182 1259.29C463.721 1258.48 462.644 1257.4 461.835 1258.21C450.52 1271.16 439.744 1284.65 427.89 1297.07C417.652 1307.59 406.337 1316.5 396.638 1327.56C395.291 1329.18 393.675 1331.07 392.328 1332.96C399.602 1314.88 409.031 1298.96 422.502 1284.38C434.356 1271.16 452.945 1254.7 469.918 1248.76C481.233 1244.72 466.954 1266.03 465.338 1268.19C460.488 1275.21 454.831 1281.42 449.443 1287.89C437.589 1303.54 419.538 1310.56 405.259 1323.51C404.451 1324.32 405.529 1325.94 406.606 1325.4C435.164 1306.51 470.187 1284.11 479.347 1248.5C479.616 1247.69 479.078 1246.88 478.269 1246.88C461.027 1244.99 442.438 1264.15 430.853 1274.67C411.456 1291.67 396.908 1314.61 389.634 1339.16V1339.43C384.515 1346.99 380.204 1355.35 375.894 1363.18C370.775 1372.62 364.04 1381.26 358.921 1390.97C363.231 1373.16 367.003 1355.08 370.506 1337C370.775 1337 371.044 1336.73 371.044 1336.46C371.044 1335.65 371.044 1335.11 371.044 1334.58C372.391 1328.37 373.738 1321.89 375.085 1315.69C376.702 1308.13 377.78 1300.57 378.588 1293.02C382.898 1282.23 386.401 1271.16 389.634 1260.1C389.903 1259.56 388.825 1259.29 388.825 1259.83C385.862 1268.19 382.36 1276.56 379.665 1284.92C381.282 1267.11 382.36 1249.57 386.401 1232.3C386.401 1231.76 385.592 1231.49 385.592 1232.03C380.204 1251.19 379.935 1271.43 377.78 1291.13C377.241 1293.02 376.702 1294.91 376.433 1296.8C376.433 1297.34 376.702 1297.61 376.971 1297.34C376.433 1301.11 375.624 1305.16 374.816 1308.94C373.469 1314.88 372.122 1320.54 371.044 1326.48C370.506 1320.54 369.158 1315.15 367.542 1308.94C364.848 1296.53 365.387 1283.57 366.734 1270.89C368.889 1253.62 370.506 1229.61 382.629 1215.84C388.287 1209.37 396.099 1244.72 396.369 1247.15C396.908 1258.21 394.214 1269.54 391.25 1280.34C385.862 1299.5 375.624 1317.31 371.314 1336.46C371.044 1337.81 372.661 1338.08 373.2 1337C389.095 1298.96 413.342 1247.96 386.401 1210.45C386.131 1209.91 385.323 1209.91 384.784 1210.18C371.044 1217.19 368.62 1240.13 366.464 1253.62C364.848 1264.42 363.231 1274.94 362.962 1285.73C362.423 1301.65 368.62 1316.23 369.428 1331.88C364.579 1354 359.729 1376.13 354.341 1397.99C346.797 1428.21 334.405 1456.81 323.359 1485.69C323.898 1475.16 322.012 1464.1 320.934 1453.85C319.857 1443.59 319.048 1433.34 318.779 1423.35C321.742 1389.35 342.217 1357.51 338.715 1322.7C338.715 1321.89 337.368 1322.16 337.368 1322.97C336.829 1345.91 328.208 1368.31 322.551 1390.97C320.395 1358.32 323.898 1325.13 338.715 1295.72C341.409 1290.32 344.912 1319.73 344.912 1317.58C345.72 1328.64 344.642 1339.7 342.756 1350.77C339.793 1367.77 331.98 1382.34 325.784 1398.26C325.514 1399.07 326.592 1399.34 326.861 1398.8C339.793 1380.45 345.72 1356.7 347.606 1334.58C348.145 1328.1 349.222 1290.86 341.14 1288.7C340.601 1288.7 340.062 1288.7 339.793 1289.24C330.633 1305.97 324.436 1323.24 321.742 1342.13C320.126 1352.65 320.126 1363.72 320.934 1374.24C321.473 1381.53 319.856 1388.27 321.742 1395.29C320.665 1399.61 319.856 1403.93 319.048 1407.97C319.048 1406.08 319.048 1404.46 319.048 1402.58C319.587 1392.59 318.24 1382.88 315.277 1373.43C315.546 1353.73 313.929 1334.31 303.153 1317.31C295.071 1304.35 281.87 1289.78 265.705 1288.16C265.436 1288.16 264.897 1288.43 264.628 1288.97C261.933 1305.43 270.016 1320.27 277.829 1334.31C282.678 1342.94 287.258 1351.58 292.646 1359.94C298.843 1369.12 308.272 1374.78 314.468 1383.69C315.546 1388 316.085 1392.59 316.354 1397.72C317.162 1412.83 315.815 1427.67 317.432 1442.78C317.701 1446.29 318.24 1449.8 318.509 1453.31C313.121 1439.81 303.692 1430.37 292.646 1420.66C283.486 1412.56 274.057 1405.27 265.705 1396.37C259.239 1389.35 255.198 1381.8 247.116 1376.67C246.038 1376.13 245.23 1377.48 246.038 1378.29C260.317 1387.46 268.938 1404.2 282.409 1414.72C282.409 1414.72 282.409 1414.72 282.678 1414.99C276.751 1412.02 270.824 1409.59 265.975 1404.73C265.705 1404.46 265.166 1405 265.436 1405.27C270.824 1410.94 278.367 1415.8 286.18 1417.69C293.724 1423.89 300.459 1430.1 306.386 1437.12C292.916 1429.29 280.523 1423.89 268.399 1413.1C255.468 1401.77 246.846 1386.66 240.111 1371C236.339 1362.37 265.166 1375.86 265.436 1375.86C272.71 1379.91 278.906 1386.12 284.294 1392.32C296.148 1405.27 301.537 1420.93 308.811 1436.31C309.08 1436.85 310.158 1436.58 309.888 1435.77C302.614 1401.77 273.249 1366.69 237.148 1365.34C236.339 1365.34 235.801 1366.15 236.07 1366.96C242.536 1383.42 250.888 1397.72 263.011 1410.67C276.212 1424.7 291.03 1431.72 308.272 1439.54C308.272 1439.54 308.272 1439.54 308.541 1439.54C312.852 1445.21 316.354 1451.15 319.318 1458.43C320.665 1470.31 321.742 1482.45 320.395 1494.32C311.774 1517.26 304.5 1540.47 301.537 1564.75C301.267 1566.64 304.231 1566.64 304.5 1564.75C306.925 1548.29 310.966 1532.1 316.085 1516.45C320.395 1508.35 330.094 1502.15 338.176 1497.29C338.446 1497.29 338.715 1497.29 338.715 1497.29C344.912 1492.97 355.688 1496.48 362.154 1498.1C368.081 1499.72 373.2 1502.69 378.857 1504.58C379.396 1504.85 379.665 1504.04 379.396 1503.77C375.355 1498.1 363.501 1496.21 357.304 1494.86C353.533 1494.05 348.414 1492.97 344.103 1493.78C344.373 1493.51 344.642 1493.51 344.912 1493.24C345.45 1492.97 345.989 1492.7 346.528 1492.43C359.999 1487.31 381.551 1490.01 385.592 1504.58C386.94 1508.89 388.287 1513.48 381.282 1512.13C376.163 1511.05 371.314 1508.62 367.003 1506.2C359.999 1502.42 353.533 1498.37 345.72 1496.21C344.642 1495.94 344.373 1497.29 345.181 1497.83C359.19 1503.5 371.853 1513.75 387.209 1515.37C387.748 1515.37 388.287 1514.83 388.287 1514.29C388.556 1504.85 386.67 1495.94 376.971 1492.16C369.428 1489.2 360.537 1487.85 352.455 1489.47C364.309 1482.72 376.163 1475.97 388.287 1469.5C388.556 1469.23 388.556 1468.69 388.017 1468.69C375.894 1472.47 364.579 1478.94 353.533 1485.69C361.615 1470.04 383.437 1461.94 399.871 1460.59C404.451 1460.32 409.301 1459.51 406.068 1465.18C403.374 1470.04 398.794 1473.81 394.214 1477.05C385.592 1482.99 374.816 1477.86 366.195 1482.72C365.387 1482.99 365.926 1484.07 366.734 1484.07C376.702 1482.18 386.401 1484.61 395.561 1479.48C402.296 1475.43 408.762 1468.42 410.648 1460.59C410.917 1460.05 410.648 1459.24 409.839 1459.24C390.711 1455.47 358.382 1466.8 351.916 1487.04C346.528 1490.55 341.14 1493.78 336.021 1497.29C330.363 1500.8 323.089 1505.39 317.971 1511.05C325.514 1488.39 334.943 1465.99 343.295 1443.32C348.145 1437.12 354.88 1434.15 359.999 1428.21C362.423 1426.32 365.117 1424.97 367.811 1423.89C377.51 1425.24 387.209 1431.99 397.177 1433.34C407.145 1434.69 417.922 1435.23 427.89 1434.96C443.785 1434.69 458.064 1428.75 465.607 1414.45C465.338 1412.83 465.068 1412.02 464.26 1411.75ZM289.683 1351.31C280.792 1336.73 271.363 1321.35 266.513 1304.89C262.203 1289.78 270.824 1289.51 281.331 1296.8C289.952 1302.73 296.957 1312.45 302.614 1321.08C311.235 1334.85 311.774 1350.77 312.044 1366.42C312.044 1366.42 312.044 1366.15 311.774 1366.15C309.35 1360.48 306.386 1355.62 303.423 1350.77C302.884 1348.07 302.075 1345.1 301.537 1342.4C300.19 1337 299.112 1331.61 298.304 1326.21C298.304 1325.67 297.495 1325.94 297.495 1326.21C297.495 1332.15 298.304 1338.62 299.651 1344.83C294.801 1336.73 290.221 1328.64 289.144 1318.11C289.144 1317.31 287.527 1317.31 287.527 1318.38C287.797 1328.91 291.838 1337.27 296.957 1346.18C303.423 1357.24 308.811 1366.69 312.044 1377.48C305.847 1368.31 295.61 1361.02 289.683 1351.31ZM456.178 1422C444.593 1434.15 422.771 1432.53 407.415 1430.64C395.291 1429.29 385.054 1428.21 374.008 1422.27C373.469 1422 372.93 1421.73 372.661 1421.47C381.012 1420.12 389.903 1420.66 397.985 1420.39C413.342 1419.85 429.237 1420.39 443.785 1415.26C444.324 1414.99 444.054 1414.18 443.516 1414.45C427.082 1417.69 410.378 1419.04 393.675 1419.31C398.794 1417.69 403.374 1414.45 407.684 1412.02C407.953 1411.75 407.684 1411.21 407.415 1411.48C404.451 1412.83 401.488 1414.18 398.794 1415.26C395.561 1416.61 392.058 1417.69 388.825 1419.31C388.825 1419.31 388.556 1419.31 388.556 1419.58C386.67 1419.58 385.054 1419.58 383.168 1419.58C380.743 1419.58 378.049 1419.58 375.624 1419.85C383.707 1417.96 390.711 1413.64 398.255 1409.86C411.725 1403.12 425.196 1405.27 439.474 1408.51C448.365 1410.13 466.954 1410.4 456.178 1422Z" fill="#E0BBA9"/>
<path d="M378.318 1237.43C373.738 1252.81 373.469 1269.27 374.277 1285.19C374.277 1285.73 375.085 1285.73 375.085 1285.19C375.894 1269 375.894 1253.35 378.857 1237.43C378.857 1237.16 378.318 1237.16 378.318 1237.43Z" fill="#E0BBA9"/>
<path d="M445.94 1269C436.511 1278.99 427.89 1289.78 419.538 1300.3C419.269 1300.57 419.807 1301.11 420.077 1300.84C429.506 1291.13 438.666 1280.34 446.479 1269.54C446.748 1269 446.21 1268.73 445.94 1269Z" fill="#E0BBA9"/>
<path d="M431.661 1366.42C439.474 1360.21 447.018 1353.73 454.292 1347.26C454.831 1346.99 454.022 1346.18 453.753 1346.72C446.21 1353.19 438.127 1359.13 431.123 1366.15C430.584 1366.42 431.123 1366.96 431.661 1366.42Z" fill="#E0BBA9"/>
<path d="M434.086 1412.56C426.004 1413.64 417.652 1413.91 410.109 1416.61C409.57 1416.88 409.839 1417.42 410.378 1417.42C418.461 1416.07 426.273 1414.72 434.356 1413.64C434.895 1413.64 434.625 1412.56 434.086 1412.56Z" fill="#E0BBA9"/>
<path d="M376.702 1478.13C383.976 1476.51 391.52 1471.66 396.1 1465.99C396.369 1465.72 395.83 1465.18 395.561 1465.45C392.597 1467.88 389.634 1470.31 386.131 1472.47C382.898 1474.35 379.666 1475.7 376.433 1477.32C375.894 1477.59 376.163 1478.4 376.702 1478.13Z" fill="#E0BBA9"/>
<path d="M279.176 1306.24C278.906 1305.97 278.367 1305.97 278.367 1306.51C282.139 1317.31 282.409 1329.99 288.336 1339.7C288.605 1340.24 289.683 1339.97 289.413 1339.43C285.911 1328.64 284.294 1316.5 279.176 1306.24Z" fill="#E0BBA9"/>
<path d="M256.276 1378.83C262.203 1387.73 271.902 1392.86 278.906 1400.69C279.176 1400.96 279.715 1400.69 279.445 1400.15C273.518 1391.24 263.011 1386.93 257.084 1378.29C256.815 1377.75 256.006 1378.29 256.276 1378.83Z" fill="#E0BBA9"/>
<path d="M336.291 1312.18C333.866 1322.97 331.172 1334.04 330.364 1345.1C330.364 1345.64 331.172 1345.91 331.441 1345.37C333.866 1334.57 335.213 1323.51 337.368 1312.45C337.368 1311.91 336.56 1311.64 336.291 1312.18Z" fill="#E0BBA9"/>
<path d="M870.157 2772.75C885.513 2769.51 903.294 2761.96 919.189 2763.85C935.893 2765.73 948.825 2777.61 965.259 2780.58C965.797 2780.58 965.797 2781.39 965.259 2781.66C965.528 2781.66 965.797 2781.93 966.336 2781.93C967.144 2781.93 967.953 2782.2 969.03 2782.2C969.569 2782.2 969.569 2782.73 969.569 2783C970.377 2783.27 970.916 2783.54 971.724 2784.08C964.45 2773.83 958.523 2762.77 949.094 2754.13C938.587 2744.69 926.194 2737.67 914.609 2729.85C905.988 2723.91 901.678 2714.46 890.901 2710.96C890.632 2710.96 890.632 2710.42 890.901 2710.42C897.906 2710.15 902.486 2715.81 907.335 2720.4C915.957 2728.77 926.194 2734.97 936.162 2741.72C933.199 2738.75 930.774 2735.24 927.811 2732.27C924.308 2728.5 920.536 2724.72 917.573 2720.4C917.304 2720.13 917.842 2719.59 918.112 2719.86C922.422 2722.83 925.655 2727.15 929.158 2730.65C933.199 2735.24 937.779 2739.83 941.281 2744.96C948.825 2750.35 954.482 2756.02 959.601 2762.5C952.327 2740.37 931.582 2720.94 911.646 2709.34C905.18 2705.56 897.906 2703.4 890.901 2700.16C888.207 2698.81 864.769 2688.56 865.846 2692.88C870.696 2713.38 892.518 2733.35 909.491 2744.42C922.961 2753.05 939.934 2747.39 951.788 2757.64C952.596 2758.45 951.519 2759.8 950.71 2759.26C940.742 2753.32 928.888 2755.21 918.381 2751.97C909.76 2749.27 901.947 2743.07 894.943 2737.13C880.933 2725.26 866.385 2707.99 862.344 2689.64C862.075 2688.83 862.613 2688.02 863.691 2688.02C871.235 2688.02 878.239 2691.53 884.974 2694.5C895.751 2699.62 907.066 2703.94 917.304 2709.88C936.162 2720.94 957.984 2742.53 961.756 2764.66C961.756 2764.93 961.756 2764.93 961.756 2765.19C964.181 2768.43 966.875 2771.94 969.3 2775.99C974.418 2784.08 983.04 2788.94 989.236 2795.69C984.925 2783.81 980.884 2771.67 977.921 2759.26C977.921 2758.99 977.921 2758.99 977.921 2758.72C977.382 2758.99 976.574 2758.72 976.304 2757.91C971.186 2744.42 961.217 2732.27 954.482 2719.32C947.208 2705.83 939.395 2693.15 928.888 2681.81C921.614 2673.99 913.262 2666.97 905.45 2659.69C896.828 2654.83 890.093 2647.27 882.819 2640.53C882.28 2640.26 883.089 2639.45 883.358 2639.99C888.746 2644.57 893.865 2649.16 899.253 2653.48C889.285 2642.96 880.394 2631.35 871.235 2620.29C870.696 2619.48 871.773 2618.4 872.582 2619.21C883.897 2632.16 894.673 2645.65 906.527 2658.07C916.765 2668.59 928.08 2677.5 937.779 2688.56C939.126 2690.18 940.742 2692.07 942.089 2693.96C934.815 2675.88 925.386 2659.96 911.915 2645.38C900.061 2632.16 881.472 2615.7 864.499 2609.76C853.184 2605.72 867.463 2627.03 869.079 2629.19C873.929 2636.21 879.586 2642.42 884.974 2648.89C896.828 2664.54 914.879 2671.56 929.158 2684.51C929.966 2685.32 928.888 2686.94 927.811 2686.4C899.253 2667.51 864.23 2645.11 855.07 2609.5C854.801 2608.69 855.339 2607.88 856.148 2607.88C873.39 2605.99 891.979 2625.15 903.564 2635.67C922.961 2652.67 937.509 2675.61 944.783 2700.16V2700.43C949.902 2707.99 954.213 2716.35 958.523 2724.18C963.642 2733.62 970.377 2742.26 975.496 2751.97C971.186 2734.16 967.414 2716.08 963.911 2698C963.642 2698 963.373 2697.73 963.373 2697.46C963.373 2696.65 963.373 2696.11 963.373 2695.58C962.026 2689.37 960.679 2682.89 959.332 2676.69C957.715 2669.13 956.637 2661.57 955.829 2654.02C951.519 2643.23 948.016 2632.16 944.783 2621.1C944.514 2620.56 945.592 2620.29 945.592 2620.83C948.555 2629.19 952.057 2637.56 954.752 2645.92C953.135 2628.11 952.057 2610.57 948.016 2593.3C948.016 2592.76 948.825 2592.49 948.825 2593.03C954.213 2612.19 954.482 2632.43 956.637 2652.13C957.176 2654.02 957.715 2655.91 957.984 2657.8C957.984 2658.34 957.715 2658.61 957.446 2658.34C957.984 2662.11 958.793 2666.16 959.601 2669.94C960.948 2675.88 962.295 2681.54 963.373 2687.48C963.911 2681.54 965.259 2676.15 966.875 2669.94C969.569 2657.53 969.03 2644.57 967.683 2631.89C965.528 2614.62 963.911 2590.61 951.788 2576.84C946.13 2570.37 938.318 2605.72 938.048 2608.15C937.509 2619.21 940.203 2630.54 943.167 2641.34C948.555 2660.5 958.793 2678.31 963.103 2697.46C963.373 2698.81 961.756 2699.08 961.217 2698C945.322 2659.96 921.075 2608.96 948.016 2571.45C948.286 2570.91 949.094 2570.91 949.633 2571.18C963.373 2578.19 965.797 2601.13 967.953 2614.62C969.569 2625.42 971.186 2635.94 971.455 2646.73C971.994 2662.65 965.797 2677.23 964.989 2692.88C969.838 2715 974.688 2737.13 980.076 2758.99C987.62 2789.21 1000.01 2817.81 1011.06 2846.69C1010.52 2836.16 1012.41 2825.1 1013.48 2814.85C1014.56 2804.59 1015.37 2794.34 1015.64 2784.35C1012.67 2750.35 992.199 2718.51 995.702 2683.7C995.702 2682.89 997.049 2683.16 997.049 2683.97C997.588 2706.91 1006.21 2729.31 1011.87 2751.97C1014.02 2719.32 1010.52 2686.13 995.702 2656.72C993.008 2651.32 989.505 2680.73 989.505 2678.58C988.697 2689.64 989.775 2700.7 991.661 2711.77C994.624 2728.77 1002.44 2743.34 1008.63 2759.26C1008.9 2760.07 1007.83 2760.34 1007.56 2759.8C994.624 2741.45 988.697 2717.7 986.811 2695.58C986.272 2689.1 985.195 2651.86 993.277 2649.7C993.816 2649.7 994.355 2649.7 994.624 2650.24C1003.78 2666.97 1009.98 2684.24 1012.67 2703.13C1014.29 2713.65 1014.29 2724.72 1013.48 2735.24C1012.94 2742.53 1014.56 2749.27 1012.67 2756.29C1013.75 2760.61 1014.56 2764.93 1015.37 2768.97C1015.37 2767.08 1015.37 2765.46 1015.37 2763.58C1014.83 2753.59 1016.18 2743.88 1019.14 2734.43C1018.87 2714.73 1020.49 2695.31 1031.26 2678.31C1039.35 2665.35 1052.55 2650.78 1068.71 2649.16C1068.98 2649.16 1069.52 2649.43 1069.79 2649.97C1072.48 2666.43 1064.4 2681.27 1056.59 2695.31C1051.74 2703.94 1047.16 2712.58 1041.77 2720.94C1035.57 2730.12 1026.15 2735.78 1019.95 2744.69C1018.87 2749 1018.33 2753.59 1018.06 2758.72C1017.25 2773.83 1018.6 2788.67 1016.99 2803.78C1016.72 2807.29 1016.18 2810.8 1015.91 2814.31C1021.3 2800.81 1030.73 2791.37 1041.77 2781.66C1050.93 2773.56 1060.36 2766.27 1068.71 2757.37C1075.18 2750.35 1079.22 2742.8 1087.3 2737.67C1088.38 2737.13 1089.19 2738.48 1088.38 2739.29C1074.1 2748.46 1065.48 2765.2 1052.01 2775.72C1052.01 2775.72 1052.01 2775.72 1051.74 2775.99C1057.67 2773.02 1063.59 2770.59 1068.44 2765.73C1068.71 2765.46 1069.25 2766 1068.98 2766.27C1063.59 2771.94 1056.05 2776.8 1048.24 2778.69C1040.69 2784.89 1033.96 2791.1 1028.03 2798.12C1041.5 2790.29 1053.89 2784.89 1066.02 2774.1C1078.95 2762.77 1087.57 2747.66 1094.31 2732C1098.08 2723.37 1069.25 2736.86 1068.98 2736.86C1061.71 2740.91 1055.51 2747.12 1050.12 2753.32C1038.27 2766.27 1032.88 2781.93 1025.61 2797.31C1025.34 2797.85 1024.26 2797.58 1024.53 2796.77C1031.8 2762.77 1061.17 2727.69 1097.27 2726.34C1098.08 2726.34 1098.62 2727.15 1098.35 2727.96C1091.88 2744.42 1083.53 2758.72 1071.41 2771.67C1058.2 2785.7 1043.39 2792.72 1026.15 2800.54C1026.15 2800.54 1026.15 2800.54 1025.88 2800.54C1021.57 2806.21 1018.06 2812.15 1015.1 2819.43C1013.75 2831.31 1012.67 2843.45 1014.02 2855.32C1022.64 2878.26 1029.92 2901.47 1032.88 2925.75C1033.15 2927.64 1030.19 2927.64 1029.92 2925.75C1027.49 2909.29 1023.45 2893.1 1018.33 2877.45C1014.02 2869.35 1004.32 2863.15 996.241 2858.29C995.971 2858.29 995.702 2858.29 995.702 2858.29C989.505 2853.97 978.729 2857.48 972.263 2859.1C966.336 2860.72 961.217 2863.69 955.56 2865.58C955.021 2865.85 954.752 2865.04 955.021 2864.77C959.062 2859.1 970.916 2857.21 977.113 2855.86C980.884 2855.05 986.003 2853.97 990.314 2854.78C990.044 2854.51 989.775 2854.51 989.505 2854.24C988.967 2853.97 988.428 2853.7 987.889 2853.43C974.418 2848.31 952.866 2851.01 948.825 2865.58C947.477 2869.89 946.13 2874.48 953.135 2873.13C958.254 2872.05 963.103 2869.62 967.414 2867.2C974.418 2863.42 980.884 2859.37 988.697 2857.21C989.775 2856.94 990.044 2858.29 989.236 2858.83C975.227 2864.5 962.564 2874.75 947.208 2876.37C946.669 2876.37 946.13 2875.83 946.13 2875.29C945.861 2865.85 947.747 2856.94 957.446 2853.16C964.989 2850.2 973.88 2848.85 981.962 2850.47C970.108 2843.72 958.254 2836.97 946.13 2830.5C945.861 2830.23 945.861 2829.69 946.4 2829.69C958.523 2833.47 969.838 2839.94 980.884 2846.69C972.802 2831.04 950.98 2822.94 934.546 2821.59C929.966 2821.32 925.116 2820.51 928.349 2826.18C931.043 2831.04 935.623 2834.81 940.203 2838.05C948.825 2843.99 959.601 2838.86 968.222 2843.72C969.03 2843.99 968.491 2845.07 967.683 2845.07C957.715 2843.18 948.016 2845.61 938.856 2840.48C932.121 2836.43 925.655 2829.42 923.769 2821.59C923.5 2821.05 923.769 2820.24 924.578 2820.24C943.706 2816.47 976.035 2827.8 982.501 2848.04C987.889 2851.55 993.277 2854.78 998.396 2858.29C1004.05 2861.8 1011.33 2866.39 1016.45 2872.05C1008.9 2849.39 999.474 2826.99 991.122 2804.32C986.272 2798.12 979.537 2795.15 974.418 2789.21C971.994 2787.32 969.3 2785.97 966.606 2784.89C956.907 2786.24 947.208 2792.99 937.24 2794.34C927.272 2795.69 916.495 2796.23 906.527 2795.96C890.632 2795.69 876.353 2789.75 868.81 2775.45C869.079 2773.83 869.349 2773.02 870.157 2772.75ZM1044.73 2712.31C1053.62 2697.73 1063.05 2682.35 1067.9 2665.89C1072.21 2650.78 1063.59 2650.51 1053.09 2657.8C1044.46 2663.73 1037.46 2673.45 1031.8 2682.08C1023.18 2695.85 1022.64 2711.77 1022.37 2727.42C1022.37 2727.42 1022.37 2727.15 1022.64 2727.15C1025.07 2721.48 1028.03 2716.62 1030.99 2711.77C1031.53 2709.07 1032.34 2706.1 1032.88 2703.4C1034.23 2698 1035.31 2692.61 1036.11 2687.21C1036.11 2686.67 1036.92 2686.94 1036.92 2687.21C1036.92 2693.15 1036.11 2699.62 1034.77 2705.83C1039.62 2697.73 1044.2 2689.64 1045.27 2679.11C1045.27 2678.31 1046.89 2678.31 1046.89 2679.38C1046.62 2689.91 1042.58 2698.27 1037.46 2707.18C1030.99 2718.24 1025.61 2727.69 1022.37 2738.48C1028.57 2729.31 1038.81 2722.02 1044.73 2712.31ZM878.239 2783C889.824 2795.15 911.646 2793.53 927.002 2791.64C939.126 2790.29 949.363 2789.21 960.409 2783.27C960.948 2783 961.487 2782.73 961.756 2782.47C953.404 2781.12 944.514 2781.66 936.432 2781.39C921.075 2780.85 905.18 2781.39 890.632 2776.26C890.093 2775.99 890.363 2775.18 890.901 2775.45C907.335 2778.69 924.039 2780.04 940.742 2780.31C935.623 2778.69 931.043 2775.45 926.733 2773.02C926.464 2772.75 926.733 2772.21 927.002 2772.48C929.966 2773.83 932.929 2775.18 935.623 2776.26C938.856 2777.61 942.359 2778.69 945.592 2780.31C945.592 2780.31 945.861 2780.31 945.861 2780.58C947.747 2780.58 949.363 2780.58 951.249 2780.58C953.674 2780.58 956.368 2780.58 958.793 2780.85C950.71 2778.96 943.706 2774.64 936.162 2770.86C922.692 2764.12 909.221 2766.27 894.943 2769.51C886.052 2771.13 867.463 2771.4 878.239 2783Z" fill="#E0BBA9"/>
<path d="M956.099 2598.43C960.679 2613.81 960.948 2630.27 960.14 2646.19C960.14 2646.73 959.332 2646.73 959.332 2646.19C958.523 2630 958.523 2614.35 955.56 2598.43C955.56 2598.16 956.099 2598.16 956.099 2598.43Z" fill="#E0BBA9"/>
<path d="M888.477 2630C897.906 2639.99 906.527 2650.78 914.879 2661.3C915.148 2661.57 914.61 2662.11 914.34 2661.84C904.911 2652.13 895.751 2641.34 887.938 2630.54C887.669 2630 888.207 2629.73 888.477 2630Z" fill="#E0BBA9"/>
<path d="M902.756 2727.42C894.943 2721.21 887.399 2714.73 880.125 2708.26C879.586 2707.99 880.395 2707.18 880.664 2707.72C888.207 2714.19 896.29 2720.13 903.294 2727.15C903.833 2727.42 903.294 2727.96 902.756 2727.42Z" fill="#E0BBA9"/>
<path d="M900.331 2773.56C908.413 2774.64 916.765 2774.91 924.308 2777.61C924.847 2777.88 924.578 2778.42 924.039 2778.42C915.956 2777.07 908.144 2775.72 900.061 2774.64C899.522 2774.64 899.792 2773.56 900.331 2773.56Z" fill="#E0BBA9"/>
<path d="M957.715 2839.13C950.441 2837.51 942.897 2832.66 938.317 2826.99C938.048 2826.72 938.587 2826.18 938.856 2826.45C941.82 2828.88 944.783 2831.31 948.286 2833.47C951.519 2835.35 954.751 2836.7 957.984 2838.32C958.523 2838.59 958.254 2839.4 957.715 2839.13Z" fill="#E0BBA9"/>
<path d="M1055.24 2667.24C1055.51 2666.97 1056.05 2666.97 1056.05 2667.51C1052.28 2678.31 1052.01 2690.99 1046.08 2700.7C1045.81 2701.24 1044.73 2700.97 1045 2700.43C1048.51 2689.64 1050.12 2677.5 1055.24 2667.24Z" fill="#E0BBA9"/>
<path d="M1078.14 2739.83C1072.21 2748.73 1062.52 2753.86 1055.51 2761.69C1055.24 2761.96 1054.7 2761.69 1054.97 2761.15C1060.9 2752.24 1071.41 2747.93 1077.33 2739.29C1077.6 2738.75 1078.41 2739.29 1078.14 2739.83Z" fill="#E0BBA9"/>
<path d="M998.126 2673.18C1000.55 2683.97 1003.25 2695.04 1004.05 2706.1C1004.05 2706.64 1003.25 2706.91 1002.98 2706.37C1000.55 2695.57 999.204 2684.51 997.049 2673.45C997.049 2672.91 997.857 2672.64 998.126 2673.18Z" fill="#E0BBA9"/>
<path d="M295.157 777.751C310.513 774.513 328.294 766.957 344.189 768.846C360.893 770.735 373.825 782.608 390.259 785.576C390.797 785.576 390.797 786.386 390.259 786.655C390.528 786.655 390.797 786.925 391.336 786.925C392.144 786.925 392.953 787.195 394.03 787.195C394.569 787.195 394.569 787.735 394.569 788.005C395.377 788.275 395.916 788.544 396.724 789.084C389.45 778.83 383.523 767.766 374.094 759.131C363.587 749.687 351.194 742.671 339.609 734.845C330.988 728.909 326.678 719.464 315.901 715.956C315.632 715.956 315.632 715.417 315.901 715.417C322.906 715.147 327.486 720.814 332.335 725.401C340.957 733.766 351.194 739.972 361.162 746.719C358.199 743.75 355.774 740.242 352.811 737.274C349.308 733.496 345.536 729.718 342.573 725.401C342.304 725.131 342.842 724.591 343.112 724.861C347.422 727.83 350.655 732.147 354.158 735.655C358.199 740.242 362.779 744.83 366.281 749.957C373.825 755.354 379.482 761.02 384.601 767.497C377.327 745.369 356.582 725.941 336.646 714.337C330.18 710.559 322.906 708.401 315.901 705.163C313.207 703.813 289.769 693.559 290.846 697.877C295.696 718.385 317.518 738.353 334.491 749.417C347.961 758.052 364.934 752.385 376.788 762.639C377.596 763.449 376.519 764.798 375.71 764.258C365.742 758.322 353.888 760.211 343.381 756.973C334.76 754.274 326.947 748.068 319.943 742.131C305.933 730.258 291.385 712.988 287.344 694.639C287.075 693.829 287.613 693.02 288.691 693.02C296.235 693.02 303.239 696.528 309.974 699.496C320.751 704.623 332.066 708.94 342.304 714.877C361.162 725.941 382.984 747.528 386.756 769.655C386.756 769.925 386.756 769.925 386.756 770.195C389.181 773.433 391.875 776.941 394.3 780.989C399.418 789.084 408.04 793.941 414.236 800.687C409.925 788.814 405.884 776.671 402.921 764.258C402.921 763.989 402.921 763.989 402.921 763.719C402.382 763.989 401.574 763.719 401.304 762.909C396.186 749.417 386.217 737.274 379.482 724.322C372.208 710.829 364.395 698.147 353.888 686.813C346.614 678.988 338.262 671.972 330.45 664.686C321.828 659.829 315.093 652.273 307.819 645.527C307.28 645.257 308.089 644.448 308.358 644.987C313.746 649.575 318.865 654.162 324.253 658.48C314.285 647.956 305.394 636.352 296.235 625.289C295.696 624.479 296.773 623.4 297.582 624.209C308.897 637.162 319.673 650.654 331.527 663.067C341.765 673.591 353.08 682.496 362.779 693.559C364.126 695.178 365.742 697.067 367.089 698.956C359.815 680.877 350.386 664.956 336.915 650.384C325.061 637.162 306.472 620.701 289.499 614.765C278.184 610.717 292.463 632.035 294.079 634.194C298.929 641.21 304.586 647.416 309.974 653.892C321.828 669.543 339.879 676.559 354.158 689.512C354.966 690.321 353.888 691.94 352.811 691.401C324.253 672.512 289.23 650.114 280.07 614.495C279.801 613.686 280.339 612.876 281.148 612.876C298.39 610.987 316.979 630.146 328.564 640.67C347.961 657.67 362.509 680.607 369.783 705.163V705.432C374.902 712.988 379.213 721.353 383.523 729.179C388.642 738.623 395.377 747.258 400.496 756.973C396.186 739.163 392.414 721.083 388.911 703.004C388.642 703.004 388.373 702.734 388.373 702.464C388.373 701.655 388.373 701.115 388.373 700.575C387.026 694.369 385.679 687.893 384.332 681.686C382.715 674.131 381.637 666.575 380.829 659.019C376.519 648.226 373.016 637.162 369.783 626.098C369.514 625.559 370.592 625.289 370.592 625.829C373.555 634.194 377.057 642.559 379.752 650.924C378.135 633.114 377.057 615.574 373.016 598.304C373.016 597.765 373.825 597.495 373.825 598.035C379.213 617.194 379.482 637.432 381.637 657.13C382.176 659.019 382.715 660.908 382.984 662.797C382.984 663.337 382.715 663.607 382.446 663.337C382.984 667.115 383.793 671.162 384.601 674.94C385.948 680.877 387.295 686.543 388.373 692.48C388.911 686.543 390.259 681.147 391.875 674.94C394.569 662.527 394.03 649.575 392.683 636.892C390.528 619.622 388.911 595.606 376.788 581.844C371.13 575.368 363.318 610.717 363.048 613.146C362.509 624.209 365.203 635.543 368.167 646.337C373.555 665.496 383.793 683.305 388.103 702.464C388.373 703.813 386.756 704.083 386.217 703.004C370.322 664.956 346.075 613.955 373.016 576.447C373.286 575.907 374.094 575.907 374.633 576.177C388.373 583.193 390.797 606.13 392.953 619.622C394.569 630.416 396.186 640.94 396.455 651.734C396.994 667.654 390.797 682.226 389.989 697.877C394.838 720.004 399.688 742.131 405.076 763.989C412.62 794.211 425.012 822.815 436.058 851.688C435.519 841.164 437.405 830.1 438.483 819.846C439.56 809.592 440.369 799.338 440.638 789.354C437.675 755.354 417.199 723.512 420.702 688.702C420.702 687.893 422.049 688.162 422.049 688.972C422.588 711.909 431.209 734.306 436.866 756.973C439.022 724.322 435.519 691.131 420.702 661.718C418.008 656.321 414.505 685.734 414.505 683.575C413.697 694.639 414.775 705.702 416.661 716.766C419.624 733.766 427.437 748.338 433.633 764.258C433.903 765.068 432.825 765.338 432.556 764.798C419.624 746.449 413.697 722.702 411.811 700.575C411.272 694.099 410.195 656.861 418.277 654.702C418.816 654.702 419.355 654.702 419.624 655.242C428.784 671.972 434.981 689.242 437.675 708.131C439.291 718.655 439.291 729.718 438.483 740.242C437.944 747.528 439.56 754.274 437.675 761.29C438.752 765.608 439.56 769.925 440.369 773.973C440.369 772.084 440.369 770.465 440.369 768.576C439.83 758.592 441.177 748.877 444.14 739.433C443.871 719.734 445.488 700.305 456.264 683.305C464.346 670.353 477.547 655.781 493.712 654.162C493.981 654.162 494.52 654.432 494.789 654.972C497.484 671.432 489.401 686.274 481.588 700.305C476.739 708.94 472.159 717.575 466.771 725.941C460.574 735.115 451.145 740.782 444.949 749.687C443.871 754.004 443.332 758.592 443.063 763.719C442.255 778.83 443.602 793.671 441.985 808.783C441.716 812.291 441.177 815.799 440.908 819.307C446.296 805.814 455.725 796.37 466.771 786.655C475.931 778.56 485.36 771.274 493.712 762.37C500.178 755.354 504.219 747.798 512.301 742.671C513.379 742.131 514.187 743.48 513.379 744.29C499.1 753.465 490.479 770.195 477.008 780.719C477.008 780.719 477.008 780.719 476.739 780.989C482.666 778.02 488.593 775.592 493.442 770.735C493.712 770.465 494.251 771.005 493.981 771.274C488.593 776.941 481.05 781.798 473.237 783.687C465.693 789.894 458.958 796.1 453.031 803.116C466.501 795.291 478.894 789.894 491.018 779.1C503.949 767.766 512.571 752.655 519.306 737.004C523.078 728.369 494.251 741.861 493.981 741.861C486.707 745.909 480.511 752.115 475.123 758.322C463.269 771.274 457.88 786.925 450.606 802.306C450.337 802.846 449.259 802.576 449.529 801.767C456.803 767.766 486.168 732.687 522.269 731.337C523.078 731.337 523.616 732.147 523.347 732.957C516.881 749.417 508.529 763.719 496.406 776.671C483.205 790.703 468.387 797.719 451.145 805.545C451.145 805.545 451.145 805.545 450.876 805.545C446.565 811.211 443.063 817.148 440.099 824.434C438.752 836.307 437.675 848.45 439.022 860.323C447.643 883.26 454.917 906.466 457.88 930.752C458.15 932.641 455.186 932.641 454.917 930.752C452.492 914.292 448.451 898.101 443.332 882.45C439.022 874.355 429.323 868.148 421.241 863.291C420.971 863.291 420.702 863.291 420.702 863.291C414.505 858.974 403.729 862.482 397.263 864.101C391.336 865.72 386.217 868.688 380.56 870.577C380.021 870.847 379.752 870.037 380.021 869.767C384.062 864.101 395.916 862.212 402.113 860.863C405.884 860.053 411.003 858.974 415.314 859.783C415.044 859.513 414.775 859.513 414.505 859.243C413.967 858.974 413.428 858.704 412.889 858.434C399.418 853.307 377.866 856.005 373.825 870.577C372.477 874.894 371.13 879.482 378.135 878.133C383.254 877.053 388.103 874.625 392.414 872.196C399.418 868.418 405.884 864.371 413.697 862.212C414.775 861.942 415.044 863.291 414.236 863.831C400.227 869.498 387.564 879.752 372.208 881.371C371.669 881.371 371.13 880.831 371.13 880.291C370.861 870.847 372.747 861.942 382.446 858.164C389.989 855.196 398.88 853.847 406.962 855.466C395.108 848.72 383.254 841.974 371.13 835.497C370.861 835.227 370.861 834.688 371.4 834.688C383.523 838.466 394.838 844.942 405.884 851.688C397.802 836.037 375.98 827.942 359.546 826.592C354.966 826.323 350.116 825.513 353.349 831.18C356.043 836.037 360.623 839.815 365.203 843.053C373.825 848.989 384.601 843.862 393.222 848.72C394.03 848.989 393.491 850.069 392.683 850.069C382.715 848.18 373.016 850.608 363.856 845.481C357.121 841.434 350.655 834.418 348.769 826.592C348.5 826.053 348.769 825.243 349.578 825.243C368.706 821.465 401.035 832.799 407.501 853.037C412.889 856.545 418.277 859.783 423.396 863.291C429.054 866.799 436.328 871.386 441.446 877.053C433.903 854.386 424.474 831.989 416.122 809.322C411.272 803.116 404.537 800.148 399.418 794.211C396.994 792.322 394.3 790.973 391.606 789.894C381.907 791.243 372.208 797.989 362.24 799.338C352.272 800.687 341.495 801.227 331.527 800.957C315.632 800.687 301.353 794.751 293.81 780.449C294.079 778.83 294.349 778.02 295.157 777.751ZM469.734 717.306C478.625 702.734 488.054 687.353 492.904 670.892C497.214 655.781 488.593 655.511 478.086 662.797C469.465 668.734 462.46 678.448 456.803 687.083C448.182 700.845 447.643 716.766 447.373 732.417C447.373 732.417 447.373 732.147 447.643 732.147C450.067 726.48 453.031 721.623 455.994 716.766C456.533 714.067 457.342 711.099 457.88 708.401C459.227 703.004 460.305 697.607 461.113 692.21C461.113 691.67 461.921 691.94 461.921 692.21C461.921 698.147 461.113 704.623 459.766 710.829C464.616 702.734 469.196 694.639 470.273 684.115C470.273 683.305 471.89 683.305 471.89 684.385C471.62 694.909 467.579 703.274 462.46 712.179C455.994 723.242 450.606 732.687 447.373 743.48C453.57 734.306 463.807 727.02 469.734 717.306ZM303.239 788.005C314.824 800.148 336.646 798.529 352.002 796.64C364.126 795.29 374.363 794.211 385.409 788.275C385.948 788.005 386.487 787.735 386.756 787.465C378.404 786.116 369.514 786.655 361.432 786.386C346.075 785.846 330.18 786.386 315.632 781.259C315.093 780.989 315.363 780.179 315.901 780.449C332.335 783.687 349.039 785.036 365.742 785.306C360.623 783.687 356.043 780.449 351.733 778.02C351.464 777.751 351.733 777.211 352.002 777.481C354.966 778.83 357.929 780.179 360.623 781.259C363.856 782.608 367.359 783.687 370.592 785.306C370.592 785.306 370.861 785.306 370.861 785.576C372.747 785.576 374.363 785.576 376.249 785.576C378.674 785.576 381.368 785.576 383.793 785.846C375.71 783.957 368.706 779.64 361.162 775.862C347.692 769.116 334.221 771.274 319.943 774.513C311.052 776.132 292.463 776.401 303.239 788.005Z" fill="#E0BBA9"/>
<path d="M381.099 603.432C385.679 618.813 385.948 635.273 385.14 651.194C385.14 651.734 384.332 651.734 384.332 651.194C383.523 635.004 383.523 619.353 380.56 603.432C380.56 603.162 381.099 603.162 381.099 603.432Z" fill="#E0BBA9"/>
<path d="M313.477 635.003C322.906 644.987 331.527 655.781 339.879 666.305C340.148 666.575 339.61 667.114 339.34 666.844C329.911 657.13 320.751 646.336 312.938 635.543C312.669 635.003 313.207 634.733 313.477 635.003Z" fill="#E0BBA9"/>
<path d="M327.756 732.417C319.943 726.21 312.399 719.734 305.125 713.258C304.586 712.988 305.395 712.178 305.664 712.718C313.207 719.194 321.29 725.131 328.294 732.147C328.833 732.417 328.294 732.956 327.756 732.417Z" fill="#E0BBA9"/>
<path d="M325.331 778.56C333.413 779.639 341.765 779.909 349.308 782.608C349.847 782.878 349.578 783.417 349.039 783.417C340.956 782.068 333.144 780.719 325.061 779.639C324.522 779.639 324.792 778.56 325.331 778.56Z" fill="#E0BBA9"/>
<path d="M382.715 844.133C375.441 842.514 367.897 837.656 363.317 831.99C363.048 831.72 363.587 831.18 363.856 831.45C366.82 833.879 369.783 836.307 373.286 838.466C376.519 840.355 379.751 841.704 382.984 843.323C383.523 843.593 383.254 844.402 382.715 844.133Z" fill="#E0BBA9"/>
<path d="M480.241 672.242C480.511 671.972 481.05 671.972 481.05 672.512C477.278 683.305 477.008 695.988 471.081 705.702C470.812 706.242 469.734 705.972 470.004 705.433C473.506 694.639 475.123 682.496 480.241 672.242Z" fill="#E0BBA9"/>
<path d="M503.141 744.83C497.214 753.735 487.515 758.862 480.511 766.688C480.241 766.957 479.702 766.687 479.972 766.148C485.899 757.243 496.406 752.925 502.333 744.29C502.602 743.751 503.41 744.29 503.141 744.83Z" fill="#E0BBA9"/>
<path d="M423.126 678.178C425.551 688.972 428.245 700.035 429.053 711.099C429.053 711.639 428.245 711.908 427.976 711.369C425.551 700.575 424.204 689.511 422.049 678.448C422.049 677.908 422.857 677.638 423.126 678.178Z" fill="#E0BBA9"/>
<path d="M1010.26 1074.75C994.904 1071.51 977.123 1063.96 961.228 1065.85C944.524 1067.73 931.592 1079.61 915.158 1082.58C914.62 1082.58 914.62 1083.39 915.158 1083.66C914.889 1083.66 914.62 1083.93 914.081 1083.93C913.273 1083.93 912.464 1084.2 911.387 1084.2C910.848 1084.2 910.848 1084.73 910.848 1085C910.04 1085.27 909.501 1085.54 908.693 1086.08C915.967 1075.83 921.894 1064.77 931.323 1056.13C941.83 1046.69 954.223 1039.67 965.807 1031.85C974.429 1025.91 978.739 1016.46 989.516 1012.96C989.785 1012.96 989.785 1012.42 989.516 1012.42C982.511 1012.15 977.931 1017.81 973.082 1022.4C964.46 1030.77 954.223 1036.97 944.255 1043.72C947.218 1040.75 949.643 1037.24 952.606 1034.27C956.109 1030.5 959.88 1026.72 962.844 1022.4C963.113 1022.13 962.575 1021.59 962.305 1021.86C957.995 1024.83 954.762 1029.15 951.259 1032.65C947.218 1037.24 942.638 1041.83 939.136 1046.96C931.592 1052.35 925.935 1058.02 920.816 1064.5C928.09 1042.37 948.835 1022.94 968.771 1011.34C975.237 1007.56 982.511 1005.4 989.516 1002.16C992.21 1000.81 1015.65 990.559 1014.57 994.877C1009.72 1015.38 987.899 1035.35 970.926 1046.42C957.456 1055.05 940.483 1049.39 928.629 1059.64C927.821 1060.45 928.898 1061.8 929.707 1061.26C939.675 1055.32 951.529 1057.21 962.036 1053.97C970.657 1051.27 978.47 1045.07 985.474 1039.13C999.484 1027.26 1014.03 1009.99 1018.07 991.639C1018.34 990.829 1017.8 990.02 1016.73 990.02C1009.18 990.02 1002.18 993.528 995.443 996.496C984.666 1001.62 973.351 1005.94 963.113 1011.88C944.255 1022.94 922.433 1044.53 918.661 1066.66C918.661 1066.93 918.661 1066.93 918.661 1067.19C916.236 1070.43 913.542 1073.94 911.117 1077.99C905.999 1086.08 897.377 1090.94 891.181 1097.69C895.492 1085.81 899.533 1073.67 902.496 1061.26C902.496 1060.99 902.496 1060.99 902.496 1060.72C903.035 1060.99 903.843 1060.72 904.113 1059.91C909.231 1046.42 919.2 1034.27 925.935 1021.32C933.209 1007.83 941.022 995.147 951.529 983.813C958.803 975.988 967.155 968.972 974.967 961.686C983.589 956.829 990.324 949.273 997.598 942.527C998.137 942.257 997.328 941.448 997.059 941.987C991.671 946.575 986.552 951.162 981.164 955.48C991.132 944.956 1000.02 933.352 1009.18 922.289C1009.72 921.479 1008.64 920.4 1007.84 921.209C996.52 934.162 985.744 947.654 973.89 960.067C963.652 970.591 952.337 979.496 942.638 990.559C941.291 992.178 939.675 994.067 938.328 995.956C945.602 977.877 955.031 961.956 968.502 947.384C980.356 934.162 998.945 917.701 1015.92 911.765C1027.23 907.717 1012.95 929.035 1011.34 931.194C1006.49 938.21 1000.83 944.416 995.443 950.892C983.589 966.543 965.538 973.559 951.259 986.512C950.451 987.321 951.529 988.94 952.606 988.401C981.164 969.512 1016.19 947.114 1025.35 911.495C1025.62 910.686 1025.08 909.876 1024.27 909.876C1007.03 907.987 988.438 927.146 976.853 937.67C957.456 954.67 942.908 977.607 935.634 1002.16V1002.43C930.515 1009.99 926.204 1018.35 921.894 1026.18C916.775 1035.62 910.04 1044.26 904.921 1053.97C909.231 1036.16 913.003 1018.08 916.506 1000C916.775 1000 917.044 999.734 917.044 999.464C917.044 998.655 917.044 998.115 917.044 997.575C918.391 991.369 919.738 984.893 921.085 978.686C922.702 971.131 923.78 963.575 924.588 956.019C928.898 945.226 932.401 934.162 935.634 923.098C935.903 922.559 934.825 922.289 934.825 922.829C931.862 931.194 928.36 939.559 925.665 947.924C927.282 930.114 928.36 912.574 932.401 895.304C932.401 894.765 931.592 894.495 931.592 895.035C926.204 914.194 925.935 934.432 923.78 954.13C923.241 956.019 922.702 957.908 922.433 959.797C922.433 960.337 922.702 960.607 922.971 960.337C922.433 964.115 921.624 968.162 920.816 971.94C919.469 977.877 918.122 983.543 917.044 989.48C916.506 983.543 915.158 978.147 913.542 971.94C910.848 959.527 911.387 946.575 912.734 933.892C914.889 916.622 916.506 892.606 928.629 878.844C934.287 872.368 942.099 907.717 942.369 910.146C942.908 921.209 940.214 932.543 937.25 943.337C931.862 962.496 921.624 980.305 917.314 999.464C917.044 1000.81 918.661 1001.08 919.2 1000C935.095 961.956 959.342 910.955 932.401 873.447C932.131 872.907 931.323 872.907 930.784 873.177C917.044 880.193 914.62 903.13 912.464 916.622C910.848 927.416 909.231 937.94 908.962 948.734C908.423 964.654 914.62 979.226 915.428 994.877C910.579 1017 905.729 1039.13 900.341 1060.99C892.797 1091.21 880.405 1119.81 869.359 1148.69C869.898 1138.16 868.012 1127.1 866.934 1116.85C865.857 1106.59 865.048 1096.34 864.779 1086.35C867.742 1052.35 888.217 1020.51 884.715 985.702C884.715 984.893 883.368 985.162 883.368 985.972C882.829 1008.91 874.208 1031.31 868.551 1053.97C866.395 1021.32 869.898 988.131 884.715 958.718C887.409 953.321 890.912 982.734 890.912 980.575C891.72 991.639 890.642 1002.7 888.756 1013.77C885.793 1030.77 877.98 1045.34 871.784 1061.26C871.514 1062.07 872.592 1062.34 872.861 1061.8C885.793 1043.45 891.72 1019.7 893.606 997.575C894.145 991.099 895.222 953.861 887.14 951.702C886.601 951.702 886.062 951.702 885.793 952.242C876.633 968.972 870.436 986.242 867.742 1005.13C866.126 1015.65 866.126 1026.72 866.934 1037.24C867.473 1044.53 865.856 1051.27 867.742 1058.29C866.665 1062.61 865.856 1066.93 865.048 1070.97C865.048 1069.08 865.048 1067.46 865.048 1065.58C865.587 1055.59 864.24 1045.88 861.277 1036.43C861.546 1016.73 859.929 997.305 849.153 980.305C841.071 967.353 827.87 952.781 811.705 951.162C811.436 951.162 810.897 951.432 810.628 951.972C807.933 968.432 816.016 983.274 823.829 997.305C828.678 1005.94 833.258 1014.58 838.646 1022.94C844.843 1032.12 854.272 1037.78 860.468 1046.69C861.546 1051 862.085 1055.59 862.354 1060.72C863.162 1075.83 861.815 1090.67 863.432 1105.78C863.701 1109.29 864.24 1112.8 864.509 1116.31C859.121 1102.81 849.692 1093.37 838.646 1083.66C829.486 1075.56 820.057 1068.27 811.705 1059.37C805.239 1052.35 801.198 1044.8 793.116 1039.67C792.038 1039.13 791.23 1040.48 792.038 1041.29C806.317 1050.46 814.938 1067.2 828.409 1077.72C828.409 1077.72 828.409 1077.72 828.678 1077.99C822.751 1075.02 816.824 1072.59 811.975 1067.73C811.705 1067.46 811.166 1068 811.436 1068.27C816.824 1073.94 824.367 1078.8 832.18 1080.69C839.724 1086.89 846.459 1093.1 852.386 1100.12C838.916 1092.29 826.523 1086.89 814.399 1076.1C801.468 1064.77 792.846 1049.66 786.111 1034C782.339 1025.37 811.166 1038.86 811.436 1038.86C818.71 1042.91 824.906 1049.12 830.294 1055.32C842.148 1068.27 847.537 1083.93 854.811 1099.31C855.08 1099.85 856.158 1099.58 855.888 1098.77C848.614 1064.77 819.249 1029.69 783.148 1028.34C782.339 1028.34 781.801 1029.15 782.07 1029.96C788.536 1046.42 796.888 1060.72 809.011 1073.67C822.212 1087.7 837.03 1094.72 854.272 1102.54C854.272 1102.54 854.272 1102.54 854.541 1102.54C858.852 1108.21 862.354 1114.15 865.318 1121.43C866.665 1133.31 867.742 1145.45 866.395 1157.32C857.774 1180.26 850.5 1203.47 847.537 1227.75C847.267 1229.64 850.231 1229.64 850.5 1227.75C852.925 1211.29 856.966 1195.1 862.085 1179.45C866.395 1171.35 876.094 1165.15 884.176 1160.29C884.446 1160.29 884.715 1160.29 884.715 1160.29C890.912 1155.97 901.688 1159.48 908.154 1161.1C914.081 1162.72 919.2 1165.69 924.857 1167.58C925.396 1167.85 925.665 1167.04 925.396 1166.77C921.355 1161.1 909.501 1159.21 903.304 1157.86C899.533 1157.05 894.414 1155.97 890.103 1156.78C890.373 1156.51 890.642 1156.51 890.912 1156.24C891.45 1155.97 891.989 1155.7 892.528 1155.43C905.999 1150.31 927.551 1153.01 931.592 1167.58C932.94 1171.89 934.287 1176.48 927.282 1175.13C922.163 1174.05 917.314 1171.62 913.003 1169.2C905.999 1165.42 899.533 1161.37 891.72 1159.21C890.642 1158.94 890.373 1160.29 891.181 1160.83C905.19 1166.5 917.853 1176.75 933.209 1178.37C933.748 1178.37 934.287 1177.83 934.287 1177.29C934.556 1167.85 932.67 1158.94 922.971 1155.16C915.428 1152.2 906.537 1150.85 898.455 1152.47C910.309 1145.72 922.163 1138.97 934.287 1132.5C934.556 1132.23 934.556 1131.69 934.017 1131.69C921.894 1135.47 910.579 1141.94 899.533 1148.69C907.615 1133.04 929.437 1124.94 945.871 1123.59C950.451 1123.32 955.301 1122.51 952.068 1128.18C949.374 1133.04 944.794 1136.81 940.214 1140.05C931.592 1145.99 920.816 1140.86 912.195 1145.72C911.387 1145.99 911.926 1147.07 912.734 1147.07C922.702 1145.18 932.401 1147.61 941.561 1142.48C948.296 1138.43 954.762 1131.42 956.648 1123.59C956.917 1123.05 956.648 1122.24 955.839 1122.24C936.711 1118.47 904.382 1129.8 897.916 1150.04C892.528 1153.55 887.14 1156.78 882.021 1160.29C876.363 1163.8 869.089 1168.39 863.971 1174.05C871.514 1151.39 880.943 1128.99 889.295 1106.32C894.145 1100.12 900.88 1097.15 905.999 1091.21C908.423 1089.32 911.117 1087.97 913.811 1086.89C923.51 1088.24 933.209 1094.99 943.177 1096.34C953.145 1097.69 963.922 1098.23 973.89 1097.96C989.785 1097.69 1004.06 1091.75 1011.61 1077.45C1011.34 1075.83 1011.07 1075.02 1010.26 1074.75ZM835.683 1014.31C826.792 999.734 817.363 984.353 812.513 967.892C808.203 952.781 816.824 952.511 827.331 959.797C835.952 965.734 842.957 975.448 848.614 984.083C857.235 997.845 857.774 1013.77 858.044 1029.42C858.044 1029.42 858.044 1029.15 857.774 1029.15C855.35 1023.48 852.386 1018.62 849.423 1013.77C848.884 1011.07 848.075 1008.1 847.537 1005.4C846.19 1000 845.112 994.607 844.304 989.21C844.304 988.67 843.495 988.94 843.495 989.21C843.495 995.147 844.304 1001.62 845.651 1007.83C840.801 999.734 836.221 991.639 835.144 981.115C835.144 980.305 833.527 980.305 833.527 981.385C833.797 991.909 837.838 1000.27 842.957 1009.18C849.423 1020.24 854.811 1029.69 858.044 1040.48C851.847 1031.31 841.61 1024.02 835.683 1014.31ZM1002.18 1085C990.593 1097.15 968.771 1095.53 953.415 1093.64C941.291 1092.29 931.054 1091.21 920.008 1085.27C919.469 1085 918.93 1084.73 918.661 1084.47C927.012 1083.12 935.903 1083.66 943.985 1083.39C959.342 1082.85 975.237 1083.39 989.785 1078.26C990.324 1077.99 990.054 1077.18 989.516 1077.45C973.082 1080.69 956.378 1082.04 939.675 1082.31C944.794 1080.69 949.374 1077.45 953.684 1075.02C953.953 1074.75 953.684 1074.21 953.415 1074.48C950.451 1075.83 947.488 1077.18 944.794 1078.26C941.561 1079.61 938.058 1080.69 934.825 1082.31C934.825 1082.31 934.556 1082.31 934.556 1082.58C932.67 1082.58 931.054 1082.58 929.168 1082.58C926.743 1082.58 924.049 1082.58 921.624 1082.85C929.707 1080.96 936.711 1076.64 944.255 1072.86C957.725 1066.12 971.196 1068.27 985.474 1071.51C994.365 1073.13 1012.95 1073.4 1002.18 1085Z" fill="#E0BBA9"/>
<path d="M924.318 900.432C919.738 915.813 919.469 932.273 920.277 948.194C920.277 948.734 921.085 948.734 921.085 948.194C921.894 932.004 921.894 916.353 924.857 900.432C924.857 900.162 924.318 900.162 924.318 900.432Z" fill="#E0BBA9"/>
<path d="M991.94 932.003C982.511 941.987 973.89 952.781 965.538 963.305C965.269 963.575 965.807 964.114 966.077 963.844C975.506 954.13 984.666 943.336 992.479 932.543C992.748 932.003 992.21 931.733 991.94 932.003Z" fill="#E0BBA9"/>
<path d="M977.661 1029.42C985.474 1023.21 993.018 1016.73 1000.29 1010.26C1000.83 1009.99 1000.02 1009.18 999.753 1009.72C992.21 1016.19 984.127 1022.13 977.123 1029.15C976.584 1029.42 977.123 1029.96 977.661 1029.42Z" fill="#E0BBA9"/>
<path d="M980.086 1075.56C972.004 1076.64 963.652 1076.91 956.109 1079.61C955.57 1079.88 955.839 1080.42 956.378 1080.42C964.461 1079.07 972.273 1077.72 980.356 1076.64C980.895 1076.64 980.625 1075.56 980.086 1075.56Z" fill="#E0BBA9"/>
<path d="M922.702 1141.13C929.976 1139.51 937.52 1134.66 942.1 1128.99C942.369 1128.72 941.83 1128.18 941.561 1128.45C938.597 1130.88 935.634 1133.31 932.131 1135.47C928.898 1137.35 925.666 1138.7 922.433 1140.32C921.894 1140.59 922.163 1141.4 922.702 1141.13Z" fill="#E0BBA9"/>
<path d="M825.176 969.242C824.906 968.972 824.367 968.972 824.367 969.512C828.139 980.305 828.409 992.988 834.336 1002.7C834.605 1003.24 835.683 1002.97 835.413 1002.43C831.911 991.639 830.294 979.496 825.176 969.242Z" fill="#E0BBA9"/>
<path d="M802.276 1041.83C808.203 1050.73 817.902 1055.86 824.906 1063.69C825.176 1063.96 825.715 1063.69 825.445 1063.15C819.518 1054.24 809.011 1049.93 803.084 1041.29C802.815 1040.75 802.006 1041.29 802.276 1041.83Z" fill="#E0BBA9"/>
<path d="M882.291 975.178C879.866 985.972 877.172 997.035 876.364 1008.1C876.364 1008.64 877.172 1008.91 877.441 1008.37C879.866 997.575 881.213 986.511 883.368 975.448C883.368 974.908 882.56 974.638 882.291 975.178Z" fill="#E0BBA9"/>
</svg>
