<svg width="1177" height="3749" viewBox="0 0 1177 3749" fill="none" xmlns="http://www.w3.org/2000/svg">
<path d="M441.672 1909.87C411.958 1903.61 377.553 1888.99 346.796 1892.64C314.476 1896.3 289.454 1919.27 257.655 1925.01C256.612 1925.01 256.612 1926.58 257.655 1927.1C257.134 1927.1 256.612 1927.63 255.57 1927.63C254.006 1927.63 252.442 1928.15 250.357 1928.15C249.314 1928.15 249.314 1929.19 249.314 1929.71C247.75 1930.24 246.708 1930.76 245.144 1931.8C259.219 1911.96 270.687 1890.55 288.933 1873.85C309.263 1855.57 333.243 1842 355.658 1826.85C372.34 1815.37 380.68 1797.09 401.532 1790.3C402.054 1790.3 402.054 1789.26 401.532 1789.26C387.979 1788.74 379.117 1799.7 369.733 1808.58C353.052 1824.76 333.243 1836.77 313.955 1849.83C319.689 1844.08 324.381 1837.3 330.115 1831.55C336.892 1824.24 344.19 1816.93 349.924 1808.58C350.445 1808.06 349.403 1807.01 348.882 1807.53C340.541 1813.28 334.285 1821.63 327.508 1828.42C319.689 1837.3 310.827 1846.17 304.05 1856.09C289.454 1866.54 278.507 1877.5 268.602 1890.03C282.677 1847.22 322.817 1809.62 361.393 1787.17C373.904 1779.86 387.979 1775.68 401.532 1769.42C406.745 1766.81 452.098 1746.97 450.013 1755.32C440.629 1795 398.405 1833.64 365.563 1855.05C339.498 1871.76 306.657 1860.79 283.72 1880.63C282.156 1882.2 284.241 1884.81 285.805 1883.77C305.093 1872.28 328.03 1875.93 348.36 1869.67C365.042 1864.45 380.159 1852.44 393.713 1840.95C420.82 1817.98 448.97 1784.56 456.789 1749.06C457.311 1747.49 456.268 1745.92 454.183 1745.92C439.587 1745.92 426.033 1752.71 413.001 1758.45C392.149 1768.37 370.255 1776.73 350.445 1788.22C313.955 1809.62 271.73 1851.39 264.432 1894.21C264.432 1894.73 264.432 1894.73 264.432 1895.25C259.74 1901.52 254.527 1908.31 249.836 1916.14C239.931 1931.8 223.25 1941.2 211.26 1954.25C219.601 1931.28 227.42 1907.78 233.154 1883.77C233.154 1883.24 233.154 1883.24 233.154 1882.72C234.197 1883.24 235.761 1882.72 236.282 1881.16C246.187 1855.05 265.474 1831.55 278.507 1806.49C292.582 1780.38 307.699 1755.84 328.03 1733.91C342.105 1718.77 358.265 1705.2 373.382 1691.1C390.064 1681.7 403.096 1667.08 417.171 1654.03C418.214 1653.5 416.65 1651.94 416.128 1652.98C405.703 1661.86 395.798 1670.73 385.372 1679.09C404.66 1658.73 421.863 1636.27 439.587 1614.87C440.629 1613.3 438.544 1611.21 436.98 1612.78C415.086 1637.84 394.234 1663.95 371.297 1687.97C351.488 1708.33 329.594 1725.56 310.827 1746.97C308.221 1750.1 305.093 1753.75 302.486 1757.41C316.561 1722.43 334.807 1691.62 360.871 1663.43C383.808 1637.84 419.778 1605.99 452.619 1594.5C474.513 1586.67 446.885 1627.92 443.757 1632.1C434.374 1645.67 423.427 1657.68 413.001 1670.21C390.064 1700.5 355.137 1714.07 327.508 1739.13C325.945 1740.7 328.03 1743.83 330.115 1742.79C385.372 1706.24 453.14 1662.9 470.864 1593.98C471.386 1592.41 470.343 1590.85 468.779 1590.85C435.416 1587.19 399.447 1624.26 377.031 1644.63C339.498 1677.52 311.348 1721.9 297.273 1769.42V1769.94C287.369 1784.56 279.028 1800.75 270.687 1815.89C260.783 1834.16 247.75 1850.87 237.846 1869.67C246.187 1835.21 253.485 1800.22 260.261 1765.24C260.783 1765.24 261.304 1764.72 261.304 1764.2C261.304 1762.63 261.304 1761.59 261.304 1760.54C263.911 1748.53 266.517 1736 269.123 1723.99C272.251 1709.37 274.336 1694.75 275.9 1680.13C284.241 1659.25 291.018 1637.84 297.273 1616.43C297.795 1615.39 295.71 1614.87 295.71 1615.91C289.975 1632.1 283.198 1648.28 277.985 1664.47C281.113 1630.01 283.198 1596.07 291.018 1562.65C291.018 1561.61 289.454 1561.09 289.454 1562.13C279.028 1599.2 278.507 1638.36 274.336 1676.48C273.294 1680.13 272.251 1683.79 271.73 1687.44C271.73 1688.49 272.251 1689.01 272.773 1688.49C271.73 1695.8 270.166 1703.63 268.602 1710.94C265.996 1722.43 263.389 1733.39 261.304 1744.88C260.261 1733.39 257.655 1722.95 254.527 1710.94C249.314 1686.92 250.357 1661.86 252.963 1637.32C257.134 1603.9 260.261 1557.43 283.72 1530.8C294.667 1518.27 309.784 1586.67 310.306 1591.37C311.348 1612.78 306.135 1634.71 300.401 1655.59C289.975 1692.66 270.166 1727.13 261.825 1764.2C261.304 1766.81 264.432 1767.33 265.474 1765.24C296.231 1691.62 343.147 1592.94 291.018 1520.36C290.497 1519.32 288.933 1519.32 287.89 1519.84C261.304 1533.41 256.612 1577.79 252.442 1603.9C249.314 1624.79 246.187 1645.15 245.665 1666.04C244.623 1696.84 256.612 1725.04 258.176 1755.32C248.793 1798.14 239.41 1840.95 228.984 1883.24C214.388 1941.72 190.408 1997.07 169.035 2052.94C170.078 2032.57 166.429 2011.17 164.343 1991.33C162.258 1971.48 160.694 1951.64 160.173 1932.32C165.907 1866.54 205.526 1804.92 198.749 1737.57C198.749 1736 196.142 1736.52 196.142 1738.09C195.1 1782.47 178.418 1825.81 167.471 1869.67C163.301 1806.49 170.078 1742.27 198.749 1685.35C203.962 1674.91 210.739 1731.82 210.739 1727.65C212.302 1749.06 210.217 1770.46 206.568 1791.87C200.834 1824.76 185.716 1852.96 173.727 1883.77C173.205 1885.33 175.291 1885.85 175.812 1884.81C200.834 1849.3 212.302 1803.36 215.951 1760.54C216.994 1748.01 219.079 1675.96 203.44 1671.78C202.398 1671.78 201.355 1671.78 200.834 1672.82C183.11 1705.2 171.12 1738.61 165.907 1775.16C162.779 1795.53 162.779 1816.93 164.343 1837.3C165.386 1851.39 162.258 1864.45 165.907 1878.02C163.822 1886.38 162.258 1894.73 160.694 1902.56C160.694 1898.91 160.694 1895.77 160.694 1892.12C161.737 1872.8 159.13 1854 153.396 1835.73C153.917 1797.61 150.79 1760.02 129.938 1727.13C114.299 1702.06 88.7556 1673.87 57.478 1670.73C56.9567 1670.73 55.9141 1671.26 55.3928 1672.3C50.1799 1704.15 65.8187 1732.87 80.9362 1760.02C90.3195 1776.73 99.1815 1793.44 109.607 1809.62C121.597 1827.38 139.842 1838.34 151.832 1855.57C153.917 1863.92 154.96 1872.8 155.481 1882.72C157.045 1911.96 154.439 1940.68 157.567 1969.92C158.088 1976.71 159.13 1983.49 159.652 1990.28C149.226 1964.17 130.98 1945.9 109.607 1927.1C91.8834 1911.44 73.6381 1897.34 57.478 1880.11C44.9669 1866.54 37.1475 1851.92 21.5087 1842C19.4235 1840.95 17.8596 1843.56 19.4235 1845.13C47.0521 1862.88 63.7335 1895.25 89.7982 1915.62C89.7982 1915.62 89.7982 1915.62 90.3195 1916.14C78.8511 1910.39 67.3826 1905.7 57.9993 1896.3C57.478 1895.77 56.4354 1896.82 56.9567 1897.34C67.3826 1908.31 81.9788 1917.7 97.0964 1921.36C111.693 1933.37 124.725 1945.38 136.193 1958.95C110.129 1943.81 86.1492 1933.37 62.6909 1912.48C37.6688 1890.55 20.9874 1861.31 7.95502 1831.03C0.656899 1814.32 56.4354 1840.43 56.9567 1840.43C71.0316 1848.26 83.0214 1860.27 93.4473 1872.28C116.384 1897.34 126.81 1927.63 140.885 1957.39C141.406 1958.43 143.492 1957.91 142.97 1956.34C128.895 1890.55 72.0742 1822.68 2.22078 1820.07C0.656899 1820.07 -0.38569 1821.63 0.135604 1823.2C12.6467 1855.05 28.8068 1882.72 52.265 1907.78C77.8085 1934.94 106.48 1948.51 139.842 1963.65C139.842 1963.65 139.842 1963.65 140.364 1963.65C148.705 1974.62 155.481 1986.1 161.216 2000.2C163.822 2023.18 165.907 2046.67 163.301 2069.65C146.619 2114.03 132.544 2158.93 126.81 2205.92C126.289 2209.58 132.023 2209.58 132.544 2205.92C137.236 2174.07 145.055 2142.74 154.96 2112.46C163.301 2096.8 182.067 2084.79 197.706 2075.39C198.227 2075.39 198.749 2075.39 198.749 2075.39C210.739 2067.03 231.59 2073.82 244.101 2076.96C255.57 2080.09 265.474 2085.83 276.422 2089.49C277.464 2090.01 277.985 2088.44 277.464 2087.92C269.645 2076.96 246.708 2073.3 234.718 2070.69C227.42 2069.12 217.515 2067.04 209.175 2068.6C209.696 2068.08 210.217 2068.08 210.739 2067.56C211.781 2067.03 212.824 2066.51 213.866 2065.99C239.931 2056.07 281.635 2061.29 289.454 2089.49C292.06 2097.84 294.667 2106.72 281.113 2104.11C271.209 2102.02 261.825 2097.32 253.485 2092.62C239.931 2085.31 227.42 2077.48 212.302 2073.3C210.217 2072.78 209.696 2075.39 211.26 2076.43C238.367 2087.4 262.868 2107.24 292.582 2110.37C293.624 2110.37 294.667 2109.33 294.667 2108.28C295.188 2090.01 291.539 2072.78 272.773 2065.47C258.176 2059.73 240.974 2057.11 225.335 2060.25C248.272 2047.19 271.209 2034.14 294.667 2021.61C295.188 2021.09 295.188 2020.04 294.146 2020.04C270.687 2027.35 248.793 2039.88 227.42 2052.94C243.059 2022.65 285.284 2006.99 317.083 2004.38C325.945 2003.86 335.328 2002.29 329.072 2013.26C323.859 2022.65 314.997 2029.96 306.135 2036.23C289.454 2047.72 268.602 2037.8 251.921 2047.19C250.357 2047.72 251.399 2049.8 252.963 2049.8C272.251 2046.15 291.018 2050.85 308.742 2040.93C321.774 2033.1 334.285 2019.52 337.934 2004.38C338.456 2003.33 337.934 2001.77 336.37 2001.77C299.359 1994.46 236.803 2016.39 224.292 2055.55C213.866 2062.34 203.44 2068.6 193.536 2075.39C182.589 2082.18 168.514 2091.05 158.609 2102.02C173.205 2058.16 191.451 2014.82 207.611 1970.96C216.994 1958.95 230.026 1953.21 239.931 1941.72C244.623 1938.07 249.836 1935.46 255.049 1933.37C273.815 1935.98 292.582 1949.03 311.87 1951.64C331.158 1954.25 352.009 1955.3 371.297 1954.78C402.054 1954.25 429.682 1942.77 444.278 1915.09C443.757 1911.96 443.236 1910.39 441.672 1909.87ZM103.873 1792.91C86.6705 1764.72 68.4252 1734.96 59.0419 1703.11C50.7012 1673.87 67.3826 1673.35 87.7131 1687.44C104.394 1698.93 117.948 1717.73 128.895 1734.44C145.577 1761.06 146.619 1791.87 147.141 1822.15C147.141 1822.15 147.141 1821.63 146.619 1821.63C141.928 1810.67 136.193 1801.27 130.459 1791.87C129.417 1786.65 127.853 1780.91 126.81 1775.68C124.204 1765.24 122.118 1754.8 120.555 1744.36C120.555 1743.31 118.991 1743.83 118.991 1744.36C118.991 1755.84 120.555 1768.37 123.161 1780.38C113.778 1764.72 104.916 1749.06 102.831 1728.69C102.831 1727.13 99.7028 1727.13 99.7028 1729.21C100.224 1749.58 108.044 1765.76 117.948 1782.99C130.459 1804.4 140.885 1822.68 147.141 1843.56C135.151 1825.81 115.342 1811.71 103.873 1792.91ZM426.033 1929.71C403.617 1953.21 361.393 1950.08 331.679 1946.42C308.221 1943.81 288.411 1941.72 267.038 1930.24C265.996 1929.71 264.953 1929.19 264.432 1928.67C280.592 1926.06 297.795 1927.1 313.434 1926.58C343.147 1925.54 373.904 1926.58 402.054 1916.66C403.096 1916.14 402.575 1914.57 401.532 1915.09C369.733 1921.36 337.413 1923.97 305.093 1924.49C314.997 1921.36 323.859 1915.09 332.2 1910.39C332.721 1909.87 332.2 1908.83 331.679 1909.35C325.945 1911.96 320.21 1914.57 314.997 1916.66C308.742 1919.27 301.965 1921.36 295.71 1924.49C295.71 1924.49 295.188 1924.49 295.188 1925.01C291.539 1925.01 288.411 1925.01 284.762 1925.01C280.071 1925.01 274.858 1925.01 270.166 1925.54C285.805 1921.88 299.359 1913.53 313.955 1906.22C340.02 1893.16 366.084 1897.34 393.713 1903.61C410.916 1906.74 446.885 1907.26 426.033 1929.71Z" fill="#E0BBA9"/>
<path d="M275.379 1572.57C266.517 1602.34 265.996 1634.19 267.56 1664.99C267.56 1666.04 269.124 1666.04 269.124 1664.99C270.688 1633.66 270.688 1603.38 276.422 1572.57C276.422 1572.05 275.379 1572.05 275.379 1572.57Z" fill="#E0BBA9"/>
<path d="M406.224 1633.66C387.979 1652.98 371.297 1673.87 355.137 1694.23C354.616 1694.75 355.658 1695.8 356.18 1695.27C374.425 1676.48 392.149 1655.59 407.266 1634.71C407.788 1633.66 406.745 1633.14 406.224 1633.66Z" fill="#E0BBA9"/>
<path d="M378.595 1822.15C393.713 1810.14 408.309 1797.61 422.384 1785.08C423.427 1784.56 421.863 1782.99 421.342 1784.04C406.745 1796.57 391.106 1808.06 377.553 1821.63C376.51 1822.15 377.553 1823.2 378.595 1822.15Z" fill="#E0BBA9"/>
<path d="M383.287 1911.44C367.648 1913.53 351.488 1914.05 336.892 1919.27C335.849 1919.79 336.371 1920.84 337.413 1920.84C353.052 1918.23 368.17 1915.62 383.808 1913.53C384.851 1913.53 384.33 1911.44 383.287 1911.44Z" fill="#E0BBA9"/>
<path d="M272.251 2038.32C286.326 2035.19 300.922 2025.79 309.784 2014.82C310.306 2014.3 309.263 2013.26 308.742 2013.78C303.008 2018.48 297.273 2023.18 290.497 2027.35C284.241 2031.01 277.985 2033.62 271.73 2036.75C270.687 2037.27 271.209 2038.84 272.251 2038.32Z" fill="#E0BBA9"/>
<path d="M83.5426 1705.72C83.0214 1705.2 81.9788 1705.2 81.9788 1706.24C89.2769 1727.13 89.7982 1751.67 101.267 1770.46C101.788 1771.51 103.873 1770.98 103.352 1769.94C96.575 1749.06 93.4472 1725.56 83.5426 1705.72Z" fill="#E0BBA9"/>
<path d="M39.2328 1846.17C50.7013 1863.4 69.4679 1873.32 83.0215 1888.47C83.5428 1888.99 84.5854 1888.47 84.0641 1887.42C72.5956 1870.19 52.2651 1861.84 40.7967 1845.13C40.2754 1844.08 38.7115 1845.13 39.2328 1846.17Z" fill="#E0BBA9"/>
<path d="M194.057 1717.2C189.365 1738.09 184.152 1759.5 182.589 1780.9C182.589 1781.95 184.152 1782.47 184.674 1781.43C189.365 1760.54 191.972 1739.13 196.142 1717.73C196.142 1716.68 194.578 1716.16 194.057 1717.2Z" fill="#E0BBA9"/>
<path d="M659.672 3449.38C629.958 3443.11 595.553 3428.49 564.796 3432.15C532.476 3435.8 507.454 3458.78 475.655 3464.52C474.612 3464.52 474.612 3466.09 475.655 3466.61C475.134 3466.61 474.612 3467.13 473.57 3467.13C472.006 3467.13 470.442 3467.65 468.357 3467.65C467.314 3467.65 467.314 3468.7 467.314 3469.22C465.75 3469.74 464.708 3470.26 463.144 3471.31C477.219 3451.47 488.687 3430.06 506.933 3413.35C527.263 3395.08 551.243 3381.5 573.658 3366.36C590.34 3354.87 598.68 3336.6 619.532 3329.81C620.054 3329.81 620.054 3328.76 619.532 3328.76C605.979 3328.24 597.117 3339.21 587.733 3348.08C571.052 3364.27 551.243 3376.28 531.955 3389.33C537.689 3383.59 542.381 3376.8 548.115 3371.06C554.892 3363.75 562.19 3356.44 567.924 3348.08C568.445 3347.56 567.403 3346.52 566.882 3347.04C558.541 3352.78 552.285 3361.14 545.508 3367.92C537.689 3376.8 528.827 3385.68 522.05 3395.6C507.454 3406.04 496.507 3417.01 486.602 3429.54C500.677 3386.72 540.817 3349.13 579.393 3326.68C591.904 3319.37 605.979 3315.19 619.532 3308.92C624.745 3306.31 670.098 3286.47 668.013 3294.83C658.629 3334.51 616.405 3373.15 583.563 3394.55C557.498 3411.26 524.657 3400.3 501.72 3420.14C500.156 3421.7 502.241 3424.31 503.805 3423.27C523.093 3411.78 546.03 3415.44 566.36 3409.17C583.042 3403.95 598.159 3391.94 611.713 3380.46C638.82 3357.48 666.97 3324.07 674.789 3288.56C675.311 3286.99 674.268 3285.43 672.183 3285.43C657.587 3285.43 644.033 3292.21 631.001 3297.96C610.149 3307.88 588.255 3316.23 568.445 3327.72C531.955 3349.13 489.73 3390.9 482.432 3433.71C482.432 3434.24 482.432 3434.24 482.432 3434.76C477.74 3441.02 472.527 3447.81 467.836 3455.64C457.931 3471.31 441.25 3480.71 429.26 3493.76C437.601 3470.78 445.42 3447.29 451.154 3423.27C451.154 3422.75 451.154 3422.75 451.154 3422.23C452.197 3422.75 453.761 3422.23 454.282 3420.66C464.187 3394.55 483.474 3371.06 496.507 3345.99C510.582 3319.89 525.699 3295.35 546.03 3273.42C560.105 3258.28 576.265 3244.7 591.382 3230.6C608.064 3221.2 621.096 3206.58 635.171 3193.53C636.214 3193.01 634.65 3191.44 634.128 3192.49C623.703 3201.36 613.798 3210.24 603.372 3218.59C622.66 3198.23 639.863 3175.78 657.587 3154.37C658.629 3152.81 656.544 3150.72 654.98 3152.28C633.086 3177.35 612.234 3203.45 589.297 3227.47C569.488 3247.83 547.594 3265.06 528.827 3286.47C526.221 3289.6 523.093 3293.26 520.486 3296.91C534.561 3261.93 552.807 3231.13 578.871 3202.93C601.808 3177.35 637.778 3145.5 670.619 3134.01C692.513 3126.18 664.885 3167.42 661.757 3171.6C652.374 3185.18 641.427 3197.19 631.001 3209.72C608.064 3240 573.137 3253.58 545.508 3278.64C543.945 3280.21 546.03 3283.34 548.115 3282.29C603.372 3245.74 671.14 3202.41 688.864 3133.49C689.386 3131.92 688.343 3130.35 686.779 3130.35C653.416 3126.7 617.447 3163.77 595.031 3184.13C557.498 3217.03 529.348 3261.41 515.273 3308.92V3309.45C505.369 3324.07 497.028 3340.25 488.687 3355.39C478.783 3373.67 465.75 3390.38 455.846 3409.17C464.187 3374.71 471.485 3339.73 478.261 3304.75C478.783 3304.75 479.304 3304.22 479.304 3303.7C479.304 3302.14 479.304 3301.09 479.304 3300.05C481.911 3288.04 484.517 3275.51 487.123 3263.5C490.251 3248.88 492.336 3234.26 493.9 3219.64C502.241 3198.75 509.018 3177.35 515.273 3155.94C515.795 3154.89 513.71 3154.37 513.71 3155.42C507.975 3171.6 501.198 3187.79 495.985 3203.97C499.113 3169.51 501.198 3135.57 509.018 3102.16C509.018 3101.11 507.454 3100.59 507.454 3101.64C497.028 3138.71 496.507 3177.87 492.336 3215.98C491.294 3219.64 490.251 3223.29 489.73 3226.95C489.73 3227.99 490.251 3228.51 490.773 3227.99C489.73 3235.3 488.166 3243.13 486.602 3250.44C483.996 3261.93 481.389 3272.9 479.304 3284.38C478.261 3272.9 475.655 3262.45 472.527 3250.44C467.314 3226.43 468.357 3201.36 470.963 3176.82C475.134 3143.41 478.261 3096.94 501.72 3070.31C512.667 3057.78 527.784 3126.18 528.306 3130.88C529.348 3152.28 524.135 3174.21 518.401 3195.1C507.975 3232.17 488.166 3266.63 479.825 3303.7C479.304 3306.31 482.432 3306.83 483.474 3304.75C514.231 3231.13 561.147 3132.44 509.018 3059.87C508.497 3058.82 506.933 3058.82 505.89 3059.34C479.304 3072.92 474.612 3117.3 470.442 3143.41C467.314 3164.29 464.187 3184.66 463.665 3205.54C462.623 3236.35 474.612 3264.54 476.176 3294.83C466.793 3337.64 457.41 3380.46 446.984 3422.75C432.388 3481.23 408.408 3536.57 387.035 3592.44C388.078 3572.08 384.429 3550.67 382.343 3530.83C380.258 3510.99 378.694 3491.15 378.173 3471.83C383.907 3406.04 423.526 3344.43 416.749 3277.07C416.749 3275.51 414.142 3276.03 414.142 3277.6C413.1 3321.98 396.418 3365.31 385.471 3409.17C381.301 3345.99 388.078 3281.77 416.749 3224.86C421.962 3214.42 428.739 3271.33 428.739 3267.15C430.302 3288.56 428.217 3309.97 424.568 3331.38C418.834 3364.27 403.716 3392.46 391.727 3423.27C391.205 3424.84 393.291 3425.36 393.812 3424.31C418.834 3388.81 430.302 3342.86 433.951 3300.05C434.994 3287.52 437.079 3215.46 421.44 3211.28C420.398 3211.28 419.355 3211.28 418.834 3212.33C401.11 3244.7 389.12 3278.12 383.907 3314.67C380.779 3335.03 380.779 3356.44 382.343 3376.8C383.386 3390.9 380.258 3403.95 383.907 3417.53C381.822 3425.88 380.258 3434.24 378.694 3442.07C378.694 3438.41 378.694 3435.28 378.694 3431.62C379.737 3412.31 377.13 3393.51 371.396 3375.23C371.917 3337.12 368.79 3299.52 347.938 3266.63C332.299 3241.57 306.756 3213.37 275.478 3210.24C274.957 3210.24 273.914 3210.76 273.393 3211.81C268.18 3243.66 283.819 3272.37 298.936 3299.52C308.32 3316.23 317.182 3332.94 327.607 3349.13C339.597 3366.88 357.842 3377.85 369.832 3395.08C371.917 3403.43 372.96 3412.31 373.481 3422.23C375.045 3451.47 372.439 3480.18 375.567 3509.42C376.088 3516.21 377.13 3523 377.652 3529.79C367.226 3503.68 348.98 3485.4 327.607 3466.61C309.883 3450.94 291.638 3436.85 275.478 3419.62C262.967 3406.04 255.148 3391.42 239.509 3381.5C237.423 3380.46 235.86 3383.07 237.423 3384.63C265.052 3402.39 281.734 3434.76 307.798 3455.12C307.798 3455.12 307.798 3455.12 308.32 3455.64C296.851 3449.9 285.383 3445.2 275.999 3435.8C275.478 3435.28 274.435 3436.32 274.957 3436.85C285.383 3447.81 299.979 3457.21 315.096 3460.86C329.693 3472.87 342.725 3484.88 354.193 3498.46C328.129 3483.32 304.149 3472.87 280.691 3451.99C255.669 3430.06 238.987 3400.82 225.955 3370.54C218.657 3353.83 274.435 3379.93 274.957 3379.93C289.032 3387.77 301.021 3399.77 311.447 3411.78C334.384 3436.85 344.81 3467.13 358.885 3496.89C359.406 3497.94 361.492 3497.41 360.97 3495.85C346.895 3430.06 290.074 3362.18 220.221 3359.57C218.657 3359.57 217.614 3361.14 218.136 3362.7C230.647 3394.55 246.807 3422.23 270.265 3447.29C295.808 3474.44 324.48 3488.02 357.842 3503.16C357.842 3503.16 357.842 3503.16 358.364 3503.16C366.705 3514.12 373.481 3525.61 379.216 3539.71C381.822 3562.68 383.907 3586.18 381.301 3609.15C364.619 3653.53 350.544 3698.44 344.81 3745.43C344.289 3749.08 350.023 3749.08 350.544 3745.43C355.236 3713.58 363.055 3682.25 372.96 3651.97C381.301 3636.3 400.067 3624.29 415.706 3614.89C416.227 3614.89 416.749 3614.89 416.749 3614.89C428.739 3606.54 449.59 3613.33 462.101 3616.46C473.57 3619.59 483.474 3625.34 494.422 3628.99C495.464 3629.51 495.985 3627.95 495.464 3627.43C487.645 3616.46 464.708 3612.81 452.718 3610.19C445.42 3608.63 435.515 3606.54 427.175 3608.11C427.696 3607.58 428.217 3607.58 428.739 3607.06C429.781 3606.54 430.824 3606.02 431.866 3605.5C457.931 3595.58 499.635 3600.8 507.454 3628.99C510.06 3637.35 512.667 3646.22 499.113 3643.61C489.209 3641.52 479.825 3636.82 471.485 3632.12C457.931 3624.81 445.42 3616.98 430.302 3612.81C428.217 3612.28 427.696 3614.89 429.26 3615.94C456.367 3626.9 480.868 3646.74 510.582 3649.88C511.624 3649.88 512.667 3648.83 512.667 3647.79C513.188 3629.51 509.539 3612.28 490.773 3604.97C476.176 3599.23 458.974 3596.62 443.335 3599.75C466.272 3586.7 489.209 3573.65 512.667 3561.11C513.188 3560.59 513.188 3559.55 512.146 3559.55C488.687 3566.86 466.793 3579.39 445.42 3592.44C461.059 3562.16 503.284 3546.49 535.083 3543.88C543.945 3543.36 553.328 3541.8 547.072 3552.76C541.859 3562.16 532.997 3569.47 524.135 3575.73C507.454 3587.22 486.602 3577.3 469.921 3586.7C468.357 3587.22 469.399 3589.31 470.963 3589.31C490.251 3585.65 509.018 3590.35 526.742 3580.43C539.774 3572.6 552.285 3559.03 555.934 3543.88C556.456 3542.84 555.934 3541.27 554.37 3541.27C517.359 3533.96 454.803 3555.89 442.292 3595.05C431.866 3601.84 421.44 3608.11 411.536 3614.89C400.589 3621.68 386.514 3630.56 376.609 3641.52C391.205 3597.66 409.451 3554.33 425.611 3510.47C434.994 3498.46 448.026 3492.71 457.931 3481.23C462.623 3477.57 467.836 3474.96 473.049 3472.87C491.815 3475.48 510.582 3488.54 529.87 3491.15C549.158 3493.76 570.009 3494.8 589.297 3494.28C620.054 3493.76 647.682 3482.27 662.278 3454.6C661.757 3451.47 661.236 3449.9 659.672 3449.38ZM321.873 3332.42C304.67 3304.22 286.425 3274.46 277.042 3242.61C268.701 3213.37 285.383 3212.85 305.713 3226.95C322.394 3238.44 335.948 3257.23 346.895 3273.94C363.577 3300.57 364.619 3331.38 365.141 3361.66C365.141 3361.66 365.141 3361.14 364.619 3361.14C359.928 3350.17 354.193 3340.77 348.459 3331.38C347.417 3326.15 345.853 3320.41 344.81 3315.19C342.204 3304.75 340.118 3294.3 338.555 3283.86C338.555 3282.82 336.991 3283.34 336.991 3283.86C336.991 3295.35 338.555 3307.88 341.161 3319.89C331.778 3304.22 322.916 3288.56 320.831 3268.2C320.831 3266.63 317.703 3266.63 317.703 3268.72C318.224 3289.08 326.044 3305.27 335.948 3322.5C348.459 3343.91 358.885 3362.18 365.141 3383.07C353.151 3365.31 333.342 3351.22 321.873 3332.42ZM644.033 3469.22C621.617 3492.71 579.393 3489.58 549.679 3485.93C526.221 3483.32 506.411 3481.23 485.038 3469.74C483.996 3469.22 482.953 3468.7 482.432 3468.17C498.592 3465.56 515.795 3466.61 531.434 3466.09C561.147 3465.04 591.904 3466.09 620.054 3456.17C621.096 3455.64 620.575 3454.08 619.532 3454.6C587.733 3460.86 555.413 3463.48 523.093 3464C532.997 3460.86 541.859 3454.6 550.2 3449.9C550.721 3449.38 550.2 3448.33 549.679 3448.86C543.945 3451.47 538.21 3454.08 532.997 3456.17C526.742 3458.78 519.965 3460.86 513.71 3464C513.71 3464 513.188 3464 513.188 3464.52C509.539 3464.52 506.411 3464.52 502.762 3464.52C498.071 3464.52 492.858 3464.52 488.166 3465.04C503.805 3461.39 517.359 3453.03 531.955 3445.72C558.02 3432.67 584.084 3436.85 611.713 3443.11C628.916 3446.24 664.885 3446.77 644.033 3469.22Z" fill="#E0BBA9"/>
<path d="M493.379 3112.08C484.517 3141.84 483.996 3173.69 485.56 3204.5C485.56 3205.54 487.124 3205.54 487.124 3204.5C488.688 3173.17 488.688 3142.89 494.422 3112.08C494.422 3111.56 493.379 3111.56 493.379 3112.08Z" fill="#E0BBA9"/>
<path d="M624.224 3173.17C605.978 3192.49 589.297 3213.37 573.137 3233.74C572.616 3234.26 573.658 3235.3 574.18 3234.78C592.425 3215.98 610.149 3195.1 625.266 3174.21C625.788 3173.17 624.745 3172.65 624.224 3173.17Z" fill="#E0BBA9"/>
<path d="M596.595 3361.66C611.713 3349.65 626.309 3337.12 640.384 3324.59C641.427 3324.06 639.863 3322.5 639.341 3323.54C624.745 3336.07 609.106 3347.56 595.553 3361.14C594.51 3361.66 595.553 3362.7 596.595 3361.66Z" fill="#E0BBA9"/>
<path d="M601.287 3450.94C585.648 3453.03 569.488 3453.55 554.892 3458.78C553.849 3459.3 554.371 3460.34 555.413 3460.34C571.052 3457.73 586.17 3455.12 601.808 3453.03C602.851 3453.03 602.33 3450.94 601.287 3450.94Z" fill="#E0BBA9"/>
<path d="M490.251 3577.82C504.326 3574.69 518.922 3565.29 527.784 3554.33C528.306 3553.81 527.263 3552.76 526.742 3553.28C521.008 3557.98 515.273 3562.68 508.497 3566.86C502.241 3570.51 495.985 3573.12 489.73 3576.26C488.687 3576.78 489.209 3578.35 490.251 3577.82Z" fill="#E0BBA9"/>
<path d="M301.543 3245.22C301.021 3244.7 299.979 3244.7 299.979 3245.74C307.277 3266.63 307.798 3291.17 319.267 3309.97C319.788 3311.01 321.873 3310.49 321.352 3309.45C314.575 3288.56 311.447 3265.06 301.543 3245.22Z" fill="#E0BBA9"/>
<path d="M257.233 3385.68C268.701 3402.91 287.468 3412.83 301.022 3427.97C301.543 3428.49 302.585 3427.97 302.064 3426.93C290.596 3409.7 270.265 3401.34 258.797 3384.63C258.275 3383.59 256.711 3384.63 257.233 3385.68Z" fill="#E0BBA9"/>
<path d="M412.057 3256.71C407.365 3277.59 402.152 3299 400.589 3320.41C400.589 3321.45 402.152 3321.98 402.674 3320.93C407.365 3300.05 409.972 3278.64 414.142 3257.23C414.142 3256.19 412.578 3255.67 412.057 3256.71Z" fill="#E0BBA9"/>
<path d="M735.328 1078.38C765.042 1072.11 799.447 1057.49 830.204 1061.15C862.524 1064.8 887.546 1087.78 919.345 1093.52C920.388 1093.52 920.388 1095.09 919.345 1095.61C919.866 1095.61 920.388 1096.13 921.43 1096.13C922.994 1096.13 924.558 1096.65 926.643 1096.65C927.686 1096.65 927.686 1097.7 927.686 1098.22C929.25 1098.74 930.292 1099.26 931.856 1100.31C917.781 1080.47 906.313 1059.06 888.067 1042.35C867.737 1024.08 843.757 1010.5 821.342 995.358C804.66 983.871 796.32 965.596 775.468 958.809C774.946 958.809 774.946 957.764 775.468 957.764C789.021 957.242 797.883 968.207 807.267 977.083C823.948 993.269 843.757 1005.28 863.045 1018.33C857.311 1012.59 852.619 1005.8 846.885 1000.06C840.108 992.747 832.81 985.437 827.076 977.083C826.555 976.561 827.597 975.517 828.118 976.039C836.459 981.783 842.715 990.137 849.492 996.924C857.311 1005.8 866.173 1014.68 872.95 1024.6C887.546 1035.04 898.493 1046.01 908.398 1058.54C894.323 1015.72 854.183 978.128 815.607 955.676C803.096 948.366 789.021 944.189 775.468 937.923C770.255 935.313 724.902 915.471 726.987 923.826C736.371 963.508 778.595 1002.15 811.437 1023.55C837.502 1040.26 870.343 1029.3 893.28 1049.14C894.844 1050.7 892.759 1053.31 891.195 1052.27C871.907 1040.78 848.97 1044.44 828.64 1038.17C811.958 1032.95 796.841 1020.94 783.287 1009.46C756.18 986.482 728.03 953.065 720.211 917.56C719.689 915.994 720.732 914.427 722.817 914.427C737.413 914.427 750.967 921.215 763.999 926.958C784.851 936.879 806.745 945.233 826.555 956.72C863.045 978.128 905.27 1019.9 912.568 1062.71C912.568 1063.24 912.568 1063.24 912.568 1063.76C917.26 1070.02 922.473 1076.81 927.164 1084.64C937.069 1100.31 953.75 1109.71 965.74 1122.76C957.399 1099.78 949.58 1076.29 943.846 1052.27C943.846 1051.75 943.846 1051.75 943.846 1051.23C942.803 1051.75 941.239 1051.23 940.718 1049.66C930.813 1023.55 911.526 1000.06 898.493 974.995C884.418 948.888 869.301 924.348 848.97 902.418C834.895 887.276 818.735 873.701 803.618 859.603C786.936 850.205 773.904 835.585 759.829 822.532C758.786 822.009 760.35 820.443 760.872 821.487C771.297 830.364 781.202 839.24 791.628 847.594C772.34 827.231 755.137 804.779 737.413 783.371C736.371 781.805 738.456 779.717 740.02 781.283C761.914 806.345 782.766 832.452 805.703 856.47C825.512 876.833 847.406 894.064 866.173 915.471C868.779 918.604 871.907 922.259 874.514 925.914C860.439 890.931 842.193 860.125 816.129 831.93C793.192 806.345 757.222 774.495 724.381 763.008C702.487 755.176 730.115 796.425 733.243 800.602C742.626 814.177 753.573 826.186 763.999 838.718C786.936 869.002 821.863 882.577 849.492 907.639C851.055 909.206 848.97 912.339 846.885 911.294C791.628 874.745 723.86 831.408 706.136 762.486C705.614 760.92 706.657 759.353 708.221 759.353C741.584 755.698 777.553 792.77 799.969 813.133C837.502 846.028 865.652 890.409 879.727 937.923V938.445C889.631 953.065 897.972 969.251 906.313 984.393C916.217 1002.67 929.25 1019.38 939.154 1038.17C930.813 1003.71 923.515 968.729 916.739 933.746C916.217 933.746 915.696 933.224 915.696 932.702C915.696 931.135 915.696 930.091 915.696 929.047C913.089 917.038 910.483 904.507 907.877 892.498C904.749 877.878 902.664 863.258 901.1 848.638C892.759 827.753 885.982 806.345 879.727 784.938C879.205 783.894 881.29 783.371 881.29 784.416C887.025 800.602 893.802 816.788 899.015 832.974C895.887 798.513 893.802 764.575 885.982 731.158C885.982 730.114 887.546 729.592 887.546 730.636C897.972 767.707 898.493 806.867 902.664 844.983C903.706 848.638 904.749 852.293 905.27 855.948C905.27 856.992 904.749 857.515 904.227 856.992C905.27 864.302 906.834 872.134 908.398 879.444C911.004 890.931 913.611 901.896 915.696 913.383C916.739 901.896 919.345 891.453 922.473 879.444C927.686 855.426 926.643 830.364 924.037 805.823C919.866 772.407 916.739 725.937 893.28 699.308C882.333 686.777 867.216 755.176 866.694 759.875C865.652 781.283 870.865 803.213 876.599 824.098C887.025 861.169 906.834 895.63 915.175 932.702C915.696 935.313 912.568 935.835 911.526 933.746C880.769 860.125 833.853 761.442 885.982 688.865C886.503 687.821 888.067 687.821 889.11 688.343C915.696 701.918 920.388 746.3 924.558 772.407C927.686 793.292 930.813 813.655 931.335 834.541C932.377 865.347 920.388 893.542 918.824 923.826C928.207 966.641 937.59 1009.46 948.016 1051.75C962.612 1110.23 986.592 1165.57 1007.97 1221.44C1006.92 1201.08 1010.57 1179.67 1012.66 1159.83C1014.74 1139.99 1016.31 1120.15 1016.83 1100.83C1011.09 1035.04 971.474 973.428 978.251 906.073C978.251 904.507 980.858 905.029 980.858 906.595C981.9 950.977 998.582 994.314 1009.53 1038.17C1013.7 974.995 1006.92 910.772 978.251 853.86C973.038 843.417 966.261 900.33 966.261 896.152C964.698 917.56 966.783 938.967 970.432 960.375C976.166 993.269 991.284 1021.46 1003.27 1052.27C1003.79 1053.84 1001.71 1054.36 1001.19 1053.31C976.166 1017.81 964.698 971.862 961.049 929.047C960.006 916.516 957.921 844.461 973.56 840.284C974.602 840.284 975.645 840.284 976.166 841.328C993.89 873.701 1005.88 907.117 1011.09 943.667C1014.22 964.03 1014.22 985.437 1012.66 1005.8C1011.61 1019.9 1014.74 1032.95 1011.09 1046.53C1013.18 1054.88 1014.74 1063.24 1016.31 1071.07C1016.31 1067.41 1016.31 1064.28 1016.31 1060.62C1015.26 1041.31 1017.87 1022.51 1023.6 1004.23C1023.08 966.118 1026.21 928.525 1047.06 895.63C1062.7 870.568 1088.24 842.373 1119.52 839.24C1120.04 839.24 1121.09 839.762 1121.61 840.806C1126.82 872.656 1111.18 901.374 1096.06 928.525C1086.68 945.233 1077.82 961.941 1067.39 978.128C1055.4 995.88 1037.16 1006.85 1025.17 1024.08C1023.08 1032.43 1022.04 1041.31 1021.52 1051.23C1019.95 1080.47 1022.56 1109.18 1019.43 1138.42C1018.91 1145.21 1017.87 1152 1017.35 1158.79C1027.77 1132.68 1046.02 1114.4 1067.39 1095.61C1085.12 1079.94 1103.36 1065.85 1119.52 1048.62C1132.03 1035.04 1139.85 1020.42 1155.49 1010.5C1157.58 1009.46 1159.14 1012.07 1157.58 1013.63C1129.95 1031.39 1113.27 1063.76 1087.2 1084.12C1087.2 1084.12 1087.2 1084.12 1086.68 1084.64C1098.15 1078.9 1109.62 1074.2 1119 1064.8C1119.52 1064.28 1120.56 1065.32 1120.04 1065.85C1109.62 1076.81 1095.02 1086.21 1079.9 1089.86C1065.31 1101.87 1052.28 1113.88 1040.81 1127.46C1066.87 1112.32 1090.85 1101.87 1114.31 1080.99C1139.33 1059.06 1156.01 1029.82 1169.04 999.535C1176.34 982.827 1120.56 1008.93 1120.04 1008.93C1105.97 1016.77 1093.98 1028.77 1083.55 1040.78C1060.62 1065.85 1050.19 1096.13 1036.11 1125.89C1035.59 1126.94 1033.51 1126.41 1034.03 1124.85C1048.1 1059.06 1104.93 991.181 1174.78 988.57C1176.34 988.57 1177.39 990.137 1176.86 991.703C1164.35 1023.55 1148.19 1051.23 1124.73 1076.29C1099.19 1103.44 1070.52 1117.02 1037.16 1132.16C1037.16 1132.16 1037.16 1132.16 1036.64 1132.16C1028.3 1143.12 1021.52 1154.61 1015.78 1168.71C1013.18 1191.68 1011.09 1215.18 1013.7 1238.15C1030.38 1282.53 1044.46 1327.44 1050.19 1374.43C1050.71 1378.08 1044.98 1378.08 1044.46 1374.43C1039.76 1342.58 1031.94 1311.25 1022.04 1280.97C1013.7 1265.3 994.933 1253.29 979.294 1243.89C978.773 1243.89 978.251 1243.89 978.251 1243.89C966.261 1235.54 945.41 1242.33 932.899 1245.46C921.43 1248.59 911.526 1254.34 900.578 1257.99C899.536 1258.51 899.015 1256.95 899.536 1256.43C907.355 1245.46 930.292 1241.81 942.282 1239.19C949.58 1237.63 959.485 1235.54 967.825 1237.11C967.304 1236.58 966.783 1236.58 966.261 1236.06C965.219 1235.54 964.176 1235.02 963.134 1234.5C937.069 1224.58 895.365 1229.8 887.546 1257.99C884.94 1266.35 882.333 1275.22 895.887 1272.61C905.791 1270.52 915.175 1265.82 923.515 1261.12C937.069 1253.81 949.58 1245.98 964.698 1241.81C966.783 1241.28 967.304 1243.89 965.74 1244.94C938.633 1255.9 914.132 1275.74 884.418 1278.88C883.376 1278.88 882.333 1277.83 882.333 1276.79C881.812 1258.51 885.461 1241.28 904.227 1233.97C918.824 1228.23 936.026 1225.62 951.665 1228.75C928.728 1215.7 905.791 1202.65 882.333 1190.11C881.812 1189.59 881.812 1188.55 882.854 1188.55C906.313 1195.86 928.207 1208.39 949.58 1221.44C933.941 1191.16 891.716 1175.49 859.917 1172.88C851.055 1172.36 841.672 1170.8 847.928 1181.76C853.141 1191.16 862.003 1198.47 870.865 1204.73C887.546 1216.22 908.398 1206.3 925.079 1215.7C926.643 1216.22 925.601 1218.31 924.037 1218.31C904.749 1214.65 885.982 1219.35 868.258 1209.43C855.226 1201.6 842.715 1188.03 839.066 1172.88C838.544 1171.84 839.066 1170.27 840.63 1170.27C877.641 1162.96 940.197 1184.89 952.708 1224.05C963.134 1230.84 973.56 1237.11 983.464 1243.89C994.411 1250.68 1008.49 1259.56 1018.39 1270.52C1003.79 1226.66 985.549 1183.33 969.389 1139.47C960.006 1127.46 946.974 1121.71 937.069 1110.23C932.377 1106.57 927.164 1103.96 921.951 1101.87C903.185 1104.48 884.418 1117.54 865.13 1120.15C845.842 1122.76 824.991 1123.8 805.703 1123.28C774.946 1122.76 747.318 1111.27 732.722 1083.6C733.243 1080.47 733.764 1078.9 735.328 1078.38ZM1073.13 961.419C1090.33 933.224 1108.57 903.462 1117.96 871.612C1126.3 842.373 1109.62 841.85 1089.29 855.948C1072.61 867.435 1059.05 886.232 1048.1 902.94C1031.42 929.569 1030.38 960.375 1029.86 990.659C1029.86 990.659 1029.86 990.137 1030.38 990.137C1035.07 979.172 1040.81 969.773 1046.54 960.375C1047.58 955.154 1049.15 949.41 1050.19 944.189C1052.8 933.746 1054.88 923.303 1056.45 912.861C1056.45 911.817 1058.01 912.339 1058.01 912.861C1058.01 924.348 1056.45 936.879 1053.84 948.888C1063.22 933.224 1072.08 917.56 1074.17 897.197C1074.17 895.63 1077.3 895.63 1077.3 897.719C1076.78 918.082 1068.96 934.268 1059.05 951.499C1046.54 972.906 1036.11 991.181 1029.86 1012.07C1041.85 994.314 1061.66 980.216 1073.13 961.419ZM750.967 1098.22C773.383 1121.71 815.607 1118.58 845.321 1114.93C868.779 1112.32 888.589 1110.23 909.962 1098.74C911.004 1098.22 912.047 1097.7 912.568 1097.17C896.408 1094.56 879.205 1095.61 863.566 1095.09C833.853 1094.04 803.096 1095.09 774.946 1085.17C773.904 1084.64 774.425 1083.08 775.468 1083.6C807.267 1089.86 839.587 1092.48 871.907 1093C862.003 1089.86 853.141 1083.6 844.8 1078.9C844.279 1078.38 844.8 1077.33 845.321 1077.86C851.055 1080.47 856.79 1083.08 862.003 1085.17C868.258 1087.78 875.035 1089.86 881.29 1093C881.29 1093 881.812 1093 881.812 1093.52C885.461 1093.52 888.589 1093.52 892.238 1093.52C896.929 1093.52 902.142 1093.52 906.834 1094.04C891.195 1090.39 877.641 1082.03 863.045 1074.72C836.98 1061.67 810.916 1065.85 783.287 1072.11C766.084 1075.24 730.115 1075.77 750.967 1098.22Z" fill="#E0BBA9"/>
<path d="M901.621 741.079C910.483 770.841 911.004 802.691 909.44 833.497C909.44 834.541 907.876 834.541 907.876 833.497C906.312 802.169 906.312 771.885 900.578 741.079C900.578 740.557 901.621 740.557 901.621 741.079Z" fill="#E0BBA9"/>
<path d="M770.776 802.168C789.022 821.487 805.703 842.372 821.863 862.735C822.384 863.257 821.342 864.302 820.82 863.78C802.575 844.983 784.851 824.097 769.734 803.212C769.212 802.168 770.255 801.646 770.776 802.168Z" fill="#E0BBA9"/>
<path d="M798.405 990.659C783.287 978.649 768.691 966.118 754.616 953.587C753.573 953.065 755.137 951.498 755.659 952.543C770.255 965.074 785.894 976.561 799.447 990.136C800.49 990.659 799.447 991.703 798.405 990.659Z" fill="#E0BBA9"/>
<path d="M793.713 1079.94C809.352 1082.03 825.512 1082.55 840.108 1087.78C841.151 1088.3 840.629 1089.34 839.587 1089.34C823.948 1086.73 808.83 1084.12 793.192 1082.03C792.149 1082.03 792.67 1079.94 793.713 1079.94Z" fill="#E0BBA9"/>
<path d="M904.749 1206.82C890.674 1203.69 876.078 1194.29 867.216 1183.33C866.694 1182.81 867.737 1181.76 868.258 1182.28C873.992 1186.98 879.727 1191.68 886.503 1195.86C892.759 1199.51 899.015 1202.12 905.27 1205.26C906.313 1205.78 905.791 1207.35 904.749 1206.82Z" fill="#E0BBA9"/>
<path d="M1093.46 874.223C1093.98 873.701 1095.02 873.701 1095.02 874.745C1087.72 895.63 1087.2 920.171 1075.73 938.968C1075.21 940.012 1073.13 939.49 1073.65 938.445C1080.42 917.56 1083.55 894.064 1093.46 874.223Z" fill="#E0BBA9"/>
<path d="M1137.77 1014.68C1126.3 1031.91 1107.53 1041.83 1093.98 1056.97C1093.46 1057.49 1092.41 1056.97 1092.94 1055.93C1104.4 1038.7 1124.73 1030.34 1136.2 1013.63C1136.72 1012.59 1138.29 1013.63 1137.77 1014.68Z" fill="#E0BBA9"/>
<path d="M982.943 885.709C987.635 906.595 992.848 928.002 994.411 949.41C994.411 950.454 992.848 950.976 992.326 949.932C987.635 929.046 985.028 907.639 980.858 886.231C980.858 885.187 982.422 884.665 982.943 885.709Z" fill="#E0BBA9"/>
<path d="M464.26 201.751C448.904 198.513 431.123 190.957 415.228 192.846C398.524 194.735 385.592 206.608 369.158 209.576C368.62 209.576 368.62 210.386 369.158 210.655C368.889 210.655 368.62 210.925 368.081 210.925C367.273 210.925 366.464 211.195 365.387 211.195C364.848 211.195 364.848 211.735 364.848 212.005C364.04 212.275 363.501 212.544 362.693 213.084C369.967 202.83 375.894 191.766 385.323 183.131C395.83 173.687 408.223 166.671 419.808 158.845C428.429 152.909 432.739 143.464 443.516 139.956C443.785 139.956 443.785 139.417 443.516 139.417C436.511 139.147 431.931 144.814 427.082 149.401C418.46 157.766 408.223 163.972 398.255 170.719C401.218 167.75 403.643 164.242 406.606 161.274C410.109 157.496 413.88 153.718 416.844 149.401C417.113 149.131 416.575 148.591 416.305 148.861C411.995 151.83 408.762 156.147 405.259 159.655C401.218 164.242 396.638 168.83 393.136 173.957C385.592 179.354 379.935 185.02 374.816 191.497C382.09 169.369 402.835 149.941 422.771 138.337C429.237 134.559 436.511 132.401 443.516 129.163C446.21 127.813 469.648 117.559 468.571 121.877C463.721 142.385 441.899 162.353 424.926 173.417C411.456 182.052 394.483 176.385 382.629 186.639C381.821 187.449 382.898 188.798 383.707 188.258C393.675 182.322 405.529 184.211 416.036 180.973C424.657 178.274 432.47 172.068 439.474 166.131C453.484 154.258 468.032 136.988 472.073 118.639C472.342 117.829 471.804 117.02 470.726 117.02C463.182 117.02 456.178 120.528 449.443 123.496C438.666 128.623 427.351 132.94 417.113 138.877C398.255 149.941 376.433 171.528 372.661 193.655C372.661 193.925 372.661 193.925 372.661 194.195C370.236 197.433 367.542 200.941 365.117 204.989C359.999 213.084 351.377 217.941 345.181 224.687C349.492 212.814 353.533 200.671 356.496 188.258C356.496 187.989 356.496 187.989 356.496 187.719C357.035 187.989 357.843 187.719 358.113 186.909C363.231 173.417 373.2 161.274 379.935 148.322C387.209 134.829 395.022 122.147 405.529 110.813C412.803 102.988 421.155 95.9718 428.967 88.6861C437.589 83.8289 444.324 76.2732 451.598 69.5271C452.137 69.2573 451.328 68.4478 451.059 68.9874C445.671 73.5748 440.552 78.1621 435.164 82.4796C445.132 71.9557 454.023 60.3524 463.182 49.2888C463.721 48.4793 462.644 47.3999 461.835 48.2095C450.52 61.162 439.744 74.6542 427.89 87.067C417.652 97.5909 406.337 106.496 396.638 117.559C395.291 119.178 393.675 121.067 392.328 122.956C399.602 104.877 409.031 88.9559 422.502 74.3843C434.356 61.162 452.945 44.7015 469.918 38.7649C481.233 34.7173 466.954 56.0349 465.338 58.1937C460.488 65.2096 454.831 71.416 449.443 77.8923C437.589 93.5432 419.538 100.559 405.259 113.512C404.451 114.321 405.529 115.94 406.606 115.401C435.164 96.5115 470.187 74.1145 479.347 38.4951C479.616 37.6855 479.078 36.876 478.269 36.876C461.027 34.9871 442.438 54.146 430.853 64.6699C411.456 81.6701 396.908 104.607 389.634 129.163V129.432C384.515 136.988 380.204 145.353 375.894 153.179C370.775 162.623 364.04 171.258 358.921 180.973C363.231 163.163 367.003 145.083 370.506 127.004C370.775 127.004 371.044 126.734 371.044 126.464C371.044 125.655 371.044 125.115 371.044 124.575C372.391 118.369 373.738 111.893 375.085 105.686C376.702 98.1306 377.78 90.5749 378.588 83.0193C382.898 72.2256 386.401 61.162 389.634 50.0984C389.903 49.5587 388.825 49.2888 388.825 49.8285C385.862 58.1937 382.36 66.5588 379.665 74.924C381.282 57.1143 382.36 39.5744 386.401 22.3044C386.401 21.7648 385.592 21.4949 385.592 22.0346C380.204 41.1935 379.935 61.4318 377.78 81.1304C377.241 83.0193 376.702 84.9082 376.433 86.7971C376.433 87.3368 376.702 87.6067 376.971 87.3368C376.433 91.1146 375.624 95.1623 374.816 98.9401C373.469 104.877 372.122 110.543 371.044 116.48C370.506 110.543 369.158 105.147 367.542 98.9401C364.848 86.5273 365.387 73.5748 366.734 60.8921C368.889 43.6221 370.506 19.606 382.629 5.84397C388.287 -0.632286 396.099 34.7173 396.369 37.1459C396.908 48.2095 394.214 59.5429 391.25 70.3367C385.862 89.4956 375.624 107.305 371.314 126.464C371.044 127.813 372.661 128.083 373.2 127.004C389.095 88.9559 413.342 37.9554 386.401 0.447089C386.131 -0.0925984 385.323 -0.0925942 384.784 0.17725C371.044 7.19319 368.62 30.1299 366.464 43.6221C364.848 54.4159 363.231 64.9398 362.962 75.7335C362.423 91.6543 368.62 106.226 369.428 121.877C364.579 144.004 359.729 166.131 354.341 187.989C346.797 218.211 334.405 246.815 323.359 275.688C323.898 265.164 322.012 254.1 320.934 243.846C319.857 233.592 319.048 223.338 318.779 213.354C321.742 179.354 342.217 147.512 338.715 112.702C338.715 111.893 337.368 112.162 337.368 112.972C336.829 135.909 328.208 158.306 322.551 180.973C320.395 148.322 323.898 115.131 338.715 85.7178C341.409 80.3209 344.912 109.734 344.912 107.575C345.72 118.639 344.642 129.702 342.756 140.766C339.793 157.766 331.98 172.338 325.784 188.258C325.514 189.068 326.592 189.338 326.861 188.798C339.793 170.449 345.72 146.702 347.606 124.575C348.145 118.099 349.222 80.8606 341.14 78.7018C340.601 78.7018 340.062 78.7018 339.793 79.2415C330.633 95.9718 324.436 113.242 321.742 132.131C320.126 142.655 320.126 153.718 320.934 164.242C321.473 171.528 319.857 178.274 321.742 185.29C320.665 189.608 319.857 193.925 319.048 197.973C319.048 196.084 319.048 194.465 319.048 192.576C319.587 182.592 318.24 172.877 315.277 163.433C315.546 143.734 313.929 124.305 303.153 107.305C295.071 94.3528 281.87 79.7812 265.705 78.1621C265.436 78.1621 264.897 78.432 264.628 78.9717C261.933 95.4321 270.016 110.274 277.829 124.305C282.678 132.94 287.258 141.575 292.646 149.941C298.843 159.115 308.272 164.782 314.468 173.687C315.546 178.004 316.085 182.592 316.354 187.719C317.162 202.83 315.815 217.671 317.432 232.783C317.701 236.291 318.24 239.799 318.509 243.307C313.121 229.814 303.692 220.37 292.646 210.655C283.486 202.56 274.057 195.274 265.705 186.37C259.239 179.354 255.198 171.798 247.116 166.671C246.038 166.131 245.23 167.48 246.038 168.29C260.317 177.465 268.938 194.195 282.409 204.719C282.409 204.719 282.409 204.719 282.678 204.989C276.751 202.02 270.824 199.592 265.975 194.735C265.705 194.465 265.166 195.005 265.436 195.274C270.824 200.941 278.367 205.798 286.18 207.687C293.724 213.894 300.459 220.1 306.386 227.116C292.916 219.291 280.523 213.894 268.399 203.1C255.468 191.766 246.846 176.655 240.111 161.004C236.339 152.369 265.166 165.861 265.436 165.861C272.71 169.909 278.906 176.115 284.294 182.322C296.148 195.274 301.537 210.925 308.811 226.306C309.08 226.846 310.158 226.576 309.888 225.767C302.614 191.766 273.249 156.687 237.148 155.337C236.339 155.337 235.801 156.147 236.07 156.957C242.536 173.417 250.888 187.719 263.011 200.671C276.212 214.703 291.03 221.719 308.272 229.545C308.272 229.545 308.272 229.545 308.541 229.545C312.852 235.211 316.354 241.148 319.318 248.434C320.665 260.307 321.742 272.45 320.395 284.323C311.774 307.26 304.5 330.466 301.537 354.752C301.267 356.641 304.231 356.641 304.5 354.752C306.925 338.292 310.966 322.101 316.085 306.45C320.395 298.355 330.094 292.148 338.176 287.291C338.446 287.291 338.715 287.291 338.715 287.291C344.912 282.974 355.688 286.482 362.154 288.101C368.081 289.72 373.2 292.688 378.857 294.577C379.396 294.847 379.665 294.037 379.396 293.767C375.355 288.101 363.501 286.212 357.304 284.863C353.533 284.053 348.414 282.974 344.103 283.783C344.373 283.513 344.642 283.513 344.912 283.243C345.45 282.974 345.989 282.704 346.528 282.434C359.999 277.307 381.551 280.005 385.592 294.577C386.94 298.894 388.287 303.482 381.282 302.133C376.163 301.053 371.314 298.625 367.003 296.196C359.999 292.418 353.533 288.371 345.72 286.212C344.642 285.942 344.373 287.291 345.181 287.831C359.19 293.498 371.853 303.752 387.209 305.371C387.748 305.371 388.287 304.831 388.287 304.291C388.556 294.847 386.67 285.942 376.971 282.164C369.428 279.196 360.537 277.847 352.455 279.466C364.309 272.72 376.163 265.974 388.287 259.497C388.556 259.227 388.556 258.688 388.017 258.688C375.894 262.466 364.579 268.942 353.533 275.688C361.615 260.037 383.437 251.942 399.871 250.592C404.451 250.323 409.301 249.513 406.068 255.18C403.374 260.037 398.794 263.815 394.214 267.053C385.592 272.989 374.816 267.862 366.195 272.72C365.387 272.989 365.926 274.069 366.734 274.069C376.702 272.18 386.401 274.609 395.561 269.481C402.296 265.434 408.762 258.418 410.648 250.592C410.917 250.053 410.648 249.243 409.839 249.243C390.711 245.465 358.382 256.799 351.916 277.037C346.528 280.545 341.14 283.783 336.021 287.291C330.363 290.799 323.089 295.386 317.971 301.053C325.514 278.386 334.943 255.989 343.295 233.322C348.145 227.116 354.88 224.148 359.999 218.211C362.423 216.322 365.117 214.973 367.811 213.894C377.51 215.243 387.209 221.989 397.177 223.338C407.145 224.687 417.922 225.227 427.89 224.957C443.785 224.687 458.064 218.751 465.607 204.449C465.338 202.83 465.068 202.02 464.26 201.751ZM289.683 141.306C280.792 126.734 271.363 111.353 266.513 94.8924C262.203 79.7812 270.824 79.5113 281.331 86.7971C289.952 92.7337 296.957 102.448 302.614 111.083C311.235 124.845 311.774 140.766 312.044 156.417C312.044 156.417 312.044 156.147 311.774 156.147C309.35 150.48 306.386 145.623 303.423 140.766C302.884 138.067 302.075 135.099 301.537 132.401C300.19 127.004 299.112 121.607 298.304 116.21C298.304 115.67 297.495 115.94 297.495 116.21C297.495 122.147 298.304 128.623 299.651 134.829C294.801 126.734 290.221 118.639 289.144 108.115C289.144 107.305 287.527 107.305 287.527 108.385C287.797 118.909 291.838 127.274 296.957 136.179C303.423 147.242 308.811 156.687 312.044 167.48C305.847 158.306 295.61 151.02 289.683 141.306ZM456.178 212.005C444.593 224.148 422.771 222.529 407.415 220.64C395.291 219.29 385.054 218.211 374.008 212.275C373.469 212.005 372.93 211.735 372.661 211.465C381.013 210.116 389.903 210.655 397.985 210.386C413.342 209.846 429.237 210.386 443.785 205.259C444.324 204.989 444.054 204.179 443.516 204.449C427.082 207.687 410.378 209.036 393.675 209.306C398.794 207.687 403.374 204.449 407.684 202.02C407.953 201.751 407.684 201.211 407.415 201.481C404.451 202.83 401.488 204.179 398.794 205.259C395.561 206.608 392.058 207.687 388.825 209.306C388.825 209.306 388.556 209.306 388.556 209.576C386.67 209.576 385.054 209.576 383.168 209.576C380.743 209.576 378.049 209.576 375.624 209.846C383.707 207.957 390.711 203.64 398.255 199.862C411.725 193.116 425.196 195.274 439.474 198.513C448.365 200.132 466.954 200.401 456.178 212.005Z" fill="#E0BBA9"/>
<path d="M378.318 27.4319C373.739 42.813 373.469 59.2735 374.277 75.1943C374.277 75.7339 375.086 75.7339 375.086 75.1943C375.894 59.0036 375.894 43.3527 378.857 27.4319C378.857 27.162 378.318 27.162 378.318 27.4319Z" fill="#E0BBA9"/>
<path d="M445.94 59.0028C436.511 68.9871 427.89 79.7808 419.538 90.3047C419.269 90.5746 419.807 91.1143 420.077 90.8444C429.506 81.13 438.666 70.3363 446.479 59.5425C446.748 59.0028 446.21 58.733 445.94 59.0028Z" fill="#E0BBA9"/>
<path d="M431.662 156.417C439.474 150.21 447.018 143.734 454.292 137.258C454.831 136.988 454.023 136.178 453.753 136.718C446.21 143.194 438.127 149.131 431.123 156.147C430.584 156.417 431.123 156.956 431.662 156.417Z" fill="#E0BBA9"/>
<path d="M434.086 202.56C426.004 203.639 417.652 203.909 410.109 206.608C409.57 206.878 409.839 207.417 410.378 207.417C418.461 206.068 426.273 204.719 434.356 203.639C434.895 203.639 434.625 202.56 434.086 202.56Z" fill="#E0BBA9"/>
<path d="M376.702 268.133C383.976 266.514 391.519 261.656 396.099 255.99C396.369 255.72 395.83 255.18 395.561 255.45C392.597 257.879 389.634 260.307 386.131 262.466C382.898 264.355 379.665 265.704 376.432 267.323C375.894 267.593 376.163 268.402 376.702 268.133Z" fill="#E0BBA9"/>
<path d="M279.176 96.2417C278.906 95.9719 278.367 95.9719 278.367 96.5115C282.139 107.305 282.409 119.988 288.336 129.702C288.605 130.242 289.683 129.972 289.413 129.433C285.911 118.639 284.294 106.496 279.176 96.2417Z" fill="#E0BBA9"/>
<path d="M256.276 168.83C262.203 177.735 271.902 182.862 278.906 190.688C279.176 190.957 279.715 190.687 279.445 190.148C273.518 181.243 263.011 176.925 257.084 168.29C256.815 167.751 256.006 168.29 256.276 168.83Z" fill="#E0BBA9"/>
<path d="M336.29 102.178C333.866 112.972 331.172 124.035 330.363 135.099C330.363 135.639 331.172 135.908 331.441 135.369C333.866 124.575 335.213 113.511 337.368 102.448C337.368 101.908 336.56 101.638 336.29 102.178Z" fill="#E0BBA9"/>
<path d="M870.157 2410.75C885.513 2407.51 903.294 2399.96 919.19 2401.85C935.893 2403.73 948.825 2415.61 965.259 2418.58C965.797 2418.58 965.797 2419.39 965.259 2419.66C965.528 2419.66 965.797 2419.93 966.336 2419.93C967.145 2419.93 967.953 2420.2 969.03 2420.2C969.569 2420.2 969.569 2420.73 969.569 2421C970.377 2421.27 970.916 2421.54 971.724 2422.08C964.45 2411.83 958.523 2400.77 949.094 2392.13C938.587 2382.69 926.194 2375.67 914.61 2367.85C905.989 2361.91 901.678 2352.46 890.902 2348.96C890.632 2348.96 890.632 2348.42 890.902 2348.42C897.906 2348.15 902.486 2353.81 907.336 2358.4C915.957 2366.77 926.194 2372.97 936.162 2379.72C933.199 2376.75 930.774 2373.24 927.811 2370.27C924.308 2366.5 920.537 2362.72 917.573 2358.4C917.304 2358.13 917.843 2357.59 918.112 2357.86C922.423 2360.83 925.655 2365.15 929.158 2368.65C933.199 2373.24 937.779 2377.83 941.281 2382.96C948.825 2388.35 954.482 2394.02 959.601 2400.5C952.327 2378.37 931.582 2358.94 911.646 2347.34C905.18 2343.56 897.906 2341.4 890.902 2338.16C888.207 2336.81 864.769 2326.56 865.846 2330.88C870.696 2351.38 892.518 2371.35 909.491 2382.42C922.961 2391.05 939.934 2385.39 951.788 2395.64C952.596 2396.45 951.519 2397.8 950.711 2397.26C940.742 2391.32 928.888 2393.21 918.381 2389.97C909.76 2387.27 901.947 2381.07 894.943 2375.13C880.933 2363.26 866.385 2345.99 862.344 2327.64C862.075 2326.83 862.614 2326.02 863.691 2326.02C871.235 2326.02 878.239 2329.53 884.975 2332.5C895.751 2337.62 907.066 2341.94 917.304 2347.88C936.162 2358.94 957.985 2380.53 961.756 2402.66C961.756 2402.93 961.756 2402.93 961.756 2403.19C964.181 2406.43 966.875 2409.94 969.3 2413.99C974.419 2422.08 983.04 2426.94 989.236 2433.69C984.926 2421.81 980.884 2409.67 977.921 2397.26C977.921 2396.99 977.921 2396.99 977.921 2396.72C977.382 2396.99 976.574 2396.72 976.304 2395.91C971.186 2382.42 961.218 2370.27 954.482 2357.32C947.208 2343.83 939.395 2331.15 928.888 2319.81C921.614 2311.99 913.263 2304.97 905.45 2297.69C896.829 2292.83 890.093 2285.27 882.819 2278.53C882.28 2278.26 883.089 2277.45 883.358 2277.99C888.746 2282.57 893.865 2287.16 899.253 2291.48C889.285 2280.96 880.395 2269.35 871.235 2258.29C870.696 2257.48 871.773 2256.4 872.582 2257.21C883.897 2270.16 894.673 2283.65 906.527 2296.07C916.765 2306.59 928.08 2315.5 937.779 2326.56C939.126 2328.18 940.742 2330.07 942.089 2331.96C934.815 2313.88 925.386 2297.96 911.916 2283.38C900.061 2270.16 881.472 2253.7 864.499 2247.76C853.184 2243.72 867.463 2265.03 869.079 2267.19C873.929 2274.21 879.586 2280.42 884.975 2286.89C896.829 2302.54 914.879 2309.56 929.158 2322.51C929.966 2323.32 928.888 2324.94 927.811 2324.4C899.253 2305.51 864.23 2283.11 855.07 2247.5C854.801 2246.69 855.339 2245.88 856.148 2245.88C873.39 2243.99 891.979 2263.15 903.564 2273.67C922.961 2290.67 937.509 2313.61 944.784 2338.16V2338.43C949.902 2345.99 954.213 2354.35 958.523 2362.18C963.642 2371.62 970.377 2380.26 975.496 2389.97C971.186 2372.16 967.414 2354.08 963.912 2336C963.642 2336 963.373 2335.73 963.373 2335.46C963.373 2334.65 963.373 2334.11 963.373 2333.58C962.026 2327.37 960.679 2320.89 959.332 2314.69C957.715 2307.13 956.638 2299.57 955.829 2292.02C951.519 2281.23 948.016 2270.16 944.784 2259.1C944.514 2258.56 945.592 2258.29 945.592 2258.83C948.555 2267.19 952.058 2275.56 954.752 2283.92C953.135 2266.11 952.058 2248.57 948.016 2231.3C948.016 2230.76 948.825 2230.49 948.825 2231.03C954.213 2250.19 954.482 2270.43 956.638 2290.13C957.176 2292.02 957.715 2293.91 957.985 2295.8C957.985 2296.34 957.715 2296.61 957.446 2296.34C957.985 2300.11 958.793 2304.16 959.601 2307.94C960.948 2313.88 962.295 2319.54 963.373 2325.48C963.912 2319.54 965.259 2314.15 966.875 2307.94C969.569 2295.53 969.03 2282.57 967.683 2269.89C965.528 2252.62 963.912 2228.61 951.788 2214.84C946.131 2208.37 938.318 2243.72 938.048 2246.15C937.509 2257.21 940.204 2268.54 943.167 2279.34C948.555 2298.5 958.793 2316.31 963.103 2335.46C963.373 2336.81 961.756 2337.08 961.218 2336C945.322 2297.96 921.075 2246.96 948.016 2209.45C948.286 2208.91 949.094 2208.91 949.633 2209.18C963.373 2216.19 965.797 2239.13 967.953 2252.62C969.569 2263.42 971.186 2273.94 971.455 2284.73C971.994 2300.65 965.797 2315.23 964.989 2330.88C969.839 2353 974.688 2375.13 980.076 2396.99C987.62 2427.21 1000.01 2455.81 1011.06 2484.69C1010.52 2474.16 1012.41 2463.1 1013.48 2452.85C1014.56 2442.59 1015.37 2432.34 1015.64 2422.35C1012.67 2388.35 992.2 2356.51 995.702 2321.7C995.702 2320.89 997.049 2321.16 997.049 2321.97C997.588 2344.91 1006.21 2367.31 1011.87 2389.97C1014.02 2357.32 1010.52 2324.13 995.702 2294.72C993.008 2289.32 989.506 2318.73 989.506 2316.58C988.697 2327.64 989.775 2338.7 991.661 2349.77C994.624 2366.77 1002.44 2381.34 1008.63 2397.26C1008.9 2398.07 1007.83 2398.34 1007.56 2397.8C994.624 2379.45 988.697 2355.7 986.811 2333.58C986.273 2327.1 985.195 2289.86 993.277 2287.7C993.816 2287.7 994.355 2287.7 994.624 2288.24C1003.78 2304.97 1009.98 2322.24 1012.67 2341.13C1014.29 2351.65 1014.29 2362.72 1013.48 2373.24C1012.94 2380.53 1014.56 2387.27 1012.67 2394.29C1013.75 2398.61 1014.56 2402.93 1015.37 2406.97C1015.37 2405.08 1015.37 2403.46 1015.37 2401.58C1014.83 2391.59 1016.18 2381.88 1019.14 2372.43C1018.87 2352.73 1020.49 2333.31 1031.26 2316.31C1039.35 2303.35 1052.55 2288.78 1068.71 2287.16C1068.98 2287.16 1069.52 2287.43 1069.79 2287.97C1072.48 2304.43 1064.4 2319.27 1056.59 2333.31C1051.74 2341.94 1047.16 2350.58 1041.77 2358.94C1035.57 2368.12 1026.15 2373.78 1019.95 2382.69C1018.87 2387 1018.33 2391.59 1018.06 2396.72C1017.25 2411.83 1018.6 2426.67 1016.99 2441.78C1016.72 2445.29 1016.18 2448.8 1015.91 2452.31C1021.3 2438.81 1030.73 2429.37 1041.77 2419.66C1050.93 2411.56 1060.36 2404.27 1068.71 2395.37C1075.18 2388.35 1079.22 2380.8 1087.3 2375.67C1088.38 2375.13 1089.19 2376.48 1088.38 2377.29C1074.1 2386.46 1065.48 2403.2 1052.01 2413.72C1052.01 2413.72 1052.01 2413.72 1051.74 2413.99C1057.67 2411.02 1063.59 2408.59 1068.44 2403.73C1068.71 2403.46 1069.25 2404 1068.98 2404.27C1063.59 2409.94 1056.05 2414.8 1048.24 2416.69C1040.69 2422.89 1033.96 2429.1 1028.03 2436.12C1041.5 2428.29 1053.89 2422.89 1066.02 2412.1C1078.95 2400.77 1087.57 2385.66 1094.31 2370C1098.08 2361.37 1069.25 2374.86 1068.98 2374.86C1061.71 2378.91 1055.51 2385.12 1050.12 2391.32C1038.27 2404.27 1032.88 2419.93 1025.61 2435.31C1025.34 2435.85 1024.26 2435.58 1024.53 2434.77C1031.8 2400.77 1061.17 2365.69 1097.27 2364.34C1098.08 2364.34 1098.62 2365.15 1098.35 2365.96C1091.88 2382.42 1083.53 2396.72 1071.41 2409.67C1058.2 2423.7 1043.39 2430.72 1026.15 2438.54C1026.15 2438.54 1026.15 2438.54 1025.88 2438.54C1021.57 2444.21 1018.06 2450.15 1015.1 2457.43C1013.75 2469.31 1012.67 2481.45 1014.02 2493.32C1022.64 2516.26 1029.92 2539.47 1032.88 2563.75C1033.15 2565.64 1030.19 2565.64 1029.92 2563.75C1027.49 2547.29 1023.45 2531.1 1018.33 2515.45C1014.02 2507.35 1004.32 2501.15 996.241 2496.29C995.971 2496.29 995.702 2496.29 995.702 2496.29C989.506 2491.97 978.729 2495.48 972.263 2497.1C966.336 2498.72 961.217 2501.69 955.56 2503.58C955.021 2503.85 954.752 2503.04 955.021 2502.77C959.062 2497.1 970.916 2495.21 977.113 2493.86C980.884 2493.05 986.003 2491.97 990.314 2492.78C990.044 2492.51 989.775 2492.51 989.506 2492.24C988.967 2491.97 988.428 2491.7 987.889 2491.43C974.419 2486.31 952.866 2489.01 948.825 2503.58C947.478 2507.89 946.131 2512.48 953.135 2511.13C958.254 2510.05 963.103 2507.62 967.414 2505.2C974.419 2501.42 980.884 2497.37 988.697 2495.21C989.775 2494.94 990.044 2496.29 989.236 2496.83C975.227 2502.5 962.565 2512.75 947.208 2514.37C946.669 2514.37 946.131 2513.83 946.131 2513.29C945.861 2503.85 947.747 2494.94 957.446 2491.16C964.989 2488.2 973.88 2486.85 981.962 2488.47C970.108 2481.72 958.254 2474.97 946.131 2468.5C945.861 2468.23 945.861 2467.69 946.4 2467.69C958.523 2471.47 969.839 2477.94 980.884 2484.69C972.802 2469.04 950.98 2460.94 934.546 2459.59C929.966 2459.32 925.117 2458.51 928.35 2464.18C931.044 2469.04 935.624 2472.81 940.204 2476.05C948.825 2481.99 959.601 2476.86 968.222 2481.72C969.03 2481.99 968.492 2483.07 967.683 2483.07C957.715 2481.18 948.016 2483.61 938.856 2478.48C932.121 2474.43 925.655 2467.42 923.77 2459.59C923.5 2459.05 923.77 2458.24 924.578 2458.24C943.706 2454.47 976.035 2465.8 982.501 2486.04C987.889 2489.55 993.277 2492.78 998.396 2496.29C1004.05 2499.8 1011.33 2504.39 1016.45 2510.05C1008.9 2487.39 999.474 2464.99 991.122 2442.32C986.273 2436.12 979.537 2433.15 974.419 2427.21C971.994 2425.32 969.3 2423.97 966.606 2422.89C956.907 2424.24 947.208 2430.99 937.24 2432.34C927.272 2433.69 916.495 2434.23 906.527 2433.96C890.632 2433.69 876.353 2427.75 868.81 2413.45C869.079 2411.83 869.349 2411.02 870.157 2410.75ZM1044.73 2350.31C1053.63 2335.73 1063.05 2320.35 1067.9 2303.89C1072.21 2288.78 1063.59 2288.51 1053.09 2295.8C1044.47 2301.73 1037.46 2311.45 1031.8 2320.08C1023.18 2333.85 1022.64 2349.77 1022.37 2365.42C1022.37 2365.42 1022.37 2365.15 1022.64 2365.15C1025.07 2359.48 1028.03 2354.62 1030.99 2349.77C1031.53 2347.07 1032.34 2344.1 1032.88 2341.4C1034.23 2336 1035.31 2330.61 1036.11 2325.21C1036.11 2324.67 1036.92 2324.94 1036.92 2325.21C1036.92 2331.15 1036.11 2337.62 1034.77 2343.83C1039.62 2335.73 1044.2 2327.64 1045.27 2317.11C1045.27 2316.31 1046.89 2316.31 1046.89 2317.38C1046.62 2327.91 1042.58 2336.27 1037.46 2345.18C1030.99 2356.24 1025.61 2365.69 1022.37 2376.48C1028.57 2367.31 1038.81 2360.02 1044.73 2350.31ZM878.239 2421C889.824 2433.15 911.646 2431.53 927.002 2429.64C939.126 2428.29 949.363 2427.21 960.409 2421.27C960.948 2421 961.487 2420.73 961.756 2420.47C953.405 2419.12 944.514 2419.66 936.432 2419.39C921.075 2418.85 905.18 2419.39 890.632 2414.26C890.093 2413.99 890.363 2413.18 890.902 2413.45C907.336 2416.69 924.039 2418.04 940.742 2418.31C935.624 2416.69 931.044 2413.45 926.733 2411.02C926.464 2410.75 926.733 2410.21 927.002 2410.48C929.966 2411.83 932.929 2413.18 935.624 2414.26C938.856 2415.61 942.359 2416.69 945.592 2418.31C945.592 2418.31 945.861 2418.31 945.861 2418.58C947.747 2418.58 949.363 2418.58 951.249 2418.58C953.674 2418.58 956.368 2418.58 958.793 2418.85C950.711 2416.96 943.706 2412.64 936.162 2408.86C922.692 2402.12 909.221 2404.27 894.943 2407.51C886.052 2409.13 867.463 2409.4 878.239 2421Z" fill="#E0BBA9"/>
<path d="M956.099 2236.43C960.679 2251.81 960.948 2268.27 960.14 2284.19C960.14 2284.73 959.332 2284.73 959.332 2284.19C958.523 2268 958.523 2252.35 955.56 2236.43C955.56 2236.16 956.099 2236.16 956.099 2236.43Z" fill="#E0BBA9"/>
<path d="M888.477 2268C897.906 2277.99 906.527 2288.78 914.879 2299.3C915.148 2299.57 914.61 2300.11 914.34 2299.84C904.911 2290.13 895.751 2279.34 887.938 2268.54C887.669 2268 888.208 2267.73 888.477 2268Z" fill="#E0BBA9"/>
<path d="M902.756 2365.42C894.943 2359.21 887.399 2352.73 880.125 2346.26C879.586 2345.99 880.395 2345.18 880.664 2345.72C888.207 2352.19 896.29 2358.13 903.294 2365.15C903.833 2365.42 903.294 2365.96 902.756 2365.42Z" fill="#E0BBA9"/>
<path d="M900.331 2411.56C908.413 2412.64 916.765 2412.91 924.308 2415.61C924.847 2415.88 924.578 2416.42 924.039 2416.42C915.957 2415.07 908.144 2413.72 900.061 2412.64C899.523 2412.64 899.792 2411.56 900.331 2411.56Z" fill="#E0BBA9"/>
<path d="M957.715 2477.13C950.441 2475.51 942.898 2470.66 938.318 2464.99C938.048 2464.72 938.587 2464.18 938.857 2464.45C941.82 2466.88 944.784 2469.31 948.286 2471.47C951.519 2473.35 954.752 2474.7 957.985 2476.32C958.523 2476.59 958.254 2477.4 957.715 2477.13Z" fill="#E0BBA9"/>
<path d="M1055.24 2305.24C1055.51 2304.97 1056.05 2304.97 1056.05 2305.51C1052.28 2316.31 1052.01 2328.99 1046.08 2338.7C1045.81 2339.24 1044.73 2338.97 1045 2338.43C1048.51 2327.64 1050.12 2315.5 1055.24 2305.24Z" fill="#E0BBA9"/>
<path d="M1078.14 2377.83C1072.21 2386.73 1062.52 2391.86 1055.51 2399.69C1055.24 2399.96 1054.7 2399.69 1054.97 2399.15C1060.9 2390.24 1071.41 2385.93 1077.33 2377.29C1077.6 2376.75 1078.41 2377.29 1078.14 2377.83Z" fill="#E0BBA9"/>
<path d="M998.127 2311.18C1000.55 2321.97 1003.25 2333.04 1004.05 2344.1C1004.05 2344.64 1003.25 2344.91 1002.98 2344.37C1000.55 2333.57 999.204 2322.51 997.049 2311.45C997.049 2310.91 997.857 2310.64 998.127 2311.18Z" fill="#E0BBA9"/>
</svg>
