<svg width="1177" height="2306" viewBox="0 0 1177 2306" fill="none" xmlns="http://www.w3.org/2000/svg">
<path d="M441.672 1168.87C411.958 1162.61 377.553 1147.99 346.796 1151.64C314.476 1155.3 289.454 1178.27 257.655 1184.01C256.612 1184.01 256.612 1185.58 257.655 1186.1C257.134 1186.1 256.612 1186.63 255.57 1186.63C254.006 1186.63 252.442 1187.15 250.357 1187.15C249.314 1187.15 249.314 1188.19 249.314 1188.71C247.75 1189.24 246.708 1189.76 245.144 1190.8C259.219 1170.96 270.687 1149.55 288.933 1132.85C309.263 1114.57 333.243 1101 355.658 1085.85C372.34 1074.37 380.68 1056.09 401.532 1049.3C402.054 1049.3 402.054 1048.26 401.532 1048.26C387.979 1047.74 379.117 1058.7 369.733 1067.58C353.052 1083.76 333.243 1095.77 313.955 1108.83C319.689 1103.08 324.381 1096.3 330.115 1090.55C336.892 1083.24 344.19 1075.93 349.924 1067.58C350.445 1067.06 349.403 1066.01 348.882 1066.53C340.541 1072.28 334.285 1080.63 327.508 1087.42C319.689 1096.3 310.827 1105.17 304.05 1115.09C289.454 1125.54 278.507 1136.5 268.602 1149.03C282.677 1106.22 322.817 1068.62 361.393 1046.17C373.904 1038.86 387.979 1034.68 401.532 1028.42C406.745 1025.81 452.098 1005.97 450.013 1014.32C440.629 1054 398.405 1092.64 365.563 1114.05C339.498 1130.76 306.657 1119.79 283.72 1139.63C282.156 1141.2 284.241 1143.81 285.805 1142.77C305.093 1131.28 328.03 1134.93 348.36 1128.67C365.042 1123.45 380.159 1111.44 393.713 1099.95C420.82 1076.98 448.97 1043.56 456.789 1008.06C457.311 1006.49 456.268 1004.92 454.183 1004.92C439.587 1004.92 426.033 1011.71 413.001 1017.45C392.149 1027.37 370.255 1035.73 350.445 1047.22C313.955 1068.62 271.73 1110.39 264.432 1153.21C264.432 1153.73 264.432 1153.73 264.432 1154.25C259.74 1160.52 254.527 1167.31 249.836 1175.14C239.931 1190.8 223.25 1200.2 211.26 1213.25C219.601 1190.28 227.42 1166.78 233.154 1142.77C233.154 1142.24 233.154 1142.24 233.154 1141.72C234.197 1142.24 235.761 1141.72 236.282 1140.16C246.187 1114.05 265.474 1090.55 278.507 1065.49C292.582 1039.38 307.699 1014.84 328.03 992.913C342.105 977.771 358.265 964.196 373.382 950.098C390.064 940.7 403.096 926.08 417.171 913.027C418.214 912.504 416.65 910.938 416.128 911.982C405.703 920.859 395.798 929.735 385.372 938.089C404.66 917.726 421.863 895.274 439.587 873.867C440.629 872.3 438.544 870.212 436.98 871.778C415.086 896.84 394.234 922.947 371.297 946.965C351.488 967.329 329.594 984.559 310.827 1005.97C308.221 1009.1 305.093 1012.75 302.486 1016.41C316.561 981.426 334.807 950.62 360.871 922.425C383.808 896.84 419.778 864.99 452.619 853.503C474.513 845.671 446.885 886.92 443.757 891.097C434.374 904.672 423.427 916.682 413.001 929.213C390.064 959.497 355.137 973.072 327.508 998.135C325.945 999.701 328.03 1002.83 330.115 1001.79C385.372 965.24 453.14 921.903 470.864 852.981C471.386 851.415 470.343 849.848 468.779 849.848C435.416 846.193 399.447 883.265 377.031 903.628C339.498 936.523 311.348 980.904 297.273 1028.42V1028.94C287.369 1043.56 279.028 1059.75 270.687 1074.89C260.783 1093.16 247.75 1109.87 237.846 1128.67C246.187 1094.21 253.485 1059.22 260.261 1024.24C260.783 1024.24 261.304 1023.72 261.304 1023.2C261.304 1021.63 261.304 1020.59 261.304 1019.54C263.911 1007.53 266.517 995.002 269.123 982.993C272.251 968.373 274.336 953.753 275.9 939.133C284.241 918.248 291.018 896.84 297.273 875.433C297.795 874.389 295.71 873.867 295.71 874.911C289.975 891.097 283.198 907.283 277.985 923.469C281.113 889.008 283.198 855.07 291.018 821.653C291.018 820.609 289.454 820.087 289.454 821.131C279.028 858.203 278.507 897.363 274.336 935.478C273.294 939.133 272.251 942.788 271.73 946.443C271.73 947.488 272.251 948.01 272.773 947.488C271.73 954.797 270.166 962.629 268.602 969.939C265.996 981.426 263.389 992.391 261.304 1003.88C260.261 992.391 257.655 981.948 254.527 969.939C249.314 945.921 250.357 920.859 252.963 896.318C257.134 862.902 260.261 816.432 283.72 789.803C294.667 777.272 309.784 845.671 310.306 850.37C311.348 871.778 306.135 893.708 300.401 914.593C289.975 951.665 270.166 986.125 261.825 1023.2C261.304 1025.81 264.432 1026.33 265.474 1024.24C296.231 950.62 343.147 851.937 291.018 779.36C290.497 778.316 288.933 778.316 287.89 778.838C261.304 792.414 256.612 836.795 252.442 862.902C249.314 883.787 246.187 904.15 245.665 925.036C244.623 955.842 256.612 984.037 258.176 1014.32C248.793 1057.14 239.41 1099.95 228.984 1142.24C214.388 1200.72 190.408 1256.07 169.035 1311.94C170.078 1291.57 166.429 1270.17 164.343 1250.33C162.258 1230.48 160.694 1210.64 160.173 1191.32C165.907 1125.54 205.526 1063.92 198.749 996.568C198.749 995.002 196.142 995.524 196.142 997.09C195.1 1041.47 178.418 1084.81 167.471 1128.67C163.301 1065.49 170.078 1001.27 198.749 944.355C203.962 933.912 210.739 990.825 210.739 986.648C212.302 1008.06 210.217 1029.46 206.568 1050.87C200.834 1083.76 185.716 1111.96 173.727 1142.77C173.205 1144.33 175.291 1144.85 175.812 1143.81C200.834 1108.3 212.302 1062.36 215.951 1019.54C216.994 1007.01 219.079 934.956 203.44 930.779C202.398 930.779 201.355 930.779 200.834 931.823C183.11 964.196 171.12 997.612 165.907 1034.16C162.779 1054.53 162.779 1075.93 164.343 1096.3C165.386 1110.39 162.258 1123.45 165.907 1137.02C163.822 1145.38 162.258 1153.73 160.694 1161.56C160.694 1157.91 160.694 1154.77 160.694 1151.12C161.737 1131.8 159.13 1113 153.396 1094.73C153.917 1056.61 150.79 1019.02 129.938 986.125C114.299 961.063 88.7556 932.868 57.478 929.735C56.9567 929.735 55.9141 930.257 55.3928 931.301C50.1799 963.152 65.8187 991.869 80.9362 1019.02C90.3195 1035.73 99.1815 1052.44 109.607 1068.62C121.597 1086.38 139.842 1097.34 151.832 1114.57C153.917 1122.92 154.96 1131.8 155.481 1141.72C157.045 1170.96 154.439 1199.68 157.567 1228.92C158.088 1235.71 159.13 1242.49 159.652 1249.28C149.226 1223.17 130.98 1204.9 109.607 1186.1C91.8834 1170.44 73.6381 1156.34 57.478 1139.11C44.9669 1125.54 37.1475 1110.92 21.5087 1101C19.4235 1099.95 17.8596 1102.56 19.4235 1104.13C47.0521 1121.88 63.7335 1154.25 89.7982 1174.62C89.7982 1174.62 89.7982 1174.62 90.3195 1175.14C78.8511 1169.39 67.3826 1164.7 57.9993 1155.3C57.478 1154.77 56.4354 1155.82 56.9567 1156.34C67.3826 1167.31 81.9788 1176.7 97.0964 1180.36C111.693 1192.37 124.725 1204.38 136.193 1217.95C110.129 1202.81 86.1492 1192.37 62.6909 1171.48C37.6688 1149.55 20.9874 1120.31 7.95502 1090.03C0.656899 1073.32 56.4354 1099.43 56.9567 1099.43C71.0316 1107.26 83.0214 1119.27 93.4473 1131.28C116.384 1156.34 126.81 1186.63 140.885 1216.39C141.406 1217.43 143.492 1216.91 142.97 1215.34C128.895 1149.55 72.0742 1081.68 2.22078 1079.07C0.656899 1079.07 -0.38569 1080.63 0.135604 1082.2C12.6467 1114.05 28.8068 1141.72 52.265 1166.78C77.8085 1193.94 106.48 1207.51 139.842 1222.65C139.842 1222.65 139.842 1222.65 140.364 1222.65C148.705 1233.62 155.481 1245.1 161.216 1259.2C163.822 1282.18 165.907 1305.67 163.301 1328.65C146.619 1373.03 132.544 1417.93 126.81 1464.92C126.289 1468.58 132.023 1468.58 132.544 1464.92C137.236 1433.07 145.055 1401.74 154.96 1371.46C163.301 1355.8 182.067 1343.79 197.706 1334.39C198.227 1334.39 198.749 1334.39 198.749 1334.39C210.739 1326.03 231.59 1332.82 244.101 1335.96C255.57 1339.09 265.474 1344.83 276.422 1348.49C277.464 1349.01 277.985 1347.44 277.464 1346.92C269.645 1335.96 246.708 1332.3 234.718 1329.69C227.42 1328.12 217.515 1326.04 209.175 1327.6C209.696 1327.08 210.217 1327.08 210.739 1326.56C211.781 1326.03 212.824 1325.51 213.866 1324.99C239.931 1315.07 281.635 1320.29 289.454 1348.49C292.06 1356.84 294.667 1365.72 281.113 1363.11C271.209 1361.02 261.825 1356.32 253.485 1351.62C239.931 1344.31 227.42 1336.48 212.302 1332.3C210.217 1331.78 209.696 1334.39 211.26 1335.43C238.367 1346.4 262.868 1366.24 292.582 1369.37C293.624 1369.37 294.667 1368.33 294.667 1367.28C295.188 1349.01 291.539 1331.78 272.773 1324.47C258.176 1318.73 240.974 1316.11 225.335 1319.25C248.272 1306.19 271.209 1293.14 294.667 1280.61C295.188 1280.09 295.188 1279.04 294.146 1279.04C270.687 1286.35 248.793 1298.88 227.42 1311.94C243.059 1281.65 285.284 1265.99 317.083 1263.38C325.945 1262.86 335.328 1261.29 329.072 1272.26C323.859 1281.65 314.997 1288.96 306.135 1295.23C289.454 1306.72 268.602 1296.8 251.921 1306.19C250.357 1306.72 251.399 1308.8 252.963 1308.8C272.251 1305.15 291.018 1309.85 308.742 1299.93C321.774 1292.1 334.285 1278.52 337.934 1263.38C338.456 1262.33 337.934 1260.77 336.37 1260.77C299.359 1253.46 236.803 1275.39 224.292 1314.55C213.866 1321.34 203.44 1327.6 193.536 1334.39C182.589 1341.18 168.514 1350.05 158.609 1361.02C173.205 1317.16 191.451 1273.82 207.611 1229.96C216.994 1217.95 230.026 1212.21 239.931 1200.72C244.623 1197.07 249.836 1194.46 255.049 1192.37C273.815 1194.98 292.582 1208.03 311.87 1210.64C331.158 1213.25 352.009 1214.3 371.297 1213.78C402.054 1213.25 429.682 1201.77 444.278 1174.09C443.757 1170.96 443.236 1169.39 441.672 1168.87ZM103.873 1051.91C86.6705 1023.72 68.4252 993.957 59.0419 962.107C50.7012 932.868 67.3826 932.346 87.7131 946.443C104.394 957.93 117.948 976.727 128.895 993.435C145.577 1020.06 146.619 1050.87 147.141 1081.15C147.141 1081.15 147.141 1080.63 146.619 1080.63C141.928 1069.67 136.193 1060.27 130.459 1050.87C129.417 1045.65 127.853 1039.91 126.81 1034.68C124.204 1024.24 122.118 1013.8 120.555 1003.36C120.555 1002.31 118.991 1002.83 118.991 1003.36C118.991 1014.84 120.555 1027.37 123.161 1039.38C113.778 1023.72 104.916 1008.06 102.831 987.692C102.831 986.125 99.7028 986.125 99.7028 988.214C100.224 1008.58 108.044 1024.76 117.948 1041.99C130.459 1063.4 140.885 1081.68 147.141 1102.56C135.151 1084.81 115.342 1070.71 103.873 1051.91ZM426.033 1188.71C403.617 1212.21 361.393 1209.08 331.679 1205.42C308.221 1202.81 288.411 1200.72 267.038 1189.24C265.996 1188.71 264.953 1188.19 264.432 1187.67C280.592 1185.06 297.795 1186.1 313.434 1185.58C343.147 1184.54 373.904 1185.58 402.054 1175.66C403.096 1175.14 402.575 1173.57 401.532 1174.09C369.733 1180.36 337.413 1182.97 305.093 1183.49C314.997 1180.36 323.859 1174.09 332.2 1169.39C332.721 1168.87 332.2 1167.83 331.679 1168.35C325.945 1170.96 320.21 1173.57 314.997 1175.66C308.742 1178.27 301.965 1180.36 295.71 1183.49C295.71 1183.49 295.188 1183.49 295.188 1184.01C291.539 1184.01 288.411 1184.01 284.762 1184.01C280.071 1184.01 274.858 1184.01 270.166 1184.54C285.805 1180.88 299.359 1172.53 313.955 1165.22C340.02 1152.16 366.084 1156.34 393.713 1162.61C410.916 1165.74 446.885 1166.26 426.033 1188.71Z" fill="#E0BBA9"/>
<path d="M275.379 831.574C266.517 861.336 265.996 893.186 267.56 923.992C267.56 925.036 269.124 925.036 269.124 923.992C270.688 892.664 270.688 862.38 276.422 831.574C276.422 831.052 275.379 831.052 275.379 831.574Z" fill="#E0BBA9"/>
<path d="M406.224 892.663C387.979 911.982 371.297 932.867 355.137 953.23C354.616 953.753 355.658 954.797 356.18 954.275C374.425 935.478 392.149 914.592 407.266 893.707C407.788 892.663 406.745 892.141 406.224 892.663Z" fill="#E0BBA9"/>
<path d="M378.595 1081.15C393.713 1069.14 408.309 1056.61 422.384 1044.08C423.427 1043.56 421.863 1041.99 421.342 1043.04C406.745 1055.57 391.106 1067.06 377.553 1080.63C376.51 1081.15 377.553 1082.2 378.595 1081.15Z" fill="#E0BBA9"/>
<path d="M383.287 1170.44C367.648 1172.53 351.488 1173.05 336.892 1178.27C335.849 1178.79 336.371 1179.84 337.413 1179.84C353.052 1177.23 368.17 1174.62 383.808 1172.53C384.851 1172.53 384.33 1170.44 383.287 1170.44Z" fill="#E0BBA9"/>
<path d="M272.251 1297.32C286.326 1294.19 300.922 1284.79 309.784 1273.82C310.306 1273.3 309.263 1272.26 308.742 1272.78C303.008 1277.48 297.273 1282.18 290.497 1286.35C284.241 1290.01 277.985 1292.62 271.73 1295.75C270.687 1296.27 271.209 1297.84 272.251 1297.32Z" fill="#E0BBA9"/>
<path d="M83.5426 964.718C83.0214 964.196 81.9788 964.196 81.9788 965.24C89.2769 986.125 89.7982 1010.67 101.267 1029.46C101.788 1030.51 103.873 1029.98 103.352 1028.94C96.575 1008.06 93.4472 984.559 83.5426 964.718Z" fill="#E0BBA9"/>
<path d="M39.2328 1105.17C50.7013 1122.4 69.4679 1132.32 83.0215 1147.47C83.5428 1147.99 84.5854 1147.47 84.0641 1146.42C72.5956 1129.19 52.2651 1120.84 40.7967 1104.13C40.2754 1103.08 38.7115 1104.13 39.2328 1105.17Z" fill="#E0BBA9"/>
<path d="M194.057 976.204C189.365 997.09 184.152 1018.5 182.589 1039.9C182.589 1040.95 184.152 1041.47 184.674 1040.43C189.365 1019.54 191.972 998.134 196.142 976.727C196.142 975.682 194.578 975.16 194.057 976.204Z" fill="#E0BBA9"/>
<path d="M659.672 2006.38C629.958 2000.11 595.553 1985.49 564.796 1989.15C532.476 1992.8 507.454 2015.78 475.655 2021.52C474.612 2021.52 474.612 2023.09 475.655 2023.61C475.134 2023.61 474.612 2024.13 473.57 2024.13C472.006 2024.13 470.442 2024.65 468.357 2024.65C467.314 2024.65 467.314 2025.7 467.314 2026.22C465.75 2026.74 464.708 2027.26 463.144 2028.31C477.219 2008.47 488.687 1987.06 506.933 1970.35C527.263 1952.08 551.243 1938.5 573.658 1923.36C590.34 1911.87 598.68 1893.6 619.532 1886.81C620.054 1886.81 620.054 1885.76 619.532 1885.76C605.979 1885.24 597.117 1896.21 587.733 1905.08C571.052 1921.27 551.243 1933.28 531.955 1946.33C537.689 1940.59 542.381 1933.8 548.115 1928.06C554.892 1920.75 562.19 1913.44 567.924 1905.08C568.445 1904.56 567.403 1903.52 566.882 1904.04C558.541 1909.78 552.285 1918.14 545.508 1924.92C537.689 1933.8 528.827 1942.68 522.05 1952.6C507.454 1963.04 496.507 1974.01 486.602 1986.54C500.677 1943.72 540.817 1906.13 579.393 1883.68C591.904 1876.37 605.979 1872.19 619.532 1865.92C624.745 1863.31 670.098 1843.47 668.013 1851.83C658.629 1891.51 616.405 1930.15 583.563 1951.55C557.498 1968.26 524.657 1957.3 501.72 1977.14C500.156 1978.7 502.241 1981.31 503.805 1980.27C523.093 1968.78 546.03 1972.44 566.36 1966.17C583.042 1960.95 598.159 1948.94 611.713 1937.46C638.82 1914.48 666.97 1881.07 674.789 1845.56C675.311 1843.99 674.268 1842.43 672.183 1842.43C657.587 1842.43 644.033 1849.21 631.001 1854.96C610.149 1864.88 588.255 1873.23 568.445 1884.72C531.955 1906.13 489.73 1947.9 482.432 1990.71C482.432 1991.24 482.432 1991.24 482.432 1991.76C477.74 1998.02 472.527 2004.81 467.836 2012.64C457.931 2028.31 441.25 2037.71 429.26 2050.76C437.601 2027.78 445.42 2004.29 451.154 1980.27C451.154 1979.75 451.154 1979.75 451.154 1979.23C452.197 1979.75 453.761 1979.23 454.282 1977.66C464.187 1951.55 483.474 1928.06 496.507 1902.99C510.582 1876.89 525.699 1852.35 546.03 1830.42C560.105 1815.28 576.265 1801.7 591.382 1787.6C608.064 1778.2 621.096 1763.58 635.171 1750.53C636.214 1750.01 634.65 1748.44 634.128 1749.49C623.703 1758.36 613.798 1767.24 603.372 1775.59C622.66 1755.23 639.863 1732.78 657.587 1711.37C658.629 1709.81 656.544 1707.72 654.98 1709.28C633.086 1734.35 612.234 1760.45 589.297 1784.47C569.488 1804.83 547.594 1822.06 528.827 1843.47C526.221 1846.6 523.093 1850.26 520.486 1853.91C534.561 1818.93 552.807 1788.13 578.871 1759.93C601.808 1734.35 637.778 1702.5 670.619 1691.01C692.513 1683.18 664.885 1724.42 661.757 1728.6C652.374 1742.18 641.427 1754.19 631.001 1766.72C608.064 1797 573.137 1810.58 545.508 1835.64C543.945 1837.21 546.03 1840.34 548.115 1839.29C603.372 1802.74 671.14 1759.41 688.864 1690.49C689.386 1688.92 688.343 1687.35 686.779 1687.35C653.416 1683.7 617.447 1720.77 595.031 1741.13C557.498 1774.03 529.348 1818.41 515.273 1865.92V1866.45C505.369 1881.07 497.028 1897.25 488.687 1912.39C478.783 1930.67 465.75 1947.38 455.846 1966.17C464.187 1931.71 471.485 1896.73 478.261 1861.75C478.783 1861.75 479.304 1861.22 479.304 1860.7C479.304 1859.14 479.304 1858.09 479.304 1857.05C481.911 1845.04 484.517 1832.51 487.123 1820.5C490.251 1805.88 492.336 1791.26 493.9 1776.64C502.241 1755.75 509.018 1734.35 515.273 1712.94C515.795 1711.89 513.71 1711.37 513.71 1712.42C507.975 1728.6 501.198 1744.79 495.985 1760.97C499.113 1726.51 501.198 1692.57 509.018 1659.16C509.018 1658.11 507.454 1657.59 507.454 1658.64C497.028 1695.71 496.507 1734.87 492.336 1772.98C491.294 1776.64 490.251 1780.29 489.73 1783.95C489.73 1784.99 490.251 1785.51 490.773 1784.99C489.73 1792.3 488.166 1800.13 486.602 1807.44C483.996 1818.93 481.389 1829.9 479.304 1841.38C478.261 1829.9 475.655 1819.45 472.527 1807.44C467.314 1783.43 468.357 1758.36 470.963 1733.82C475.134 1700.41 478.261 1653.94 501.72 1627.31C512.667 1614.78 527.784 1683.18 528.306 1687.88C529.348 1709.28 524.135 1731.21 518.401 1752.1C507.975 1789.17 488.166 1823.63 479.825 1860.7C479.304 1863.31 482.432 1863.83 483.474 1861.75C514.231 1788.13 561.147 1689.44 509.018 1616.87C508.497 1615.82 506.933 1615.82 505.89 1616.34C479.304 1629.92 474.612 1674.3 470.442 1700.41C467.314 1721.29 464.187 1741.66 463.665 1762.54C462.623 1793.35 474.612 1821.54 476.176 1851.83C466.793 1894.64 457.41 1937.46 446.984 1979.75C432.388 2038.23 408.408 2093.57 387.035 2149.44C388.078 2129.08 384.429 2107.67 382.343 2087.83C380.258 2067.99 378.694 2048.15 378.173 2028.83C383.907 1963.04 423.526 1901.43 416.749 1834.07C416.749 1832.51 414.142 1833.03 414.142 1834.6C413.1 1878.98 396.418 1922.31 385.471 1966.17C381.301 1902.99 388.078 1838.77 416.749 1781.86C421.962 1771.42 428.739 1828.33 428.739 1824.15C430.302 1845.56 428.217 1866.97 424.568 1888.38C418.834 1921.27 403.716 1949.46 391.727 1980.27C391.205 1981.84 393.291 1982.36 393.812 1981.31C418.834 1945.81 430.302 1899.86 433.951 1857.05C434.994 1844.52 437.079 1772.46 421.44 1768.28C420.398 1768.28 419.355 1768.28 418.834 1769.33C401.11 1801.7 389.12 1835.12 383.907 1871.67C380.779 1892.03 380.779 1913.44 382.343 1933.8C383.386 1947.9 380.258 1960.95 383.907 1974.53C381.822 1982.88 380.258 1991.24 378.694 1999.07C378.694 1995.41 378.694 1992.28 378.694 1988.62C379.737 1969.31 377.13 1950.51 371.396 1932.23C371.917 1894.12 368.79 1856.52 347.938 1823.63C332.299 1798.57 306.756 1770.37 275.478 1767.24C274.957 1767.24 273.914 1767.76 273.393 1768.81C268.18 1800.66 283.819 1829.37 298.936 1856.52C308.32 1873.23 317.182 1889.94 327.607 1906.13C339.597 1923.88 357.842 1934.85 369.832 1952.08C371.917 1960.43 372.96 1969.31 373.481 1979.23C375.045 2008.47 372.439 2037.18 375.567 2066.42C376.088 2073.21 377.13 2080 377.652 2086.79C367.226 2060.68 348.98 2042.4 327.607 2023.61C309.883 2007.94 291.638 1993.85 275.478 1976.62C262.967 1963.04 255.148 1948.42 239.509 1938.5C237.423 1937.46 235.86 1940.07 237.423 1941.63C265.052 1959.39 281.734 1991.76 307.798 2012.12C307.798 2012.12 307.798 2012.12 308.32 2012.64C296.851 2006.9 285.383 2002.2 275.999 1992.8C275.478 1992.28 274.435 1993.32 274.957 1993.85C285.383 2004.81 299.979 2014.21 315.096 2017.86C329.693 2029.87 342.725 2041.88 354.193 2055.46C328.129 2040.32 304.149 2029.87 280.691 2008.99C255.669 1987.06 238.987 1957.82 225.955 1927.54C218.657 1910.83 274.435 1936.93 274.957 1936.93C289.032 1944.77 301.021 1956.77 311.447 1968.78C334.384 1993.85 344.81 2024.13 358.885 2053.89C359.406 2054.94 361.492 2054.41 360.97 2052.85C346.895 1987.06 290.074 1919.18 220.221 1916.57C218.657 1916.57 217.614 1918.14 218.136 1919.7C230.647 1951.55 246.807 1979.23 270.265 2004.29C295.808 2031.44 324.48 2045.02 357.842 2060.16C357.842 2060.16 357.842 2060.16 358.364 2060.16C366.705 2071.12 373.481 2082.61 379.216 2096.71C381.822 2119.68 383.907 2143.18 381.301 2166.15C364.619 2210.53 350.544 2255.44 344.81 2302.43C344.289 2306.08 350.023 2306.08 350.544 2302.43C355.236 2270.58 363.055 2239.25 372.96 2208.97C381.301 2193.3 400.067 2181.29 415.706 2171.89C416.227 2171.89 416.749 2171.89 416.749 2171.89C428.739 2163.54 449.59 2170.33 462.101 2173.46C473.57 2176.59 483.474 2182.34 494.422 2185.99C495.464 2186.51 495.985 2184.95 495.464 2184.43C487.645 2173.46 464.708 2169.81 452.718 2167.19C445.42 2165.63 435.515 2163.54 427.175 2165.11C427.696 2164.58 428.217 2164.58 428.739 2164.06C429.781 2163.54 430.824 2163.02 431.866 2162.5C457.931 2152.58 499.635 2157.8 507.454 2185.99C510.06 2194.35 512.667 2203.22 499.113 2200.61C489.209 2198.52 479.825 2193.82 471.485 2189.12C457.931 2181.81 445.42 2173.98 430.302 2169.81C428.217 2169.28 427.696 2171.89 429.26 2172.94C456.367 2183.9 480.868 2203.74 510.582 2206.88C511.624 2206.88 512.667 2205.83 512.667 2204.79C513.188 2186.51 509.539 2169.28 490.773 2161.97C476.176 2156.23 458.974 2153.62 443.335 2156.75C466.272 2143.7 489.209 2130.65 512.667 2118.11C513.188 2117.59 513.188 2116.55 512.146 2116.55C488.687 2123.86 466.793 2136.39 445.42 2149.44C461.059 2119.16 503.284 2103.49 535.083 2100.88C543.945 2100.36 553.328 2098.8 547.072 2109.76C541.859 2119.16 532.997 2126.47 524.135 2132.73C507.454 2144.22 486.602 2134.3 469.921 2143.7C468.357 2144.22 469.399 2146.31 470.963 2146.31C490.251 2142.65 509.018 2147.35 526.742 2137.43C539.774 2129.6 552.285 2116.03 555.934 2100.88C556.456 2099.84 555.934 2098.27 554.37 2098.27C517.359 2090.96 454.803 2112.89 442.292 2152.05C431.866 2158.84 421.44 2165.11 411.536 2171.89C400.589 2178.68 386.514 2187.56 376.609 2198.52C391.205 2154.66 409.451 2111.33 425.611 2067.47C434.994 2055.46 448.026 2049.71 457.931 2038.23C462.623 2034.57 467.836 2031.96 473.049 2029.87C491.815 2032.48 510.582 2045.54 529.87 2048.15C549.158 2050.76 570.009 2051.8 589.297 2051.28C620.054 2050.76 647.682 2039.27 662.278 2011.6C661.757 2008.47 661.236 2006.9 659.672 2006.38ZM321.873 1889.42C304.67 1861.22 286.425 1831.46 277.042 1799.61C268.701 1770.37 285.383 1769.85 305.713 1783.95C322.394 1795.44 335.948 1814.23 346.895 1830.94C363.577 1857.57 364.619 1888.38 365.141 1918.66C365.141 1918.66 365.141 1918.14 364.619 1918.14C359.928 1907.17 354.193 1897.77 348.459 1888.38C347.417 1883.15 345.853 1877.41 344.81 1872.19C342.204 1861.75 340.118 1851.3 338.555 1840.86C338.555 1839.82 336.991 1840.34 336.991 1840.86C336.991 1852.35 338.555 1864.88 341.161 1876.89C331.778 1861.22 322.916 1845.56 320.831 1825.2C320.831 1823.63 317.703 1823.63 317.703 1825.72C318.224 1846.08 326.044 1862.27 335.948 1879.5C348.459 1900.91 358.885 1919.18 365.141 1940.07C353.151 1922.31 333.342 1908.22 321.873 1889.42ZM644.033 2026.22C621.617 2049.71 579.393 2046.58 549.679 2042.93C526.221 2040.32 506.411 2038.23 485.038 2026.74C483.996 2026.22 482.953 2025.7 482.432 2025.17C498.592 2022.56 515.795 2023.61 531.434 2023.09C561.147 2022.04 591.904 2023.09 620.054 2013.17C621.096 2012.64 620.575 2011.08 619.532 2011.6C587.733 2017.86 555.413 2020.48 523.093 2021C532.997 2017.86 541.859 2011.6 550.2 2006.9C550.721 2006.38 550.2 2005.33 549.679 2005.86C543.945 2008.47 538.21 2011.08 532.997 2013.17C526.742 2015.78 519.965 2017.86 513.71 2021C513.71 2021 513.188 2021 513.188 2021.52C509.539 2021.52 506.411 2021.52 502.762 2021.52C498.071 2021.52 492.858 2021.52 488.166 2022.04C503.805 2018.39 517.359 2010.03 531.955 2002.72C558.02 1989.67 584.084 1993.85 611.713 2000.11C628.916 2003.24 664.885 2003.77 644.033 2026.22Z" fill="#E0BBA9"/>
<path d="M493.379 1669.08C484.517 1698.84 483.996 1730.69 485.56 1761.5C485.56 1762.54 487.124 1762.54 487.124 1761.5C488.688 1730.17 488.688 1699.89 494.422 1669.08C494.422 1668.56 493.379 1668.56 493.379 1669.08Z" fill="#E0BBA9"/>
<path d="M624.224 1730.17C605.978 1749.49 589.297 1770.37 573.137 1790.74C572.616 1791.26 573.658 1792.3 574.18 1791.78C592.425 1772.98 610.149 1752.1 625.266 1731.21C625.788 1730.17 624.745 1729.65 624.224 1730.17Z" fill="#E0BBA9"/>
<path d="M596.595 1918.66C611.713 1906.65 626.309 1894.12 640.384 1881.59C641.427 1881.06 639.863 1879.5 639.341 1880.54C624.745 1893.07 609.106 1904.56 595.553 1918.14C594.51 1918.66 595.553 1919.7 596.595 1918.66Z" fill="#E0BBA9"/>
<path d="M601.287 2007.94C585.648 2010.03 569.488 2010.55 554.892 2015.78C553.849 2016.3 554.371 2017.34 555.413 2017.34C571.052 2014.73 586.17 2012.12 601.808 2010.03C602.851 2010.03 602.33 2007.94 601.287 2007.94Z" fill="#E0BBA9"/>
<path d="M490.251 2134.82C504.326 2131.69 518.922 2122.29 527.784 2111.33C528.306 2110.81 527.263 2109.76 526.742 2110.28C521.008 2114.98 515.273 2119.68 508.497 2123.86C502.241 2127.51 495.985 2130.12 489.73 2133.26C488.687 2133.78 489.209 2135.35 490.251 2134.82Z" fill="#E0BBA9"/>
<path d="M301.543 1802.22C301.021 1801.7 299.979 1801.7 299.979 1802.74C307.277 1823.63 307.798 1848.17 319.267 1866.97C319.788 1868.01 321.873 1867.49 321.352 1866.45C314.575 1845.56 311.447 1822.06 301.543 1802.22Z" fill="#E0BBA9"/>
<path d="M257.233 1942.68C268.701 1959.91 287.468 1969.83 301.022 1984.97C301.543 1985.49 302.585 1984.97 302.064 1983.93C290.596 1966.7 270.265 1958.34 258.797 1941.63C258.275 1940.59 256.711 1941.63 257.233 1942.68Z" fill="#E0BBA9"/>
<path d="M412.057 1813.71C407.365 1834.59 402.152 1856 400.589 1877.41C400.589 1878.45 402.152 1878.98 402.674 1877.93C407.365 1857.05 409.972 1835.64 414.142 1814.23C414.142 1813.19 412.578 1812.67 412.057 1813.71Z" fill="#E0BBA9"/>
<path d="M735.328 698.377C765.042 692.112 799.447 677.492 830.204 681.147C862.524 684.802 887.546 707.776 919.345 713.519C920.388 713.519 920.388 715.086 919.345 715.608C919.866 715.608 920.388 716.13 921.43 716.13C922.994 716.13 924.558 716.652 926.643 716.652C927.686 716.652 927.686 717.696 927.686 718.219C929.25 718.741 930.292 719.263 931.856 720.307C917.781 700.466 906.313 679.058 888.067 662.35C867.737 644.075 843.757 630.5 821.342 615.358C804.66 603.871 796.32 585.596 775.468 578.809C774.946 578.809 774.946 577.764 775.468 577.764C789.021 577.242 797.883 588.207 807.267 597.083C823.948 613.269 843.757 625.279 863.045 638.332C857.311 632.588 852.619 625.801 846.885 620.057C840.108 612.747 832.81 605.437 827.076 597.083C826.555 596.561 827.597 595.517 828.118 596.039C836.459 601.783 842.715 610.137 849.492 616.924C857.311 625.801 866.173 634.677 872.95 644.598C887.546 655.04 898.493 666.005 908.398 678.536C894.323 635.721 854.183 598.128 815.607 575.676C803.096 568.366 789.021 564.189 775.468 557.923C770.255 555.313 724.902 535.471 726.987 543.826C736.371 583.508 778.595 622.146 811.437 643.553C837.502 660.262 870.343 649.297 893.28 669.138C894.844 670.704 892.759 673.315 891.195 672.271C871.907 660.784 848.97 664.439 828.64 658.173C811.958 652.952 796.841 640.943 783.287 629.456C756.18 606.482 728.03 573.065 720.211 537.56C719.689 535.994 720.732 534.427 722.817 534.427C737.413 534.427 750.967 541.215 763.999 546.958C784.851 556.879 806.745 565.233 826.555 576.72C863.045 598.128 905.27 639.898 912.568 682.713C912.568 683.236 912.568 683.235 912.568 683.758C917.26 690.023 922.473 696.811 927.164 704.643C937.069 720.307 953.75 729.705 965.74 742.759C957.399 719.785 949.58 696.289 943.846 672.271C943.846 671.749 943.846 671.749 943.846 671.226C942.803 671.749 941.239 671.226 940.718 669.66C930.813 643.553 911.526 620.057 898.493 594.995C884.418 568.888 869.301 544.348 848.97 522.418C834.895 507.276 818.735 493.701 803.618 479.603C786.936 470.205 773.904 455.585 759.829 442.532C758.786 442.009 760.35 440.443 760.872 441.487C771.297 450.364 781.202 459.24 791.628 467.594C772.34 447.231 755.137 424.779 737.413 403.371C736.371 401.805 738.456 399.717 740.02 401.283C761.914 426.345 782.766 452.452 805.703 476.47C825.512 496.833 847.406 514.064 866.173 535.471C868.779 538.604 871.907 542.259 874.514 545.914C860.439 510.931 842.193 480.125 816.129 451.93C793.192 426.345 757.222 394.495 724.381 383.008C702.487 375.176 730.115 416.425 733.243 420.602C742.626 434.177 753.573 446.186 763.999 458.718C786.936 489.002 821.863 502.577 849.492 527.639C851.055 529.206 848.97 532.339 846.885 531.294C791.628 494.745 723.86 451.408 706.136 382.486C705.614 380.92 706.657 379.353 708.221 379.353C741.584 375.698 777.553 412.77 799.969 433.133C837.502 466.028 865.652 510.409 879.727 557.923V558.445C889.631 573.065 897.972 589.251 906.313 604.393C916.217 622.668 929.25 639.376 939.154 658.173C930.813 623.712 923.515 588.729 916.739 553.746C916.217 553.746 915.696 553.224 915.696 552.702C915.696 551.135 915.696 550.091 915.696 549.047C913.089 537.038 910.483 524.507 907.877 512.498C904.749 497.878 902.664 483.258 901.1 468.638C892.759 447.753 885.982 426.345 879.727 404.938C879.205 403.894 881.29 403.371 881.29 404.416C887.025 420.602 893.802 436.788 899.015 452.974C895.887 418.513 893.802 384.575 885.982 351.158C885.982 350.114 887.546 349.592 887.546 350.636C897.972 387.707 898.493 426.867 902.664 464.983C903.706 468.638 904.749 472.293 905.27 475.948C905.27 476.992 904.749 477.515 904.227 476.992C905.27 484.302 906.834 492.134 908.398 499.444C911.004 510.931 913.611 521.896 915.696 533.383C916.739 521.896 919.345 511.453 922.473 499.444C927.686 475.426 926.643 450.364 924.037 425.823C919.866 392.407 916.739 345.937 893.28 319.308C882.333 306.777 867.216 375.176 866.694 379.875C865.652 401.283 870.865 423.213 876.599 444.098C887.025 481.169 906.834 515.63 915.175 552.702C915.696 555.313 912.568 555.835 911.526 553.746C880.769 480.125 833.853 381.442 885.982 308.865C886.503 307.821 888.067 307.821 889.11 308.343C915.696 321.918 920.388 366.3 924.558 392.407C927.686 413.292 930.813 433.655 931.335 454.541C932.377 485.347 920.388 513.542 918.824 543.826C928.207 586.641 937.59 629.456 948.016 671.749C962.612 730.228 986.592 785.574 1007.97 841.442C1006.92 821.079 1010.57 799.672 1012.66 779.83C1014.74 759.989 1016.31 740.148 1016.83 720.829C1011.09 655.04 971.474 593.428 978.251 526.073C978.251 524.507 980.858 525.029 980.858 526.595C981.9 570.977 998.582 614.314 1009.53 658.173C1013.7 594.995 1006.92 530.772 978.251 473.86C973.038 463.417 966.261 520.33 966.261 516.152C964.698 537.56 966.783 558.967 970.432 580.375C976.166 613.269 991.284 641.465 1003.27 672.271C1003.79 673.837 1001.71 674.359 1001.19 673.315C976.166 637.81 964.698 591.862 961.049 549.047C960.006 536.516 957.921 464.461 973.56 460.284C974.602 460.284 975.645 460.284 976.166 461.328C993.89 493.701 1005.88 527.117 1011.09 563.667C1014.22 584.03 1014.22 605.437 1012.66 625.801C1011.61 639.898 1014.74 652.952 1011.09 666.527C1013.18 674.881 1014.74 683.236 1016.31 691.068C1016.31 687.413 1016.31 684.28 1016.31 680.625C1015.26 661.306 1017.87 642.509 1023.6 624.234C1023.08 586.118 1026.21 548.525 1047.06 515.63C1062.7 490.568 1088.24 462.373 1119.52 459.24C1120.04 459.24 1121.09 459.762 1121.61 460.806C1126.82 492.656 1111.18 521.374 1096.06 548.525C1086.68 565.233 1077.82 581.941 1067.39 598.128C1055.4 615.88 1037.16 626.845 1025.17 644.075C1023.08 652.43 1022.04 661.306 1021.52 671.226C1019.95 700.466 1022.56 729.183 1019.43 758.423C1018.91 765.211 1017.87 771.998 1017.35 778.786C1027.77 752.679 1046.02 734.405 1067.39 715.608C1085.12 699.944 1103.36 685.846 1119.52 668.616C1132.03 655.04 1139.85 640.42 1155.49 630.5C1157.58 629.456 1159.14 632.066 1157.58 633.633C1129.95 651.385 1113.27 683.758 1087.2 704.121C1087.2 704.121 1087.2 704.121 1086.68 704.643C1098.15 698.9 1109.62 694.2 1119 684.802C1119.52 684.28 1120.56 685.324 1120.04 685.846C1109.62 696.811 1095.02 706.209 1079.9 709.864C1065.31 721.873 1052.28 733.883 1040.81 747.458C1066.87 732.316 1090.85 721.873 1114.31 700.988C1139.33 679.058 1156.01 649.819 1169.04 619.535C1176.34 602.827 1120.56 628.934 1120.04 628.934C1105.97 636.766 1093.98 648.775 1083.55 660.784C1060.62 685.846 1050.19 716.13 1036.11 745.892C1035.59 746.936 1033.51 746.414 1034.03 744.847C1048.1 679.058 1104.93 611.181 1174.78 608.57C1176.34 608.57 1177.39 610.137 1176.86 611.703C1164.35 643.553 1148.19 671.226 1124.73 696.289C1099.19 723.44 1070.52 737.015 1037.16 752.157C1037.16 752.157 1037.16 752.157 1036.64 752.157C1028.3 763.122 1021.52 774.609 1015.78 788.707C1013.18 811.681 1011.09 835.177 1013.7 858.151C1030.38 902.532 1044.46 947.436 1050.19 994.428C1050.71 998.083 1044.98 998.083 1044.46 994.428C1039.76 962.577 1031.94 931.249 1022.04 900.966C1013.7 885.302 994.933 873.292 979.294 863.894C978.773 863.894 978.251 863.894 978.251 863.894C966.261 855.54 945.41 862.328 932.899 865.46C921.43 868.593 911.526 874.337 900.578 877.992C899.536 878.514 899.015 876.947 899.536 876.425C907.355 865.46 930.292 861.805 942.282 859.195C949.58 857.628 959.485 855.54 967.825 857.106C967.304 856.584 966.783 856.584 966.261 856.062C965.219 855.54 964.176 855.018 963.134 854.496C937.069 844.575 895.365 849.796 887.546 877.992C884.94 886.346 882.333 895.222 895.887 892.611C905.791 890.523 915.175 885.824 923.515 881.124C937.069 873.815 949.58 865.983 964.698 861.805C966.783 861.283 967.304 863.894 965.74 864.938C938.633 875.903 914.132 895.744 884.418 898.877C883.376 898.877 882.333 897.833 882.333 896.788C881.812 878.514 885.461 861.283 904.227 853.973C918.824 848.23 936.026 845.619 951.665 848.752C928.728 835.699 905.791 822.645 882.333 810.114C881.812 809.592 881.812 808.548 882.854 808.548C906.313 815.858 928.207 828.389 949.58 841.442C933.941 811.158 891.716 795.494 859.917 792.884C851.055 792.362 841.672 790.795 847.928 801.76C853.141 811.158 862.003 818.468 870.865 824.734C887.546 836.221 908.398 826.3 925.079 835.699C926.643 836.221 925.601 838.309 924.037 838.309C904.749 834.655 885.982 839.354 868.258 829.433C855.226 821.601 842.715 808.026 839.066 792.884C838.544 791.839 839.066 790.273 840.63 790.273C877.641 782.963 940.197 804.893 952.708 844.053C963.134 850.841 973.56 857.106 983.464 863.894C994.411 870.682 1008.49 879.558 1018.39 890.523C1003.79 846.664 985.549 803.326 969.389 759.467C960.006 747.458 946.974 741.715 937.069 730.228C932.377 726.573 927.164 723.962 921.951 721.873C903.185 724.484 884.418 737.537 865.13 740.148C845.842 742.759 824.991 743.803 805.703 743.281C774.946 742.759 747.318 731.272 732.722 703.599C733.243 700.466 733.764 698.9 735.328 698.377ZM1073.13 581.419C1090.33 553.224 1108.57 523.462 1117.96 491.612C1126.3 462.373 1109.62 461.85 1089.29 475.948C1072.61 487.435 1059.05 506.232 1048.1 522.94C1031.42 549.569 1030.38 580.375 1029.86 610.659C1029.86 610.659 1029.86 610.137 1030.38 610.137C1035.07 599.172 1040.81 589.773 1046.54 580.375C1047.58 575.154 1049.15 569.41 1050.19 564.189C1052.8 553.746 1054.88 543.303 1056.45 532.861C1056.45 531.817 1058.01 532.339 1058.01 532.861C1058.01 544.348 1056.45 556.879 1053.84 568.888C1063.22 553.224 1072.08 537.56 1074.17 517.197C1074.17 515.63 1077.3 515.63 1077.3 517.719C1076.78 538.082 1068.96 554.268 1059.05 571.499C1046.54 592.906 1036.11 611.181 1029.86 632.066C1041.85 614.314 1061.66 600.216 1073.13 581.419ZM750.967 718.219C773.383 741.715 815.607 738.582 845.321 734.927C868.779 732.316 888.589 730.228 909.962 718.741C911.004 718.219 912.047 717.696 912.568 717.174C896.408 714.564 879.205 715.608 863.566 715.086C833.853 714.041 803.096 715.086 774.946 705.165C773.904 704.643 774.425 703.077 775.468 703.599C807.267 709.864 839.587 712.475 871.907 712.997C862.003 709.864 853.141 703.599 844.8 698.9C844.279 698.377 844.8 697.333 845.321 697.855C851.055 700.466 856.79 703.077 862.003 705.165C868.258 707.776 875.035 709.864 881.29 712.997C881.29 712.997 881.812 712.997 881.812 713.519C885.461 713.519 888.589 713.519 892.238 713.519C896.929 713.519 902.142 713.519 906.834 714.041C891.195 710.386 877.641 702.032 863.045 694.722C836.98 681.669 810.916 685.846 783.287 692.112C766.084 695.245 730.115 695.767 750.967 718.219Z" fill="#E0BBA9"/>
<path d="M901.621 361.079C910.483 390.841 911.004 422.691 909.44 453.497C909.44 454.541 907.876 454.541 907.876 453.497C906.312 422.169 906.312 391.885 900.578 361.079C900.578 360.557 901.621 360.557 901.621 361.079Z" fill="#E0BBA9"/>
<path d="M770.776 422.168C789.022 441.487 805.703 462.372 821.863 482.735C822.384 483.257 821.342 484.302 820.82 483.78C802.575 464.983 784.851 444.097 769.734 423.212C769.212 422.168 770.255 421.646 770.776 422.168Z" fill="#E0BBA9"/>
<path d="M798.405 610.659C783.287 598.649 768.691 586.118 754.616 573.587C753.573 573.065 755.137 571.498 755.659 572.543C770.255 585.074 785.894 596.561 799.447 610.136C800.49 610.659 799.447 611.703 798.405 610.659Z" fill="#E0BBA9"/>
<path d="M793.713 699.943C809.352 702.032 825.512 702.554 840.108 707.775C841.151 708.298 840.629 709.342 839.587 709.342C823.948 706.731 808.83 704.12 793.192 702.032C792.149 702.032 792.67 699.943 793.713 699.943Z" fill="#E0BBA9"/>
<path d="M904.749 826.823C890.674 823.69 876.078 814.292 867.216 803.327C866.694 802.805 867.737 801.761 868.258 802.283C873.992 806.982 879.727 811.681 886.503 815.858C892.759 819.513 899.015 822.124 905.27 825.257C906.313 825.779 905.791 827.345 904.749 826.823Z" fill="#E0BBA9"/>
<path d="M1093.46 494.223C1093.98 493.701 1095.02 493.701 1095.02 494.745C1087.72 515.63 1087.2 540.171 1075.73 558.968C1075.21 560.012 1073.13 559.49 1073.65 558.445C1080.42 537.56 1083.55 514.064 1093.46 494.223Z" fill="#E0BBA9"/>
<path d="M1137.77 634.677C1126.3 651.908 1107.53 661.829 1093.98 676.97C1093.46 677.493 1092.41 676.97 1092.94 675.926C1104.4 658.696 1124.73 650.342 1136.2 633.633C1136.72 632.589 1138.29 633.633 1137.77 634.677Z" fill="#E0BBA9"/>
<path d="M982.943 505.709C987.635 526.595 992.848 548.002 994.411 569.41C994.411 570.454 992.848 570.976 992.326 569.932C987.635 549.046 985.028 527.639 980.858 506.231C980.858 505.187 982.422 504.665 982.943 505.709Z" fill="#E0BBA9"/>
<path d="M464.26 201.751C448.904 198.513 431.123 190.957 415.228 192.846C398.524 194.735 385.592 206.608 369.158 209.576C368.62 209.576 368.62 210.386 369.158 210.655C368.889 210.655 368.62 210.925 368.081 210.925C367.273 210.925 366.464 211.195 365.387 211.195C364.848 211.195 364.848 211.735 364.848 212.005C364.04 212.275 363.501 212.544 362.693 213.084C369.967 202.83 375.894 191.766 385.323 183.131C395.83 173.687 408.223 166.671 419.808 158.845C428.429 152.909 432.739 143.464 443.516 139.956C443.785 139.956 443.785 139.417 443.516 139.417C436.511 139.147 431.931 144.814 427.082 149.401C418.46 157.766 408.223 163.972 398.255 170.719C401.218 167.75 403.643 164.242 406.606 161.274C410.109 157.496 413.88 153.718 416.844 149.401C417.113 149.131 416.575 148.591 416.305 148.861C411.995 151.83 408.762 156.147 405.259 159.655C401.218 164.242 396.638 168.83 393.136 173.957C385.592 179.354 379.935 185.02 374.816 191.497C382.09 169.369 402.835 149.941 422.771 138.337C429.237 134.559 436.511 132.401 443.516 129.163C446.21 127.813 469.648 117.559 468.571 121.877C463.721 142.385 441.899 162.353 424.926 173.417C411.456 182.052 394.483 176.385 382.629 186.639C381.821 187.449 382.898 188.798 383.707 188.258C393.675 182.322 405.529 184.211 416.036 180.973C424.657 178.274 432.47 172.068 439.474 166.131C453.484 154.258 468.032 136.988 472.073 118.639C472.342 117.829 471.804 117.02 470.726 117.02C463.182 117.02 456.178 120.528 449.443 123.496C438.666 128.623 427.351 132.94 417.113 138.877C398.255 149.941 376.433 171.528 372.661 193.655C372.661 193.925 372.661 193.925 372.661 194.195C370.236 197.433 367.542 200.941 365.117 204.989C359.999 213.084 351.377 217.941 345.181 224.687C349.492 212.814 353.533 200.671 356.496 188.258C356.496 187.989 356.496 187.989 356.496 187.719C357.035 187.989 357.843 187.719 358.113 186.909C363.231 173.417 373.2 161.274 379.935 148.322C387.209 134.829 395.022 122.147 405.529 110.813C412.803 102.988 421.155 95.9718 428.967 88.6861C437.589 83.8289 444.324 76.2732 451.598 69.5271C452.137 69.2573 451.328 68.4478 451.059 68.9874C445.671 73.5748 440.552 78.1621 435.164 82.4796C445.132 71.9557 454.023 60.3524 463.182 49.2888C463.721 48.4793 462.644 47.3999 461.835 48.2095C450.52 61.162 439.744 74.6542 427.89 87.067C417.652 97.5909 406.337 106.496 396.638 117.559C395.291 119.178 393.675 121.067 392.328 122.956C399.602 104.877 409.031 88.9559 422.502 74.3843C434.356 61.162 452.945 44.7015 469.918 38.7649C481.233 34.7173 466.954 56.0349 465.338 58.1937C460.488 65.2096 454.831 71.416 449.443 77.8923C437.589 93.5432 419.538 100.559 405.259 113.512C404.451 114.321 405.529 115.94 406.606 115.401C435.164 96.5115 470.187 74.1145 479.347 38.4951C479.616 37.6855 479.078 36.876 478.269 36.876C461.027 34.9871 442.438 54.146 430.853 64.6699C411.456 81.6701 396.908 104.607 389.634 129.163V129.432C384.515 136.988 380.204 145.353 375.894 153.179C370.775 162.623 364.04 171.258 358.921 180.973C363.231 163.163 367.003 145.083 370.506 127.004C370.775 127.004 371.044 126.734 371.044 126.464C371.044 125.655 371.044 125.115 371.044 124.575C372.391 118.369 373.738 111.893 375.085 105.686C376.702 98.1306 377.78 90.5749 378.588 83.0193C382.898 72.2256 386.401 61.162 389.634 50.0984C389.903 49.5587 388.825 49.2888 388.825 49.8285C385.862 58.1937 382.36 66.5588 379.665 74.924C381.282 57.1143 382.36 39.5744 386.401 22.3044C386.401 21.7648 385.592 21.4949 385.592 22.0346C380.204 41.1935 379.935 61.4318 377.78 81.1304C377.241 83.0193 376.702 84.9082 376.433 86.7971C376.433 87.3368 376.702 87.6067 376.971 87.3368C376.433 91.1146 375.624 95.1623 374.816 98.9401C373.469 104.877 372.122 110.543 371.044 116.48C370.506 110.543 369.158 105.147 367.542 98.9401C364.848 86.5273 365.387 73.5748 366.734 60.8921C368.889 43.6221 370.506 19.606 382.629 5.84397C388.287 -0.632286 396.099 34.7173 396.369 37.1459C396.908 48.2095 394.214 59.5429 391.25 70.3367C385.862 89.4956 375.624 107.305 371.314 126.464C371.044 127.813 372.661 128.083 373.2 127.004C389.095 88.9559 413.342 37.9554 386.401 0.447089C386.131 -0.0925984 385.323 -0.0925942 384.784 0.17725C371.044 7.19319 368.62 30.1299 366.464 43.6221C364.848 54.4159 363.231 64.9398 362.962 75.7335C362.423 91.6543 368.62 106.226 369.428 121.877C364.579 144.004 359.729 166.131 354.341 187.989C346.797 218.211 334.405 246.815 323.359 275.688C323.898 265.164 322.012 254.1 320.934 243.846C319.857 233.592 319.048 223.338 318.779 213.354C321.742 179.354 342.217 147.512 338.715 112.702C338.715 111.893 337.368 112.162 337.368 112.972C336.829 135.909 328.208 158.306 322.551 180.973C320.395 148.322 323.898 115.131 338.715 85.7178C341.409 80.3209 344.912 109.734 344.912 107.575C345.72 118.639 344.642 129.702 342.756 140.766C339.793 157.766 331.98 172.338 325.784 188.258C325.514 189.068 326.592 189.338 326.861 188.798C339.793 170.449 345.72 146.702 347.606 124.575C348.145 118.099 349.222 80.8606 341.14 78.7018C340.601 78.7018 340.062 78.7018 339.793 79.2415C330.633 95.9718 324.436 113.242 321.742 132.131C320.126 142.655 320.126 153.718 320.934 164.242C321.473 171.528 319.857 178.274 321.742 185.29C320.665 189.608 319.857 193.925 319.048 197.973C319.048 196.084 319.048 194.465 319.048 192.576C319.587 182.592 318.24 172.877 315.277 163.433C315.546 143.734 313.929 124.305 303.153 107.305C295.071 94.3528 281.87 79.7812 265.705 78.1621C265.436 78.1621 264.897 78.432 264.628 78.9717C261.933 95.4321 270.016 110.274 277.829 124.305C282.678 132.94 287.258 141.575 292.646 149.941C298.843 159.115 308.272 164.782 314.468 173.687C315.546 178.004 316.085 182.592 316.354 187.719C317.162 202.83 315.815 217.671 317.432 232.783C317.701 236.291 318.24 239.799 318.509 243.307C313.121 229.814 303.692 220.37 292.646 210.655C283.486 202.56 274.057 195.274 265.705 186.37C259.239 179.354 255.198 171.798 247.116 166.671C246.038 166.131 245.23 167.48 246.038 168.29C260.317 177.465 268.938 194.195 282.409 204.719C282.409 204.719 282.409 204.719 282.678 204.989C276.751 202.02 270.824 199.592 265.975 194.735C265.705 194.465 265.166 195.005 265.436 195.274C270.824 200.941 278.367 205.798 286.18 207.687C293.724 213.894 300.459 220.1 306.386 227.116C292.916 219.291 280.523 213.894 268.399 203.1C255.468 191.766 246.846 176.655 240.111 161.004C236.339 152.369 265.166 165.861 265.436 165.861C272.71 169.909 278.906 176.115 284.294 182.322C296.148 195.274 301.537 210.925 308.811 226.306C309.08 226.846 310.158 226.576 309.888 225.767C302.614 191.766 273.249 156.687 237.148 155.337C236.339 155.337 235.801 156.147 236.07 156.957C242.536 173.417 250.888 187.719 263.011 200.671C276.212 214.703 291.03 221.719 308.272 229.545C308.272 229.545 308.272 229.545 308.541 229.545C312.852 235.211 316.354 241.148 319.318 248.434C320.665 260.307 321.742 272.45 320.395 284.323C311.774 307.26 304.5 330.466 301.537 354.752C301.267 356.641 304.231 356.641 304.5 354.752C306.925 338.292 310.966 322.101 316.085 306.45C320.395 298.355 330.094 292.148 338.176 287.291C338.446 287.291 338.715 287.291 338.715 287.291C344.912 282.974 355.688 286.482 362.154 288.101C368.081 289.72 373.2 292.688 378.857 294.577C379.396 294.847 379.665 294.037 379.396 293.767C375.355 288.101 363.501 286.212 357.304 284.863C353.533 284.053 348.414 282.974 344.103 283.783C344.373 283.513 344.642 283.513 344.912 283.243C345.45 282.974 345.989 282.704 346.528 282.434C359.999 277.307 381.551 280.005 385.592 294.577C386.94 298.894 388.287 303.482 381.282 302.133C376.163 301.053 371.314 298.625 367.003 296.196C359.999 292.418 353.533 288.371 345.72 286.212C344.642 285.942 344.373 287.291 345.181 287.831C359.19 293.498 371.853 303.752 387.209 305.371C387.748 305.371 388.287 304.831 388.287 304.291C388.556 294.847 386.67 285.942 376.971 282.164C369.428 279.196 360.537 277.847 352.455 279.466C364.309 272.72 376.163 265.974 388.287 259.497C388.556 259.227 388.556 258.688 388.017 258.688C375.894 262.466 364.579 268.942 353.533 275.688C361.615 260.037 383.437 251.942 399.871 250.592C404.451 250.323 409.301 249.513 406.068 255.18C403.374 260.037 398.794 263.815 394.214 267.053C385.592 272.989 374.816 267.862 366.195 272.72C365.387 272.989 365.926 274.069 366.734 274.069C376.702 272.18 386.401 274.609 395.561 269.481C402.296 265.434 408.762 258.418 410.648 250.592C410.917 250.053 410.648 249.243 409.839 249.243C390.711 245.465 358.382 256.799 351.916 277.037C346.528 280.545 341.14 283.783 336.021 287.291C330.363 290.799 323.089 295.386 317.971 301.053C325.514 278.386 334.943 255.989 343.295 233.322C348.145 227.116 354.88 224.148 359.999 218.211C362.423 216.322 365.117 214.973 367.811 213.894C377.51 215.243 387.209 221.989 397.177 223.338C407.145 224.687 417.922 225.227 427.89 224.957C443.785 224.687 458.064 218.751 465.607 204.449C465.338 202.83 465.068 202.02 464.26 201.751ZM289.683 141.306C280.792 126.734 271.363 111.353 266.513 94.8924C262.203 79.7812 270.824 79.5113 281.331 86.7971C289.952 92.7337 296.957 102.448 302.614 111.083C311.235 124.845 311.774 140.766 312.044 156.417C312.044 156.417 312.044 156.147 311.774 156.147C309.35 150.48 306.386 145.623 303.423 140.766C302.884 138.067 302.075 135.099 301.537 132.401C300.19 127.004 299.112 121.607 298.304 116.21C298.304 115.67 297.495 115.94 297.495 116.21C297.495 122.147 298.304 128.623 299.651 134.829C294.801 126.734 290.221 118.639 289.144 108.115C289.144 107.305 287.527 107.305 287.527 108.385C287.797 118.909 291.838 127.274 296.957 136.179C303.423 147.242 308.811 156.687 312.044 167.48C305.847 158.306 295.61 151.02 289.683 141.306ZM456.178 212.005C444.593 224.148 422.771 222.529 407.415 220.64C395.291 219.29 385.054 218.211 374.008 212.275C373.469 212.005 372.93 211.735 372.661 211.465C381.013 210.116 389.903 210.655 397.985 210.386C413.342 209.846 429.237 210.386 443.785 205.259C444.324 204.989 444.054 204.179 443.516 204.449C427.082 207.687 410.378 209.036 393.675 209.306C398.794 207.687 403.374 204.449 407.684 202.02C407.953 201.751 407.684 201.211 407.415 201.481C404.451 202.83 401.488 204.179 398.794 205.259C395.561 206.608 392.058 207.687 388.825 209.306C388.825 209.306 388.556 209.306 388.556 209.576C386.67 209.576 385.054 209.576 383.168 209.576C380.743 209.576 378.049 209.576 375.624 209.846C383.707 207.957 390.711 203.64 398.255 199.862C411.725 193.116 425.196 195.274 439.474 198.513C448.365 200.132 466.954 200.401 456.178 212.005Z" fill="#E0BBA9"/>
<path d="M378.318 27.4319C373.739 42.813 373.469 59.2735 374.277 75.1943C374.277 75.7339 375.086 75.7339 375.086 75.1943C375.894 59.0036 375.894 43.3527 378.857 27.4319C378.857 27.162 378.318 27.162 378.318 27.4319Z" fill="#E0BBA9"/>
<path d="M445.94 59.0028C436.511 68.9871 427.89 79.7808 419.538 90.3047C419.269 90.5746 419.807 91.1143 420.077 90.8444C429.506 81.13 438.666 70.3363 446.479 59.5425C446.748 59.0028 446.21 58.733 445.94 59.0028Z" fill="#E0BBA9"/>
<path d="M431.662 156.417C439.474 150.21 447.018 143.734 454.292 137.258C454.831 136.988 454.023 136.178 453.753 136.718C446.21 143.194 438.127 149.131 431.123 156.147C430.584 156.417 431.123 156.956 431.662 156.417Z" fill="#E0BBA9"/>
<path d="M434.086 202.56C426.004 203.639 417.652 203.909 410.109 206.608C409.57 206.878 409.839 207.417 410.378 207.417C418.461 206.068 426.273 204.719 434.356 203.639C434.895 203.639 434.625 202.56 434.086 202.56Z" fill="#E0BBA9"/>
<path d="M376.702 268.133C383.976 266.514 391.519 261.656 396.099 255.99C396.369 255.72 395.83 255.18 395.561 255.45C392.597 257.879 389.634 260.307 386.131 262.466C382.898 264.355 379.665 265.704 376.432 267.323C375.894 267.593 376.163 268.402 376.702 268.133Z" fill="#E0BBA9"/>
<path d="M279.176 96.2417C278.906 95.9719 278.367 95.9719 278.367 96.5115C282.139 107.305 282.409 119.988 288.336 129.702C288.605 130.242 289.683 129.972 289.413 129.433C285.911 118.639 284.294 106.496 279.176 96.2417Z" fill="#E0BBA9"/>
<path d="M256.276 168.83C262.203 177.735 271.902 182.862 278.906 190.688C279.176 190.957 279.715 190.687 279.445 190.148C273.518 181.243 263.011 176.925 257.084 168.29C256.815 167.751 256.006 168.29 256.276 168.83Z" fill="#E0BBA9"/>
<path d="M336.29 102.178C333.866 112.972 331.172 124.035 330.363 135.099C330.363 135.639 331.172 135.908 331.441 135.369C333.866 124.575 335.213 113.511 337.368 102.448C337.368 101.908 336.56 101.638 336.29 102.178Z" fill="#E0BBA9"/>
<path d="M870.157 1562.75C885.513 1559.51 903.294 1551.96 919.19 1553.85C935.893 1555.73 948.825 1567.61 965.259 1570.58C965.797 1570.58 965.797 1571.39 965.259 1571.66C965.528 1571.66 965.797 1571.93 966.336 1571.93C967.145 1571.93 967.953 1572.2 969.03 1572.2C969.569 1572.2 969.569 1572.73 969.569 1573C970.377 1573.27 970.916 1573.54 971.724 1574.08C964.45 1563.83 958.523 1552.77 949.094 1544.13C938.587 1534.69 926.194 1527.67 914.61 1519.85C905.989 1513.91 901.678 1504.46 890.902 1500.96C890.632 1500.96 890.632 1500.42 890.902 1500.42C897.906 1500.15 902.486 1505.81 907.336 1510.4C915.957 1518.77 926.194 1524.97 936.162 1531.72C933.199 1528.75 930.774 1525.24 927.811 1522.27C924.308 1518.5 920.537 1514.72 917.573 1510.4C917.304 1510.13 917.843 1509.59 918.112 1509.86C922.423 1512.83 925.655 1517.15 929.158 1520.65C933.199 1525.24 937.779 1529.83 941.281 1534.96C948.825 1540.35 954.482 1546.02 959.601 1552.5C952.327 1530.37 931.582 1510.94 911.646 1499.34C905.18 1495.56 897.906 1493.4 890.902 1490.16C888.207 1488.81 864.769 1478.56 865.846 1482.88C870.696 1503.38 892.518 1523.35 909.491 1534.42C922.961 1543.05 939.934 1537.39 951.788 1547.64C952.596 1548.45 951.519 1549.8 950.711 1549.26C940.742 1543.32 928.888 1545.21 918.381 1541.97C909.76 1539.27 901.947 1533.07 894.943 1527.13C880.933 1515.26 866.385 1497.99 862.344 1479.64C862.075 1478.83 862.614 1478.02 863.691 1478.02C871.235 1478.02 878.239 1481.53 884.975 1484.5C895.751 1489.62 907.066 1493.94 917.304 1499.88C936.162 1510.94 957.985 1532.53 961.756 1554.66C961.756 1554.93 961.756 1554.93 961.756 1555.19C964.181 1558.43 966.875 1561.94 969.3 1565.99C974.419 1574.08 983.04 1578.94 989.236 1585.69C984.926 1573.81 980.884 1561.67 977.921 1549.26C977.921 1548.99 977.921 1548.99 977.921 1548.72C977.382 1548.99 976.574 1548.72 976.304 1547.91C971.186 1534.42 961.218 1522.27 954.482 1509.32C947.208 1495.83 939.395 1483.15 928.888 1471.81C921.614 1463.99 913.263 1456.97 905.45 1449.69C896.829 1444.83 890.093 1437.27 882.819 1430.53C882.28 1430.26 883.089 1429.45 883.358 1429.99C888.746 1434.57 893.865 1439.16 899.253 1443.48C889.285 1432.96 880.395 1421.35 871.235 1410.29C870.696 1409.48 871.773 1408.4 872.582 1409.21C883.897 1422.16 894.673 1435.65 906.527 1448.07C916.765 1458.59 928.08 1467.5 937.779 1478.56C939.126 1480.18 940.742 1482.07 942.089 1483.96C934.815 1465.88 925.386 1449.96 911.916 1435.38C900.061 1422.16 881.472 1405.7 864.499 1399.76C853.184 1395.72 867.463 1417.03 869.079 1419.19C873.929 1426.21 879.586 1432.42 884.975 1438.89C896.829 1454.54 914.879 1461.56 929.158 1474.51C929.966 1475.32 928.888 1476.94 927.811 1476.4C899.253 1457.51 864.23 1435.11 855.07 1399.5C854.801 1398.69 855.339 1397.88 856.148 1397.88C873.39 1395.99 891.979 1415.15 903.564 1425.67C922.961 1442.67 937.509 1465.61 944.784 1490.16V1490.43C949.902 1497.99 954.213 1506.35 958.523 1514.18C963.642 1523.62 970.377 1532.26 975.496 1541.97C971.186 1524.16 967.414 1506.08 963.912 1488C963.642 1488 963.373 1487.73 963.373 1487.46C963.373 1486.65 963.373 1486.11 963.373 1485.58C962.026 1479.37 960.679 1472.89 959.332 1466.69C957.715 1459.13 956.638 1451.57 955.829 1444.02C951.519 1433.23 948.016 1422.16 944.784 1411.1C944.514 1410.56 945.592 1410.29 945.592 1410.83C948.555 1419.19 952.058 1427.56 954.752 1435.92C953.135 1418.11 952.058 1400.57 948.016 1383.3C948.016 1382.76 948.825 1382.49 948.825 1383.03C954.213 1402.19 954.482 1422.43 956.638 1442.13C957.176 1444.02 957.715 1445.91 957.985 1447.8C957.985 1448.34 957.715 1448.61 957.446 1448.34C957.985 1452.11 958.793 1456.16 959.601 1459.94C960.948 1465.88 962.295 1471.54 963.373 1477.48C963.912 1471.54 965.259 1466.15 966.875 1459.94C969.569 1447.53 969.03 1434.57 967.683 1421.89C965.528 1404.62 963.912 1380.61 951.788 1366.84C946.131 1360.37 938.318 1395.72 938.048 1398.15C937.509 1409.21 940.204 1420.54 943.167 1431.34C948.555 1450.5 958.793 1468.31 963.103 1487.46C963.373 1488.81 961.756 1489.08 961.218 1488C945.322 1449.96 921.075 1398.96 948.016 1361.45C948.286 1360.91 949.094 1360.91 949.633 1361.18C963.373 1368.19 965.797 1391.13 967.953 1404.62C969.569 1415.42 971.186 1425.94 971.455 1436.73C971.994 1452.65 965.797 1467.23 964.989 1482.88C969.839 1505 974.688 1527.13 980.076 1548.99C987.62 1579.21 1000.01 1607.81 1011.06 1636.69C1010.52 1626.16 1012.41 1615.1 1013.48 1604.85C1014.56 1594.59 1015.37 1584.34 1015.64 1574.35C1012.67 1540.35 992.2 1508.51 995.702 1473.7C995.702 1472.89 997.049 1473.16 997.049 1473.97C997.588 1496.91 1006.21 1519.31 1011.87 1541.97C1014.02 1509.32 1010.52 1476.13 995.702 1446.72C993.008 1441.32 989.506 1470.73 989.506 1468.58C988.697 1479.64 989.775 1490.7 991.661 1501.77C994.624 1518.77 1002.44 1533.34 1008.63 1549.26C1008.9 1550.07 1007.83 1550.34 1007.56 1549.8C994.624 1531.45 988.697 1507.7 986.811 1485.58C986.273 1479.1 985.195 1441.86 993.277 1439.7C993.816 1439.7 994.355 1439.7 994.624 1440.24C1003.78 1456.97 1009.98 1474.24 1012.67 1493.13C1014.29 1503.65 1014.29 1514.72 1013.48 1525.24C1012.94 1532.53 1014.56 1539.27 1012.67 1546.29C1013.75 1550.61 1014.56 1554.93 1015.37 1558.97C1015.37 1557.08 1015.37 1555.46 1015.37 1553.58C1014.83 1543.59 1016.18 1533.88 1019.14 1524.43C1018.87 1504.73 1020.49 1485.31 1031.26 1468.31C1039.35 1455.35 1052.55 1440.78 1068.71 1439.16C1068.98 1439.16 1069.52 1439.43 1069.79 1439.97C1072.48 1456.43 1064.4 1471.27 1056.59 1485.31C1051.74 1493.94 1047.16 1502.58 1041.77 1510.94C1035.57 1520.12 1026.15 1525.78 1019.95 1534.69C1018.87 1539 1018.33 1543.59 1018.06 1548.72C1017.25 1563.83 1018.6 1578.67 1016.99 1593.78C1016.72 1597.29 1016.18 1600.8 1015.91 1604.31C1021.3 1590.81 1030.73 1581.37 1041.77 1571.66C1050.93 1563.56 1060.36 1556.27 1068.71 1547.37C1075.18 1540.35 1079.22 1532.8 1087.3 1527.67C1088.38 1527.13 1089.19 1528.48 1088.38 1529.29C1074.1 1538.46 1065.48 1555.2 1052.01 1565.72C1052.01 1565.72 1052.01 1565.72 1051.74 1565.99C1057.67 1563.02 1063.59 1560.59 1068.44 1555.73C1068.71 1555.46 1069.25 1556 1068.98 1556.27C1063.59 1561.94 1056.05 1566.8 1048.24 1568.69C1040.69 1574.89 1033.96 1581.1 1028.03 1588.12C1041.5 1580.29 1053.89 1574.89 1066.02 1564.1C1078.95 1552.77 1087.57 1537.66 1094.31 1522C1098.08 1513.37 1069.25 1526.86 1068.98 1526.86C1061.71 1530.91 1055.51 1537.12 1050.12 1543.32C1038.27 1556.27 1032.88 1571.93 1025.61 1587.31C1025.34 1587.85 1024.26 1587.58 1024.53 1586.77C1031.8 1552.77 1061.17 1517.69 1097.27 1516.34C1098.08 1516.34 1098.62 1517.15 1098.35 1517.96C1091.88 1534.42 1083.53 1548.72 1071.41 1561.67C1058.2 1575.7 1043.39 1582.72 1026.15 1590.54C1026.15 1590.54 1026.15 1590.54 1025.88 1590.54C1021.57 1596.21 1018.06 1602.15 1015.1 1609.43C1013.75 1621.31 1012.67 1633.45 1014.02 1645.32C1022.64 1668.26 1029.92 1691.47 1032.88 1715.75C1033.15 1717.64 1030.19 1717.64 1029.92 1715.75C1027.49 1699.29 1023.45 1683.1 1018.33 1667.45C1014.02 1659.35 1004.32 1653.15 996.241 1648.29C995.971 1648.29 995.702 1648.29 995.702 1648.29C989.506 1643.97 978.729 1647.48 972.263 1649.1C966.336 1650.72 961.217 1653.69 955.56 1655.58C955.021 1655.85 954.752 1655.04 955.021 1654.77C959.062 1649.1 970.916 1647.21 977.113 1645.86C980.884 1645.05 986.003 1643.97 990.314 1644.78C990.044 1644.51 989.775 1644.51 989.506 1644.24C988.967 1643.97 988.428 1643.7 987.889 1643.43C974.419 1638.31 952.866 1641.01 948.825 1655.58C947.478 1659.89 946.131 1664.48 953.135 1663.13C958.254 1662.05 963.103 1659.62 967.414 1657.2C974.419 1653.42 980.884 1649.37 988.697 1647.21C989.775 1646.94 990.044 1648.29 989.236 1648.83C975.227 1654.5 962.565 1664.75 947.208 1666.37C946.669 1666.37 946.131 1665.83 946.131 1665.29C945.861 1655.85 947.747 1646.94 957.446 1643.16C964.989 1640.2 973.88 1638.85 981.962 1640.47C970.108 1633.72 958.254 1626.97 946.131 1620.5C945.861 1620.23 945.861 1619.69 946.4 1619.69C958.523 1623.47 969.839 1629.94 980.884 1636.69C972.802 1621.04 950.98 1612.94 934.546 1611.59C929.966 1611.32 925.117 1610.51 928.35 1616.18C931.044 1621.04 935.624 1624.81 940.204 1628.05C948.825 1633.99 959.601 1628.86 968.222 1633.72C969.03 1633.99 968.492 1635.07 967.683 1635.07C957.715 1633.18 948.016 1635.61 938.856 1630.48C932.121 1626.43 925.655 1619.42 923.77 1611.59C923.5 1611.05 923.77 1610.24 924.578 1610.24C943.706 1606.47 976.035 1617.8 982.501 1638.04C987.889 1641.55 993.277 1644.78 998.396 1648.29C1004.05 1651.8 1011.33 1656.39 1016.45 1662.05C1008.9 1639.39 999.474 1616.99 991.122 1594.32C986.273 1588.12 979.537 1585.15 974.419 1579.21C971.994 1577.32 969.3 1575.97 966.606 1574.89C956.907 1576.24 947.208 1582.99 937.24 1584.34C927.272 1585.69 916.495 1586.23 906.527 1585.96C890.632 1585.69 876.353 1579.75 868.81 1565.45C869.079 1563.83 869.349 1563.02 870.157 1562.75ZM1044.73 1502.31C1053.63 1487.73 1063.05 1472.35 1067.9 1455.89C1072.21 1440.78 1063.59 1440.51 1053.09 1447.8C1044.47 1453.73 1037.46 1463.45 1031.8 1472.08C1023.18 1485.85 1022.64 1501.77 1022.37 1517.42C1022.37 1517.42 1022.37 1517.15 1022.64 1517.15C1025.07 1511.48 1028.03 1506.62 1030.99 1501.77C1031.53 1499.07 1032.34 1496.1 1032.88 1493.4C1034.23 1488 1035.31 1482.61 1036.11 1477.21C1036.11 1476.67 1036.92 1476.94 1036.92 1477.21C1036.92 1483.15 1036.11 1489.62 1034.77 1495.83C1039.62 1487.73 1044.2 1479.64 1045.27 1469.11C1045.27 1468.31 1046.89 1468.31 1046.89 1469.38C1046.62 1479.91 1042.58 1488.27 1037.46 1497.18C1030.99 1508.24 1025.61 1517.69 1022.37 1528.48C1028.57 1519.31 1038.81 1512.02 1044.73 1502.31ZM878.239 1573C889.824 1585.15 911.646 1583.53 927.002 1581.64C939.126 1580.29 949.363 1579.21 960.409 1573.27C960.948 1573 961.487 1572.73 961.756 1572.47C953.405 1571.12 944.514 1571.66 936.432 1571.39C921.075 1570.85 905.18 1571.39 890.632 1566.26C890.093 1565.99 890.363 1565.18 890.902 1565.45C907.336 1568.69 924.039 1570.04 940.742 1570.31C935.624 1568.69 931.044 1565.45 926.733 1563.02C926.464 1562.75 926.733 1562.21 927.002 1562.48C929.966 1563.83 932.929 1565.18 935.624 1566.26C938.856 1567.61 942.359 1568.69 945.592 1570.31C945.592 1570.31 945.861 1570.31 945.861 1570.58C947.747 1570.58 949.363 1570.58 951.249 1570.58C953.674 1570.58 956.368 1570.58 958.793 1570.85C950.711 1568.96 943.706 1564.64 936.162 1560.86C922.692 1554.12 909.221 1556.27 894.943 1559.51C886.052 1561.13 867.463 1561.4 878.239 1573Z" fill="#E0BBA9"/>
<path d="M956.099 1388.43C960.679 1403.81 960.948 1420.27 960.14 1436.19C960.14 1436.73 959.332 1436.73 959.332 1436.19C958.523 1420 958.523 1404.35 955.56 1388.43C955.56 1388.16 956.099 1388.16 956.099 1388.43Z" fill="#E0BBA9"/>
<path d="M888.477 1420C897.906 1429.99 906.527 1440.78 914.879 1451.3C915.148 1451.57 914.61 1452.11 914.34 1451.84C904.911 1442.13 895.751 1431.34 887.938 1420.54C887.669 1420 888.208 1419.73 888.477 1420Z" fill="#E0BBA9"/>
<path d="M902.756 1517.42C894.943 1511.21 887.399 1504.73 880.125 1498.26C879.586 1497.99 880.395 1497.18 880.664 1497.72C888.207 1504.19 896.29 1510.13 903.294 1517.15C903.833 1517.42 903.294 1517.96 902.756 1517.42Z" fill="#E0BBA9"/>
<path d="M900.331 1563.56C908.413 1564.64 916.765 1564.91 924.308 1567.61C924.847 1567.88 924.578 1568.42 924.039 1568.42C915.957 1567.07 908.144 1565.72 900.061 1564.64C899.523 1564.64 899.792 1563.56 900.331 1563.56Z" fill="#E0BBA9"/>
<path d="M957.715 1629.13C950.441 1627.51 942.898 1622.66 938.318 1616.99C938.048 1616.72 938.587 1616.18 938.857 1616.45C941.82 1618.88 944.784 1621.31 948.286 1623.47C951.519 1625.35 954.752 1626.7 957.985 1628.32C958.523 1628.59 958.254 1629.4 957.715 1629.13Z" fill="#E0BBA9"/>
<path d="M1055.24 1457.24C1055.51 1456.97 1056.05 1456.97 1056.05 1457.51C1052.28 1468.31 1052.01 1480.99 1046.08 1490.7C1045.81 1491.24 1044.73 1490.97 1045 1490.43C1048.51 1479.64 1050.12 1467.5 1055.24 1457.24Z" fill="#E0BBA9"/>
<path d="M1078.14 1529.83C1072.21 1538.73 1062.52 1543.86 1055.51 1551.69C1055.24 1551.96 1054.7 1551.69 1054.97 1551.15C1060.9 1542.24 1071.41 1537.93 1077.33 1529.29C1077.6 1528.75 1078.41 1529.29 1078.14 1529.83Z" fill="#E0BBA9"/>
<path d="M998.127 1463.18C1000.55 1473.97 1003.25 1485.04 1004.05 1496.1C1004.05 1496.64 1003.25 1496.91 1002.98 1496.37C1000.55 1485.57 999.204 1474.51 997.049 1463.45C997.049 1462.91 997.857 1462.64 998.127 1463.18Z" fill="#E0BBA9"/>
</svg>
