<svg width="1216" height="4744" viewBox="0 0 1216 4744" fill="none" xmlns="http://www.w3.org/2000/svg">
<path d="M441.672 2904.87C411.958 2898.61 377.553 2883.99 346.796 2887.64C314.476 2891.3 289.454 2914.27 257.655 2920.01C256.612 2920.01 256.612 2921.58 257.655 2922.1C257.134 2922.1 256.612 2922.63 255.57 2922.63C254.006 2922.63 252.442 2923.15 250.357 2923.15C249.314 2923.15 249.314 2924.19 249.314 2924.71C247.75 2925.24 246.708 2925.76 245.144 2926.8C259.219 2906.96 270.687 2885.55 288.933 2868.85C309.263 2850.57 333.243 2837 355.658 2821.85C372.34 2810.37 380.68 2792.09 401.532 2785.3C402.054 2785.3 402.054 2784.26 401.532 2784.26C387.979 2783.74 379.117 2794.7 369.733 2803.58C353.052 2819.76 333.243 2831.77 313.955 2844.83C319.689 2839.08 324.381 2832.3 330.115 2826.55C336.892 2819.24 344.19 2811.93 349.924 2803.58C350.445 2803.06 349.403 2802.01 348.882 2802.53C340.541 2808.28 334.285 2816.63 327.508 2823.42C319.689 2832.3 310.827 2841.17 304.05 2851.09C289.454 2861.54 278.507 2872.5 268.602 2885.03C282.677 2842.22 322.817 2804.62 361.393 2782.17C373.904 2774.86 387.979 2770.68 401.532 2764.42C406.745 2761.81 452.098 2741.97 450.013 2750.32C440.629 2790 398.405 2828.64 365.563 2850.05C339.498 2866.76 306.657 2855.79 283.72 2875.63C282.156 2877.2 284.241 2879.81 285.805 2878.77C305.093 2867.28 328.03 2870.93 348.36 2864.67C365.042 2859.45 380.159 2847.44 393.713 2835.95C420.82 2812.98 448.97 2779.56 456.789 2744.06C457.311 2742.49 456.268 2740.92 454.183 2740.92C439.587 2740.92 426.033 2747.71 413.001 2753.45C392.149 2763.37 370.255 2771.73 350.445 2783.22C313.955 2804.62 271.73 2846.39 264.432 2889.21C264.432 2889.73 264.432 2889.73 264.432 2890.25C259.74 2896.52 254.527 2903.31 249.836 2911.14C239.931 2926.8 223.25 2936.2 211.26 2949.25C219.601 2926.28 227.42 2902.78 233.154 2878.77C233.154 2878.24 233.154 2878.24 233.154 2877.72C234.197 2878.24 235.761 2877.72 236.282 2876.16C246.187 2850.05 265.474 2826.55 278.507 2801.49C292.582 2775.38 307.699 2750.84 328.03 2728.91C342.105 2713.77 358.265 2700.2 373.382 2686.1C390.064 2676.7 403.096 2662.08 417.171 2649.03C418.214 2648.5 416.65 2646.94 416.128 2647.98C405.703 2656.86 395.798 2665.73 385.372 2674.09C404.66 2653.73 421.863 2631.27 439.587 2609.87C440.629 2608.3 438.544 2606.21 436.98 2607.78C415.086 2632.84 394.234 2658.95 371.297 2682.97C351.488 2703.33 329.594 2720.56 310.827 2741.97C308.221 2745.1 305.093 2748.75 302.486 2752.41C316.561 2717.43 334.807 2686.62 360.871 2658.43C383.808 2632.84 419.778 2600.99 452.619 2589.5C474.513 2581.67 446.885 2622.92 443.757 2627.1C434.374 2640.67 423.427 2652.68 413.001 2665.21C390.064 2695.5 355.137 2709.07 327.508 2734.13C325.945 2735.7 328.03 2738.83 330.115 2737.79C385.372 2701.24 453.14 2657.9 470.864 2588.98C471.386 2587.41 470.343 2585.85 468.779 2585.85C435.416 2582.19 399.447 2619.26 377.031 2639.63C339.498 2672.52 311.348 2716.9 297.273 2764.42V2764.94C287.369 2779.56 279.028 2795.75 270.687 2810.89C260.783 2829.16 247.75 2845.87 237.846 2864.67C246.187 2830.21 253.485 2795.22 260.261 2760.24C260.783 2760.24 261.304 2759.72 261.304 2759.2C261.304 2757.63 261.304 2756.59 261.304 2755.54C263.911 2743.53 266.517 2731 269.123 2718.99C272.251 2704.37 274.336 2689.75 275.9 2675.13C284.241 2654.25 291.018 2632.84 297.273 2611.43C297.795 2610.39 295.71 2609.87 295.71 2610.91C289.975 2627.1 283.198 2643.28 277.985 2659.47C281.113 2625.01 283.198 2591.07 291.018 2557.65C291.018 2556.61 289.454 2556.09 289.454 2557.13C279.028 2594.2 278.507 2633.36 274.336 2671.48C273.294 2675.13 272.251 2678.79 271.73 2682.44C271.73 2683.49 272.251 2684.01 272.773 2683.49C271.73 2690.8 270.166 2698.63 268.602 2705.94C265.996 2717.43 263.389 2728.39 261.304 2739.88C260.261 2728.39 257.655 2717.95 254.527 2705.94C249.314 2681.92 250.357 2656.86 252.963 2632.32C257.134 2598.9 260.261 2552.43 283.72 2525.8C294.667 2513.27 309.784 2581.67 310.306 2586.37C311.348 2607.78 306.135 2629.71 300.401 2650.59C289.975 2687.66 270.166 2722.13 261.825 2759.2C261.304 2761.81 264.432 2762.33 265.474 2760.24C296.231 2686.62 343.147 2587.94 291.018 2515.36C290.497 2514.32 288.933 2514.32 287.89 2514.84C261.304 2528.41 256.612 2572.79 252.442 2598.9C249.314 2619.79 246.187 2640.15 245.665 2661.04C244.623 2691.84 256.612 2720.04 258.176 2750.32C248.793 2793.14 239.41 2835.95 228.984 2878.24C214.388 2936.72 190.408 2992.07 169.035 3047.94C170.078 3027.57 166.429 3006.17 164.343 2986.33C162.258 2966.48 160.694 2946.64 160.173 2927.32C165.907 2861.54 205.526 2799.92 198.749 2732.57C198.749 2731 196.142 2731.52 196.142 2733.09C195.1 2777.47 178.418 2820.81 167.471 2864.67C163.301 2801.49 170.078 2737.27 198.749 2680.35C203.962 2669.91 210.739 2726.82 210.739 2722.65C212.302 2744.06 210.217 2765.46 206.568 2786.87C200.834 2819.76 185.716 2847.96 173.727 2878.77C173.205 2880.33 175.291 2880.85 175.812 2879.81C200.834 2844.3 212.302 2798.36 215.951 2755.54C216.994 2743.01 219.079 2670.96 203.44 2666.78C202.398 2666.78 201.355 2666.78 200.834 2667.82C183.11 2700.2 171.12 2733.61 165.907 2770.16C162.779 2790.53 162.779 2811.93 164.343 2832.3C165.386 2846.39 162.258 2859.45 165.907 2873.02C163.822 2881.38 162.258 2889.73 160.694 2897.56C160.694 2893.91 160.694 2890.77 160.694 2887.12C161.737 2867.8 159.13 2849 153.396 2830.73C153.917 2792.61 150.79 2755.02 129.938 2722.13C114.299 2697.06 88.7556 2668.87 57.478 2665.73C56.9567 2665.73 55.9141 2666.26 55.3928 2667.3C50.1799 2699.15 65.8187 2727.87 80.9362 2755.02C90.3195 2771.73 99.1815 2788.44 109.607 2804.62C121.597 2822.38 139.842 2833.34 151.832 2850.57C153.917 2858.92 154.96 2867.8 155.481 2877.72C157.045 2906.96 154.439 2935.68 157.567 2964.92C158.088 2971.71 159.13 2978.49 159.652 2985.28C149.226 2959.17 130.98 2940.9 109.607 2922.1C91.8834 2906.44 73.6381 2892.34 57.478 2875.11C44.9669 2861.54 37.1475 2846.92 21.5087 2837C19.4235 2835.95 17.8596 2838.56 19.4235 2840.13C47.0521 2857.88 63.7335 2890.25 89.7982 2910.62C89.7982 2910.62 89.7982 2910.62 90.3195 2911.14C78.8511 2905.39 67.3826 2900.7 57.9993 2891.3C57.478 2890.77 56.4354 2891.82 56.9567 2892.34C67.3826 2903.31 81.9788 2912.7 97.0964 2916.36C111.693 2928.37 124.725 2940.38 136.193 2953.95C110.129 2938.81 86.1492 2928.37 62.6909 2907.48C37.6688 2885.55 20.9874 2856.31 7.95502 2826.03C0.656899 2809.32 56.4354 2835.43 56.9567 2835.43C71.0316 2843.26 83.0214 2855.27 93.4473 2867.28C116.384 2892.34 126.81 2922.63 140.885 2952.39C141.406 2953.43 143.492 2952.91 142.97 2951.34C128.895 2885.55 72.0742 2817.68 2.22078 2815.07C0.656899 2815.07 -0.38569 2816.63 0.135604 2818.2C12.6467 2850.05 28.8068 2877.72 52.265 2902.78C77.8085 2929.94 106.48 2943.51 139.842 2958.65C139.842 2958.65 139.842 2958.65 140.364 2958.65C148.705 2969.62 155.481 2981.1 161.216 2995.2C163.822 3018.18 165.907 3041.67 163.301 3064.65C146.619 3109.03 132.544 3153.93 126.81 3200.92C126.289 3204.58 132.023 3204.58 132.544 3200.92C137.236 3169.07 145.055 3137.74 154.96 3107.46C163.301 3091.8 182.067 3079.79 197.706 3070.39C198.227 3070.39 198.749 3070.39 198.749 3070.39C210.739 3062.03 231.59 3068.82 244.101 3071.96C255.57 3075.09 265.474 3080.83 276.422 3084.49C277.464 3085.01 277.985 3083.44 277.464 3082.92C269.645 3071.96 246.708 3068.3 234.718 3065.69C227.42 3064.12 217.515 3062.04 209.175 3063.6C209.696 3063.08 210.217 3063.08 210.739 3062.56C211.781 3062.03 212.824 3061.51 213.866 3060.99C239.931 3051.07 281.635 3056.29 289.454 3084.49C292.06 3092.84 294.667 3101.72 281.113 3099.11C271.209 3097.02 261.825 3092.32 253.485 3087.62C239.931 3080.31 227.42 3072.48 212.302 3068.3C210.217 3067.78 209.696 3070.39 211.26 3071.43C238.367 3082.4 262.868 3102.24 292.582 3105.37C293.624 3105.37 294.667 3104.33 294.667 3103.28C295.188 3085.01 291.539 3067.78 272.773 3060.47C258.176 3054.73 240.974 3052.11 225.335 3055.25C248.272 3042.19 271.209 3029.14 294.667 3016.61C295.188 3016.09 295.188 3015.04 294.146 3015.04C270.687 3022.35 248.793 3034.88 227.42 3047.94C243.059 3017.65 285.284 3001.99 317.083 2999.38C325.945 2998.86 335.328 2997.29 329.072 3008.26C323.859 3017.65 314.997 3024.96 306.135 3031.23C289.454 3042.72 268.602 3032.8 251.921 3042.19C250.357 3042.72 251.399 3044.8 252.963 3044.8C272.251 3041.15 291.018 3045.85 308.742 3035.93C321.774 3028.1 334.285 3014.52 337.934 2999.38C338.456 2998.33 337.934 2996.77 336.37 2996.77C299.359 2989.46 236.803 3011.39 224.292 3050.55C213.866 3057.34 203.44 3063.6 193.536 3070.39C182.589 3077.18 168.514 3086.05 158.609 3097.02C173.205 3053.16 191.451 3009.82 207.611 2965.96C216.994 2953.95 230.026 2948.21 239.931 2936.72C244.623 2933.07 249.836 2930.46 255.049 2928.37C273.815 2930.98 292.582 2944.03 311.87 2946.64C331.158 2949.25 352.009 2950.3 371.297 2949.78C402.054 2949.25 429.682 2937.77 444.278 2910.09C443.757 2906.96 443.236 2905.39 441.672 2904.87ZM103.873 2787.91C86.6705 2759.72 68.4252 2729.96 59.0419 2698.11C50.7012 2668.87 67.3826 2668.35 87.7131 2682.44C104.394 2693.93 117.948 2712.73 128.895 2729.44C145.577 2756.06 146.619 2786.87 147.141 2817.15C147.141 2817.15 147.141 2816.63 146.619 2816.63C141.928 2805.67 136.193 2796.27 130.459 2786.87C129.417 2781.65 127.853 2775.91 126.81 2770.68C124.204 2760.24 122.118 2749.8 120.555 2739.36C120.555 2738.31 118.991 2738.83 118.991 2739.36C118.991 2750.84 120.555 2763.37 123.161 2775.38C113.778 2759.72 104.916 2744.06 102.831 2723.69C102.831 2722.13 99.7028 2722.13 99.7028 2724.21C100.224 2744.58 108.044 2760.76 117.948 2777.99C130.459 2799.4 140.885 2817.68 147.141 2838.56C135.151 2820.81 115.342 2806.71 103.873 2787.91ZM426.033 2924.71C403.617 2948.21 361.393 2945.08 331.679 2941.42C308.221 2938.81 288.411 2936.72 267.038 2925.24C265.996 2924.71 264.953 2924.19 264.432 2923.67C280.592 2921.06 297.795 2922.1 313.434 2921.58C343.147 2920.54 373.904 2921.58 402.054 2911.66C403.096 2911.14 402.575 2909.57 401.532 2910.09C369.733 2916.36 337.413 2918.97 305.093 2919.49C314.997 2916.36 323.859 2910.09 332.2 2905.39C332.721 2904.87 332.2 2903.83 331.679 2904.35C325.945 2906.96 320.21 2909.57 314.997 2911.66C308.742 2914.27 301.965 2916.36 295.71 2919.49C295.71 2919.49 295.188 2919.49 295.188 2920.01C291.539 2920.01 288.411 2920.01 284.762 2920.01C280.071 2920.01 274.858 2920.01 270.166 2920.54C285.805 2916.88 299.359 2908.53 313.955 2901.22C340.02 2888.16 366.084 2892.34 393.713 2898.61C410.916 2901.74 446.885 2902.26 426.033 2924.71Z" fill="#E0BBA9"/>
<path d="M275.379 2567.57C266.517 2597.34 265.996 2629.19 267.56 2659.99C267.56 2661.04 269.124 2661.04 269.124 2659.99C270.688 2628.66 270.688 2598.38 276.422 2567.57C276.422 2567.05 275.379 2567.05 275.379 2567.57Z" fill="#E0BBA9"/>
<path d="M406.224 2628.66C387.979 2647.98 371.297 2668.87 355.137 2689.23C354.616 2689.75 355.658 2690.8 356.18 2690.27C374.425 2671.48 392.149 2650.59 407.266 2629.71C407.788 2628.66 406.745 2628.14 406.224 2628.66Z" fill="#E0BBA9"/>
<path d="M378.595 2817.15C393.713 2805.14 408.309 2792.61 422.384 2780.08C423.427 2779.56 421.863 2777.99 421.342 2779.04C406.745 2791.57 391.106 2803.06 377.553 2816.63C376.51 2817.15 377.553 2818.2 378.595 2817.15Z" fill="#E0BBA9"/>
<path d="M383.287 2906.44C367.648 2908.53 351.488 2909.05 336.892 2914.27C335.849 2914.79 336.371 2915.84 337.413 2915.84C353.052 2913.23 368.17 2910.62 383.808 2908.53C384.851 2908.53 384.33 2906.44 383.287 2906.44Z" fill="#E0BBA9"/>
<path d="M272.251 3033.32C286.326 3030.19 300.922 3020.79 309.784 3009.82C310.306 3009.3 309.263 3008.26 308.742 3008.78C303.008 3013.48 297.273 3018.18 290.497 3022.35C284.241 3026.01 277.985 3028.62 271.73 3031.75C270.687 3032.27 271.209 3033.84 272.251 3033.32Z" fill="#E0BBA9"/>
<path d="M83.5426 2700.72C83.0214 2700.2 81.9788 2700.2 81.9788 2701.24C89.2769 2722.13 89.7982 2746.67 101.267 2765.46C101.788 2766.51 103.873 2765.98 103.352 2764.94C96.575 2744.06 93.4472 2720.56 83.5426 2700.72Z" fill="#E0BBA9"/>
<path d="M39.2328 2841.17C50.7013 2858.4 69.4679 2868.32 83.0215 2883.47C83.5428 2883.99 84.5854 2883.47 84.0641 2882.42C72.5956 2865.19 52.2651 2856.84 40.7967 2840.13C40.2754 2839.08 38.7115 2840.13 39.2328 2841.17Z" fill="#E0BBA9"/>
<path d="M194.057 2712.2C189.365 2733.09 184.152 2754.5 182.589 2775.9C182.589 2776.95 184.152 2777.47 184.674 2776.43C189.365 2755.54 191.972 2734.13 196.142 2712.73C196.142 2711.68 194.578 2711.16 194.057 2712.2Z" fill="#E0BBA9"/>
<path d="M1186.67 390.377C1156.96 384.112 1122.55 369.492 1091.8 373.147C1059.48 376.802 1034.45 399.776 1002.66 405.519C1001.61 405.519 1001.61 407.086 1002.66 407.608C1002.13 407.608 1001.61 408.13 1000.57 408.13C999.006 408.13 997.442 408.652 995.357 408.652C994.314 408.652 994.314 409.696 994.314 410.219C992.75 410.741 991.708 411.263 990.144 412.307C1004.22 392.466 1015.69 371.058 1033.93 354.35C1054.26 336.075 1078.24 322.5 1100.66 307.358C1117.34 295.871 1125.68 277.596 1146.53 270.809C1147.05 270.809 1147.05 269.764 1146.53 269.764C1132.98 269.242 1124.12 280.207 1114.73 289.083C1098.05 305.269 1078.24 317.279 1058.95 330.332C1064.69 324.588 1069.38 317.801 1075.11 312.057C1081.89 304.747 1089.19 297.437 1094.92 289.083C1095.45 288.561 1094.4 287.517 1093.88 288.039C1085.54 293.783 1079.29 302.137 1072.51 308.924C1064.69 317.801 1055.83 326.677 1049.05 336.598C1034.45 347.04 1023.51 358.005 1013.6 370.536C1027.68 327.721 1067.82 290.128 1106.39 267.676C1118.9 260.366 1132.98 256.189 1146.53 249.923C1151.75 247.313 1197.1 227.471 1195.01 235.826C1185.63 275.508 1143.4 314.146 1110.56 335.553C1084.5 352.262 1051.66 341.297 1028.72 361.138C1027.16 362.704 1029.24 365.315 1030.8 364.271C1050.09 352.784 1073.03 356.439 1093.36 350.173C1110.04 344.952 1125.16 332.943 1138.71 321.456C1165.82 298.482 1193.97 265.065 1201.79 229.56C1202.31 227.994 1201.27 226.427 1199.18 226.427C1184.59 226.427 1171.03 233.215 1158 238.958C1137.15 248.879 1115.25 257.233 1095.45 268.72C1058.95 290.128 1016.73 331.898 1009.43 374.713C1009.43 375.236 1009.43 375.235 1009.43 375.758C1004.74 382.023 999.527 388.811 994.836 396.643C984.931 412.307 968.25 421.705 956.26 434.759C964.601 411.785 972.42 388.289 978.154 364.271C978.154 363.749 978.154 363.749 978.154 363.226C979.197 363.749 980.761 363.226 981.282 361.66C991.187 335.553 1010.47 312.057 1023.51 286.995C1037.58 260.888 1052.7 236.348 1073.03 214.418C1087.1 199.276 1103.26 185.701 1118.38 171.603C1135.06 162.205 1148.1 147.585 1162.17 134.532C1163.21 134.009 1161.65 132.443 1161.13 133.487C1150.7 142.364 1140.8 151.24 1130.37 159.594C1149.66 139.231 1166.86 116.779 1184.59 95.3714C1185.63 93.805 1183.54 91.7165 1181.98 93.2829C1160.09 118.345 1139.23 144.452 1116.3 168.47C1096.49 188.833 1074.59 206.064 1055.83 227.471C1053.22 230.604 1050.09 234.259 1047.49 237.914C1061.56 202.931 1079.81 172.125 1105.87 143.93C1128.81 118.345 1164.78 86.4952 1197.62 75.0082C1219.51 67.1762 1191.88 108.425 1188.76 112.602C1179.37 126.177 1168.43 138.186 1158 150.718C1135.06 181.002 1100.14 194.577 1072.51 219.639C1070.94 221.206 1073.03 224.339 1075.11 223.294C1130.37 186.745 1198.14 143.408 1215.86 74.486C1216.39 72.9196 1215.34 71.3532 1213.78 71.3532C1180.42 67.6983 1144.45 104.77 1122.03 125.133C1084.5 158.028 1056.35 202.409 1042.27 249.923V250.445C1032.37 265.065 1024.03 281.251 1015.69 296.393C1005.78 314.668 992.75 331.376 982.846 350.173C991.187 315.712 998.485 280.729 1005.26 245.746C1005.78 245.746 1006.3 245.224 1006.3 244.702C1006.3 243.135 1006.3 242.091 1006.3 241.047C1008.91 229.038 1011.52 216.507 1014.12 204.498C1017.25 189.878 1019.34 175.258 1020.9 160.638C1029.24 139.753 1036.02 118.345 1042.27 96.9378C1042.79 95.8936 1040.71 95.3714 1040.71 96.4157C1034.98 112.602 1028.2 128.788 1022.99 144.974C1026.11 110.513 1028.2 76.5746 1036.02 43.158C1036.02 42.1137 1034.45 41.5916 1034.45 42.6359C1024.03 79.7074 1023.51 118.867 1019.34 156.983C1018.29 160.638 1017.25 164.293 1016.73 167.948C1016.73 168.992 1017.25 169.515 1017.77 168.992C1016.73 176.302 1015.17 184.134 1013.6 191.444C1011 202.931 1008.39 213.896 1006.3 225.383C1005.26 213.896 1002.66 203.453 999.527 191.444C994.314 167.426 995.357 142.364 997.963 117.823C1002.13 84.4066 1005.26 37.9366 1028.72 11.3078C1039.67 -1.22344 1054.78 67.1762 1055.31 71.8754C1056.35 93.2829 1051.14 115.213 1045.4 136.098C1034.98 173.169 1015.17 207.63 1006.83 244.702C1006.3 247.313 1009.43 247.835 1010.47 245.746C1041.23 172.125 1088.15 73.4418 1036.02 0.865096C1035.5 -0.179173 1033.93 -0.179165 1032.89 0.342969C1006.3 13.9185 1001.61 58.2999 997.442 84.4066C994.314 105.292 991.187 125.655 990.665 146.541C989.623 177.347 1001.61 205.542 1003.18 235.826C993.793 278.641 984.41 321.456 973.984 363.749C959.388 422.228 935.408 477.574 914.035 533.442C915.078 513.079 911.429 491.672 909.343 471.83C907.258 451.989 905.694 432.148 905.173 412.829C910.907 347.04 950.526 285.428 943.749 218.073C943.749 216.507 941.142 217.029 941.142 218.595C940.1 262.977 923.418 306.314 912.471 350.173C908.301 286.995 915.078 222.772 943.749 165.86C948.962 155.417 955.739 212.33 955.739 208.152C957.302 229.56 955.217 250.967 951.568 272.375C945.834 305.269 930.716 333.465 918.727 364.271C918.205 365.837 920.291 366.359 920.812 365.315C945.834 329.81 957.302 283.862 960.951 241.047C961.994 228.516 964.079 156.461 948.44 152.284C947.398 152.284 946.355 152.284 945.834 153.328C928.11 185.701 916.12 219.117 910.907 255.667C907.779 276.03 907.779 297.437 909.343 317.801C910.386 331.898 907.258 344.952 910.907 358.527C908.822 366.881 907.258 375.236 905.694 383.068C905.694 379.413 905.694 376.28 905.694 372.625C906.737 353.306 904.13 334.509 898.396 316.234C898.917 278.118 895.79 240.525 874.938 207.63C859.299 182.568 833.756 154.373 802.478 151.24C801.957 151.24 800.914 151.762 800.393 152.806C795.18 184.656 810.819 213.374 825.936 240.525C835.32 257.233 844.182 273.941 854.607 290.128C866.597 307.88 884.842 318.845 896.832 336.075C898.917 344.43 899.96 353.306 900.481 363.226C902.045 392.466 899.439 421.183 902.567 450.423C903.088 457.211 904.13 463.998 904.652 470.786C894.226 444.679 875.98 426.405 854.607 407.608C836.883 391.944 818.638 377.846 802.478 360.616C789.967 347.04 782.148 332.42 766.509 322.5C764.423 321.456 762.86 324.066 764.423 325.633C792.052 343.385 808.734 375.758 834.798 396.121C834.798 396.121 834.798 396.121 835.32 396.643C823.851 390.9 812.383 386.2 802.999 376.802C802.478 376.28 801.435 377.324 801.957 377.846C812.383 388.811 826.979 398.209 842.096 401.864C856.693 413.873 869.725 425.883 881.193 439.458C855.129 424.316 831.149 413.873 807.691 392.988C782.669 371.058 765.987 341.819 752.955 311.535C745.657 294.827 801.435 320.934 801.957 320.934C816.032 328.766 828.021 340.775 838.447 352.784C861.384 377.846 871.81 408.13 885.885 437.892C886.406 438.936 888.492 438.414 887.97 436.847C873.895 371.058 817.074 303.181 747.221 300.57C745.657 300.57 744.614 302.137 745.136 303.703C757.647 335.553 773.807 363.226 797.265 388.289C822.808 415.44 851.48 429.015 884.842 444.157C884.842 444.157 884.842 444.157 885.364 444.157C893.705 455.122 900.481 466.609 906.216 480.707C908.822 503.681 910.907 527.177 908.301 550.151C891.619 594.532 877.544 639.436 871.81 686.428C871.289 690.083 877.023 690.083 877.544 686.428C882.236 654.577 890.055 623.249 899.96 592.966C908.301 577.302 927.067 565.292 942.706 555.894C943.227 555.894 943.749 555.894 943.749 555.894C955.739 547.54 976.59 554.328 989.101 557.46C1000.57 560.593 1010.47 566.337 1021.42 569.992C1022.46 570.514 1022.99 568.947 1022.46 568.425C1014.64 557.46 991.708 553.805 979.718 551.195C972.42 549.628 962.515 547.54 954.175 549.106C954.696 548.584 955.217 548.584 955.739 548.062C956.781 547.54 957.824 547.018 958.866 546.496C984.931 536.575 1026.63 541.796 1034.45 569.992C1037.06 578.346 1039.67 587.222 1026.11 584.611C1016.21 582.523 1006.83 577.824 998.485 573.124C984.931 565.815 972.42 557.983 957.302 553.805C955.217 553.283 954.696 555.894 956.26 556.938C983.367 567.903 1007.87 587.744 1037.58 590.877C1038.62 590.877 1039.67 589.833 1039.67 588.788C1040.19 570.514 1036.54 553.283 1017.77 545.973C1003.18 540.23 985.974 537.619 970.335 540.752C993.272 527.699 1016.21 514.645 1039.67 502.114C1040.19 501.592 1040.19 500.548 1039.15 500.548C1015.69 507.858 993.793 520.389 972.42 533.442C988.059 503.158 1030.28 487.494 1062.08 484.884C1070.94 484.362 1080.33 482.795 1074.07 493.76C1068.86 503.158 1060 510.468 1051.14 516.734C1034.45 528.221 1013.6 518.3 996.921 527.699C995.357 528.221 996.399 530.309 997.963 530.309C1017.25 526.655 1036.02 531.354 1053.74 521.433C1066.77 513.601 1079.29 500.026 1082.93 484.884C1083.46 483.839 1082.93 482.273 1081.37 482.273C1044.36 474.963 981.803 496.893 969.292 536.053C958.866 542.841 948.44 549.106 938.536 555.894C927.589 562.682 913.514 571.558 903.609 582.523C918.205 538.664 936.451 495.326 952.611 451.467C961.994 439.458 975.026 433.715 984.931 422.228C989.623 418.573 994.836 415.962 1000.05 413.873C1018.82 416.484 1037.58 429.537 1056.87 432.148C1076.16 434.759 1097.01 435.803 1116.3 435.281C1147.05 434.759 1174.68 423.272 1189.28 395.599C1188.76 392.466 1188.24 390.9 1186.67 390.377ZM848.873 273.419C831.67 245.224 813.425 215.462 804.042 183.612C795.701 154.373 812.383 153.85 832.713 167.948C849.394 179.435 862.948 198.232 873.895 214.94C890.577 241.569 891.619 272.375 892.141 302.659C892.141 302.659 892.141 302.137 891.619 302.137C886.928 291.172 881.193 281.773 875.459 272.375C874.417 267.154 872.853 261.41 871.81 256.189C869.204 245.746 867.118 235.303 865.555 224.861C865.555 223.817 863.991 224.339 863.991 224.861C863.991 236.348 865.555 248.879 868.161 260.888C858.778 245.224 849.916 229.56 847.831 209.197C847.831 207.63 844.703 207.63 844.703 209.719C845.224 230.082 853.044 246.268 862.948 263.499C875.459 284.906 885.885 303.181 892.141 324.066C880.151 306.314 860.342 292.216 848.873 273.419ZM1171.03 410.219C1148.62 433.715 1106.39 430.582 1076.68 426.927C1053.22 424.316 1033.41 422.228 1012.04 410.741C1011 410.219 1009.95 409.696 1009.43 409.174C1025.59 406.564 1042.79 407.608 1058.43 407.086C1088.15 406.041 1118.9 407.086 1147.05 397.165C1148.1 396.643 1147.57 395.077 1146.53 395.599C1114.73 401.864 1082.41 404.475 1050.09 404.997C1060 401.864 1068.86 395.599 1077.2 390.9C1077.72 390.377 1077.2 389.333 1076.68 389.855C1070.94 392.466 1065.21 395.077 1060 397.165C1053.74 399.776 1046.97 401.864 1040.71 404.997C1040.71 404.997 1040.19 404.997 1040.19 405.519C1036.54 405.519 1033.41 405.519 1029.76 405.519C1025.07 405.519 1019.86 405.519 1015.17 406.041C1030.8 402.386 1044.36 394.032 1058.95 386.722C1085.02 373.669 1111.08 377.846 1138.71 384.112C1155.92 387.245 1191.88 387.767 1171.03 410.219Z" fill="#E0BBA9"/>
<path d="M1020.38 53.0791C1011.52 82.8408 1011 114.691 1012.56 145.497C1012.56 146.541 1014.12 146.541 1014.12 145.497C1015.69 114.169 1015.69 83.885 1021.42 53.0791C1021.42 52.557 1020.38 52.557 1020.38 53.0791Z" fill="#E0BBA9"/>
<path d="M1151.22 114.168C1132.98 133.487 1116.3 154.372 1100.14 174.735C1099.62 175.257 1100.66 176.302 1101.18 175.78C1119.42 156.983 1137.15 136.097 1152.27 115.212C1152.79 114.168 1151.75 113.646 1151.22 114.168Z" fill="#E0BBA9"/>
<path d="M1123.6 302.658C1138.71 290.649 1153.31 278.118 1167.38 265.587C1168.43 265.065 1166.86 263.498 1166.34 264.542C1151.75 277.074 1136.11 288.561 1122.55 302.136C1121.51 302.658 1122.55 303.703 1123.6 302.658Z" fill="#E0BBA9"/>
<path d="M1128.29 391.943C1112.65 394.032 1096.49 394.554 1081.89 399.775C1080.85 400.298 1081.37 401.342 1082.41 401.342C1098.05 398.731 1113.17 396.12 1128.81 394.032C1129.85 394.032 1129.33 391.943 1128.29 391.943Z" fill="#E0BBA9"/>
<path d="M1017.25 518.823C1031.33 515.69 1045.92 506.292 1054.78 495.327C1055.31 494.805 1054.26 493.761 1053.74 494.283C1048.01 498.982 1042.27 503.681 1035.5 507.858C1029.24 511.513 1022.99 514.124 1016.73 517.257C1015.69 517.779 1016.21 519.345 1017.25 518.823Z" fill="#E0BBA9"/>
<path d="M828.543 186.223C828.021 185.701 826.979 185.701 826.979 186.745C834.277 207.63 834.798 232.171 846.267 250.968C846.788 252.012 848.873 251.49 848.352 250.445C841.575 229.56 838.447 206.064 828.543 186.223Z" fill="#E0BBA9"/>
<path d="M784.233 326.677C795.701 343.908 814.468 353.829 828.022 368.97C828.543 369.493 829.585 368.97 829.064 367.926C817.596 350.696 797.265 342.342 785.797 325.633C785.275 324.589 783.712 325.633 784.233 326.677Z" fill="#E0BBA9"/>
<path d="M939.057 197.709C934.365 218.595 929.152 240.002 927.589 261.41C927.589 262.454 929.152 262.976 929.674 261.932C934.365 241.046 936.972 219.639 941.142 198.231C941.142 197.187 939.578 196.665 939.057 197.709Z" fill="#E0BBA9"/>
<path d="M659.672 4444.38C629.958 4438.11 595.553 4423.49 564.796 4427.15C532.476 4430.8 507.454 4453.78 475.655 4459.52C474.612 4459.52 474.612 4461.09 475.655 4461.61C475.134 4461.61 474.612 4462.13 473.57 4462.13C472.006 4462.13 470.442 4462.65 468.357 4462.65C467.314 4462.65 467.314 4463.7 467.314 4464.22C465.75 4464.74 464.708 4465.26 463.144 4466.31C477.219 4446.47 488.687 4425.06 506.933 4408.35C527.263 4390.08 551.243 4376.5 573.658 4361.36C590.34 4349.87 598.68 4331.6 619.532 4324.81C620.054 4324.81 620.054 4323.76 619.532 4323.76C605.979 4323.24 597.117 4334.21 587.733 4343.08C571.052 4359.27 551.243 4371.28 531.955 4384.33C537.689 4378.59 542.381 4371.8 548.115 4366.06C554.892 4358.75 562.19 4351.44 567.924 4343.08C568.445 4342.56 567.403 4341.52 566.882 4342.04C558.541 4347.78 552.285 4356.14 545.508 4362.92C537.689 4371.8 528.827 4380.68 522.05 4390.6C507.454 4401.04 496.507 4412.01 486.602 4424.54C500.677 4381.72 540.817 4344.13 579.393 4321.68C591.904 4314.37 605.979 4310.19 619.532 4303.92C624.745 4301.31 670.098 4281.47 668.013 4289.83C658.629 4329.51 616.405 4368.15 583.563 4389.55C557.498 4406.26 524.657 4395.3 501.72 4415.14C500.156 4416.7 502.241 4419.31 503.805 4418.27C523.093 4406.78 546.03 4410.44 566.36 4404.17C583.042 4398.95 598.159 4386.94 611.713 4375.46C638.82 4352.48 666.97 4319.07 674.789 4283.56C675.311 4281.99 674.268 4280.43 672.183 4280.43C657.587 4280.43 644.033 4287.21 631.001 4292.96C610.149 4302.88 588.255 4311.23 568.445 4322.72C531.955 4344.13 489.73 4385.9 482.432 4428.71C482.432 4429.24 482.432 4429.24 482.432 4429.76C477.74 4436.02 472.527 4442.81 467.836 4450.64C457.931 4466.31 441.25 4475.71 429.26 4488.76C437.601 4465.78 445.42 4442.29 451.154 4418.27C451.154 4417.75 451.154 4417.75 451.154 4417.23C452.197 4417.75 453.761 4417.23 454.282 4415.66C464.187 4389.55 483.474 4366.06 496.507 4340.99C510.582 4314.89 525.699 4290.35 546.03 4268.42C560.105 4253.28 576.265 4239.7 591.382 4225.6C608.064 4216.2 621.096 4201.58 635.171 4188.53C636.214 4188.01 634.65 4186.44 634.128 4187.49C623.703 4196.36 613.798 4205.24 603.372 4213.59C622.66 4193.23 639.863 4170.78 657.587 4149.37C658.629 4147.81 656.544 4145.72 654.98 4147.28C633.086 4172.35 612.234 4198.45 589.297 4222.47C569.488 4242.83 547.594 4260.06 528.827 4281.47C526.221 4284.6 523.093 4288.26 520.486 4291.91C534.561 4256.93 552.807 4226.13 578.871 4197.93C601.808 4172.35 637.778 4140.5 670.619 4129.01C692.513 4121.18 664.885 4162.42 661.757 4166.6C652.374 4180.18 641.427 4192.19 631.001 4204.72C608.064 4235 573.137 4248.58 545.508 4273.64C543.945 4275.21 546.03 4278.34 548.115 4277.29C603.372 4240.74 671.14 4197.41 688.864 4128.49C689.386 4126.92 688.343 4125.35 686.779 4125.35C653.416 4121.7 617.447 4158.77 595.031 4179.13C557.498 4212.03 529.348 4256.41 515.273 4303.92V4304.45C505.369 4319.07 497.028 4335.25 488.687 4350.39C478.783 4368.67 465.75 4385.38 455.846 4404.17C464.187 4369.71 471.485 4334.73 478.261 4299.75C478.783 4299.75 479.304 4299.22 479.304 4298.7C479.304 4297.14 479.304 4296.09 479.304 4295.05C481.911 4283.04 484.517 4270.51 487.123 4258.5C490.251 4243.88 492.336 4229.26 493.9 4214.64C502.241 4193.75 509.018 4172.35 515.273 4150.94C515.795 4149.89 513.71 4149.37 513.71 4150.42C507.975 4166.6 501.198 4182.79 495.985 4198.97C499.113 4164.51 501.198 4130.57 509.018 4097.16C509.018 4096.11 507.454 4095.59 507.454 4096.64C497.028 4133.71 496.507 4172.87 492.336 4210.98C491.294 4214.64 490.251 4218.29 489.73 4221.95C489.73 4222.99 490.251 4223.51 490.773 4222.99C489.73 4230.3 488.166 4238.13 486.602 4245.44C483.996 4256.93 481.389 4267.9 479.304 4279.38C478.261 4267.9 475.655 4257.45 472.527 4245.44C467.314 4221.43 468.357 4196.36 470.963 4171.82C475.134 4138.41 478.261 4091.94 501.72 4065.31C512.667 4052.78 527.784 4121.18 528.306 4125.88C529.348 4147.28 524.135 4169.21 518.401 4190.1C507.975 4227.17 488.166 4261.63 479.825 4298.7C479.304 4301.31 482.432 4301.83 483.474 4299.75C514.231 4226.13 561.147 4127.44 509.018 4054.87C508.497 4053.82 506.933 4053.82 505.89 4054.34C479.304 4067.92 474.612 4112.3 470.442 4138.41C467.314 4159.29 464.187 4179.66 463.665 4200.54C462.623 4231.35 474.612 4259.54 476.176 4289.83C466.793 4332.64 457.41 4375.46 446.984 4417.75C432.388 4476.23 408.408 4531.57 387.035 4587.44C388.078 4567.08 384.429 4545.67 382.343 4525.83C380.258 4505.99 378.694 4486.15 378.173 4466.83C383.907 4401.04 423.526 4339.43 416.749 4272.07C416.749 4270.51 414.142 4271.03 414.142 4272.6C413.1 4316.98 396.418 4360.31 385.471 4404.17C381.301 4340.99 388.078 4276.77 416.749 4219.86C421.962 4209.42 428.739 4266.33 428.739 4262.15C430.302 4283.56 428.217 4304.97 424.568 4326.38C418.834 4359.27 403.716 4387.46 391.727 4418.27C391.205 4419.84 393.291 4420.36 393.812 4419.31C418.834 4383.81 430.302 4337.86 433.951 4295.05C434.994 4282.52 437.079 4210.46 421.44 4206.28C420.398 4206.28 419.355 4206.28 418.834 4207.33C401.11 4239.7 389.12 4273.12 383.907 4309.67C380.779 4330.03 380.779 4351.44 382.343 4371.8C383.386 4385.9 380.258 4398.95 383.907 4412.53C381.822 4420.88 380.258 4429.24 378.694 4437.07C378.694 4433.41 378.694 4430.28 378.694 4426.62C379.737 4407.31 377.13 4388.51 371.396 4370.23C371.917 4332.12 368.79 4294.52 347.938 4261.63C332.299 4236.57 306.756 4208.37 275.478 4205.24C274.957 4205.24 273.914 4205.76 273.393 4206.81C268.18 4238.66 283.819 4267.37 298.936 4294.52C308.32 4311.23 317.182 4327.94 327.607 4344.13C339.597 4361.88 357.842 4372.85 369.832 4390.08C371.917 4398.43 372.96 4407.31 373.481 4417.23C375.045 4446.47 372.439 4475.18 375.567 4504.42C376.088 4511.21 377.13 4518 377.652 4524.79C367.226 4498.68 348.98 4480.4 327.607 4461.61C309.883 4445.94 291.638 4431.85 275.478 4414.62C262.967 4401.04 255.148 4386.42 239.509 4376.5C237.423 4375.46 235.86 4378.07 237.423 4379.63C265.052 4397.39 281.734 4429.76 307.798 4450.12C307.798 4450.12 307.798 4450.12 308.32 4450.64C296.851 4444.9 285.383 4440.2 275.999 4430.8C275.478 4430.28 274.435 4431.32 274.957 4431.85C285.383 4442.81 299.979 4452.21 315.096 4455.86C329.693 4467.87 342.725 4479.88 354.193 4493.46C328.129 4478.32 304.149 4467.87 280.691 4446.99C255.669 4425.06 238.987 4395.82 225.955 4365.54C218.657 4348.83 274.435 4374.93 274.957 4374.93C289.032 4382.77 301.021 4394.77 311.447 4406.78C334.384 4431.85 344.81 4462.13 358.885 4491.89C359.406 4492.94 361.492 4492.41 360.97 4490.85C346.895 4425.06 290.074 4357.18 220.221 4354.57C218.657 4354.57 217.614 4356.14 218.136 4357.7C230.647 4389.55 246.807 4417.23 270.265 4442.29C295.808 4469.44 324.48 4483.02 357.842 4498.16C357.842 4498.16 357.842 4498.16 358.364 4498.16C366.705 4509.12 373.481 4520.61 379.216 4534.71C381.822 4557.68 383.907 4581.18 381.301 4604.15C364.619 4648.53 350.544 4693.44 344.81 4740.43C344.289 4744.08 350.023 4744.08 350.544 4740.43C355.236 4708.58 363.055 4677.25 372.96 4646.97C381.301 4631.3 400.067 4619.29 415.706 4609.89C416.227 4609.89 416.749 4609.89 416.749 4609.89C428.739 4601.54 449.59 4608.33 462.101 4611.46C473.57 4614.59 483.474 4620.34 494.422 4623.99C495.464 4624.51 495.985 4622.95 495.464 4622.43C487.645 4611.46 464.708 4607.81 452.718 4605.19C445.42 4603.63 435.515 4601.54 427.175 4603.11C427.696 4602.58 428.217 4602.58 428.739 4602.06C429.781 4601.54 430.824 4601.02 431.866 4600.5C457.931 4590.58 499.635 4595.8 507.454 4623.99C510.06 4632.35 512.667 4641.22 499.113 4638.61C489.209 4636.52 479.825 4631.82 471.485 4627.12C457.931 4619.81 445.42 4611.98 430.302 4607.81C428.217 4607.28 427.696 4609.89 429.26 4610.94C456.367 4621.9 480.868 4641.74 510.582 4644.88C511.624 4644.88 512.667 4643.83 512.667 4642.79C513.188 4624.51 509.539 4607.28 490.773 4599.97C476.176 4594.23 458.974 4591.62 443.335 4594.75C466.272 4581.7 489.209 4568.65 512.667 4556.11C513.188 4555.59 513.188 4554.55 512.146 4554.55C488.687 4561.86 466.793 4574.39 445.42 4587.44C461.059 4557.16 503.284 4541.49 535.083 4538.88C543.945 4538.36 553.328 4536.8 547.072 4547.76C541.859 4557.16 532.997 4564.47 524.135 4570.73C507.454 4582.22 486.602 4572.3 469.921 4581.7C468.357 4582.22 469.399 4584.31 470.963 4584.31C490.251 4580.65 509.018 4585.35 526.742 4575.43C539.774 4567.6 552.285 4554.03 555.934 4538.88C556.456 4537.84 555.934 4536.27 554.37 4536.27C517.359 4528.96 454.803 4550.89 442.292 4590.05C431.866 4596.84 421.44 4603.11 411.536 4609.89C400.589 4616.68 386.514 4625.56 376.609 4636.52C391.205 4592.66 409.451 4549.33 425.611 4505.47C434.994 4493.46 448.026 4487.71 457.931 4476.23C462.623 4472.57 467.836 4469.96 473.049 4467.87C491.815 4470.48 510.582 4483.54 529.87 4486.15C549.158 4488.76 570.009 4489.8 589.297 4489.28C620.054 4488.76 647.682 4477.27 662.278 4449.6C661.757 4446.47 661.236 4444.9 659.672 4444.38ZM321.873 4327.42C304.67 4299.22 286.425 4269.46 277.042 4237.61C268.701 4208.37 285.383 4207.85 305.713 4221.95C322.394 4233.44 335.948 4252.23 346.895 4268.94C363.577 4295.57 364.619 4326.38 365.141 4356.66C365.141 4356.66 365.141 4356.14 364.619 4356.14C359.928 4345.17 354.193 4335.77 348.459 4326.38C347.417 4321.15 345.853 4315.41 344.81 4310.19C342.204 4299.75 340.118 4289.3 338.555 4278.86C338.555 4277.82 336.991 4278.34 336.991 4278.86C336.991 4290.35 338.555 4302.88 341.161 4314.89C331.778 4299.22 322.916 4283.56 320.831 4263.2C320.831 4261.63 317.703 4261.63 317.703 4263.72C318.224 4284.08 326.044 4300.27 335.948 4317.5C348.459 4338.91 358.885 4357.18 365.141 4378.07C353.151 4360.31 333.342 4346.22 321.873 4327.42ZM644.033 4464.22C621.617 4487.71 579.393 4484.58 549.679 4480.93C526.221 4478.32 506.411 4476.23 485.038 4464.74C483.996 4464.22 482.953 4463.7 482.432 4463.17C498.592 4460.56 515.795 4461.61 531.434 4461.09C561.147 4460.04 591.904 4461.09 620.054 4451.17C621.096 4450.64 620.575 4449.08 619.532 4449.6C587.733 4455.86 555.413 4458.48 523.093 4459C532.997 4455.86 541.859 4449.6 550.2 4444.9C550.721 4444.38 550.2 4443.33 549.679 4443.86C543.945 4446.47 538.21 4449.08 532.997 4451.17C526.742 4453.78 519.965 4455.86 513.71 4459C513.71 4459 513.188 4459 513.188 4459.52C509.539 4459.52 506.411 4459.52 502.762 4459.52C498.071 4459.52 492.858 4459.52 488.166 4460.04C503.805 4456.39 517.359 4448.03 531.955 4440.72C558.02 4427.67 584.084 4431.85 611.713 4438.11C628.916 4441.24 664.885 4441.77 644.033 4464.22Z" fill="#E0BBA9"/>
<path d="M493.379 4107.08C484.517 4136.84 483.996 4168.69 485.56 4199.5C485.56 4200.54 487.124 4200.54 487.124 4199.5C488.688 4168.17 488.688 4137.89 494.422 4107.08C494.422 4106.56 493.379 4106.56 493.379 4107.08Z" fill="#E0BBA9"/>
<path d="M624.224 4168.17C605.978 4187.49 589.297 4208.37 573.137 4228.74C572.616 4229.26 573.658 4230.3 574.18 4229.78C592.425 4210.98 610.149 4190.1 625.266 4169.21C625.788 4168.17 624.745 4167.65 624.224 4168.17Z" fill="#E0BBA9"/>
<path d="M596.595 4356.66C611.713 4344.65 626.309 4332.12 640.384 4319.59C641.427 4319.06 639.863 4317.5 639.341 4318.54C624.745 4331.07 609.106 4342.56 595.553 4356.14C594.51 4356.66 595.553 4357.7 596.595 4356.66Z" fill="#E0BBA9"/>
<path d="M601.287 4445.94C585.648 4448.03 569.488 4448.55 554.892 4453.78C553.849 4454.3 554.371 4455.34 555.413 4455.34C571.052 4452.73 586.17 4450.12 601.808 4448.03C602.851 4448.03 602.33 4445.94 601.287 4445.94Z" fill="#E0BBA9"/>
<path d="M490.251 4572.82C504.326 4569.69 518.922 4560.29 527.784 4549.33C528.306 4548.81 527.263 4547.76 526.742 4548.28C521.008 4552.98 515.273 4557.68 508.497 4561.86C502.241 4565.51 495.985 4568.12 489.73 4571.26C488.687 4571.78 489.209 4573.35 490.251 4572.82Z" fill="#E0BBA9"/>
<path d="M301.543 4240.22C301.021 4239.7 299.979 4239.7 299.979 4240.74C307.277 4261.63 307.798 4286.17 319.267 4304.97C319.788 4306.01 321.873 4305.49 321.352 4304.45C314.575 4283.56 311.447 4260.06 301.543 4240.22Z" fill="#E0BBA9"/>
<path d="M257.233 4380.68C268.701 4397.91 287.468 4407.83 301.022 4422.97C301.543 4423.49 302.585 4422.97 302.064 4421.93C290.596 4404.7 270.265 4396.34 258.797 4379.63C258.275 4378.59 256.711 4379.63 257.233 4380.68Z" fill="#E0BBA9"/>
<path d="M412.057 4251.71C407.365 4272.59 402.152 4294 400.589 4315.41C400.589 4316.45 402.152 4316.98 402.674 4315.93C407.365 4295.05 409.972 4273.64 414.142 4252.23C414.142 4251.19 412.578 4250.67 412.057 4251.71Z" fill="#E0BBA9"/>
<path d="M735.328 2073.38C765.042 2067.11 799.447 2052.49 830.204 2056.15C862.524 2059.8 887.546 2082.78 919.345 2088.52C920.388 2088.52 920.388 2090.09 919.345 2090.61C919.866 2090.61 920.388 2091.13 921.43 2091.13C922.994 2091.13 924.558 2091.65 926.643 2091.65C927.686 2091.65 927.686 2092.7 927.686 2093.22C929.25 2093.74 930.292 2094.26 931.856 2095.31C917.781 2075.47 906.313 2054.06 888.067 2037.35C867.737 2019.08 843.757 2005.5 821.342 1990.36C804.66 1978.87 796.32 1960.6 775.468 1953.81C774.946 1953.81 774.946 1952.76 775.468 1952.76C789.021 1952.24 797.883 1963.21 807.267 1972.08C823.948 1988.27 843.757 2000.28 863.045 2013.33C857.311 2007.59 852.619 2000.8 846.885 1995.06C840.108 1987.75 832.81 1980.44 827.076 1972.08C826.555 1971.56 827.597 1970.52 828.118 1971.04C836.459 1976.78 842.715 1985.14 849.492 1991.92C857.311 2000.8 866.173 2009.68 872.95 2019.6C887.546 2030.04 898.493 2041.01 908.398 2053.54C894.323 2010.72 854.183 1973.13 815.607 1950.68C803.096 1943.37 789.021 1939.19 775.468 1932.92C770.255 1930.31 724.902 1910.47 726.987 1918.83C736.371 1958.51 778.595 1997.15 811.437 2018.55C837.502 2035.26 870.343 2024.3 893.28 2044.14C894.844 2045.7 892.759 2048.31 891.195 2047.27C871.907 2035.78 848.97 2039.44 828.64 2033.17C811.958 2027.95 796.841 2015.94 783.287 2004.46C756.18 1981.48 728.03 1948.07 720.211 1912.56C719.689 1910.99 720.732 1909.43 722.817 1909.43C737.413 1909.43 750.967 1916.21 763.999 1921.96C784.851 1931.88 806.745 1940.23 826.555 1951.72C863.045 1973.13 905.27 2014.9 912.568 2057.71C912.568 2058.24 912.568 2058.24 912.568 2058.76C917.26 2065.02 922.473 2071.81 927.164 2079.64C937.069 2095.31 953.75 2104.71 965.74 2117.76C957.399 2094.78 949.58 2071.29 943.846 2047.27C943.846 2046.75 943.846 2046.75 943.846 2046.23C942.803 2046.75 941.239 2046.23 940.718 2044.66C930.813 2018.55 911.526 1995.06 898.493 1969.99C884.418 1943.89 869.301 1919.35 848.97 1897.42C834.895 1882.28 818.735 1868.7 803.618 1854.6C786.936 1845.2 773.904 1830.58 759.829 1817.53C758.786 1817.01 760.35 1815.44 760.872 1816.49C771.297 1825.36 781.202 1834.24 791.628 1842.59C772.34 1822.23 755.137 1799.78 737.413 1778.37C736.371 1776.81 738.456 1774.72 740.02 1776.28C761.914 1801.35 782.766 1827.45 805.703 1851.47C825.512 1871.83 847.406 1889.06 866.173 1910.47C868.779 1913.6 871.907 1917.26 874.514 1920.91C860.439 1885.93 842.193 1855.13 816.129 1826.93C793.192 1801.35 757.222 1769.5 724.381 1758.01C702.487 1750.18 730.115 1791.42 733.243 1795.6C742.626 1809.18 753.573 1821.19 763.999 1833.72C786.936 1864 821.863 1877.58 849.492 1902.64C851.055 1904.21 848.97 1907.34 846.885 1906.29C791.628 1869.74 723.86 1826.41 706.136 1757.49C705.614 1755.92 706.657 1754.35 708.221 1754.35C741.584 1750.7 777.553 1787.77 799.969 1808.13C837.502 1841.03 865.652 1885.41 879.727 1932.92V1933.45C889.631 1948.07 897.972 1964.25 906.313 1979.39C916.217 1997.67 929.25 2014.38 939.154 2033.17C930.813 1998.71 923.515 1963.73 916.739 1928.75C916.217 1928.75 915.696 1928.22 915.696 1927.7C915.696 1926.14 915.696 1925.09 915.696 1924.05C913.089 1912.04 910.483 1899.51 907.877 1887.5C904.749 1872.88 902.664 1858.26 901.1 1843.64C892.759 1822.75 885.982 1801.35 879.727 1779.94C879.205 1778.89 881.29 1778.37 881.29 1779.42C887.025 1795.6 893.802 1811.79 899.015 1827.97C895.887 1793.51 893.802 1759.57 885.982 1726.16C885.982 1725.11 887.546 1724.59 887.546 1725.64C897.972 1762.71 898.493 1801.87 902.664 1839.98C903.706 1843.64 904.749 1847.29 905.27 1850.95C905.27 1851.99 904.749 1852.51 904.227 1851.99C905.27 1859.3 906.834 1867.13 908.398 1874.44C911.004 1885.93 913.611 1896.9 915.696 1908.38C916.739 1896.9 919.345 1886.45 922.473 1874.44C927.686 1850.43 926.643 1825.36 924.037 1800.82C919.866 1767.41 916.739 1720.94 893.28 1694.31C882.333 1681.78 867.216 1750.18 866.694 1754.88C865.652 1776.28 870.865 1798.21 876.599 1819.1C887.025 1856.17 906.834 1890.63 915.175 1927.7C915.696 1930.31 912.568 1930.83 911.526 1928.75C880.769 1855.13 833.853 1756.44 885.982 1683.87C886.503 1682.82 888.067 1682.82 889.11 1683.34C915.696 1696.92 920.388 1741.3 924.558 1767.41C927.686 1788.29 930.813 1808.66 931.335 1829.54C932.377 1860.35 920.388 1888.54 918.824 1918.83C928.207 1961.64 937.59 2004.46 948.016 2046.75C962.612 2105.23 986.592 2160.57 1007.97 2216.44C1006.92 2196.08 1010.57 2174.67 1012.66 2154.83C1014.74 2134.99 1016.31 2115.15 1016.83 2095.83C1011.09 2030.04 971.474 1968.43 978.251 1901.07C978.251 1899.51 980.858 1900.03 980.858 1901.6C981.9 1945.98 998.582 1989.31 1009.53 2033.17C1013.7 1969.99 1006.92 1905.77 978.251 1848.86C973.038 1838.42 966.261 1895.33 966.261 1891.15C964.698 1912.56 966.783 1933.97 970.432 1955.38C976.166 1988.27 991.284 2016.46 1003.27 2047.27C1003.79 2048.84 1001.71 2049.36 1001.19 2048.31C976.166 2012.81 964.698 1966.86 961.049 1924.05C960.006 1911.52 957.921 1839.46 973.56 1835.28C974.602 1835.28 975.645 1835.28 976.166 1836.33C993.89 1868.7 1005.88 1902.12 1011.09 1938.67C1014.22 1959.03 1014.22 1980.44 1012.66 2000.8C1011.61 2014.9 1014.74 2027.95 1011.09 2041.53C1013.18 2049.88 1014.74 2058.24 1016.31 2066.07C1016.31 2062.41 1016.31 2059.28 1016.31 2055.62C1015.26 2036.31 1017.87 2017.51 1023.6 1999.23C1023.08 1961.12 1026.21 1923.52 1047.06 1890.63C1062.7 1865.57 1088.24 1837.37 1119.52 1834.24C1120.04 1834.24 1121.09 1834.76 1121.61 1835.81C1126.82 1867.66 1111.18 1896.37 1096.06 1923.52C1086.68 1940.23 1077.82 1956.94 1067.39 1973.13C1055.4 1990.88 1037.16 2001.85 1025.17 2019.08C1023.08 2027.43 1022.04 2036.31 1021.52 2046.23C1019.95 2075.47 1022.56 2104.18 1019.43 2133.42C1018.91 2140.21 1017.87 2147 1017.35 2153.79C1027.77 2127.68 1046.02 2109.4 1067.39 2090.61C1085.12 2074.94 1103.36 2060.85 1119.52 2043.62C1132.03 2030.04 1139.85 2015.42 1155.49 2005.5C1157.58 2004.46 1159.14 2007.07 1157.58 2008.63C1129.95 2026.39 1113.27 2058.76 1087.2 2079.12C1087.2 2079.12 1087.2 2079.12 1086.68 2079.64C1098.15 2073.9 1109.62 2069.2 1119 2059.8C1119.52 2059.28 1120.56 2060.32 1120.04 2060.85C1109.62 2071.81 1095.02 2081.21 1079.9 2084.86C1065.31 2096.87 1052.28 2108.88 1040.81 2122.46C1066.87 2107.32 1090.85 2096.87 1114.31 2075.99C1139.33 2054.06 1156.01 2024.82 1169.04 1994.54C1176.34 1977.83 1120.56 2003.93 1120.04 2003.93C1105.97 2011.77 1093.98 2023.77 1083.55 2035.78C1060.62 2060.85 1050.19 2091.13 1036.11 2120.89C1035.59 2121.94 1033.51 2121.41 1034.03 2119.85C1048.1 2054.06 1104.93 1986.18 1174.78 1983.57C1176.34 1983.57 1177.39 1985.14 1176.86 1986.7C1164.35 2018.55 1148.19 2046.23 1124.73 2071.29C1099.19 2098.44 1070.52 2112.02 1037.16 2127.16C1037.16 2127.16 1037.16 2127.16 1036.64 2127.16C1028.3 2138.12 1021.52 2149.61 1015.78 2163.71C1013.18 2186.68 1011.09 2210.18 1013.7 2233.15C1030.38 2277.53 1044.46 2322.44 1050.19 2369.43C1050.71 2373.08 1044.98 2373.08 1044.46 2369.43C1039.76 2337.58 1031.94 2306.25 1022.04 2275.97C1013.7 2260.3 994.933 2248.29 979.294 2238.89C978.773 2238.89 978.251 2238.89 978.251 2238.89C966.261 2230.54 945.41 2237.33 932.899 2240.46C921.43 2243.59 911.526 2249.34 900.578 2252.99C899.536 2253.51 899.015 2251.95 899.536 2251.43C907.355 2240.46 930.292 2236.81 942.282 2234.19C949.58 2232.63 959.485 2230.54 967.825 2232.11C967.304 2231.58 966.783 2231.58 966.261 2231.06C965.219 2230.54 964.176 2230.02 963.134 2229.5C937.069 2219.58 895.365 2224.8 887.546 2252.99C884.94 2261.35 882.333 2270.22 895.887 2267.61C905.791 2265.52 915.175 2260.82 923.515 2256.12C937.069 2248.81 949.58 2240.98 964.698 2236.81C966.783 2236.28 967.304 2238.89 965.74 2239.94C938.633 2250.9 914.132 2270.74 884.418 2273.88C883.376 2273.88 882.333 2272.83 882.333 2271.79C881.812 2253.51 885.461 2236.28 904.227 2228.97C918.824 2223.23 936.026 2220.62 951.665 2223.75C928.728 2210.7 905.791 2197.65 882.333 2185.11C881.812 2184.59 881.812 2183.55 882.854 2183.55C906.313 2190.86 928.207 2203.39 949.58 2216.44C933.941 2186.16 891.716 2170.49 859.917 2167.88C851.055 2167.36 841.672 2165.8 847.928 2176.76C853.141 2186.16 862.003 2193.47 870.865 2199.73C887.546 2211.22 908.398 2201.3 925.079 2210.7C926.643 2211.22 925.601 2213.31 924.037 2213.31C904.749 2209.65 885.982 2214.35 868.258 2204.43C855.226 2196.6 842.715 2183.03 839.066 2167.88C838.544 2166.84 839.066 2165.27 840.63 2165.27C877.641 2157.96 940.197 2179.89 952.708 2219.05C963.134 2225.84 973.56 2232.11 983.464 2238.89C994.411 2245.68 1008.49 2254.56 1018.39 2265.52C1003.79 2221.66 985.549 2178.33 969.389 2134.47C960.006 2122.46 946.974 2116.71 937.069 2105.23C932.377 2101.57 927.164 2098.96 921.951 2096.87C903.185 2099.48 884.418 2112.54 865.13 2115.15C845.842 2117.76 824.991 2118.8 805.703 2118.28C774.946 2117.76 747.318 2106.27 732.722 2078.6C733.243 2075.47 733.764 2073.9 735.328 2073.38ZM1073.13 1956.42C1090.33 1928.22 1108.57 1898.46 1117.96 1866.61C1126.3 1837.37 1109.62 1836.85 1089.29 1850.95C1072.61 1862.44 1059.05 1881.23 1048.1 1897.94C1031.42 1924.57 1030.38 1955.38 1029.86 1985.66C1029.86 1985.66 1029.86 1985.14 1030.38 1985.14C1035.07 1974.17 1040.81 1964.77 1046.54 1955.38C1047.58 1950.15 1049.15 1944.41 1050.19 1939.19C1052.8 1928.75 1054.88 1918.3 1056.45 1907.86C1056.45 1906.82 1058.01 1907.34 1058.01 1907.86C1058.01 1919.35 1056.45 1931.88 1053.84 1943.89C1063.22 1928.22 1072.08 1912.56 1074.17 1892.2C1074.17 1890.63 1077.3 1890.63 1077.3 1892.72C1076.78 1913.08 1068.96 1929.27 1059.05 1946.5C1046.54 1967.91 1036.11 1986.18 1029.86 2007.07C1041.85 1989.31 1061.66 1975.22 1073.13 1956.42ZM750.967 2093.22C773.383 2116.71 815.607 2113.58 845.321 2109.93C868.779 2107.32 888.589 2105.23 909.962 2093.74C911.004 2093.22 912.047 2092.7 912.568 2092.17C896.408 2089.56 879.205 2090.61 863.566 2090.09C833.853 2089.04 803.096 2090.09 774.946 2080.17C773.904 2079.64 774.425 2078.08 775.468 2078.6C807.267 2084.86 839.587 2087.48 871.907 2088C862.003 2084.86 853.141 2078.6 844.8 2073.9C844.279 2073.38 844.8 2072.33 845.321 2072.86C851.055 2075.47 856.79 2078.08 862.003 2080.17C868.258 2082.78 875.035 2084.86 881.29 2088C881.29 2088 881.812 2088 881.812 2088.52C885.461 2088.52 888.589 2088.52 892.238 2088.52C896.929 2088.52 902.142 2088.52 906.834 2089.04C891.195 2085.39 877.641 2077.03 863.045 2069.72C836.98 2056.67 810.916 2060.85 783.287 2067.11C766.084 2070.24 730.115 2070.77 750.967 2093.22Z" fill="#E0BBA9"/>
<path d="M901.621 1736.08C910.483 1765.84 911.004 1797.69 909.44 1828.5C909.44 1829.54 907.876 1829.54 907.876 1828.5C906.312 1797.17 906.312 1766.89 900.578 1736.08C900.578 1735.56 901.621 1735.56 901.621 1736.08Z" fill="#E0BBA9"/>
<path d="M770.776 1797.17C789.022 1816.49 805.703 1837.37 821.863 1857.74C822.384 1858.26 821.342 1859.3 820.82 1858.78C802.575 1839.98 784.851 1819.1 769.734 1798.21C769.212 1797.17 770.255 1796.65 770.776 1797.17Z" fill="#E0BBA9"/>
<path d="M798.405 1985.66C783.287 1973.65 768.691 1961.12 754.616 1948.59C753.573 1948.06 755.137 1946.5 755.659 1947.54C770.255 1960.07 785.894 1971.56 799.447 1985.14C800.49 1985.66 799.447 1986.7 798.405 1985.66Z" fill="#E0BBA9"/>
<path d="M793.713 2074.94C809.352 2077.03 825.512 2077.55 840.108 2082.78C841.151 2083.3 840.629 2084.34 839.587 2084.34C823.948 2081.73 808.83 2079.12 793.192 2077.03C792.149 2077.03 792.67 2074.94 793.713 2074.94Z" fill="#E0BBA9"/>
<path d="M904.749 2201.82C890.674 2198.69 876.078 2189.29 867.216 2178.33C866.694 2177.81 867.737 2176.76 868.258 2177.28C873.992 2181.98 879.727 2186.68 886.503 2190.86C892.759 2194.51 899.015 2197.12 905.27 2200.26C906.313 2200.78 905.791 2202.35 904.749 2201.82Z" fill="#E0BBA9"/>
<path d="M1093.46 1869.22C1093.98 1868.7 1095.02 1868.7 1095.02 1869.74C1087.72 1890.63 1087.2 1915.17 1075.73 1933.97C1075.21 1935.01 1073.13 1934.49 1073.65 1933.45C1080.42 1912.56 1083.55 1889.06 1093.46 1869.22Z" fill="#E0BBA9"/>
<path d="M1137.77 2009.68C1126.3 2026.91 1107.53 2036.83 1093.98 2051.97C1093.46 2052.49 1092.41 2051.97 1092.94 2050.93C1104.4 2033.7 1124.73 2025.34 1136.2 2008.63C1136.72 2007.59 1138.29 2008.63 1137.77 2009.68Z" fill="#E0BBA9"/>
<path d="M982.943 1880.71C987.635 1901.59 992.848 1923 994.411 1944.41C994.411 1945.45 992.848 1945.98 992.326 1944.93C987.635 1924.05 985.028 1902.64 980.858 1881.23C980.858 1880.19 982.422 1879.67 982.943 1880.71Z" fill="#E0BBA9"/>
<path d="M464.26 1196.75C448.904 1193.51 431.123 1185.96 415.228 1187.85C398.524 1189.73 385.592 1201.61 369.158 1204.58C368.62 1204.58 368.62 1205.39 369.158 1205.66C368.889 1205.66 368.62 1205.93 368.081 1205.93C367.273 1205.93 366.464 1206.2 365.387 1206.2C364.848 1206.2 364.848 1206.73 364.848 1207C364.04 1207.27 363.501 1207.54 362.693 1208.08C369.967 1197.83 375.894 1186.77 385.323 1178.13C395.83 1168.69 408.223 1161.67 419.808 1153.85C428.429 1147.91 432.739 1138.46 443.516 1134.96C443.785 1134.96 443.785 1134.42 443.516 1134.42C436.511 1134.15 431.931 1139.81 427.082 1144.4C418.46 1152.77 408.223 1158.97 398.255 1165.72C401.218 1162.75 403.643 1159.24 406.606 1156.27C410.109 1152.5 413.88 1148.72 416.844 1144.4C417.113 1144.13 416.575 1143.59 416.305 1143.86C411.995 1146.83 408.762 1151.15 405.259 1154.65C401.218 1159.24 396.638 1163.83 393.136 1168.96C385.592 1174.35 379.935 1180.02 374.816 1186.5C382.09 1164.37 402.835 1144.94 422.771 1133.34C429.237 1129.56 436.511 1127.4 443.516 1124.16C446.21 1122.81 469.648 1112.56 468.571 1116.88C463.721 1137.38 441.899 1157.35 424.926 1168.42C411.456 1177.05 394.483 1171.39 382.629 1181.64C381.821 1182.45 382.898 1183.8 383.707 1183.26C393.675 1177.32 405.529 1179.21 416.036 1175.97C424.657 1173.27 432.47 1167.07 439.474 1161.13C453.484 1149.26 468.032 1131.99 472.073 1113.64C472.342 1112.83 471.804 1112.02 470.726 1112.02C463.182 1112.02 456.178 1115.53 449.443 1118.5C438.666 1123.62 427.351 1127.94 417.113 1133.88C398.255 1144.94 376.433 1166.53 372.661 1188.66C372.661 1188.93 372.661 1188.93 372.661 1189.19C370.236 1192.43 367.542 1195.94 365.117 1199.99C359.999 1208.08 351.377 1212.94 345.181 1219.69C349.492 1207.81 353.533 1195.67 356.496 1183.26C356.496 1182.99 356.496 1182.99 356.496 1182.72C357.035 1182.99 357.843 1182.72 358.113 1181.91C363.231 1168.42 373.2 1156.27 379.935 1143.32C387.209 1129.83 395.022 1117.15 405.529 1105.81C412.803 1097.99 421.155 1090.97 428.967 1083.69C437.589 1078.83 444.324 1071.27 451.598 1064.53C452.137 1064.26 451.328 1063.45 451.059 1063.99C445.671 1068.57 440.552 1073.16 435.164 1077.48C445.132 1066.96 454.023 1055.35 463.182 1044.29C463.721 1043.48 462.644 1042.4 461.835 1043.21C450.52 1056.16 439.744 1069.65 427.89 1082.07C417.652 1092.59 406.337 1101.5 396.638 1112.56C395.291 1114.18 393.675 1116.07 392.328 1117.96C399.602 1099.88 409.031 1083.96 422.502 1069.38C434.356 1056.16 452.945 1039.7 469.918 1033.76C481.233 1029.72 466.954 1051.03 465.338 1053.19C460.488 1060.21 454.831 1066.42 449.443 1072.89C437.589 1088.54 419.538 1095.56 405.259 1108.51C404.451 1109.32 405.529 1110.94 406.606 1110.4C435.164 1091.51 470.187 1069.11 479.347 1033.5C479.616 1032.69 479.078 1031.88 478.269 1031.88C461.027 1029.99 442.438 1049.15 430.853 1059.67C411.456 1076.67 396.908 1099.61 389.634 1124.16V1124.43C384.515 1131.99 380.204 1140.35 375.894 1148.18C370.775 1157.62 364.04 1166.26 358.921 1175.97C363.231 1158.16 367.003 1140.08 370.506 1122C370.775 1122 371.044 1121.73 371.044 1121.46C371.044 1120.65 371.044 1120.11 371.044 1119.58C372.391 1113.37 373.738 1106.89 375.085 1100.69C376.702 1093.13 377.78 1085.57 378.588 1078.02C382.898 1067.23 386.401 1056.16 389.634 1045.1C389.903 1044.56 388.825 1044.29 388.825 1044.83C385.862 1053.19 382.36 1061.56 379.665 1069.92C381.282 1052.11 382.36 1034.57 386.401 1017.3C386.401 1016.76 385.592 1016.49 385.592 1017.03C380.204 1036.19 379.935 1056.43 377.78 1076.13C377.241 1078.02 376.702 1079.91 376.433 1081.8C376.433 1082.34 376.702 1082.61 376.971 1082.34C376.433 1086.11 375.624 1090.16 374.816 1093.94C373.469 1099.88 372.122 1105.54 371.044 1111.48C370.506 1105.54 369.158 1100.15 367.542 1093.94C364.848 1081.53 365.387 1068.57 366.734 1055.89C368.889 1038.62 370.506 1014.61 382.629 1000.84C388.287 994.368 396.099 1029.72 396.369 1032.15C396.908 1043.21 394.214 1054.54 391.25 1065.34C385.862 1084.5 375.624 1102.31 371.314 1121.46C371.044 1122.81 372.661 1123.08 373.2 1122C389.095 1083.96 413.342 1032.96 386.401 995.447C386.131 994.907 385.323 994.907 384.784 995.177C371.044 1002.19 368.62 1025.13 366.464 1038.62C364.848 1049.42 363.231 1059.94 362.962 1070.73C362.423 1086.65 368.62 1101.23 369.428 1116.88C364.579 1139 359.729 1161.13 354.341 1182.99C346.797 1213.21 334.405 1241.81 323.359 1270.69C323.898 1260.16 322.012 1249.1 320.934 1238.85C319.857 1228.59 319.048 1218.34 318.779 1208.35C321.742 1174.35 342.217 1142.51 338.715 1107.7C338.715 1106.89 337.368 1107.16 337.368 1107.97C336.829 1130.91 328.208 1153.31 322.551 1175.97C320.395 1143.32 323.898 1110.13 338.715 1080.72C341.409 1075.32 344.912 1104.73 344.912 1102.58C345.72 1113.64 344.642 1124.7 342.756 1135.77C339.793 1152.77 331.98 1167.34 325.784 1183.26C325.514 1184.07 326.592 1184.34 326.861 1183.8C339.793 1165.45 345.72 1141.7 347.606 1119.58C348.145 1113.1 349.222 1075.86 341.14 1073.7C340.601 1073.7 340.062 1073.7 339.793 1074.24C330.633 1090.97 324.436 1108.24 321.742 1127.13C320.126 1137.65 320.126 1148.72 320.934 1159.24C321.473 1166.53 319.857 1173.27 321.742 1180.29C320.665 1184.61 319.857 1188.93 319.048 1192.97C319.048 1191.08 319.048 1189.46 319.048 1187.58C319.587 1177.59 318.24 1167.88 315.277 1158.43C315.546 1138.73 313.929 1119.31 303.153 1102.31C295.071 1089.35 281.87 1074.78 265.705 1073.16C265.436 1073.16 264.897 1073.43 264.628 1073.97C261.933 1090.43 270.016 1105.27 277.829 1119.31C282.678 1127.94 287.258 1136.58 292.646 1144.94C298.843 1154.12 308.272 1159.78 314.468 1168.69C315.546 1173 316.085 1177.59 316.354 1182.72C317.162 1197.83 315.815 1212.67 317.432 1227.78C317.701 1231.29 318.24 1234.8 318.509 1238.31C313.121 1224.81 303.692 1215.37 292.646 1205.66C283.486 1197.56 274.057 1190.27 265.705 1181.37C259.239 1174.35 255.198 1166.8 247.116 1161.67C246.038 1161.13 245.23 1162.48 246.038 1163.29C260.317 1172.46 268.938 1189.2 282.409 1199.72C282.409 1199.72 282.409 1199.72 282.678 1199.99C276.751 1197.02 270.824 1194.59 265.975 1189.73C265.705 1189.46 265.166 1190 265.436 1190.27C270.824 1195.94 278.367 1200.8 286.18 1202.69C293.724 1208.89 300.459 1215.1 306.386 1222.12C292.916 1214.29 280.523 1208.89 268.399 1198.1C255.468 1186.77 246.846 1171.66 240.111 1156C236.339 1147.37 265.166 1160.86 265.436 1160.86C272.71 1164.91 278.906 1171.12 284.294 1177.32C296.148 1190.27 301.537 1205.93 308.811 1221.31C309.08 1221.85 310.158 1221.58 309.888 1220.77C302.614 1186.77 273.249 1151.69 237.148 1150.34C236.339 1150.34 235.801 1151.15 236.07 1151.96C242.536 1168.42 250.888 1182.72 263.011 1195.67C276.212 1209.7 291.03 1216.72 308.272 1224.54C308.272 1224.54 308.272 1224.54 308.541 1224.54C312.852 1230.21 316.354 1236.15 319.318 1243.43C320.665 1255.31 321.742 1267.45 320.395 1279.32C311.774 1302.26 304.5 1325.47 301.537 1349.75C301.267 1351.64 304.231 1351.64 304.5 1349.75C306.925 1333.29 310.966 1317.1 316.085 1301.45C320.395 1293.35 330.094 1287.15 338.176 1282.29C338.446 1282.29 338.715 1282.29 338.715 1282.29C344.912 1277.97 355.688 1281.48 362.154 1283.1C368.081 1284.72 373.2 1287.69 378.857 1289.58C379.396 1289.85 379.665 1289.04 379.396 1288.77C375.355 1283.1 363.501 1281.21 357.304 1279.86C353.533 1279.05 348.414 1277.97 344.103 1278.78C344.373 1278.51 344.642 1278.51 344.912 1278.24C345.45 1277.97 345.989 1277.7 346.528 1277.43C359.999 1272.31 381.551 1275.01 385.592 1289.58C386.94 1293.89 388.287 1298.48 381.282 1297.13C376.163 1296.05 371.314 1293.62 367.003 1291.2C359.999 1287.42 353.533 1283.37 345.72 1281.21C344.642 1280.94 344.373 1282.29 345.181 1282.83C359.19 1288.5 371.853 1298.75 387.209 1300.37C387.748 1300.37 388.287 1299.83 388.287 1299.29C388.556 1289.85 386.67 1280.94 376.971 1277.16C369.428 1274.2 360.537 1272.85 352.455 1274.47C364.309 1267.72 376.163 1260.97 388.287 1254.5C388.556 1254.23 388.556 1253.69 388.017 1253.69C375.894 1257.47 364.579 1263.94 353.533 1270.69C361.615 1255.04 383.437 1246.94 399.871 1245.59C404.451 1245.32 409.301 1244.51 406.068 1250.18C403.374 1255.04 398.794 1258.81 394.214 1262.05C385.592 1267.99 374.816 1262.86 366.195 1267.72C365.387 1267.99 365.926 1269.07 366.734 1269.07C376.702 1267.18 386.401 1269.61 395.561 1264.48C402.296 1260.43 408.762 1253.42 410.648 1245.59C410.917 1245.05 410.648 1244.24 409.839 1244.24C390.711 1240.47 358.382 1251.8 351.916 1272.04C346.528 1275.55 341.14 1278.78 336.021 1282.29C330.363 1285.8 323.089 1290.39 317.971 1296.05C325.514 1273.39 334.943 1250.99 343.295 1228.32C348.145 1222.12 354.88 1219.15 359.999 1213.21C362.423 1211.32 365.117 1209.97 367.811 1208.89C377.51 1210.24 387.209 1216.99 397.177 1218.34C407.145 1219.69 417.922 1220.23 427.89 1219.96C443.785 1219.69 458.064 1213.75 465.607 1199.45C465.338 1197.83 465.068 1197.02 464.26 1196.75ZM289.683 1136.31C280.792 1121.73 271.363 1106.35 266.513 1089.89C262.203 1074.78 270.824 1074.51 281.331 1081.8C289.952 1087.73 296.957 1097.45 302.614 1106.08C311.235 1119.85 311.774 1135.77 312.044 1151.42C312.044 1151.42 312.044 1151.15 311.774 1151.15C309.35 1145.48 306.386 1140.62 303.423 1135.77C302.884 1133.07 302.075 1130.1 301.537 1127.4C300.19 1122 299.112 1116.61 298.304 1111.21C298.304 1110.67 297.495 1110.94 297.495 1111.21C297.495 1117.15 298.304 1123.62 299.651 1129.83C294.801 1121.73 290.221 1113.64 289.144 1103.11C289.144 1102.31 287.527 1102.31 287.527 1103.38C287.797 1113.91 291.838 1122.27 296.957 1131.18C303.423 1142.24 308.811 1151.69 312.044 1162.48C305.847 1153.31 295.61 1146.02 289.683 1136.31ZM456.178 1207C444.593 1219.15 422.771 1217.53 407.415 1215.64C395.291 1214.29 385.054 1213.21 374.008 1207.27C373.469 1207 372.93 1206.73 372.661 1206.47C381.013 1205.12 389.903 1205.66 397.985 1205.39C413.342 1204.85 429.237 1205.39 443.785 1200.26C444.324 1199.99 444.054 1199.18 443.516 1199.45C427.082 1202.69 410.378 1204.04 393.675 1204.31C398.794 1202.69 403.374 1199.45 407.684 1197.02C407.953 1196.75 407.684 1196.21 407.415 1196.48C404.451 1197.83 401.488 1199.18 398.794 1200.26C395.561 1201.61 392.058 1202.69 388.825 1204.31C388.825 1204.31 388.556 1204.31 388.556 1204.58C386.67 1204.58 385.054 1204.58 383.168 1204.58C380.743 1204.58 378.049 1204.58 375.624 1204.85C383.707 1202.96 390.711 1198.64 398.255 1194.86C411.725 1188.12 425.196 1190.27 439.474 1193.51C448.365 1195.13 466.954 1195.4 456.178 1207Z" fill="#E0BBA9"/>
<path d="M378.318 1022.43C373.739 1037.81 373.469 1054.27 374.277 1070.19C374.277 1070.73 375.086 1070.73 375.086 1070.19C375.894 1054 375.894 1038.35 378.857 1022.43C378.857 1022.16 378.318 1022.16 378.318 1022.43Z" fill="#E0BBA9"/>
<path d="M445.94 1054C436.511 1063.99 427.89 1074.78 419.538 1085.3C419.269 1085.57 419.807 1086.11 420.077 1085.84C429.506 1076.13 438.666 1065.34 446.479 1054.54C446.748 1054 446.21 1053.73 445.94 1054Z" fill="#E0BBA9"/>
<path d="M431.662 1151.42C439.474 1145.21 447.018 1138.73 454.292 1132.26C454.831 1131.99 454.023 1131.18 453.753 1131.72C446.21 1138.19 438.127 1144.13 431.123 1151.15C430.584 1151.42 431.123 1151.96 431.662 1151.42Z" fill="#E0BBA9"/>
<path d="M434.086 1197.56C426.004 1198.64 417.652 1198.91 410.109 1201.61C409.57 1201.88 409.839 1202.42 410.378 1202.42C418.461 1201.07 426.273 1199.72 434.356 1198.64C434.895 1198.64 434.625 1197.56 434.086 1197.56Z" fill="#E0BBA9"/>
<path d="M376.702 1263.13C383.976 1261.51 391.519 1256.66 396.099 1250.99C396.369 1250.72 395.83 1250.18 395.561 1250.45C392.597 1252.88 389.634 1255.31 386.131 1257.47C382.898 1259.35 379.665 1260.7 376.432 1262.32C375.894 1262.59 376.163 1263.4 376.702 1263.13Z" fill="#E0BBA9"/>
<path d="M279.176 1091.24C278.906 1090.97 278.367 1090.97 278.367 1091.51C282.139 1102.31 282.409 1114.99 288.336 1124.7C288.605 1125.24 289.683 1124.97 289.413 1124.43C285.911 1113.64 284.294 1101.5 279.176 1091.24Z" fill="#E0BBA9"/>
<path d="M256.276 1163.83C262.203 1172.73 271.902 1177.86 278.906 1185.69C279.176 1185.96 279.715 1185.69 279.445 1185.15C273.518 1176.24 263.011 1171.93 257.084 1163.29C256.815 1162.75 256.006 1163.29 256.276 1163.83Z" fill="#E0BBA9"/>
<path d="M336.29 1097.18C333.866 1107.97 331.172 1119.04 330.363 1130.1C330.363 1130.64 331.172 1130.91 331.441 1130.37C333.866 1119.57 335.213 1108.51 337.368 1097.45C337.368 1096.91 336.56 1096.64 336.29 1097.18Z" fill="#E0BBA9"/>
<path d="M870.157 3405.75C885.513 3402.51 903.294 3394.96 919.19 3396.85C935.893 3398.73 948.825 3410.61 965.259 3413.58C965.797 3413.58 965.797 3414.39 965.259 3414.66C965.528 3414.66 965.797 3414.93 966.336 3414.93C967.145 3414.93 967.953 3415.2 969.03 3415.2C969.569 3415.2 969.569 3415.73 969.569 3416C970.377 3416.27 970.916 3416.54 971.724 3417.08C964.45 3406.83 958.523 3395.77 949.094 3387.13C938.587 3377.69 926.194 3370.67 914.61 3362.85C905.989 3356.91 901.678 3347.46 890.902 3343.96C890.632 3343.96 890.632 3343.42 890.902 3343.42C897.906 3343.15 902.486 3348.81 907.336 3353.4C915.957 3361.77 926.194 3367.97 936.162 3374.72C933.199 3371.75 930.774 3368.24 927.811 3365.27C924.308 3361.5 920.537 3357.72 917.573 3353.4C917.304 3353.13 917.843 3352.59 918.112 3352.86C922.423 3355.83 925.655 3360.15 929.158 3363.65C933.199 3368.24 937.779 3372.83 941.281 3377.96C948.825 3383.35 954.482 3389.02 959.601 3395.5C952.327 3373.37 931.582 3353.94 911.646 3342.34C905.18 3338.56 897.906 3336.4 890.902 3333.16C888.207 3331.81 864.769 3321.56 865.846 3325.88C870.696 3346.38 892.518 3366.35 909.491 3377.42C922.961 3386.05 939.934 3380.39 951.788 3390.64C952.596 3391.45 951.519 3392.8 950.711 3392.26C940.742 3386.32 928.888 3388.21 918.381 3384.97C909.76 3382.27 901.947 3376.07 894.943 3370.13C880.933 3358.26 866.385 3340.99 862.344 3322.64C862.075 3321.83 862.614 3321.02 863.691 3321.02C871.235 3321.02 878.239 3324.53 884.975 3327.5C895.751 3332.62 907.066 3336.94 917.304 3342.88C936.162 3353.94 957.985 3375.53 961.756 3397.66C961.756 3397.93 961.756 3397.93 961.756 3398.19C964.181 3401.43 966.875 3404.94 969.3 3408.99C974.419 3417.08 983.04 3421.94 989.236 3428.69C984.926 3416.81 980.884 3404.67 977.921 3392.26C977.921 3391.99 977.921 3391.99 977.921 3391.72C977.382 3391.99 976.574 3391.72 976.304 3390.91C971.186 3377.42 961.218 3365.27 954.482 3352.32C947.208 3338.83 939.395 3326.15 928.888 3314.81C921.614 3306.99 913.263 3299.97 905.45 3292.69C896.829 3287.83 890.093 3280.27 882.819 3273.53C882.28 3273.26 883.089 3272.45 883.358 3272.99C888.746 3277.57 893.865 3282.16 899.253 3286.48C889.285 3275.96 880.395 3264.35 871.235 3253.29C870.696 3252.48 871.773 3251.4 872.582 3252.21C883.897 3265.16 894.673 3278.65 906.527 3291.07C916.765 3301.59 928.08 3310.5 937.779 3321.56C939.126 3323.18 940.742 3325.07 942.089 3326.96C934.815 3308.88 925.386 3292.96 911.916 3278.38C900.061 3265.16 881.472 3248.7 864.499 3242.76C853.184 3238.72 867.463 3260.03 869.079 3262.19C873.929 3269.21 879.586 3275.42 884.975 3281.89C896.829 3297.54 914.879 3304.56 929.158 3317.51C929.966 3318.32 928.888 3319.94 927.811 3319.4C899.253 3300.51 864.23 3278.11 855.07 3242.5C854.801 3241.69 855.339 3240.88 856.148 3240.88C873.39 3238.99 891.979 3258.15 903.564 3268.67C922.961 3285.67 937.509 3308.61 944.784 3333.16V3333.43C949.902 3340.99 954.213 3349.35 958.523 3357.18C963.642 3366.62 970.377 3375.26 975.496 3384.97C971.186 3367.16 967.414 3349.08 963.912 3331C963.642 3331 963.373 3330.73 963.373 3330.46C963.373 3329.65 963.373 3329.11 963.373 3328.58C962.026 3322.37 960.679 3315.89 959.332 3309.69C957.715 3302.13 956.638 3294.57 955.829 3287.02C951.519 3276.23 948.016 3265.16 944.784 3254.1C944.514 3253.56 945.592 3253.29 945.592 3253.83C948.555 3262.19 952.058 3270.56 954.752 3278.92C953.135 3261.11 952.058 3243.57 948.016 3226.3C948.016 3225.76 948.825 3225.49 948.825 3226.03C954.213 3245.19 954.482 3265.43 956.638 3285.13C957.176 3287.02 957.715 3288.91 957.985 3290.8C957.985 3291.34 957.715 3291.61 957.446 3291.34C957.985 3295.11 958.793 3299.16 959.601 3302.94C960.948 3308.88 962.295 3314.54 963.373 3320.48C963.912 3314.54 965.259 3309.15 966.875 3302.94C969.569 3290.53 969.03 3277.57 967.683 3264.89C965.528 3247.62 963.912 3223.61 951.788 3209.84C946.131 3203.37 938.318 3238.72 938.048 3241.15C937.509 3252.21 940.204 3263.54 943.167 3274.34C948.555 3293.5 958.793 3311.31 963.103 3330.46C963.373 3331.81 961.756 3332.08 961.218 3331C945.322 3292.96 921.075 3241.96 948.016 3204.45C948.286 3203.91 949.094 3203.91 949.633 3204.18C963.373 3211.19 965.797 3234.13 967.953 3247.62C969.569 3258.42 971.186 3268.94 971.455 3279.73C971.994 3295.65 965.797 3310.23 964.989 3325.88C969.839 3348 974.688 3370.13 980.076 3391.99C987.62 3422.21 1000.01 3450.81 1011.06 3479.69C1010.52 3469.16 1012.41 3458.1 1013.48 3447.85C1014.56 3437.59 1015.37 3427.34 1015.64 3417.35C1012.67 3383.35 992.2 3351.51 995.702 3316.7C995.702 3315.89 997.049 3316.16 997.049 3316.97C997.588 3339.91 1006.21 3362.31 1011.87 3384.97C1014.02 3352.32 1010.52 3319.13 995.702 3289.72C993.008 3284.32 989.506 3313.73 989.506 3311.58C988.697 3322.64 989.775 3333.7 991.661 3344.77C994.624 3361.77 1002.44 3376.34 1008.63 3392.26C1008.9 3393.07 1007.83 3393.34 1007.56 3392.8C994.624 3374.45 988.697 3350.7 986.811 3328.58C986.273 3322.1 985.195 3284.86 993.277 3282.7C993.816 3282.7 994.355 3282.7 994.624 3283.24C1003.78 3299.97 1009.98 3317.24 1012.67 3336.13C1014.29 3346.65 1014.29 3357.72 1013.48 3368.24C1012.94 3375.53 1014.56 3382.27 1012.67 3389.29C1013.75 3393.61 1014.56 3397.93 1015.37 3401.97C1015.37 3400.08 1015.37 3398.46 1015.37 3396.58C1014.83 3386.59 1016.18 3376.88 1019.14 3367.43C1018.87 3347.73 1020.49 3328.31 1031.26 3311.31C1039.35 3298.35 1052.55 3283.78 1068.71 3282.16C1068.98 3282.16 1069.52 3282.43 1069.79 3282.97C1072.48 3299.43 1064.4 3314.27 1056.59 3328.31C1051.74 3336.94 1047.16 3345.58 1041.77 3353.94C1035.57 3363.12 1026.15 3368.78 1019.95 3377.69C1018.87 3382 1018.33 3386.59 1018.06 3391.72C1017.25 3406.83 1018.6 3421.67 1016.99 3436.78C1016.72 3440.29 1016.18 3443.8 1015.91 3447.31C1021.3 3433.81 1030.73 3424.37 1041.77 3414.66C1050.93 3406.56 1060.36 3399.27 1068.71 3390.37C1075.18 3383.35 1079.22 3375.8 1087.3 3370.67C1088.38 3370.13 1089.19 3371.48 1088.38 3372.29C1074.1 3381.46 1065.48 3398.2 1052.01 3408.72C1052.01 3408.72 1052.01 3408.72 1051.74 3408.99C1057.67 3406.02 1063.59 3403.59 1068.44 3398.73C1068.71 3398.46 1069.25 3399 1068.98 3399.27C1063.59 3404.94 1056.05 3409.8 1048.24 3411.69C1040.69 3417.89 1033.96 3424.1 1028.03 3431.12C1041.5 3423.29 1053.89 3417.89 1066.02 3407.1C1078.95 3395.77 1087.57 3380.66 1094.31 3365C1098.08 3356.37 1069.25 3369.86 1068.98 3369.86C1061.71 3373.91 1055.51 3380.12 1050.12 3386.32C1038.27 3399.27 1032.88 3414.93 1025.61 3430.31C1025.34 3430.85 1024.26 3430.58 1024.53 3429.77C1031.8 3395.77 1061.17 3360.69 1097.27 3359.34C1098.08 3359.34 1098.62 3360.15 1098.35 3360.96C1091.88 3377.42 1083.53 3391.72 1071.41 3404.67C1058.2 3418.7 1043.39 3425.72 1026.15 3433.54C1026.15 3433.54 1026.15 3433.54 1025.88 3433.54C1021.57 3439.21 1018.06 3445.15 1015.1 3452.43C1013.75 3464.31 1012.67 3476.45 1014.02 3488.32C1022.64 3511.26 1029.92 3534.47 1032.88 3558.75C1033.15 3560.64 1030.19 3560.64 1029.92 3558.75C1027.49 3542.29 1023.45 3526.1 1018.33 3510.45C1014.02 3502.35 1004.32 3496.15 996.241 3491.29C995.971 3491.29 995.702 3491.29 995.702 3491.29C989.506 3486.97 978.729 3490.48 972.263 3492.1C966.336 3493.72 961.217 3496.69 955.56 3498.58C955.021 3498.85 954.752 3498.04 955.021 3497.77C959.062 3492.1 970.916 3490.21 977.113 3488.86C980.884 3488.05 986.003 3486.97 990.314 3487.78C990.044 3487.51 989.775 3487.51 989.506 3487.24C988.967 3486.97 988.428 3486.7 987.889 3486.43C974.419 3481.31 952.866 3484.01 948.825 3498.58C947.478 3502.89 946.131 3507.48 953.135 3506.13C958.254 3505.05 963.103 3502.62 967.414 3500.2C974.419 3496.42 980.884 3492.37 988.697 3490.21C989.775 3489.94 990.044 3491.29 989.236 3491.83C975.227 3497.5 962.565 3507.75 947.208 3509.37C946.669 3509.37 946.131 3508.83 946.131 3508.29C945.861 3498.85 947.747 3489.94 957.446 3486.16C964.989 3483.2 973.88 3481.85 981.962 3483.47C970.108 3476.72 958.254 3469.97 946.131 3463.5C945.861 3463.23 945.861 3462.69 946.4 3462.69C958.523 3466.47 969.839 3472.94 980.884 3479.69C972.802 3464.04 950.98 3455.94 934.546 3454.59C929.966 3454.32 925.117 3453.51 928.35 3459.18C931.044 3464.04 935.624 3467.81 940.204 3471.05C948.825 3476.99 959.601 3471.86 968.222 3476.72C969.03 3476.99 968.492 3478.07 967.683 3478.07C957.715 3476.18 948.016 3478.61 938.856 3473.48C932.121 3469.43 925.655 3462.42 923.77 3454.59C923.5 3454.05 923.77 3453.24 924.578 3453.24C943.706 3449.47 976.035 3460.8 982.501 3481.04C987.889 3484.55 993.277 3487.78 998.396 3491.29C1004.05 3494.8 1011.33 3499.39 1016.45 3505.05C1008.9 3482.39 999.474 3459.99 991.122 3437.32C986.273 3431.12 979.537 3428.15 974.419 3422.21C971.994 3420.32 969.3 3418.97 966.606 3417.89C956.907 3419.24 947.208 3425.99 937.24 3427.34C927.272 3428.69 916.495 3429.23 906.527 3428.96C890.632 3428.69 876.353 3422.75 868.81 3408.45C869.079 3406.83 869.349 3406.02 870.157 3405.75ZM1044.73 3345.31C1053.63 3330.73 1063.05 3315.35 1067.9 3298.89C1072.21 3283.78 1063.59 3283.51 1053.09 3290.8C1044.47 3296.73 1037.46 3306.45 1031.8 3315.08C1023.18 3328.85 1022.64 3344.77 1022.37 3360.42C1022.37 3360.42 1022.37 3360.15 1022.64 3360.15C1025.07 3354.48 1028.03 3349.62 1030.99 3344.77C1031.53 3342.07 1032.34 3339.1 1032.88 3336.4C1034.23 3331 1035.31 3325.61 1036.11 3320.21C1036.11 3319.67 1036.92 3319.94 1036.92 3320.21C1036.92 3326.15 1036.11 3332.62 1034.77 3338.83C1039.62 3330.73 1044.2 3322.64 1045.27 3312.11C1045.27 3311.31 1046.89 3311.31 1046.89 3312.38C1046.62 3322.91 1042.58 3331.27 1037.46 3340.18C1030.99 3351.24 1025.61 3360.69 1022.37 3371.48C1028.57 3362.31 1038.81 3355.02 1044.73 3345.31ZM878.239 3416C889.824 3428.15 911.646 3426.53 927.002 3424.64C939.126 3423.29 949.363 3422.21 960.409 3416.27C960.948 3416 961.487 3415.73 961.756 3415.47C953.405 3414.12 944.514 3414.66 936.432 3414.39C921.075 3413.85 905.18 3414.39 890.632 3409.26C890.093 3408.99 890.363 3408.18 890.902 3408.45C907.336 3411.69 924.039 3413.04 940.742 3413.31C935.624 3411.69 931.044 3408.45 926.733 3406.02C926.464 3405.75 926.733 3405.21 927.002 3405.48C929.966 3406.83 932.929 3408.18 935.624 3409.26C938.856 3410.61 942.359 3411.69 945.592 3413.31C945.592 3413.31 945.861 3413.31 945.861 3413.58C947.747 3413.58 949.363 3413.58 951.249 3413.58C953.674 3413.58 956.368 3413.58 958.793 3413.85C950.711 3411.96 943.706 3407.64 936.162 3403.86C922.692 3397.12 909.221 3399.27 894.943 3402.51C886.052 3404.13 867.463 3404.4 878.239 3416Z" fill="#E0BBA9"/>
<path d="M956.099 3231.43C960.679 3246.81 960.948 3263.27 960.14 3279.19C960.14 3279.73 959.332 3279.73 959.332 3279.19C958.523 3263 958.523 3247.35 955.56 3231.43C955.56 3231.16 956.099 3231.16 956.099 3231.43Z" fill="#E0BBA9"/>
<path d="M888.477 3263C897.906 3272.99 906.527 3283.78 914.879 3294.3C915.148 3294.57 914.61 3295.11 914.34 3294.84C904.911 3285.13 895.751 3274.34 887.938 3263.54C887.669 3263 888.208 3262.73 888.477 3263Z" fill="#E0BBA9"/>
<path d="M902.756 3360.42C894.943 3354.21 887.399 3347.73 880.125 3341.26C879.586 3340.99 880.395 3340.18 880.664 3340.72C888.207 3347.19 896.29 3353.13 903.294 3360.15C903.833 3360.42 903.294 3360.96 902.756 3360.42Z" fill="#E0BBA9"/>
<path d="M900.331 3406.56C908.413 3407.64 916.765 3407.91 924.308 3410.61C924.847 3410.88 924.578 3411.42 924.039 3411.42C915.957 3410.07 908.144 3408.72 900.061 3407.64C899.523 3407.64 899.792 3406.56 900.331 3406.56Z" fill="#E0BBA9"/>
<path d="M957.715 3472.13C950.441 3470.51 942.898 3465.66 938.318 3459.99C938.048 3459.72 938.587 3459.18 938.857 3459.45C941.82 3461.88 944.784 3464.31 948.286 3466.47C951.519 3468.35 954.752 3469.7 957.985 3471.32C958.523 3471.59 958.254 3472.4 957.715 3472.13Z" fill="#E0BBA9"/>
<path d="M1055.24 3300.24C1055.51 3299.97 1056.05 3299.97 1056.05 3300.51C1052.28 3311.31 1052.01 3323.99 1046.08 3333.7C1045.81 3334.24 1044.73 3333.97 1045 3333.43C1048.51 3322.64 1050.12 3310.5 1055.24 3300.24Z" fill="#E0BBA9"/>
<path d="M1078.14 3372.83C1072.21 3381.73 1062.52 3386.86 1055.51 3394.69C1055.24 3394.96 1054.7 3394.69 1054.97 3394.15C1060.9 3385.24 1071.41 3380.93 1077.33 3372.29C1077.6 3371.75 1078.41 3372.29 1078.14 3372.83Z" fill="#E0BBA9"/>
<path d="M998.127 3306.18C1000.55 3316.97 1003.25 3328.04 1004.05 3339.1C1004.05 3339.64 1003.25 3339.91 1002.98 3339.37C1000.55 3328.57 999.204 3317.51 997.049 3306.45C997.049 3305.91 997.857 3305.64 998.127 3306.18Z" fill="#E0BBA9"/>
</svg>
