<svg width="223" height="62" viewBox="0 0 223 62" fill="none" xmlns="http://www.w3.org/2000/svg">
<path d="M219 17.4C217.4 14.3 212.8 17 214.3 20.1C217.6 26.6 218.4 33.6 213.5 39.5C209.3 44.6 202.8 47.5 196.6 49.4C189.7 51.5 182.4 52.5 175.2 52.4C172 52.3 169 51.8 166 51C167.9 49.6 169.8 48.2 171.6 46.8C178.1 41.6 181.1 34 176.4 26.4C171.3 18.1 160.7 16 151.7 15C146 14.4 140.3 14.3 134.5 14.6C133.6 12 132 9.60001 129.6 7.70001C121.8 1.20001 109.7 0.500014 100 0.500014C85.8 0.400014 72.4 3.90001 59.2 8.90001C36.8 17.5 11.1 30.2 1.09997 53.6C-0.200026 56.8 4.39997 59.5 5.79997 56.3C13.1 39.1 29.6 28.3 45.9 20.4C64.4 11.5 84.2 4.70001 105 6.00001C112.4 6.40001 122.7 7.20001 127.8 13.4C128.2 13.9 128.6 14.4 128.9 15C124.5 15.4 120.1 15.9 115.8 16.6C103.2 18.4 91.4 22.9 79.8 28.2C72.1 31.8 62 37.4 61.3 47.2C60.6 57.2 70.4 58.8 78.3 58.8C89.5 58.7 100.3 54.4 109.9 49C118.2 44.3 128.3 38.4 133 29.7C134.7 26.6 135.5 23.3 135.5 20C140.3 19.8 145 19.9 149.8 20.3C158 21.1 174.4 23.7 173.3 35.4C172.9 39.7 169.2 42.2 166 44.5C163.8 46.1 161.6 47.7 159.3 49.1C156.5 48.2 153.7 47.3 150.7 46.6C144.9 45.2 133.7 44.2 130.3 50.7C128.9 53.3 129.5 56.5 131.4 58.7C134.4 62.1 140.5 61.7 144.6 61.1C150 60.3 155.1 58.1 159.9 55.3C162.3 56.1 164.7 56.9 167.3 57.3C172.2 58.1 177.2 58.2 182.2 57.8C193.4 56.9 205.6 53.9 214.4 46.4C223.5 38.6 224.3 27.7 219 17.4ZM118 37.3C110.3 42.8 101.8 47.9 92.7 50.8C87.5 52.5 64.2 57.6 66.9 46.3C69.2 36.5 82.9 32.3 91 29C100.5 25.1 110.2 22.5 120.4 21.2C123.7 20.8 127 20.4 130.4 20.1C130.3 27 123.3 33.6 118 37.3ZM139.4 55.8C136.2 55.6 133.6 53 137.8 51.6C139.7 50.9 141.9 50.8 143.9 50.9C147 51 150 51.7 152.9 52.7C148.7 54.6 144.1 56 139.4 55.8Z" fill="#884936"/>
</svg>
