<svg width="42" height="57" viewBox="0 0 42 57" fill="none" xmlns="http://www.w3.org/2000/svg">
<path d="M40.3 8.50001C38.5 3.50001 32.9 -1.39999 27.3 0.400006C22.9 1.80001 20.5 6.60001 18.5 10.9C15.9 7.10001 13.6 2.80001 7.79998 5.10001C0.699981 7.90001 -0.500028 17.3 0.399972 23.9C1.59997 32.7 6.49998 40.1 11 47.5C13 50.8 16.2 60.1 21.3 55C24.4 51.8 26.5 46.6 28.8 42.8C31.1 38.9 33.3 35 35.3 31C38.7 24.2 43.1 16.2 40.3 8.50001ZM20.7 45.9C20.2 46.7 18.8 48.3 18.7 49.2C17.8 47.4 16.3 45.5 15.3 43.9C12.4 39.2 9.29997 34.5 7.39997 29.3C5.69997 24.6 3.89998 16.2 7.79998 12C12.3 7.20001 14.5 15 17.3 17.7C17.9 18.2 18.5 18.5 19.1 18.5C20 18.6 21 18.3 21.6 17.2C23.2 14.2 24.4 10.9 26.4 8.10001C28.3 5.50001 31.1 4.60001 33.6 7.20001C36 9.70001 36.3 13.4 35.6 16.7C33.3 26.9 26 37.1 20.7 45.9Z" fill="#884936"/>
</svg>
