<svg width="222" height="62" viewBox="0 0 222 62" fill="none" xmlns="http://www.w3.org/2000/svg">
<path d="M171 12C149.8 3.00001 125.6 -3.79999 102.6 2.70001C96.1999 4.50001 89.9999 8.20001 87.5999 14.5C77.1999 14 65.3999 14.2 55.6999 18.4C47.9999 21.7 41.3999 29.6 44.0999 38.4C45.6999 43.6 50.7999 47.9 56.1999 51.3C55.5999 51.4 55.0999 51.6 54.4999 51.7C46.7999 53.2 38.5999 52.5 30.9999 50.8C15.9999 47.6 -1.0001 37.6 7.9999 20.2C9.5999 17.1 4.8999 14.4 3.2999 17.5C-1.3001 26.3 -1.7001 36 5.1999 43.8C11.8999 51.3 22.5999 55 32.2999 56.7C42.5999 58.5 52.4999 58.2 62.4999 55.1C63.2999 55.6 64.1999 56 64.8999 56.4C71.0999 59.7 84.2999 64.9 90.4999 59C96.2999 53.5 90.3999 47.5 84.6999 46.1C77.0999 44.3 70.2999 46.9 63.3999 49.3C61.1999 47.9 59.0999 46.4 57.0999 44.9C54.0999 42.7 50.0999 40.3 49.1999 36.4C47.6999 30.8 52.3999 26 56.9999 23.7C65.6999 19.5 76.6999 19.5 86.1999 19.8C86.2999 19.8 86.4999 19.8 86.5999 19.8C86.4999 28.1 92.5999 35.1 98.8999 40C107.7 46.7 117.6 52.6 128.1 56C136.1 58.6 149.3 61.3 156.9 56.2C164.7 51 159.6 41 154.8 35.8C151.4 32.1 146.9 30.2 142.4 28.1C136.8 25.5 131.2 23.1 125.3 21.1C115.1 17.6 104.4 15.8 93.5999 15C95.5999 11.7 99.4999 9.20001 103.9 8.00001C125.5 1.90001 148.5 8.40001 168.4 16.9C187.3 24.9 207.8 36.5 216.3 56.3C217.7 59.5 222.3 56.7 221 53.6C212.3 32.7 190.8 20.4 171 12ZM77.4999 50.8C79.3999 50.7 81.3999 50.7 83.1999 51.2C84.0999 51.4 85.2999 51.5 85.9999 52.2C88.0999 54.2 85.0999 55.7 82.8999 55.8C78.0999 56 73.5999 54.7 69.3999 52.7C72.0999 51.8 74.7999 51 77.4999 50.8ZM146 35.8C149.7 37.7 153.3 41.2 154.9 45.2C157.9 53 149.3 53.3 143.9 53.3C134 53.2 124.4 49.4 115.9 44.6C108.1 40.2 98.3999 34.9 93.8999 26.8C92.5999 24.4 92.0999 22.2 92.0999 20.2C111.1 21.7 128.9 26.9 146 35.8Z" fill="#884936"/>
</svg>
